<svg width="596" height="69" viewBox="0 0 596 69" fill="none" xmlns="http://www.w3.org/2000/svg">
<rect width="596" height="69" rx="10" fill="#954DD1"/>
<path d="M204.529 41.19C206.714 41.19 208.576 40.411 209.811 38.967L208.215 37.447C207.246 38.511 206.049 39.024 204.662 39.024C201.907 39.024 199.912 37.086 199.912 34.35C199.912 31.614 201.907 29.676 204.662 29.676C206.049 29.676 207.246 30.189 208.215 31.234L209.811 29.733C208.576 28.289 206.714 27.51 204.548 27.51C200.463 27.51 197.423 30.379 197.423 34.35C197.423 38.321 200.463 41.19 204.529 41.19ZM225.249 41L222.19 36.63C223.995 35.927 225.021 34.445 225.021 32.431C225.021 29.486 222.855 27.7 219.359 27.7H213.887V41H216.357V37.124H219.359C219.53 37.124 219.701 37.124 219.872 37.105L222.589 41H225.249ZM222.532 32.431C222.532 34.103 221.411 35.091 219.245 35.091H216.357V29.79H219.245C221.411 29.79 222.532 30.759 222.532 32.431ZM231.965 38.929V35.262H238.387V33.229H231.965V29.771H239.204V27.7H229.495V41H239.47V38.929H231.965ZM253.889 41H256.473L250.469 27.7H248.037L242.052 41H244.598L245.909 37.922H252.559L253.889 41ZM246.745 35.984L249.234 30.17L251.742 35.984H246.745ZM261.905 41H264.375V29.79H268.783V27.7H257.497V29.79H261.905V41ZM274.816 38.929V35.262H281.238V33.229H274.816V29.771H282.055V27.7H272.346V41H282.321V38.929H274.816ZM303.702 41H306.286L300.282 27.7H297.85L291.865 41H294.411L295.722 37.922H302.372L303.702 41ZM296.558 35.984L299.047 30.17L301.555 35.984H296.558ZM315.658 41.19C317.843 41.19 319.705 40.411 320.94 38.967L319.344 37.447C318.375 38.511 317.178 39.024 315.791 39.024C313.036 39.024 311.041 37.086 311.041 34.35C311.041 31.614 313.036 29.676 315.791 29.676C317.178 29.676 318.375 30.189 319.344 31.234L320.94 29.733C319.705 28.289 317.843 27.51 315.677 27.51C311.592 27.51 308.552 30.379 308.552 34.35C308.552 38.321 311.592 41.19 315.658 41.19ZM330.894 41.19C333.079 41.19 334.941 40.411 336.176 38.967L334.58 37.447C333.611 38.511 332.414 39.024 331.027 39.024C328.272 39.024 326.277 37.086 326.277 34.35C326.277 31.614 328.272 29.676 331.027 29.676C332.414 29.676 333.611 30.189 334.58 31.234L336.176 29.733C334.941 28.289 333.079 27.51 330.913 27.51C326.828 27.51 323.788 30.379 323.788 34.35C323.788 38.321 326.828 41.19 330.894 41.19ZM346.187 41.19C350.31 41.19 353.35 38.302 353.35 34.35C353.35 30.398 350.31 27.51 346.187 27.51C342.064 27.51 339.024 30.417 339.024 34.35C339.024 38.283 342.064 41.19 346.187 41.19ZM346.187 39.024C343.508 39.024 341.513 37.067 341.513 34.35C341.513 31.633 343.508 29.676 346.187 29.676C348.866 29.676 350.861 31.633 350.861 34.35C350.861 37.067 348.866 39.024 346.187 39.024ZM363.398 41.19C367.027 41.19 369.212 39.081 369.212 35.205V27.7H366.78V35.11C366.78 37.846 365.564 39.024 363.417 39.024C361.27 39.024 360.035 37.846 360.035 35.11V27.7H357.565V35.205C357.565 39.081 359.75 41.19 363.398 41.19ZM383.748 27.7V36.706L376.414 27.7H374.381V41H376.832V31.994L384.166 41H386.199V27.7H383.748ZM394.171 41H396.641V29.79H401.049V27.7H389.763V29.79H394.171V41Z" fill="white"/>
</svg>
