<svg width="596" height="69" viewBox="0 0 596 69" fill="none" xmlns="http://www.w3.org/2000/svg">
<rect width="596" height="69" rx="10" fill="#5A0090"/>
<path d="M266.604 38.929V35.262H273.026V33.229H266.604V29.771H273.843V27.7H264.134V41H274.109V38.929H266.604ZM287.94 27.7V36.706L280.606 27.7H278.573V41H281.024V31.994L288.358 41H290.391V27.7H287.94ZM298.363 41H300.833V29.79H305.241V27.7H293.955V29.79H298.363V41ZM311.274 38.929V35.262H317.696V33.229H311.274V29.771H318.513V27.7H308.804V41H318.779V38.929H311.274ZM334.605 41L331.546 36.63C333.351 35.927 334.377 34.445 334.377 32.431C334.377 29.486 332.211 27.7 328.715 27.7H323.243V41H325.713V37.124H328.715C328.886 37.124 329.057 37.124 329.228 37.105L331.945 41H334.605ZM331.888 32.431C331.888 34.103 330.767 35.091 328.601 35.091H325.713V29.79H328.601C330.767 29.79 331.888 30.759 331.888 32.431Z" fill="white"/>
</svg>
