<svg width="1111" height="49" viewBox="0 0 1111 49" fill="none" xmlns="http://www.w3.org/2000/svg">
<path d="M44.865 21.317V19.9H38.222V29H39.912V25.516H44.306V24.086H39.912V21.317H44.865ZM46.8893 29H48.5793V19.9H46.8893V29ZM59.2047 29L57.1117 26.01C58.3467 25.529 59.0487 24.515 59.0487 23.137C59.0487 21.122 57.5667 19.9 55.1747 19.9H51.4307V29H53.1207V26.348H55.1747C55.2917 26.348 55.4087 26.348 55.5257 26.335L57.3847 29H59.2047ZM57.3457 23.137C57.3457 24.281 56.5787 24.957 55.0967 24.957H53.1207V21.33H55.0967C56.5787 21.33 57.3457 21.993 57.3457 23.137ZM71.2875 29L71.2745 19.9H69.8835L66.3345 25.932L62.7205 19.9H61.3295V29H62.9415V23.046L65.9315 27.96H66.6855L69.6755 22.968L69.6885 29H71.2875ZM80.5445 19.9V26.062L75.5265 19.9H74.1355V29H75.8125V22.838L80.8305 29H82.2215V19.9H80.5445ZM86.7399 27.583V25.074H91.1339V23.683H86.7399V21.317H91.6929V19.9H85.0499V29H91.8749V27.583H86.7399ZM96.9699 29.13C99.4659 29.13 100.649 27.882 100.649 26.426C100.649 23.085 95.2539 24.346 95.2539 22.409C95.2539 21.72 95.8259 21.174 97.2299 21.174C98.0229 21.174 98.9199 21.408 99.7389 21.889L100.272 20.576C99.4789 20.056 98.3349 19.77 97.2429 19.77C94.7469 19.77 93.5769 21.018 93.5769 22.487C93.5769 25.867 98.9849 24.58 98.9849 26.543C98.9849 27.219 98.3869 27.726 96.9699 27.726C95.8519 27.726 94.6949 27.31 93.9669 26.725L93.3819 28.038C94.1359 28.688 95.5529 29.13 96.9699 29.13ZM105.536 29.13C108.032 29.13 109.215 27.882 109.215 26.426C109.215 23.085 103.82 24.346 103.82 22.409C103.82 21.72 104.392 21.174 105.796 21.174C106.589 21.174 107.486 21.408 108.305 21.889L108.838 20.576C108.045 20.056 106.901 19.77 105.809 19.77C103.313 19.77 102.143 21.018 102.143 22.487C102.143 25.867 107.551 24.58 107.551 26.543C107.551 27.219 106.953 27.726 105.536 27.726C104.418 27.726 103.261 27.31 102.533 26.725L101.948 28.038C102.702 28.688 104.119 29.13 105.536 29.13Z" fill="#5A0090"/>
<circle cx="180.5" cy="23.5" r="4.75" fill="#5A0090" stroke="#5A0090" stroke-width="1.5"/>
<circle cx="225.233" cy="23.5" r="4.75" fill="#5A0090" stroke="#5A0090" stroke-width="1.5"/>
<circle cx="269.967" cy="23.5" r="4.75" fill="#5A0090" stroke="#5A0090" stroke-width="1.5"/>
<circle cx="314.7" cy="23.5" r="4.75" fill="#5A0090" stroke="#5A0090" stroke-width="1.5"/>
<g opacity="0.8">
<path fill-rule="evenodd" clip-rule="evenodd" d="M12 11C15.64 11 18.67 13.59 19.35 17.04C21.95 17.22 24 19.36 24 22C24 24.76 21.76 27 19 27H6C2.69 27 0 24.31 0 21C0 17.91 2.34 15.36 5.35 15.04C6.6 12.64 9.11 11 12 11ZM6 25H19C20.66 25 22 23.66 22 22C22 20.34 20.66 19 19 19H17.5V18.5C17.5 15.46 15.04 13 12 13C9.48 13 7.37 14.69 6.71 17H6C3.79 17 2 18.79 2 21C2 23.21 3.79 25 6 25Z" fill="#5A0090"/>
<path fill-rule="evenodd" clip-rule="evenodd" d="M12 11C15.64 11 18.67 13.59 19.35 17.04C21.95 17.22 24 19.36 24 22C24 24.76 21.76 27 19 27H6C2.69 27 0 24.31 0 21C0 17.91 2.34 15.36 5.35 15.04C6.6 12.64 9.11 11 12 11ZM6 25H19C20.66 25 22 23.66 22 22C22 20.34 20.66 19 19 19H17.5V18.5C17.5 15.46 15.04 13 12 13C9.48 13 7.37 14.69 6.71 17H6C3.79 17 2 18.79 2 21C2 23.21 3.79 25 6 25Z" fill="#5A0090"/>
</g>
<path d="M439.865 21.317V19.9H433.222V29H434.912V25.516H439.306V24.086H434.912V21.317H439.865ZM441.889 29H443.579V19.9H441.889V29ZM454.205 29L452.112 26.01C453.347 25.529 454.049 24.515 454.049 23.137C454.049 21.122 452.567 19.9 450.175 19.9H446.431V29H448.121V26.348H450.175C450.292 26.348 450.409 26.348 450.526 26.335L452.385 29H454.205ZM452.346 23.137C452.346 24.281 451.579 24.957 450.097 24.957H448.121V21.33H450.097C451.579 21.33 452.346 21.993 452.346 23.137ZM466.288 29L466.275 19.9H464.884L461.335 25.932L457.721 19.9H456.33V29H457.942V23.046L460.932 27.96H461.686L464.676 22.968L464.689 29H466.288ZM475.545 19.9V26.062L470.527 19.9H469.136V29H470.813V22.838L475.831 29H477.222V19.9H475.545ZM481.74 27.583V25.074H486.134V23.683H481.74V21.317H486.693V19.9H480.05V29H486.875V27.583H481.74ZM491.97 29.13C494.466 29.13 495.649 27.882 495.649 26.426C495.649 23.085 490.254 24.346 490.254 22.409C490.254 21.72 490.826 21.174 492.23 21.174C493.023 21.174 493.92 21.408 494.739 21.889L495.272 20.576C494.479 20.056 493.335 19.77 492.243 19.77C489.747 19.77 488.577 21.018 488.577 22.487C488.577 25.867 493.985 24.58 493.985 26.543C493.985 27.219 493.387 27.726 491.97 27.726C490.852 27.726 489.695 27.31 488.967 26.725L488.382 28.038C489.136 28.688 490.553 29.13 491.97 29.13ZM500.536 29.13C503.032 29.13 504.215 27.882 504.215 26.426C504.215 23.085 498.82 24.346 498.82 22.409C498.82 21.72 499.392 21.174 500.796 21.174C501.589 21.174 502.486 21.408 503.305 21.889L503.838 20.576C503.045 20.056 501.901 19.77 500.809 19.77C498.313 19.77 497.143 21.018 497.143 22.487C497.143 25.867 502.551 24.58 502.551 26.543C502.551 27.219 501.953 27.726 500.536 27.726C499.418 27.726 498.261 27.31 497.533 26.725L496.948 28.038C497.702 28.688 499.119 29.13 500.536 29.13Z" fill="#5A0090"/>
<circle cx="575.5" cy="23.5" r="4.75" fill="#5A0090" stroke="#5A0090" stroke-width="1.5"/>
<circle cx="620.233" cy="23.5" r="4.75" fill="#5A0090" stroke="#5A0090" stroke-width="1.5"/>
<circle cx="664.967" cy="23.5" r="4.75" stroke="#5A0090" stroke-opacity="0.35" stroke-width="1.5"/>
<circle cx="709.7" cy="23.5" r="4.75" stroke="#5A0090" stroke-opacity="0.35" stroke-width="1.5"/>
<g opacity="0.8">
<path fill-rule="evenodd" clip-rule="evenodd" d="M407 16C410.64 16 413.67 18.59 414.35 22.04C416.95 22.22 419 24.36 419 27C419 29.76 416.76 32 414 32H401C397.69 32 395 29.31 395 26C395 22.91 397.34 20.36 400.35 20.04C401.6 17.64 404.11 16 407 16ZM401 30H414C415.66 30 417 28.66 417 27C417 25.34 415.66 24 414 24H412.5V23.5C412.5 20.46 410.04 18 407 18C404.48 18 402.37 19.69 401.71 22H401C398.79 22 397 23.79 397 26C397 28.21 398.79 30 401 30Z" fill="#5A0090"/>
<path fill-rule="evenodd" clip-rule="evenodd" d="M407 16C410.64 16 413.67 18.59 414.35 22.04C416.95 22.22 419 24.36 419 27C419 29.76 416.76 32 414 32H401C397.69 32 395 29.31 395 26C395 22.91 397.34 20.36 400.35 20.04C401.6 17.64 404.11 16 407 16ZM401 30H414C415.66 30 417 28.66 417 27C417 25.34 415.66 24 414 24H412.5V23.5C412.5 20.46 410.04 18 407 18C404.48 18 402.37 19.69 401.71 22H401C398.79 22 397 23.79 397 26C397 28.21 398.79 30 401 30Z" fill="#5A0090"/>
</g>
<path d="M834.865 21.317V19.9H828.222V29H829.912V25.516H834.306V24.086H829.912V21.317H834.865ZM836.889 29H838.579V19.9H836.889V29ZM849.205 29L847.112 26.01C848.347 25.529 849.049 24.515 849.049 23.137C849.049 21.122 847.567 19.9 845.175 19.9H841.431V29H843.121V26.348H845.175C845.292 26.348 845.409 26.348 845.526 26.335L847.385 29H849.205ZM847.346 23.137C847.346 24.281 846.579 24.957 845.097 24.957H843.121V21.33H845.097C846.579 21.33 847.346 21.993 847.346 23.137ZM861.288 29L861.275 19.9H859.884L856.335 25.932L852.721 19.9H851.33V29H852.942V23.046L855.932 27.96H856.686L859.676 22.968L859.689 29H861.288ZM870.545 19.9V26.062L865.527 19.9H864.136V29H865.813V22.838L870.831 29H872.222V19.9H870.545ZM876.74 27.583V25.074H881.134V23.683H876.74V21.317H881.693V19.9H875.05V29H881.875V27.583H876.74ZM886.97 29.13C889.466 29.13 890.649 27.882 890.649 26.426C890.649 23.085 885.254 24.346 885.254 22.409C885.254 21.72 885.826 21.174 887.23 21.174C888.023 21.174 888.92 21.408 889.739 21.889L890.272 20.576C889.479 20.056 888.335 19.77 887.243 19.77C884.747 19.77 883.577 21.018 883.577 22.487C883.577 25.867 888.985 24.58 888.985 26.543C888.985 27.219 888.387 27.726 886.97 27.726C885.852 27.726 884.695 27.31 883.967 26.725L883.382 28.038C884.136 28.688 885.553 29.13 886.97 29.13ZM895.536 29.13C898.032 29.13 899.215 27.882 899.215 26.426C899.215 23.085 893.82 24.346 893.82 22.409C893.82 21.72 894.392 21.174 895.796 21.174C896.589 21.174 897.486 21.408 898.305 21.889L898.838 20.576C898.045 20.056 896.901 19.77 895.809 19.77C893.313 19.77 892.143 21.018 892.143 22.487C892.143 25.867 897.551 24.58 897.551 26.543C897.551 27.219 896.953 27.726 895.536 27.726C894.418 27.726 893.261 27.31 892.533 26.725L891.948 28.038C892.702 28.688 894.119 29.13 895.536 29.13Z" fill="#5A0090"/>
<circle cx="970.5" cy="23.5" r="4.75" fill="#5A0090" stroke="#5A0090" stroke-width="1.5"/>
<circle cx="1015.23" cy="23.5" r="4.75" stroke="#5A0090" stroke-opacity="0.35" stroke-width="1.5"/>
<circle cx="1059.97" cy="23.5" r="4.75" stroke="#5A0090" stroke-opacity="0.35" stroke-width="1.5"/>
<circle cx="1104.7" cy="23.5" r="4.75" stroke="#5A0090" stroke-opacity="0.35" stroke-width="1.5"/>
<g opacity="0.8">
<path fill-rule="evenodd" clip-rule="evenodd" d="M802 16C805.64 16 808.67 18.59 809.35 22.04C811.95 22.22 814 24.36 814 27C814 29.76 811.76 32 809 32H796C792.69 32 790 29.31 790 26C790 22.91 792.34 20.36 795.35 20.04C796.6 17.64 799.11 16 802 16ZM796 30H809C810.66 30 812 28.66 812 27C812 25.34 810.66 24 809 24H807.5V23.5C807.5 20.46 805.04 18 802 18C799.48 18 797.37 19.69 796.71 22H796C793.79 22 792 23.79 792 26C792 28.21 793.79 30 796 30Z" fill="#5A0090"/>
<path fill-rule="evenodd" clip-rule="evenodd" d="M802 16C805.64 16 808.67 18.59 809.35 22.04C811.95 22.22 814 24.36 814 27C814 29.76 811.76 32 809 32H796C792.69 32 790 29.31 790 26C790 22.91 792.34 20.36 795.35 20.04C796.6 17.64 799.11 16 802 16ZM796 30H809C810.66 30 812 28.66 812 27C812 25.34 810.66 24 809 24H807.5V23.5C807.5 20.46 805.04 18 802 18C799.48 18 797.37 19.69 796.71 22H796C793.79 22 792 23.79 792 26C792 28.21 793.79 30 796 30Z" fill="#5A0090"/>
</g>
</svg>
