<svg width="220" height="41" viewBox="0 0 220 41" fill="none" xmlns="http://www.w3.org/2000/svg">
<path d="M22.0411 23.466C22.0411 25.062 21.5091 26.392 20.4451 27.456C19.3811 28.52 18.0511 29.052 16.4551 29.052H11.8771V34.764C11.8771 36.36 11.3451 37.676 10.2811 38.712C9.21707 39.776 7.88707 40.308 6.29107 40.308C4.69507 40.308 3.36507 39.776 2.30107 38.712C1.26507 37.676 0.74707 36.36 0.74707 34.764V12.462C0.74707 9.13 1.88107 6.33 4.14907 4.062C6.41707 1.794 9.21707 0.659998 12.5491 0.659998H16.4551C18.0511 0.659998 19.3811 1.192 20.4451 2.256C21.5091 3.292 22.0411 4.608 22.0411 6.204C22.0411 6.932 21.9151 7.632 21.6631 8.304C21.9151 8.976 22.0411 9.676 22.0411 10.404C22.0411 12.28 21.3411 13.764 19.9411 14.856C21.3411 15.92 22.0411 17.39 22.0411 19.266C22.0411 20.022 21.9151 20.722 21.6631 21.366C21.9151 22.038 22.0411 22.738 22.0411 23.466ZM19.3111 19.266C19.3111 18.426 19.0451 17.754 18.5131 17.25C17.9811 16.718 17.2951 16.452 16.4551 16.452H9.14707V12.462C9.14707 11.51 9.46907 10.712 10.1131 10.068C10.7851 9.396 11.5971 9.06 12.5491 9.06H16.4551C17.2951 9.06 17.9811 8.794 18.5131 8.262C19.0451 7.73 19.3111 7.044 19.3111 6.204C19.3111 5.364 19.0451 4.692 18.5131 4.188C17.9811 3.656 17.2951 3.39 16.4551 3.39H12.5491C9.94507 3.39 7.77507 4.258 6.03907 5.994C4.33107 7.702 3.47707 9.858 3.47707 12.462V30.564C3.47707 31.404 3.72907 32.09 4.23307 32.622C4.76507 33.126 5.45107 33.378 6.29107 33.378C7.13107 33.378 7.81707 33.126 8.34907 32.622C8.88107 32.09 9.14707 31.404 9.14707 30.564V22.122H16.4551C17.2951 22.122 17.9811 21.856 18.5131 21.324C19.0451 20.792 19.3111 20.106 19.3111 19.266ZM39.8747 34.764C39.8747 36.36 39.3427 37.676 38.2787 38.712C37.2427 39.776 35.9267 40.308 34.3307 40.308H32.4827C29.1507 40.308 26.3507 39.174 24.0827 36.906C21.8147 34.638 20.6807 31.838 20.6807 28.506V6.204C20.6807 4.608 21.1987 3.292 22.2347 2.256C23.2987 1.192 24.6287 0.659998 26.2247 0.659998C27.8207 0.659998 29.1507 1.192 30.2147 2.256C31.2787 3.292 31.8107 4.608 31.8107 6.204V24.306C31.8107 24.754 32.0347 24.978 32.4827 24.978H34.3307C35.9267 24.978 37.2427 25.51 38.2787 26.574C39.3427 27.638 39.8747 28.968 39.8747 30.564C39.8747 31.32 39.7487 32.02 39.4967 32.664C39.7487 33.336 39.8747 34.036 39.8747 34.764ZM37.1447 30.564C37.1447 29.724 36.8787 29.038 36.3467 28.506C35.8427 27.974 35.1707 27.708 34.3307 27.708H32.4827C31.5307 27.708 30.7187 27.386 30.0467 26.742C29.4027 26.07 29.0807 25.258 29.0807 24.306V6.204C29.0807 5.364 28.8147 4.692 28.2827 4.188C27.7507 3.656 27.0647 3.39 26.2247 3.39C25.3847 3.39 24.6987 3.656 24.1667 4.188C23.6627 4.692 23.4107 5.364 23.4107 6.204V24.306C23.4107 26.91 24.2647 29.08 25.9727 30.816C27.7087 32.524 29.8787 33.378 32.4827 33.378H34.3307C35.1707 33.378 35.8427 33.126 36.3467 32.622C36.8787 32.09 37.1447 31.404 37.1447 30.564ZM61.7563 28.506C61.7563 31.81 60.6223 34.596 58.3543 36.864C56.0863 39.16 53.3003 40.308 49.9963 40.308C46.6643 40.308 43.8643 39.174 41.5963 36.906C39.3283 34.638 38.1943 31.838 38.1943 28.506V6.204C38.1943 4.608 38.7123 3.292 39.7483 2.256C40.8123 1.192 42.1423 0.659998 43.7383 0.659998C45.3343 0.659998 46.6643 1.192 47.7283 2.256C48.7923 3.292 49.3243 4.608 49.3243 6.204V24.306C49.3243 24.754 49.5483 24.978 49.9963 24.978C50.4163 24.978 50.6263 24.754 50.6263 24.306V6.162C50.6263 4.594 51.1583 3.278 52.2223 2.214C53.3143 1.122 54.6443 0.575999 56.2123 0.575999C57.8083 0.575999 59.1243 1.108 60.1603 2.172C61.2243 3.236 61.7563 4.566 61.7563 6.162V28.506ZM59.0263 24.306V6.162C59.0263 5.322 58.7603 4.636 58.2283 4.104C57.7243 3.572 57.0523 3.306 56.2123 3.306C55.4003 3.306 54.7143 3.586 54.1543 4.146C53.6223 4.678 53.3563 5.35 53.3563 6.162V24.306C53.3563 25.258 53.0343 26.07 52.3903 26.742C51.7463 27.386 50.9483 27.708 49.9963 27.708C49.0443 27.708 48.2323 27.386 47.5603 26.742C46.9163 26.07 46.5943 25.258 46.5943 24.306V6.204C46.5943 5.364 46.3283 4.692 45.7963 4.188C45.2643 3.656 44.5783 3.39 43.7383 3.39C42.8983 3.39 42.2123 3.656 41.6803 4.188C41.1763 4.692 40.9243 5.364 40.9243 6.204V24.306C40.9243 26.91 41.7783 29.08 43.4863 30.816C45.2223 32.524 47.3923 33.378 49.9963 33.378C52.5723 33.378 54.7143 32.51 56.4223 30.774C58.1583 29.038 59.0263 26.882 59.0263 24.306ZM81.7188 23.466C81.7188 25.062 81.1868 26.392 80.1228 27.456C79.0588 28.52 77.7288 29.052 76.1328 29.052H71.5548V34.764C71.5548 36.36 71.0228 37.676 69.9588 38.712C68.8948 39.776 67.5648 40.308 65.9688 40.308C64.3728 40.308 63.0428 39.776 61.9788 38.712C60.9428 37.676 60.4248 36.36 60.4248 34.764V12.462C60.4248 9.13 61.5588 6.33 63.8268 4.062C66.0948 1.794 68.8948 0.659998 72.2268 0.659998H76.1328C77.7288 0.659998 79.0588 1.192 80.1228 2.256C81.1868 3.292 81.7188 4.608 81.7188 6.204C81.7188 6.932 81.5928 7.632 81.3408 8.304C81.5928 8.976 81.7188 9.676 81.7188 10.404C81.7188 12.28 81.0188 13.764 79.6188 14.856C81.0188 15.92 81.7188 17.39 81.7188 19.266C81.7188 20.022 81.5928 20.722 81.3408 21.366C81.5928 22.038 81.7188 22.738 81.7188 23.466ZM78.9888 19.266C78.9888 18.426 78.7228 17.754 78.1908 17.25C77.6588 16.718 76.9728 16.452 76.1328 16.452H68.8248V12.462C68.8248 11.51 69.1468 10.712 69.7908 10.068C70.4628 9.396 71.2748 9.06 72.2268 9.06H76.1328C76.9728 9.06 77.6588 8.794 78.1908 8.262C78.7228 7.73 78.9888 7.044 78.9888 6.204C78.9888 5.364 78.7228 4.692 78.1908 4.188C77.6588 3.656 76.9728 3.39 76.1328 3.39H72.2268C69.6228 3.39 67.4528 4.258 65.7168 5.994C64.0088 7.702 63.1548 9.858 63.1548 12.462V30.564C63.1548 31.404 63.4068 32.09 63.9108 32.622C64.4428 33.126 65.1288 33.378 65.9688 33.378C66.8088 33.378 67.4948 33.126 68.0268 32.622C68.5588 32.09 68.8248 31.404 68.8248 30.564V22.122H76.1328C76.9728 22.122 77.6588 21.856 78.1908 21.324C78.7228 20.792 78.9888 20.106 78.9888 19.266ZM101.652 23.466C101.652 25.062 101.12 26.392 100.056 27.456C98.9924 28.52 97.6624 29.052 96.0664 29.052H91.4884V34.764C91.4884 36.36 90.9564 37.676 89.8924 38.712C88.8284 39.776 87.4984 40.308 85.9024 40.308C84.3064 40.308 82.9764 39.776 81.9124 38.712C80.8764 37.676 80.3584 36.36 80.3584 34.764V12.462C80.3584 9.13 81.4924 6.33 83.7604 4.062C86.0284 1.794 88.8284 0.659998 92.1604 0.659998H96.0664C97.6624 0.659998 98.9924 1.192 100.056 2.256C101.12 3.292 101.652 4.608 101.652 6.204C101.652 6.932 101.526 7.632 101.274 8.304C101.526 8.976 101.652 9.676 101.652 10.404C101.652 12.28 100.952 13.764 99.5524 14.856C100.952 15.92 101.652 17.39 101.652 19.266C101.652 20.022 101.526 20.722 101.274 21.366C101.526 22.038 101.652 22.738 101.652 23.466ZM98.9224 19.266C98.9224 18.426 98.6564 17.754 98.1244 17.25C97.5924 16.718 96.9064 16.452 96.0664 16.452H88.7584V12.462C88.7584 11.51 89.0804 10.712 89.7244 10.068C90.3964 9.396 91.2084 9.06 92.1604 9.06H96.0664C96.9064 9.06 97.5924 8.794 98.1244 8.262C98.6564 7.73 98.9224 7.044 98.9224 6.204C98.9224 5.364 98.6564 4.692 98.1244 4.188C97.5924 3.656 96.9064 3.39 96.0664 3.39H92.1604C89.5564 3.39 87.3864 4.258 85.6504 5.994C83.9424 7.702 83.0884 9.858 83.0884 12.462V30.564C83.0884 31.404 83.3404 32.09 83.8444 32.622C84.3764 33.126 85.0624 33.378 85.9024 33.378C86.7424 33.378 87.4284 33.126 87.9604 32.622C88.4924 32.09 88.7584 31.404 88.7584 30.564V22.122H96.0664C96.9064 22.122 97.5924 21.856 98.1244 21.324C98.6564 20.792 98.9224 20.106 98.9224 19.266ZM134.889 10.404C134.889 12 134.385 13.302 133.377 14.31C132.397 15.29 131.151 15.836 129.639 15.948L129.513 29.388C129.485 32.44 128.407 35.03 126.279 37.158C124.179 39.286 121.603 40.35 118.551 40.35C116.955 40.35 115.625 39.818 114.561 38.754C113.525 37.718 113.007 36.402 113.007 34.806C113.007 34.078 113.133 33.378 113.385 32.706C113.133 32.034 113.007 31.334 113.007 30.606C113.007 29.038 113.525 27.722 114.561 26.658C115.597 25.594 116.899 25.048 118.467 25.02L118.341 15.822C118.341 15.43 118.355 15.024 118.383 14.604L118.341 11.622C118.285 8.57 119.321 5.98 121.449 3.852C123.605 1.724 126.223 0.659998 129.303 0.659998C130.899 0.659998 132.229 1.192 133.293 2.256C134.357 3.292 134.889 4.608 134.889 6.204C134.889 6.96 134.763 7.674 134.511 8.346C134.763 8.99 134.889 9.676 134.889 10.404ZM132.159 6.204C132.159 5.364 131.893 4.692 131.361 4.188C130.829 3.656 130.143 3.39 129.303 3.39C126.979 3.39 125.019 4.188 123.423 5.784C121.855 7.352 121.071 9.298 121.071 11.622L121.113 25.188C121.113 25.916 120.861 26.532 120.357 27.036C119.881 27.512 119.279 27.75 118.551 27.75C117.711 27.75 117.025 28.016 116.493 28.548C115.989 29.08 115.737 29.766 115.737 30.606C115.737 31.446 115.989 32.132 116.493 32.664C117.025 33.168 117.711 33.42 118.551 33.42C120.847 33.42 122.793 32.636 124.389 31.068C125.985 29.472 126.783 27.512 126.783 25.188L126.741 11.622C126.741 10.054 127.637 9.2 129.429 9.06C131.249 8.892 132.159 7.94 132.159 6.204ZM157.795 10.404C157.795 12 157.263 13.33 156.199 14.394C155.135 15.458 153.805 15.99 152.209 15.99H151.033V34.764C151.033 36.36 150.501 37.676 149.437 38.712C148.401 39.776 147.085 40.308 145.489 40.308C143.893 40.308 142.563 39.776 141.499 38.712C140.435 37.676 139.903 36.36 139.903 34.764V15.99H138.937C137.341 15.99 136.011 15.458 134.947 14.394C133.883 13.33 133.351 12 133.351 10.404C133.351 9.676 133.477 8.976 133.729 8.304C133.477 7.632 133.351 6.932 133.351 6.204C133.351 4.608 133.883 3.292 134.947 2.256C136.011 1.192 137.341 0.659998 138.937 0.659998H152.209C153.805 0.659998 155.135 1.192 156.199 2.256C157.263 3.292 157.795 4.608 157.795 6.204C157.795 6.96 157.669 7.66 157.417 8.304C157.669 8.976 157.795 9.676 157.795 10.404ZM155.065 6.204C155.065 5.364 154.799 4.692 154.267 4.188C153.735 3.656 153.049 3.39 152.209 3.39H138.937C138.097 3.39 137.411 3.656 136.879 4.188C136.347 4.692 136.081 5.364 136.081 6.204C136.081 7.044 136.347 7.73 136.879 8.262C137.411 8.794 138.097 9.06 138.937 9.06H142.633V30.564C142.633 31.404 142.899 32.09 143.431 32.622C143.963 33.126 144.649 33.378 145.489 33.378C146.329 33.378 147.001 33.126 147.505 32.622C148.037 32.09 148.303 31.404 148.303 30.564V9.06H152.209C153.049 9.06 153.735 8.794 154.267 8.262C154.799 7.73 155.065 7.044 155.065 6.204ZM179.717 28.506C179.717 31.81 178.583 34.596 176.315 36.864C174.047 39.16 171.261 40.308 167.957 40.308C164.625 40.308 161.825 39.174 159.557 36.906C157.289 34.638 156.155 31.838 156.155 28.506V6.204C156.155 4.608 156.673 3.292 157.709 2.256C158.773 1.192 160.103 0.659998 161.699 0.659998C163.295 0.659998 164.625 1.192 165.689 2.256C166.753 3.292 167.285 4.608 167.285 6.204V24.306C167.285 24.754 167.509 24.978 167.957 24.978C168.377 24.978 168.587 24.754 168.587 24.306V6.162C168.587 4.594 169.119 3.278 170.183 2.214C171.275 1.122 172.605 0.575999 174.173 0.575999C175.769 0.575999 177.085 1.108 178.121 2.172C179.185 3.236 179.717 4.566 179.717 6.162V28.506ZM176.987 24.306V6.162C176.987 5.322 176.721 4.636 176.189 4.104C175.685 3.572 175.013 3.306 174.173 3.306C173.361 3.306 172.675 3.586 172.115 4.146C171.583 4.678 171.317 5.35 171.317 6.162V24.306C171.317 25.258 170.995 26.07 170.351 26.742C169.707 27.386 168.909 27.708 167.957 27.708C167.005 27.708 166.193 27.386 165.521 26.742C164.877 26.07 164.555 25.258 164.555 24.306V6.204C164.555 5.364 164.289 4.692 163.757 4.188C163.225 3.656 162.539 3.39 161.699 3.39C160.859 3.39 160.173 3.656 159.641 4.188C159.137 4.692 158.885 5.364 158.885 6.204V24.306C158.885 26.91 159.739 29.08 161.447 30.816C163.183 32.524 165.353 33.378 167.957 33.378C170.533 33.378 172.675 32.51 174.383 30.774C176.119 29.038 176.987 26.882 176.987 24.306ZM199.68 23.466C199.68 25.062 199.148 26.392 198.084 27.456C197.02 28.52 195.69 29.052 194.094 29.052H189.516V34.764C189.516 36.36 188.984 37.676 187.92 38.712C186.856 39.776 185.526 40.308 183.93 40.308C182.334 40.308 181.004 39.776 179.94 38.712C178.904 37.676 178.386 36.36 178.386 34.764V12.462C178.386 9.13 179.52 6.33 181.788 4.062C184.056 1.794 186.856 0.659998 190.188 0.659998H194.094C195.69 0.659998 197.02 1.192 198.084 2.256C199.148 3.292 199.68 4.608 199.68 6.204C199.68 6.932 199.554 7.632 199.302 8.304C199.554 8.976 199.68 9.676 199.68 10.404C199.68 12.28 198.98 13.764 197.58 14.856C198.98 15.92 199.68 17.39 199.68 19.266C199.68 20.022 199.554 20.722 199.302 21.366C199.554 22.038 199.68 22.738 199.68 23.466ZM196.95 19.266C196.95 18.426 196.684 17.754 196.152 17.25C195.62 16.718 194.934 16.452 194.094 16.452H186.786V12.462C186.786 11.51 187.108 10.712 187.752 10.068C188.424 9.396 189.236 9.06 190.188 9.06H194.094C194.934 9.06 195.62 8.794 196.152 8.262C196.684 7.73 196.95 7.044 196.95 6.204C196.95 5.364 196.684 4.692 196.152 4.188C195.62 3.656 194.934 3.39 194.094 3.39H190.188C187.584 3.39 185.414 4.258 183.678 5.994C181.97 7.702 181.116 9.858 181.116 12.462V30.564C181.116 31.404 181.368 32.09 181.872 32.622C182.404 33.126 183.09 33.378 183.93 33.378C184.77 33.378 185.456 33.126 185.988 32.622C186.52 32.09 186.786 31.404 186.786 30.564V22.122H194.094C194.934 22.122 195.62 21.856 196.152 21.324C196.684 20.792 196.95 20.106 196.95 19.266ZM219.613 23.466C219.613 25.062 219.081 26.392 218.017 27.456C216.953 28.52 215.623 29.052 214.027 29.052H209.449V34.764C209.449 36.36 208.917 37.676 207.853 38.712C206.789 39.776 205.459 40.308 203.863 40.308C202.267 40.308 200.937 39.776 199.873 38.712C198.837 37.676 198.319 36.36 198.319 34.764V12.462C198.319 9.13 199.453 6.33 201.721 4.062C203.989 1.794 206.789 0.659998 210.121 0.659998H214.027C215.623 0.659998 216.953 1.192 218.017 2.256C219.081 3.292 219.613 4.608 219.613 6.204C219.613 6.932 219.487 7.632 219.235 8.304C219.487 8.976 219.613 9.676 219.613 10.404C219.613 12.28 218.913 13.764 217.513 14.856C218.913 15.92 219.613 17.39 219.613 19.266C219.613 20.022 219.487 20.722 219.235 21.366C219.487 22.038 219.613 22.738 219.613 23.466ZM216.883 19.266C216.883 18.426 216.617 17.754 216.085 17.25C215.553 16.718 214.867 16.452 214.027 16.452H206.719V12.462C206.719 11.51 207.041 10.712 207.685 10.068C208.357 9.396 209.169 9.06 210.121 9.06H214.027C214.867 9.06 215.553 8.794 216.085 8.262C216.617 7.73 216.883 7.044 216.883 6.204C216.883 5.364 216.617 4.692 216.085 4.188C215.553 3.656 214.867 3.39 214.027 3.39H210.121C207.517 3.39 205.347 4.258 203.611 5.994C201.903 7.702 201.049 9.858 201.049 12.462V30.564C201.049 31.404 201.301 32.09 201.805 32.622C202.337 33.126 203.023 33.378 203.863 33.378C204.703 33.378 205.389 33.126 205.921 32.622C206.453 32.09 206.719 31.404 206.719 30.564V22.122H214.027C214.867 22.122 215.553 21.856 216.085 21.324C216.617 20.792 216.883 20.106 216.883 19.266Z" fill="#5A0091"/>
</svg>
