<svg width="1440" height="361" viewBox="0 0 1440 361" fill="none" xmlns="http://www.w3.org/2000/svg">
<rect width="1440" height="361" fill="url(#paint0_linear)"/>
<rect width="1440" height="361" fill="#5A0090"/>
<path fill-rule="evenodd" clip-rule="evenodd" d="M1135 146.4C1135 144.172 1135.88 142.036 1137.46 140.46C1139.04 138.885 1141.17 138 1143.4 138H1168.6C1170.83 138 1172.96 138.885 1174.54 140.46C1176.11 142.036 1177 144.172 1177 146.4V171.6C1177 173.828 1176.11 175.964 1174.54 177.54C1172.96 179.115 1170.83 180 1168.6 180H1143.4C1141.17 180 1139.04 179.115 1137.46 177.54C1135.88 175.964 1135 173.828 1135 171.6V146.4ZM1143.4 142.2C1142.29 142.2 1141.22 142.642 1140.43 143.43C1139.64 144.218 1139.2 145.286 1139.2 146.4V171.6C1139.2 172.714 1139.64 173.782 1140.43 174.57C1141.22 175.357 1142.29 175.8 1143.4 175.8H1168.6C1169.71 175.8 1170.78 175.357 1171.57 174.57C1172.36 173.782 1172.8 172.714 1172.8 171.6V146.4C1172.8 145.286 1172.36 144.218 1171.57 143.43C1170.78 142.642 1169.71 142.2 1168.6 142.2H1143.4ZM1156 152.7C1154.33 152.7 1152.73 153.364 1151.55 154.545C1150.36 155.727 1149.7 157.329 1149.7 159C1149.7 160.671 1150.36 162.273 1151.55 163.455C1152.73 164.636 1154.33 165.3 1156 165.3C1157.67 165.3 1159.27 164.636 1160.45 163.455C1161.64 162.273 1162.3 160.671 1162.3 159C1162.3 157.329 1161.64 155.727 1160.45 154.545C1159.27 153.364 1157.67 152.7 1156 152.7ZM1145.5 159C1145.5 156.215 1146.61 153.545 1148.58 151.575C1150.54 149.606 1153.22 148.5 1156 148.5C1158.78 148.5 1161.46 149.606 1163.42 151.575C1165.39 153.545 1166.5 156.215 1166.5 159C1166.5 161.785 1165.39 164.455 1163.42 166.425C1161.46 168.394 1158.78 169.5 1156 169.5C1153.22 169.5 1150.54 168.394 1148.58 166.425C1146.61 164.455 1145.5 161.785 1145.5 159ZM1167.55 150.6C1168.39 150.6 1169.19 150.268 1169.78 149.677C1170.37 149.087 1170.7 148.285 1170.7 147.45C1170.7 146.615 1170.37 145.813 1169.78 145.223C1169.19 144.632 1168.39 144.3 1167.55 144.3C1166.71 144.3 1165.91 144.632 1165.32 145.223C1164.73 145.813 1164.4 146.615 1164.4 147.45C1164.4 148.285 1164.73 149.087 1165.32 149.677C1165.91 150.268 1166.71 150.6 1167.55 150.6Z" fill="white"/>
<path fill-rule="evenodd" clip-rule="evenodd" d="M1051.94 145.788C1050.98 145.787 1050.04 145.998 1049.18 146.405C1048.32 146.812 1047.56 147.405 1046.96 148.141C1046.36 148.877 1045.92 149.738 1045.69 150.662C1045.46 151.585 1045.44 152.548 1045.63 153.481C1045.69 153.805 1045.68 154.139 1045.59 154.456C1045.5 154.773 1045.34 155.065 1045.11 155.306C1044.89 155.548 1044.61 155.733 1044.3 155.846C1043.99 155.959 1043.66 155.997 1043.33 155.956C1038.85 155.406 1034.63 153.565 1031.18 150.656C1031.24 151.911 1031.68 153.244 1032.62 154.64L1034.04 156.731L1031.71 157.721L1031.26 157.913C1031.6 158.294 1032 158.683 1032.45 159.069C1033.04 159.581 1033.68 160.052 1034.34 160.477L1034.36 160.492H1034.37L1037.59 162.448L1034.22 164.136C1034.05 164.219 1033.88 164.294 1033.72 164.361C1034.44 164.964 1035.24 165.472 1036.1 165.873L1038.99 167.242L1036.57 169.333C1035.24 170.475 1033.91 171.327 1032.19 171.777C1034.83 173.188 1037.79 173.923 1040.79 173.917C1050.8 173.917 1058.87 165.927 1058.87 156.138V155.054L1059.75 154.431C1061.14 153.461 1062.11 152.148 1062.81 150.646H1058.31L1057.75 149.458C1057.22 148.36 1056.4 147.432 1055.37 146.782C1054.35 146.132 1053.15 145.787 1051.94 145.788H1051.94ZM1028.44 160.996C1028.24 161.221 1028.09 161.486 1028.01 161.772C1027.92 162.059 1027.9 162.36 1027.94 162.656C1028.18 164.325 1029.17 165.763 1030.28 166.861C1030.58 167.158 1030.9 167.444 1031.24 167.717L1031.08 167.758C1030.08 168.008 1028.73 168.061 1026.47 167.842C1026.05 167.8 1025.62 167.89 1025.25 168.1C1024.88 168.309 1024.58 168.628 1024.39 169.014C1024.21 169.399 1024.15 169.832 1024.22 170.253C1024.29 170.675 1024.48 171.065 1024.78 171.371C1026.87 173.502 1029.36 175.194 1032.11 176.347C1034.86 177.5 1037.81 178.09 1040.79 178.083C1052.69 178.083 1062.45 168.842 1063.01 157.179C1065.69 154.923 1067.04 151.867 1067.76 149.09C1067.84 148.781 1067.85 148.459 1067.79 148.147C1067.72 147.834 1067.59 147.541 1067.4 147.289C1067.2 147.037 1066.95 146.833 1066.66 146.692C1066.38 146.552 1066.06 146.479 1065.75 146.479H1060.84C1059.64 144.617 1057.89 143.178 1055.83 142.363C1053.77 141.549 1051.51 141.4 1049.36 141.938C1047.21 142.475 1045.29 143.673 1043.86 145.361C1042.42 147.05 1041.56 149.145 1041.37 151.352C1037.53 150.352 1034.1 148.187 1031.54 145.154C1031.31 144.886 1031.02 144.68 1030.69 144.554C1030.37 144.429 1030.01 144.388 1029.67 144.436C1029.32 144.483 1028.99 144.618 1028.71 144.828C1028.42 145.037 1028.2 145.314 1028.05 145.633C1026.79 148.388 1026.55 151.563 1027.96 154.792L1027.47 155C1027 155.199 1026.63 155.561 1026.41 156.019C1026.19 156.476 1026.14 156.998 1026.28 157.486C1026.67 158.844 1027.54 160.044 1028.43 160.996H1028.44Z" fill="white"/>
<path fill-rule="evenodd" clip-rule="evenodd" d="M912.167 146.5C912.167 144.29 913.045 142.17 914.607 140.608C916.17 139.045 918.29 138.167 920.5 138.167H945.5C947.71 138.167 949.83 139.045 951.393 140.608C952.955 142.17 953.833 144.29 953.833 146.5V171.5C953.833 173.71 952.955 175.83 951.393 177.393C949.83 178.955 947.71 179.833 945.5 179.833H920.5C918.29 179.833 916.17 178.955 914.607 177.393C913.045 175.83 912.167 173.71 912.167 171.5V146.5ZM920.5 142.333C919.395 142.333 918.335 142.772 917.554 143.554C916.772 144.335 916.333 145.395 916.333 146.5V171.5C916.333 172.605 916.772 173.665 917.554 174.446C918.335 175.228 919.395 175.667 920.5 175.667H933V161.083H930.917C930.364 161.083 929.834 160.864 929.444 160.473C929.053 160.083 928.833 159.553 928.833 159C928.833 158.448 929.053 157.918 929.444 157.527C929.834 157.136 930.364 156.917 930.917 156.917H933V153.792C933 151.858 933.768 150.003 935.136 148.636C936.503 147.268 938.358 146.5 940.292 146.5H941.542C942.094 146.5 942.624 146.72 943.015 147.11C943.406 147.501 943.625 148.031 943.625 148.583C943.625 149.136 943.406 149.666 943.015 150.057C942.624 150.447 942.094 150.667 941.542 150.667H940.292C939.881 150.667 939.475 150.748 939.096 150.905C938.717 151.062 938.372 151.292 938.082 151.582C937.792 151.872 937.562 152.217 937.405 152.596C937.247 152.975 937.167 153.381 937.167 153.792V156.917H941.542C942.094 156.917 942.624 157.136 943.015 157.527C943.406 157.918 943.625 158.448 943.625 159C943.625 159.553 943.406 160.083 943.015 160.473C942.624 160.864 942.094 161.083 941.542 161.083H937.167V175.667H945.5C946.605 175.667 947.665 175.228 948.446 174.446C949.228 173.665 949.667 172.605 949.667 171.5V146.5C949.667 145.395 949.228 144.335 948.446 143.554C947.665 142.772 946.605 142.333 945.5 142.333H920.5Z" fill="white"/>
<path d="M162.456 59L159.558 54.86C161.268 54.194 162.24 52.79 162.24 50.882C162.24 48.092 160.188 46.4 156.876 46.4H151.692V59H154.032V55.328H156.876C157.038 55.328 157.2 55.328 157.362 55.31L159.936 59H162.456ZM159.882 50.882C159.882 52.466 158.82 53.402 156.768 53.402H154.032V48.38H156.768C158.82 48.38 159.882 49.298 159.882 50.882ZM167.558 57.038V53.564H173.642V51.638H167.558V48.362H174.416V46.4H165.218V59H174.668V57.038H167.558ZM181.543 59.18C184.999 59.18 186.637 57.452 186.637 55.436C186.637 50.81 179.167 52.556 179.167 49.874C179.167 48.92 179.959 48.164 181.903 48.164C183.001 48.164 184.243 48.488 185.377 49.154L186.115 47.336C185.017 46.616 183.433 46.22 181.921 46.22C178.465 46.22 176.845 47.948 176.845 49.982C176.845 54.662 184.333 52.88 184.333 55.598C184.333 56.534 183.505 57.236 181.543 57.236C179.995 57.236 178.393 56.66 177.385 55.85L176.575 57.668C177.619 58.568 179.581 59.18 181.543 59.18ZM195.203 59.18C199.109 59.18 201.989 56.444 201.989 52.7C201.989 48.956 199.109 46.22 195.203 46.22C191.297 46.22 188.417 48.974 188.417 52.7C188.417 56.426 191.297 59.18 195.203 59.18ZM195.203 57.128C192.665 57.128 190.775 55.274 190.775 52.7C190.775 50.126 192.665 48.272 195.203 48.272C197.741 48.272 199.631 50.126 199.631 52.7C199.631 55.274 197.741 57.128 195.203 57.128ZM210.247 59.18C213.685 59.18 215.755 57.182 215.755 53.51V46.4H213.451V53.42C213.451 56.012 212.299 57.128 210.265 57.128C208.231 57.128 207.061 56.012 207.061 53.42V46.4H204.721V53.51C204.721 57.182 206.791 59.18 210.247 59.18ZM230.156 59L227.258 54.86C228.968 54.194 229.94 52.79 229.94 50.882C229.94 48.092 227.888 46.4 224.576 46.4H219.392V59H221.732V55.328H224.576C224.738 55.328 224.9 55.328 225.062 55.31L227.636 59H230.156ZM227.582 50.882C227.582 52.466 226.52 53.402 224.468 53.402H221.732V48.38H224.468C226.52 48.38 227.582 49.298 227.582 50.882ZM238.75 59.18C240.82 59.18 242.584 58.442 243.754 57.074L242.242 55.634C241.324 56.642 240.19 57.128 238.876 57.128C236.266 57.128 234.376 55.292 234.376 52.7C234.376 50.108 236.266 48.272 238.876 48.272C240.19 48.272 241.324 48.758 242.242 49.748L243.754 48.326C242.584 46.958 240.82 46.22 238.768 46.22C234.898 46.22 232.018 48.938 232.018 52.7C232.018 56.462 234.898 59.18 238.75 59.18ZM248.697 57.038V53.564H254.781V51.638H248.697V48.362H255.555V46.4H246.357V59H255.807V57.038H248.697ZM262.681 59.18C266.137 59.18 267.775 57.452 267.775 55.436C267.775 50.81 260.305 52.556 260.305 49.874C260.305 48.92 261.097 48.164 263.041 48.164C264.139 48.164 265.381 48.488 266.515 49.154L267.253 47.336C266.155 46.616 264.571 46.22 263.059 46.22C259.603 46.22 257.983 47.948 257.983 49.982C257.983 54.662 265.471 52.88 265.471 55.598C265.471 56.534 264.643 57.236 262.681 57.236C261.133 57.236 259.531 56.66 258.523 55.85L257.713 57.668C258.757 58.568 260.719 59.18 262.681 59.18ZM160.192 119H161.44L156.32 107.8H155.152L150.032 119H151.264L152.608 116.008H158.848L160.192 119ZM153.04 115.048L155.728 109.032L158.416 115.048H153.04ZM167.709 110.52C166.365 110.52 165.213 111.096 164.509 112.184V107.128H163.373V119H164.461V117.336C165.149 118.472 166.317 119.08 167.709 119.08C170.109 119.08 171.901 117.336 171.901 114.792C171.901 112.248 170.109 110.52 167.709 110.52ZM167.629 118.072C165.837 118.072 164.493 116.76 164.493 114.792C164.493 112.824 165.837 111.512 167.629 111.512C169.405 111.512 170.765 112.824 170.765 114.792C170.765 116.76 169.405 118.072 167.629 118.072ZM177.976 119.08C180.44 119.08 182.248 117.288 182.248 114.792C182.248 112.296 180.44 110.52 177.976 110.52C175.512 110.52 173.688 112.296 173.688 114.792C173.688 117.288 175.512 119.08 177.976 119.08ZM177.976 118.072C176.184 118.072 174.84 116.76 174.84 114.792C174.84 112.824 176.184 111.512 177.976 111.512C179.768 111.512 181.096 112.824 181.096 114.792C181.096 116.76 179.768 118.072 177.976 118.072ZM191.336 110.584V115C191.336 116.92 190.232 118.056 188.472 118.056C186.872 118.056 185.944 117.144 185.944 115.352V110.584H184.808V115.464C184.808 117.88 186.216 119.08 188.36 119.08C189.704 119.08 190.792 118.488 191.384 117.464V119H192.472V110.584H191.336ZM200.005 117.672C199.685 117.96 199.221 118.104 198.757 118.104C197.813 118.104 197.301 117.56 197.301 116.568V111.544H199.861V110.584H197.301V108.744H196.165V110.584H194.661V111.544H196.165V116.632C196.165 118.184 197.045 119.08 198.629 119.08C199.285 119.08 199.957 118.888 200.405 118.488L200.005 117.672ZM215.221 108.824V107.8H207.541V119H208.725V114.248H214.517V113.224H208.725V108.824H215.221ZM217.746 119H218.882V107.128H217.746V119ZM228.811 110.584V115C228.811 116.92 227.707 118.056 225.947 118.056C224.347 118.056 223.419 117.144 223.419 115.352V110.584H222.283V115.464C222.283 117.88 223.691 119.08 225.835 119.08C227.179 119.08 228.267 118.488 228.859 117.464V119H229.947V110.584H228.811ZM236.232 108.008C236.712 108.008 237.16 108.152 237.48 108.424L237.864 107.576C237.448 107.224 236.808 107.048 236.184 107.048C234.536 107.048 233.64 108.04 233.64 109.544V110.584H232.136V111.544H233.64V119H234.776V111.544H237.336V110.584H234.744V109.592C234.744 108.552 235.256 108.008 236.232 108.008ZM241.974 108.008C242.454 108.008 242.902 108.152 243.222 108.424L243.606 107.576C243.19 107.224 242.55 107.048 241.926 107.048C240.278 107.048 239.382 108.04 239.382 109.544V110.584H237.878V111.544H239.382V119H240.518V111.544H243.078V110.584H240.486V109.592C240.486 108.552 240.998 108.008 241.974 108.008ZM252.768 119.096C255.632 119.096 256.944 117.688 256.944 116.04C256.944 111.96 250.048 113.816 250.048 110.744C250.048 109.624 250.96 108.712 253.008 108.712C254 108.712 255.12 109.016 256.08 109.64L256.48 108.696C255.584 108.072 254.272 107.704 253.008 107.704C250.16 107.704 248.88 109.128 248.88 110.776C248.88 114.92 255.776 113.032 255.776 116.104C255.776 117.208 254.864 118.088 252.768 118.088C251.296 118.088 249.872 117.512 249.072 116.728L248.608 117.64C249.44 118.504 251.088 119.096 252.768 119.096ZM263.635 117.672C263.315 117.96 262.851 118.104 262.387 118.104C261.443 118.104 260.931 117.56 260.931 116.568V111.544H263.491V110.584H260.931V108.744H259.795V110.584H258.291V111.544H259.795V116.632C259.795 118.184 260.675 119.08 262.259 119.08C262.915 119.08 263.587 118.888 264.035 118.488L263.635 117.672ZM272.871 110.584V115C272.871 116.92 271.767 118.056 270.007 118.056C268.407 118.056 267.479 117.144 267.479 115.352V110.584H266.343V115.464C266.343 117.88 267.751 119.08 269.895 119.08C271.239 119.08 272.327 118.488 272.919 117.464V119H274.007V110.584H272.871ZM280.293 108.008C280.773 108.008 281.221 108.152 281.541 108.424L281.925 107.576C281.509 107.224 280.869 107.048 280.245 107.048C278.597 107.048 277.701 108.04 277.701 109.544V110.584H276.197V111.544H277.701V119H278.837V111.544H281.397V110.584H278.805V109.592C278.805 108.552 279.317 108.008 280.293 108.008ZM286.035 108.008C286.515 108.008 286.963 108.152 287.283 108.424L287.667 107.576C287.251 107.224 286.611 107.048 285.987 107.048C284.339 107.048 283.443 108.04 283.443 109.544V110.584H281.939V111.544H283.443V119H284.579V111.544H287.139V110.584H284.547V109.592C284.547 108.552 285.059 108.008 286.035 108.008ZM156.688 154.096C158.336 154.096 159.808 153.536 160.8 152.448L160.048 151.696C159.136 152.64 158.016 153.04 156.736 153.04C154.032 153.04 152 151.056 152 148.4C152 145.744 154.032 143.76 156.736 143.76C158.016 143.76 159.136 144.16 160.048 145.088L160.8 144.336C159.808 143.248 158.336 142.704 156.704 142.704C153.328 142.704 150.832 145.12 150.832 148.4C150.832 151.68 153.328 154.096 156.688 154.096ZM166.149 154.08C168.613 154.08 170.421 152.288 170.421 149.792C170.421 147.296 168.613 145.52 166.149 145.52C163.685 145.52 161.861 147.296 161.861 149.792C161.861 152.288 163.685 154.08 166.149 154.08ZM166.149 153.072C164.357 153.072 163.013 151.76 163.013 149.792C163.013 147.824 164.357 146.512 166.149 146.512C167.941 146.512 169.269 147.824 169.269 149.792C169.269 151.76 167.941 153.072 166.149 153.072ZM177.028 145.52C175.572 145.52 174.436 146.112 173.828 147.136V145.584H172.74V154H173.876V149.584C173.876 147.664 175.012 146.544 176.82 146.544C178.42 146.544 179.348 147.456 179.348 149.232V154H180.484V149.12C180.484 146.704 179.076 145.52 177.028 145.52ZM187.6 152.672C187.28 152.96 186.816 153.104 186.352 153.104C185.408 153.104 184.896 152.56 184.896 151.568V146.544H187.456V145.584H184.896V143.744H183.76V145.584H182.256V146.544H183.76V151.632C183.76 153.184 184.64 154.08 186.224 154.08C186.88 154.08 187.552 153.888 188 153.488L187.6 152.672ZM193.012 145.52C191.684 145.52 190.436 145.936 189.588 146.656L190.1 147.504C190.788 146.896 191.812 146.512 192.9 146.512C194.468 146.512 195.284 147.296 195.284 148.736V149.248H192.612C190.196 149.248 189.364 150.336 189.364 151.632C189.364 153.088 190.532 154.08 192.436 154.08C193.828 154.08 194.82 153.552 195.332 152.688V154H196.42V148.784C196.42 146.608 195.188 145.52 193.012 145.52ZM192.612 153.184C191.268 153.184 190.484 152.576 190.484 151.6C190.484 150.736 191.012 150.096 192.644 150.096H195.284V151.472C194.836 152.576 193.892 153.184 192.612 153.184ZM203.025 154.08C204.449 154.08 205.649 153.504 206.321 152.416L205.473 151.84C204.897 152.688 204.001 153.072 203.025 153.072C201.185 153.072 199.841 151.776 199.841 149.792C199.841 147.824 201.185 146.512 203.025 146.512C204.001 146.512 204.897 146.912 205.473 147.76L206.321 147.184C205.649 146.08 204.449 145.52 203.025 145.52C200.513 145.52 198.689 147.28 198.689 149.792C198.689 152.304 200.513 154.08 203.025 154.08ZM212.679 152.672C212.359 152.96 211.895 153.104 211.431 153.104C210.487 153.104 209.975 152.56 209.975 151.568V146.544H212.535V145.584H209.975V143.744H208.839V145.584H207.335V146.544H208.839V151.632C208.839 153.184 209.719 154.08 211.303 154.08C211.959 154.08 212.631 153.888 213.079 153.488L212.679 152.672ZM224.086 154.096C226.95 154.096 228.678 152.432 228.678 149.216V142.8H227.526V149.168C227.526 151.824 226.278 153.04 224.086 153.04C221.91 153.04 220.662 151.824 220.662 149.168V142.8H219.478V149.216C219.478 152.432 221.222 154.096 224.086 154.096ZM234.262 154.08C236.454 154.08 237.734 153.136 237.734 151.68C237.734 148.448 232.278 150.16 232.278 147.888C232.278 147.088 232.95 146.496 234.47 146.496C235.334 146.496 236.214 146.704 236.95 147.216L237.446 146.304C236.742 145.824 235.558 145.52 234.47 145.52C232.326 145.52 231.142 146.544 231.142 147.92C231.142 151.248 236.598 149.52 236.598 151.712C236.598 152.544 235.942 153.088 234.342 153.088C233.158 153.088 232.022 152.672 231.35 152.144L230.838 153.04C231.526 153.632 232.87 154.08 234.262 154.08ZM154.912 189.096C157.776 189.096 159.088 187.688 159.088 186.04C159.088 181.96 152.192 183.816 152.192 180.744C152.192 179.624 153.104 178.712 155.152 178.712C156.144 178.712 157.264 179.016 158.224 179.64L158.624 178.696C157.728 178.072 156.416 177.704 155.152 177.704C152.304 177.704 151.024 179.128 151.024 180.776C151.024 184.92 157.92 183.032 157.92 186.104C157.92 187.208 157.008 188.088 154.912 188.088C153.44 188.088 152.016 187.512 151.216 186.728L150.752 187.64C151.584 188.504 153.232 189.096 154.912 189.096ZM165.716 180.52C164.292 180.52 163.188 181.08 162.564 182.056V177.128H161.428V189H162.564V184.584C162.564 182.664 163.7 181.544 165.508 181.544C167.108 181.544 168.036 182.456 168.036 184.232V189H169.172V184.12C169.172 181.704 167.764 180.52 165.716 180.52ZM172.832 178.744C173.312 178.744 173.664 178.376 173.664 177.912C173.664 177.48 173.296 177.128 172.832 177.128C172.368 177.128 172 177.496 172 177.928C172 178.376 172.368 178.744 172.832 178.744ZM172.256 189H173.392V180.584H172.256V189ZM180.889 180.52C179.497 180.52 178.329 181.128 177.641 182.248V180.584H176.553V192.104H177.689V187.416C178.393 188.504 179.545 189.08 180.889 189.08C183.289 189.08 185.081 187.352 185.081 184.792C185.081 182.248 183.289 180.52 180.889 180.52ZM180.809 188.072C179.017 188.072 177.673 186.76 177.673 184.792C177.673 182.84 179.017 181.512 180.809 181.512C182.585 181.512 183.945 182.84 183.945 184.792C183.945 186.76 182.585 188.072 180.809 188.072ZM191.733 180.52C190.341 180.52 189.173 181.128 188.485 182.248V180.584H187.397V192.104H188.533V187.416C189.237 188.504 190.389 189.08 191.733 189.08C194.133 189.08 195.925 187.352 195.925 184.792C195.925 182.248 194.133 180.52 191.733 180.52ZM191.653 188.072C189.861 188.072 188.517 186.76 188.517 184.792C188.517 182.84 189.861 181.512 191.653 181.512C193.429 181.512 194.789 182.84 194.789 184.792C194.789 186.76 193.429 188.072 191.653 188.072ZM198.816 178.744C199.296 178.744 199.648 178.376 199.648 177.912C199.648 177.48 199.28 177.128 198.816 177.128C198.352 177.128 197.984 177.496 197.984 177.928C197.984 178.376 198.352 178.744 198.816 178.744ZM198.24 189H199.376V180.584H198.24V189ZM206.825 180.52C205.369 180.52 204.233 181.112 203.625 182.136V180.584H202.537V189H203.673V184.584C203.673 182.664 204.809 181.544 206.617 181.544C208.217 181.544 209.145 182.456 209.145 184.232V189H210.281V184.12C210.281 181.704 208.873 180.52 206.825 180.52ZM220.101 180.584V182.2C219.397 181.096 218.181 180.52 216.773 180.52C214.373 180.52 212.549 182.168 212.549 184.584C212.549 187 214.373 188.68 216.773 188.68C218.149 188.68 219.349 188.12 220.053 187.048V188.12C220.053 190.2 219.077 191.176 216.949 191.176C215.653 191.176 214.437 190.744 213.637 190.024L213.061 190.888C213.941 191.72 215.445 192.184 216.981 192.184C219.765 192.184 221.189 190.872 221.189 187.976V180.584H220.101ZM216.885 187.672C215.029 187.672 213.701 186.408 213.701 184.584C213.701 182.76 215.029 181.512 216.885 181.512C218.741 181.512 220.085 182.76 220.085 184.584C220.085 186.408 218.741 187.672 216.885 187.672ZM237.465 188.424L235.865 186.776C236.313 186.072 236.649 185.208 236.857 184.2L235.929 183.912C235.769 184.76 235.513 185.48 235.177 186.072L232.105 182.904C233.929 181.848 234.601 181.064 234.601 179.944C234.601 178.552 233.577 177.72 231.993 177.72C230.265 177.72 229.161 178.68 229.161 180.104C229.161 180.968 229.481 181.64 230.569 182.76C228.521 183.944 227.753 184.92 227.753 186.248C227.753 187.944 229.321 189.096 231.513 189.096C233.033 189.096 234.313 188.584 235.257 187.576L236.809 189.176L237.465 188.424ZM231.993 178.568C233.033 178.568 233.625 179.128 233.625 179.96C233.625 180.76 233.097 181.32 231.481 182.248C230.457 181.208 230.217 180.744 230.217 180.088C230.217 179.192 230.873 178.568 231.993 178.568ZM231.577 188.152C229.961 188.152 228.873 187.352 228.873 186.136C228.873 185.144 229.417 184.44 231.209 183.416L234.585 186.888C233.817 187.736 232.793 188.152 231.577 188.152ZM252.627 189L249.891 185.16C251.523 184.632 252.451 183.4 252.451 181.64C252.451 179.24 250.723 177.8 247.875 177.8H243.683V189H244.867V185.448H247.875C248.195 185.448 248.483 185.432 248.771 185.4L251.331 189H252.627ZM247.843 184.44H244.867V178.824H247.843C250.083 178.824 251.267 179.848 251.267 181.64C251.267 183.4 250.083 184.44 247.843 184.44ZM262.35 184.792C262.35 182.264 260.638 180.52 258.27 180.52C255.902 180.52 254.158 182.296 254.158 184.792C254.158 187.288 255.95 189.08 258.574 189.08C259.902 189.08 261.07 188.6 261.822 187.704L261.182 186.968C260.542 187.704 259.63 188.072 258.606 188.072C256.766 188.072 255.422 186.904 255.294 185.144H262.334C262.334 185.016 262.35 184.888 262.35 184.792ZM258.27 181.496C259.918 181.496 261.118 182.648 261.262 184.296H255.294C255.438 182.648 256.638 181.496 258.27 181.496ZM268.694 187.672C268.374 187.96 267.91 188.104 267.446 188.104C266.502 188.104 265.99 187.56 265.99 186.568V181.544H268.55V180.584H265.99V178.744H264.854V180.584H263.35V181.544H264.854V186.632C264.854 188.184 265.734 189.08 267.318 189.08C267.974 189.08 268.646 188.888 269.094 188.488L268.694 187.672ZM277.61 180.584V185C277.61 186.92 276.506 188.056 274.746 188.056C273.146 188.056 272.218 187.144 272.218 185.352V180.584H271.082V185.464C271.082 187.88 272.49 189.08 274.634 189.08C275.978 189.08 277.066 188.488 277.658 187.464V189H278.746V180.584H277.61ZM283.016 182.232V180.584H281.928V189H283.064V184.712C283.064 182.728 284.136 181.608 285.896 181.608C285.976 181.608 286.072 181.624 286.168 181.624V180.52C284.616 180.52 283.544 181.112 283.016 182.232ZM292.513 180.52C291.057 180.52 289.921 181.112 289.313 182.136V180.584H288.225V189H289.361V184.584C289.361 182.664 290.497 181.544 292.305 181.544C293.905 181.544 294.833 182.456 294.833 184.232V189H295.969V184.12C295.969 181.704 294.561 180.52 292.513 180.52ZM301.309 189.08C303.501 189.08 304.781 188.136 304.781 186.68C304.781 183.448 299.325 185.16 299.325 182.888C299.325 182.088 299.997 181.496 301.517 181.496C302.381 181.496 303.261 181.704 303.997 182.216L304.493 181.304C303.789 180.824 302.605 180.52 301.517 180.52C299.373 180.52 298.189 181.544 298.189 182.92C298.189 186.248 303.645 184.52 303.645 186.712C303.645 187.544 302.989 188.088 301.389 188.088C300.205 188.088 299.069 187.672 298.397 187.144L297.885 188.04C298.573 188.632 299.917 189.08 301.309 189.08ZM162.48 212.8L157.664 221.104L152.8 212.8H151.824V224H152.96V215.088L157.36 222.576H157.92L162.32 215.04V224H163.456V212.8H162.48ZM169.809 215.52C168.481 215.52 167.233 215.936 166.385 216.656L166.897 217.504C167.585 216.896 168.609 216.512 169.697 216.512C171.265 216.512 172.081 217.296 172.081 218.736V219.248H169.409C166.993 219.248 166.161 220.336 166.161 221.632C166.161 223.088 167.329 224.08 169.233 224.08C170.625 224.08 171.617 223.552 172.129 222.688V224H173.217V218.784C173.217 216.608 171.985 215.52 169.809 215.52ZM169.409 223.184C168.065 223.184 167.281 222.576 167.281 221.6C167.281 220.736 167.809 220.096 169.441 220.096H172.081V221.472C171.633 222.576 170.689 223.184 169.409 223.184ZM180.335 222.672C180.015 222.96 179.551 223.104 179.087 223.104C178.143 223.104 177.631 222.56 177.631 221.568V216.544H180.191V215.584H177.631V213.744H176.495V215.584H174.991V216.544H176.495V221.632C176.495 223.184 177.375 224.08 178.959 224.08C179.615 224.08 180.287 223.888 180.735 223.488L180.335 222.672ZM189.85 219.792C189.85 217.264 188.138 215.52 185.77 215.52C183.402 215.52 181.658 217.296 181.658 219.792C181.658 222.288 183.45 224.08 186.074 224.08C187.402 224.08 188.57 223.6 189.322 222.704L188.682 221.968C188.042 222.704 187.13 223.072 186.106 223.072C184.266 223.072 182.922 221.904 182.794 220.144H189.834C189.834 220.016 189.85 219.888 189.85 219.792ZM185.77 216.496C187.418 216.496 188.618 217.648 188.762 219.296H182.794C182.938 217.648 184.138 216.496 185.77 216.496ZM193.25 217.232V215.584H192.162V224H193.298V219.712C193.298 217.728 194.37 216.608 196.13 216.608C196.21 216.608 196.306 216.624 196.402 216.624V215.52C194.85 215.52 193.778 216.112 193.25 217.232ZM199.035 213.744C199.515 213.744 199.867 213.376 199.867 212.912C199.867 212.48 199.499 212.128 199.035 212.128C198.571 212.128 198.203 212.496 198.203 212.928C198.203 213.376 198.571 213.744 199.035 213.744ZM198.459 224H199.595V215.584H198.459V224ZM205.7 215.52C204.372 215.52 203.124 215.936 202.276 216.656L202.788 217.504C203.476 216.896 204.5 216.512 205.588 216.512C207.156 216.512 207.972 217.296 207.972 218.736V219.248H205.3C202.884 219.248 202.052 220.336 202.052 221.632C202.052 223.088 203.22 224.08 205.124 224.08C206.516 224.08 207.508 223.552 208.02 222.688V224H209.108V218.784C209.108 216.608 207.876 215.52 205.7 215.52ZM205.3 223.184C203.956 223.184 203.172 222.576 203.172 221.6C203.172 220.736 203.7 220.096 205.332 220.096H207.972V221.472C207.524 222.576 206.58 223.184 205.3 223.184ZM212.193 224H213.329V212.128H212.193V224ZM229.59 223.424L227.99 221.776C228.438 221.072 228.774 220.208 228.982 219.2L228.054 218.912C227.894 219.76 227.638 220.48 227.302 221.072L224.23 217.904C226.054 216.848 226.726 216.064 226.726 214.944C226.726 213.552 225.702 212.72 224.118 212.72C222.39 212.72 221.286 213.68 221.286 215.104C221.286 215.968 221.606 216.64 222.694 217.76C220.646 218.944 219.878 219.92 219.878 221.248C219.878 222.944 221.446 224.096 223.638 224.096C225.158 224.096 226.438 223.584 227.382 222.576L228.934 224.176L229.59 223.424ZM224.118 213.568C225.158 213.568 225.75 214.128 225.75 214.96C225.75 215.76 225.222 216.32 223.606 217.248C222.582 216.208 222.342 215.744 222.342 215.088C222.342 214.192 222.998 213.568 224.118 213.568ZM223.702 223.152C222.086 223.152 220.998 222.352 220.998 221.136C220.998 220.144 221.542 219.44 223.334 218.416L226.71 221.888C225.942 222.736 224.918 223.152 223.702 223.152ZM238.896 224.096C241.76 224.096 243.072 222.688 243.072 221.04C243.072 216.96 236.176 218.816 236.176 215.744C236.176 214.624 237.088 213.712 239.136 213.712C240.128 213.712 241.248 214.016 242.208 214.64L242.608 213.696C241.712 213.072 240.4 212.704 239.136 212.704C236.288 212.704 235.008 214.128 235.008 215.776C235.008 219.92 241.904 218.032 241.904 221.104C241.904 222.208 240.992 223.088 238.896 223.088C237.424 223.088 236 222.512 235.2 221.728L234.736 222.64C235.568 223.504 237.216 224.096 238.896 224.096ZM245.988 213.744C246.468 213.744 246.82 213.376 246.82 212.912C246.82 212.48 246.452 212.128 245.988 212.128C245.524 212.128 245.156 212.496 245.156 212.928C245.156 213.376 245.524 213.744 245.988 213.744ZM245.412 224H246.548V215.584H245.412V224ZM250.253 223.056L255.549 216.336V215.584H248.893V216.544H254.093L248.797 223.248V224H255.645V223.056H250.253ZM258.457 213.744C258.937 213.744 259.289 213.376 259.289 212.912C259.289 212.48 258.921 212.128 258.457 212.128C257.993 212.128 257.625 212.496 257.625 212.928C257.625 213.376 257.993 213.744 258.457 213.744ZM257.881 224H259.017V215.584H257.881V224ZM266.466 215.52C265.01 215.52 263.874 216.112 263.266 217.136V215.584H262.178V224H263.314V219.584C263.314 217.664 264.45 216.544 266.258 216.544C267.858 216.544 268.786 217.456 268.786 219.232V224H269.922V219.12C269.922 216.704 268.514 215.52 266.466 215.52ZM279.741 215.584V217.2C279.037 216.096 277.821 215.52 276.413 215.52C274.013 215.52 272.189 217.168 272.189 219.584C272.189 222 274.013 223.68 276.413 223.68C277.789 223.68 278.989 223.12 279.693 222.048V223.12C279.693 225.2 278.717 226.176 276.589 226.176C275.293 226.176 274.077 225.744 273.277 225.024L272.701 225.888C273.581 226.72 275.085 227.184 276.621 227.184C279.405 227.184 280.829 225.872 280.829 222.976V215.584H279.741ZM276.525 222.672C274.669 222.672 273.341 221.408 273.341 219.584C273.341 217.76 274.669 216.512 276.525 216.512C278.381 216.512 279.725 217.76 279.725 219.584C279.725 221.408 278.381 222.672 276.525 222.672ZM296.321 222.176C295.457 222.8 294.465 223.04 293.393 223.04C290.641 223.04 288.609 221.056 288.609 218.4C288.609 215.728 290.641 213.76 293.409 213.76C294.721 213.76 295.841 214.144 296.785 215.072L297.521 214.32C296.529 213.248 295.057 212.704 293.361 212.704C289.937 212.704 287.441 215.12 287.441 218.4C287.441 221.68 289.937 224.096 293.345 224.096C294.897 224.096 296.401 223.616 297.457 222.672V218.4H296.321V222.176ZM307.016 215.584V220C307.016 221.92 305.912 223.056 304.152 223.056C302.552 223.056 301.624 222.144 301.624 220.352V215.584H300.488V220.464C300.488 222.88 301.896 224.08 304.04 224.08C305.384 224.08 306.472 223.488 307.064 222.464V224H308.152V215.584H307.016ZM311.91 213.744C312.39 213.744 312.742 213.376 312.742 212.912C312.742 212.48 312.374 212.128 311.91 212.128C311.446 212.128 311.078 212.496 311.078 212.928C311.078 213.376 311.446 213.744 311.91 213.744ZM311.334 224H312.47V215.584H311.334V224ZM322.175 212.128V217.184C321.471 216.096 320.319 215.52 318.975 215.52C316.575 215.52 314.783 217.248 314.783 219.792C314.783 222.336 316.575 224.08 318.975 224.08C320.367 224.08 321.535 223.472 322.223 222.336V224H323.311V212.128H322.175ZM319.071 223.072C317.279 223.072 315.935 221.76 315.935 219.792C315.935 217.824 317.279 216.512 319.071 216.512C320.847 216.512 322.191 217.824 322.191 219.792C322.191 221.76 320.847 223.072 319.071 223.072ZM333.819 219.792C333.819 217.264 332.107 215.52 329.739 215.52C327.371 215.52 325.627 217.296 325.627 219.792C325.627 222.288 327.419 224.08 330.043 224.08C331.371 224.08 332.539 223.6 333.291 222.704L332.651 221.968C332.011 222.704 331.099 223.072 330.075 223.072C328.235 223.072 326.891 221.904 326.763 220.144H333.803C333.803 220.016 333.819 219.888 333.819 219.792ZM329.739 216.496C331.387 216.496 332.587 217.648 332.731 219.296H326.763C326.907 217.648 328.107 216.496 329.739 216.496ZM162.528 259.256C161.936 259.944 161.248 260.28 160.4 260.28C159.6 260.28 158.816 259.88 157.968 258.984C160.688 258.456 162.592 256.264 162.592 253.4C162.592 250.12 160.08 247.704 156.72 247.704C153.328 247.704 150.832 250.136 150.832 253.4C150.832 256.6 153.232 259 156.512 259.096C157.984 260.632 159.072 261.224 160.384 261.224C161.472 261.224 162.416 260.776 163.104 259.944L162.528 259.256ZM152 253.4C152 250.744 154.016 248.76 156.72 248.76C159.408 248.76 161.408 250.744 161.408 253.4C161.408 256.056 159.408 258.04 156.72 258.04C154.016 258.04 152 256.056 152 253.4ZM171.454 250.584V255C171.454 256.92 170.35 258.056 168.59 258.056C166.99 258.056 166.062 257.144 166.062 255.352V250.584H164.926V255.464C164.926 257.88 166.334 259.08 168.478 259.08C169.822 259.08 170.91 258.488 171.502 257.464V259H172.59V250.584H171.454ZM178.716 250.52C177.388 250.52 176.14 250.936 175.292 251.656L175.804 252.504C176.492 251.896 177.516 251.512 178.604 251.512C180.172 251.512 180.988 252.296 180.988 253.736V254.248H178.316C175.9 254.248 175.068 255.336 175.068 256.632C175.068 258.088 176.236 259.08 178.14 259.08C179.532 259.08 180.524 258.552 181.036 257.688V259H182.124V253.784C182.124 251.608 180.892 250.52 178.716 250.52ZM178.316 258.184C176.972 258.184 176.188 257.576 176.188 256.6C176.188 255.736 176.716 255.096 178.348 255.096H180.988V256.472C180.54 257.576 179.596 258.184 178.316 258.184ZM185.209 259H186.345V247.128H185.209V259ZM190.082 248.744C190.562 248.744 190.914 248.376 190.914 247.912C190.914 247.48 190.546 247.128 190.082 247.128C189.618 247.128 189.25 247.496 189.25 247.928C189.25 248.376 189.618 248.744 190.082 248.744ZM189.506 259H190.642V250.584H189.506V259ZM197.835 257.672C197.515 257.96 197.051 258.104 196.587 258.104C195.643 258.104 195.131 257.56 195.131 256.568V251.544H197.691V250.584H195.131V248.744H193.995V250.584H192.491V251.544H193.995V256.632C193.995 258.184 194.875 259.08 196.459 259.08C197.115 259.08 197.787 258.888 198.235 258.488L197.835 257.672ZM206.099 250.584L202.931 257.736L199.763 250.584H198.579L202.339 258.984L201.971 259.8C201.491 260.856 200.979 261.208 200.227 261.208C199.618 261.208 199.107 260.984 198.691 260.568L198.162 261.416C198.675 261.928 199.427 262.184 200.211 262.184C201.411 262.184 202.307 261.656 203.011 260.008L207.219 250.584H206.099ZM221.134 257.176C220.27 257.8 219.278 258.04 218.206 258.04C215.454 258.04 213.422 256.056 213.422 253.4C213.422 250.728 215.454 248.76 218.222 248.76C219.534 248.76 220.654 249.144 221.598 250.072L222.334 249.32C221.342 248.248 219.87 247.704 218.174 247.704C214.75 247.704 212.254 250.12 212.254 253.4C212.254 256.68 214.75 259.096 218.158 259.096C219.71 259.096 221.214 258.616 222.27 257.672V253.4H221.134V257.176ZM231.829 250.584V255C231.829 256.92 230.725 258.056 228.965 258.056C227.365 258.056 226.437 257.144 226.437 255.352V250.584H225.301V255.464C225.301 257.88 226.709 259.08 228.853 259.08C230.197 259.08 231.285 258.488 231.877 257.464V259H232.965V250.584H231.829ZM239.091 250.52C237.763 250.52 236.515 250.936 235.667 251.656L236.179 252.504C236.867 251.896 237.891 251.512 238.979 251.512C240.547 251.512 241.363 252.296 241.363 253.736V254.248H238.691C236.275 254.248 235.443 255.336 235.443 256.632C235.443 258.088 236.611 259.08 238.515 259.08C239.907 259.08 240.899 258.552 241.411 257.688V259H242.499V253.784C242.499 251.608 241.267 250.52 239.091 250.52ZM238.691 258.184C237.347 258.184 236.562 257.576 236.562 256.6C236.562 255.736 237.091 255.096 238.723 255.096H241.363V256.472C240.915 257.576 239.971 258.184 238.691 258.184ZM246.672 252.232V250.584H245.584V259H246.72V254.712C246.72 252.728 247.792 251.608 249.552 251.608C249.632 251.608 249.728 251.624 249.824 251.624V250.52C248.272 250.52 247.2 251.112 246.672 252.232ZM254.809 250.52C253.481 250.52 252.233 250.936 251.385 251.656L251.897 252.504C252.585 251.896 253.609 251.512 254.697 251.512C256.265 251.512 257.081 252.296 257.081 253.736V254.248H254.409C251.993 254.248 251.161 255.336 251.161 256.632C251.161 258.088 252.329 259.08 254.233 259.08C255.625 259.08 256.617 258.552 257.129 257.688V259H258.217V253.784C258.217 251.608 256.985 250.52 254.809 250.52ZM254.409 258.184C253.065 258.184 252.281 257.576 252.281 256.6C252.281 255.736 252.809 255.096 254.441 255.096H257.081V256.472C256.633 257.576 255.689 258.184 254.409 258.184ZM265.591 250.52C264.135 250.52 262.999 251.112 262.391 252.136V250.584H261.303V259H262.439V254.584C262.439 252.664 263.575 251.544 265.383 251.544C266.983 251.544 267.911 252.456 267.911 254.232V259H269.047V254.12C269.047 251.704 267.639 250.52 265.591 250.52ZM276.163 257.672C275.843 257.96 275.379 258.104 274.915 258.104C273.971 258.104 273.459 257.56 273.459 256.568V251.544H276.019V250.584H273.459V248.744H272.323V250.584H270.819V251.544H272.323V256.632C272.323 258.184 273.203 259.08 274.787 259.08C275.443 259.08 276.115 258.888 276.563 258.488L276.163 257.672ZM285.678 254.792C285.678 252.264 283.966 250.52 281.598 250.52C279.23 250.52 277.486 252.296 277.486 254.792C277.486 257.288 279.278 259.08 281.902 259.08C283.23 259.08 284.398 258.6 285.15 257.704L284.51 256.968C283.87 257.704 282.958 258.072 281.934 258.072C280.094 258.072 278.75 256.904 278.622 255.144H285.662C285.662 255.016 285.678 254.888 285.678 254.792ZM281.598 251.496C283.246 251.496 284.446 252.648 284.59 254.296H278.622C278.766 252.648 279.966 251.496 281.598 251.496ZM295.334 254.792C295.334 252.264 293.622 250.52 291.254 250.52C288.886 250.52 287.142 252.296 287.142 254.792C287.142 257.288 288.934 259.08 291.558 259.08C292.886 259.08 294.054 258.6 294.806 257.704L294.166 256.968C293.526 257.704 292.614 258.072 291.59 258.072C289.75 258.072 288.406 256.904 288.278 255.144H295.318C295.318 255.016 295.334 254.888 295.334 254.792ZM291.254 251.496C292.902 251.496 294.102 252.648 294.246 254.296H288.278C288.422 252.648 289.622 251.496 291.254 251.496Z" fill="white"/>
<rect x="828" y="51" width="461" height="44" rx="9" fill="#5A0090" stroke="white" stroke-width="2"/>
<rect x="826.5" y="50.5" width="342" height="45" rx="9.5" fill="white" stroke="white"/>
<rect x="839.5" y="50.5" width="342" height="45" fill="white" stroke="white"/>
<path d="M1204.45 77.16C1207.52 77.16 1208.97 75.624 1208.97 73.832C1208.97 69.72 1202.33 71.272 1202.33 68.888C1202.33 68.04 1203.04 67.368 1204.77 67.368C1205.74 67.368 1206.85 67.656 1207.85 68.248L1208.51 66.632C1207.53 65.992 1206.13 65.64 1204.78 65.64C1201.71 65.64 1200.27 67.176 1200.27 68.984C1200.27 73.144 1206.93 71.56 1206.93 73.976C1206.93 74.808 1206.19 75.432 1204.45 75.432C1203.07 75.432 1201.65 74.92 1200.75 74.2L1200.03 75.816C1200.96 76.616 1202.7 77.16 1204.45 77.16ZM1211.36 77H1213.44V65.8H1211.36V77ZM1224.43 74.76C1223.71 75.176 1222.93 75.336 1222.13 75.336C1219.76 75.336 1218.08 73.672 1218.08 71.4C1218.08 69.08 1219.76 67.464 1222.15 67.464C1223.35 67.464 1224.35 67.864 1225.23 68.744L1226.55 67.464C1225.49 66.264 1223.92 65.64 1222.05 65.64C1218.55 65.64 1215.99 68.056 1215.99 71.4C1215.99 74.744 1218.55 77.16 1222.02 77.16C1223.6 77.16 1225.23 76.68 1226.4 75.736V71.272H1224.43V74.76ZM1237.35 65.8V73.384L1231.18 65.8H1229.46V77H1231.53V69.416L1237.7 77H1239.42V65.8H1237.35ZM1252.3 77.16C1255.35 77.16 1257.19 75.384 1257.19 72.12V65.8H1255.14V72.04C1255.14 74.344 1254.12 75.336 1252.31 75.336C1250.5 75.336 1249.46 74.344 1249.46 72.04V65.8H1247.38V72.12C1247.38 75.384 1249.22 77.16 1252.3 77.16ZM1265.03 65.8H1260.42V77H1262.5V73.768H1265.03C1267.98 73.768 1269.8 72.248 1269.8 69.784C1269.8 67.304 1267.98 65.8 1265.03 65.8ZM1264.94 72.008H1262.5V67.56H1264.94C1266.76 67.56 1267.7 68.376 1267.7 69.784C1267.7 71.192 1266.76 72.008 1264.94 72.008Z" fill="white"/>
<path d="M848.815 79H842.714L845.279 66.8643H851.38L851.114 68.1343H846.416L845.603 72.0273H849.977L849.736 73.2891H845.345L844.399 77.7383H849.089L848.815 79ZM856.987 79L858.215 73.2559C858.315 72.7357 858.364 72.3621 858.364 72.1353C858.364 71.7479 858.279 71.4463 858.107 71.2305C857.936 71.0146 857.642 70.9067 857.227 70.9067C856.762 70.9067 856.309 71.0728 855.866 71.4048C855.429 71.7368 855.041 72.2127 854.704 72.8325C854.372 73.4468 854.114 74.1883 853.932 75.0571L853.093 79H851.699L853.641 69.9023H854.795L854.613 71.5874H854.696C855.177 70.9289 855.656 70.4557 856.132 70.168C856.613 69.8802 857.108 69.7363 857.617 69.7363C858.243 69.7363 858.724 69.9162 859.062 70.2759C859.399 70.6356 859.599 71.1364 859.659 71.7783H859.726C860.202 71.0866 860.708 70.5747 861.245 70.2427C861.782 69.9051 862.324 69.7363 862.872 69.7363C863.575 69.7363 864.117 69.9245 864.499 70.3008C864.886 70.6771 865.08 71.2249 865.08 71.9443C865.08 72.3206 865.019 72.8132 864.897 73.4219L863.702 79H862.291L863.519 73.2559C863.63 72.6803 863.685 72.2764 863.685 72.0439C863.685 71.7008 863.588 71.4269 863.395 71.2222C863.207 71.0119 862.908 70.9067 862.498 70.9067C862.05 70.9067 861.607 71.0672 861.17 71.3882C860.733 71.7091 860.348 72.1657 860.016 72.7578C859.69 73.3444 859.441 74.0417 859.269 74.8496L858.381 79H856.987ZM871.849 69.7363C872.358 69.7363 872.812 69.8747 873.21 70.1514C873.608 70.4225 873.918 70.8154 874.14 71.3301H874.231L874.787 69.9023H875.841L873.907 79H872.803L873.019 77.2651H872.953C871.962 78.5324 870.919 79.166 869.823 79.166C869.054 79.166 868.451 78.8921 868.014 78.3442C867.576 77.7964 867.358 77.0465 867.358 76.0947C867.358 74.9437 867.554 73.8757 867.947 72.8906C868.34 71.9056 868.882 71.1336 869.574 70.5747C870.266 70.0158 871.024 69.7363 871.849 69.7363ZM870.271 78.0122C870.808 78.0122 871.342 77.7576 871.874 77.2485C872.405 76.7339 872.836 76.0671 873.168 75.248C873.5 74.4235 873.666 73.599 873.666 72.7744C873.666 72.2044 873.512 71.7507 873.202 71.4131C872.892 71.0755 872.485 70.9067 871.981 70.9067C871.406 70.9067 870.869 71.1447 870.371 71.6206C869.879 72.0965 869.491 72.7412 869.209 73.5547C868.927 74.3682 868.786 75.2259 868.786 76.1279C868.786 76.7588 868.916 77.2319 869.176 77.5474C869.436 77.8573 869.801 78.0122 870.271 78.0122ZM878.551 79H877.156L879.099 69.9023H880.493L878.551 79ZM879.489 67.5781C879.489 67.2682 879.578 67.0164 879.755 66.8228C879.932 66.6235 880.161 66.5239 880.444 66.5239C880.931 66.5239 881.174 66.7729 881.174 67.271C881.174 67.5754 881.08 67.8327 880.892 68.043C880.709 68.2533 880.496 68.3584 880.253 68.3584C880.031 68.3584 879.849 68.292 879.705 68.1592C879.561 68.0208 879.489 67.8271 879.489 67.5781ZM883.361 79H881.966L884.722 66.084H886.117L883.361 79ZM897.994 75.1401H893.877L891.843 79H890.274L896.907 66.8643H898.351L899.878 79H898.467L897.994 75.1401ZM897.845 73.8452L897.554 71.3633C897.421 70.3727 897.341 69.4043 897.313 68.458C897.109 68.945 896.885 69.4292 896.641 69.9106C896.403 70.3921 895.714 71.7036 894.574 73.8452H897.845ZM906.506 69.7529C907.58 69.7529 908.357 70.2786 908.839 71.3301H908.922C909.016 70.4723 909.14 69.7142 909.295 69.0557L909.943 66.084H911.32L908.581 79H907.427L907.61 77.2651H907.544C906.985 77.9569 906.462 78.4466 905.975 78.7344C905.488 79.0221 904.984 79.166 904.464 79.166C903.695 79.166 903.094 78.8949 902.663 78.3525C902.231 77.8102 902.015 77.0576 902.015 76.0947C902.015 74.9105 902.215 73.8258 902.613 72.8408C903.011 71.8558 903.548 71.0949 904.223 70.5581C904.904 70.0213 905.665 69.7529 906.506 69.7529ZM904.929 78.0122C905.449 78.0122 905.986 77.7549 906.539 77.2402C907.093 76.7201 907.53 76.0588 907.851 75.2563C908.177 74.4484 908.341 73.6266 908.341 72.791C908.341 72.1768 908.191 71.7091 907.892 71.3882C907.593 71.0672 907.159 70.9067 906.589 70.9067C906.03 70.9067 905.51 71.1364 905.028 71.5957C904.553 72.0495 904.168 72.6914 903.875 73.5215C903.587 74.346 903.443 75.2148 903.443 76.1279C903.443 77.3841 903.938 78.0122 904.929 78.0122ZM916.828 69.7529C917.901 69.7529 918.679 70.2786 919.16 71.3301H919.243C919.337 70.4723 919.462 69.7142 919.617 69.0557L920.264 66.084H921.642L918.903 79H917.749L917.932 77.2651H917.865C917.306 77.9569 916.783 78.4466 916.296 78.7344C915.809 79.0221 915.306 79.166 914.786 79.166C914.016 79.166 913.416 78.8949 912.984 78.3525C912.553 77.8102 912.337 77.0576 912.337 76.0947C912.337 74.9105 912.536 73.8258 912.934 72.8408C913.333 71.8558 913.87 71.0949 914.545 70.5581C915.226 70.0213 915.986 69.7529 916.828 69.7529ZM915.25 78.0122C915.771 78.0122 916.307 77.7549 916.861 77.2402C917.414 76.7201 917.851 76.0588 918.172 75.2563C918.499 74.4484 918.662 73.6266 918.662 72.791C918.662 72.1768 918.513 71.7091 918.214 71.3882C917.915 71.0672 917.481 70.9067 916.911 70.9067C916.352 70.9067 915.831 71.1364 915.35 71.5957C914.874 72.0495 914.49 72.6914 914.196 73.5215C913.908 74.346 913.765 75.2148 913.765 76.1279C913.765 77.3841 914.26 78.0122 915.25 78.0122ZM928.087 69.7363C928.469 69.7363 928.801 69.7751 929.083 69.8525L928.784 71.0977C928.491 71.0257 928.201 70.9897 927.913 70.9897C927.409 70.9897 926.936 71.1558 926.493 71.4878C926.056 71.8198 925.672 72.2819 925.34 72.874C925.013 73.4606 924.772 74.1136 924.617 74.833L923.729 79H922.335L924.277 69.9023H925.431L925.248 71.5874H925.331C925.73 71.0617 926.059 70.6854 926.319 70.4585C926.579 70.2261 926.85 70.049 927.132 69.9272C927.42 69.8 927.738 69.7363 928.087 69.7363ZM933.179 79.166C932.161 79.166 931.361 78.8644 930.78 78.2612C930.199 77.658 929.909 76.8224 929.909 75.7544C929.909 74.714 930.113 73.7179 930.523 72.7661C930.938 71.8088 931.486 71.0645 932.166 70.5332C932.847 70.002 933.597 69.7363 934.416 69.7363C935.263 69.7363 935.899 69.9217 936.325 70.2925C936.751 70.6577 936.964 71.1696 936.964 71.8281C936.964 72.8242 936.505 73.6073 935.586 74.1772C934.668 74.7417 933.353 75.0239 931.643 75.0239H931.37L931.336 75.688C931.336 76.4129 931.505 76.9801 931.843 77.3896C932.186 77.7936 932.714 77.9956 933.428 77.9956C933.777 77.9956 934.134 77.9458 934.499 77.8462C934.87 77.7466 935.329 77.564 935.877 77.2983V78.5103C935.357 78.7537 934.897 78.9225 934.499 79.0166C934.1 79.1162 933.661 79.166 933.179 79.166ZM934.333 70.9233C933.763 70.9233 933.226 71.1834 932.723 71.7036C932.225 72.2238 931.843 72.946 931.577 73.8701H931.677C932.938 73.8701 933.904 73.7069 934.574 73.3804C935.249 73.0483 935.586 72.5697 935.586 71.9443C935.586 71.651 935.484 71.4076 935.279 71.2139C935.08 71.0202 934.765 70.9233 934.333 70.9233ZM944.09 76.4185C944.09 77.2817 943.783 77.9569 943.169 78.4438C942.56 78.9253 941.699 79.166 940.587 79.166C939.652 79.166 938.808 78.9751 938.055 78.5933V77.2817C938.443 77.5142 938.86 77.694 939.309 77.8213C939.757 77.9486 940.172 78.0122 940.554 78.0122C941.251 78.0122 941.777 77.8739 942.131 77.5972C942.485 77.3205 942.662 76.9663 942.662 76.5347C942.662 76.2192 942.565 75.9536 942.372 75.7378C942.178 75.522 941.76 75.2259 941.118 74.8496C940.399 74.4456 939.89 74.05 939.591 73.6626C939.292 73.2752 939.143 72.8159 939.143 72.2847C939.143 71.521 939.422 70.9067 939.981 70.4419C940.54 69.9715 941.276 69.7363 942.189 69.7363C943.135 69.7363 944.048 69.9411 944.928 70.3506L944.48 71.4878L944.015 71.2803C943.456 71.0423 942.848 70.9233 942.189 70.9233C941.674 70.9233 941.27 71.0451 940.977 71.2886C940.684 71.5265 940.537 71.8364 940.537 72.2183C940.537 72.5282 940.634 72.7938 940.828 73.0151C941.027 73.2365 941.434 73.5215 942.048 73.8701C942.64 74.2021 943.063 74.4871 943.318 74.7251C943.578 74.9631 943.772 75.2204 943.899 75.4971C944.026 75.7682 944.09 76.0754 944.09 76.4185ZM951.888 76.4185C951.888 77.2817 951.581 77.9569 950.967 78.4438C950.358 78.9253 949.497 79.166 948.385 79.166C947.45 79.166 946.606 78.9751 945.853 78.5933V77.2817C946.241 77.5142 946.659 77.694 947.107 77.8213C947.555 77.9486 947.97 78.0122 948.352 78.0122C949.049 78.0122 949.575 77.8739 949.929 77.5972C950.283 77.3205 950.46 76.9663 950.46 76.5347C950.46 76.2192 950.363 75.9536 950.17 75.7378C949.976 75.522 949.558 75.2259 948.916 74.8496C948.197 74.4456 947.688 74.05 947.389 73.6626C947.09 73.2752 946.941 72.8159 946.941 72.2847C946.941 71.521 947.22 70.9067 947.779 70.4419C948.338 69.9715 949.074 69.7363 949.987 69.7363C950.933 69.7363 951.847 69.9411 952.726 70.3506L952.278 71.4878L951.813 71.2803C951.254 71.0423 950.646 70.9233 949.987 70.9233C949.473 70.9233 949.069 71.0451 948.775 71.2886C948.482 71.5265 948.335 71.8364 948.335 72.2183C948.335 72.5282 948.432 72.7938 948.626 73.0151C948.825 73.2365 949.232 73.5215 949.846 73.8701C950.438 74.2021 950.862 74.4871 951.116 74.7251C951.376 74.9631 951.57 75.2204 951.697 75.4971C951.824 75.7682 951.888 76.0754 951.888 76.4185Z" fill="#5A0090" fill-opacity="0.5"/>
<path d="M672.425 330.824V329.8H664.745V341H665.929V336.248H671.721V335.224H665.929V330.824H672.425ZM674.95 341H676.086V329.128H674.95V341ZM686.015 332.584V337C686.015 338.92 684.911 340.056 683.151 340.056C681.551 340.056 680.623 339.144 680.623 337.352V332.584H679.487V337.464C679.487 339.88 680.895 341.08 683.039 341.08C684.383 341.08 685.471 340.488 686.063 339.464V341H687.151V332.584H686.015ZM693.436 330.008C693.916 330.008 694.364 330.152 694.684 330.424L695.068 329.576C694.652 329.224 694.012 329.048 693.388 329.048C691.74 329.048 690.844 330.04 690.844 331.544V332.584H689.34V333.544H690.844V341H691.98V333.544H694.54V332.584H691.948V331.592C691.948 330.552 692.46 330.008 693.436 330.008ZM699.178 330.008C699.658 330.008 700.106 330.152 700.426 330.424L700.81 329.576C700.394 329.224 699.754 329.048 699.13 329.048C697.482 329.048 696.586 330.04 696.586 331.544V332.584H695.082V333.544H696.586V341H697.722V333.544H700.282V332.584H697.69V331.592C697.69 330.552 698.202 330.008 699.178 330.008ZM709.972 341.096C712.836 341.096 714.148 339.688 714.148 338.04C714.148 333.96 707.252 335.816 707.252 332.744C707.252 331.624 708.164 330.712 710.212 330.712C711.204 330.712 712.324 331.016 713.284 331.64L713.684 330.696C712.788 330.072 711.476 329.704 710.212 329.704C707.364 329.704 706.084 331.128 706.084 332.776C706.084 336.92 712.98 335.032 712.98 338.104C712.98 339.208 712.068 340.088 709.972 340.088C708.5 340.088 707.076 339.512 706.276 338.728L705.812 339.64C706.644 340.504 708.292 341.096 709.972 341.096ZM720.839 339.672C720.519 339.96 720.055 340.104 719.591 340.104C718.647 340.104 718.135 339.56 718.135 338.568V333.544H720.695V332.584H718.135V330.744H716.999V332.584H715.495V333.544H716.999V338.632C716.999 340.184 717.879 341.08 719.463 341.08C720.119 341.08 720.791 340.888 721.239 340.488L720.839 339.672ZM730.075 332.584V337C730.075 338.92 728.971 340.056 727.211 340.056C725.611 340.056 724.683 339.144 724.683 337.352V332.584H723.547V337.464C723.547 339.88 724.955 341.08 727.099 341.08C728.443 341.08 729.531 340.488 730.123 339.464V341H731.211V332.584H730.075ZM737.497 330.008C737.977 330.008 738.425 330.152 738.745 330.424L739.129 329.576C738.713 329.224 738.073 329.048 737.449 329.048C735.801 329.048 734.905 330.04 734.905 331.544V332.584H733.401V333.544H734.905V341H736.041V333.544H738.601V332.584H736.009V331.592C736.009 330.552 736.521 330.008 737.497 330.008ZM743.239 330.008C743.719 330.008 744.167 330.152 744.487 330.424L744.871 329.576C744.455 329.224 743.815 329.048 743.191 329.048C741.543 329.048 740.647 330.04 740.647 331.544V332.584H739.143V333.544H740.647V341H741.783V333.544H744.343V332.584H741.751V331.592C741.751 330.552 742.263 330.008 743.239 330.008ZM760.092 341.048C763.276 341.048 765.756 338.552 765.756 335.368C765.756 332.184 763.34 329.752 760.124 329.752C756.908 329.752 754.46 332.248 754.46 335.4C754.46 338.552 756.908 341.048 760.092 341.048ZM760.092 340.456C757.228 340.456 755.052 338.232 755.052 335.4C755.052 332.568 757.228 330.344 760.124 330.344C763.004 330.344 765.148 332.52 765.148 335.368C765.148 338.216 762.94 340.456 760.092 340.456ZM760.236 338.728C761.324 338.728 762.252 338.264 762.78 337.48L762.092 336.984C761.644 337.608 760.972 337.896 760.22 337.896C758.86 337.896 757.82 336.904 757.82 335.4C757.82 333.896 758.86 332.904 760.22 332.904C760.972 332.904 761.644 333.192 762.092 333.816L762.78 333.304C762.252 332.536 761.324 332.072 760.236 332.072C758.316 332.072 756.908 333.448 756.908 335.4C756.908 337.352 758.316 338.728 760.236 338.728ZM778.22 339.976L782.028 336.232C783.532 334.76 783.868 333.8 783.868 332.728C783.868 330.856 782.428 329.704 780.156 329.704C778.444 329.704 777.052 330.28 776.188 331.304L777.004 332.008C777.74 331.16 778.748 330.76 780.06 330.76C781.772 330.76 782.684 331.56 782.684 332.856C782.684 333.624 782.444 334.376 781.18 335.624L776.524 340.184V341H784.38V339.976H778.22ZM790.548 341.096C793.14 341.096 795.028 338.968 795.028 335.4C795.028 331.832 793.14 329.704 790.548 329.704C787.956 329.704 786.084 331.832 786.084 335.4C786.084 338.968 787.956 341.096 790.548 341.096ZM790.548 340.04C788.596 340.04 787.252 338.392 787.252 335.4C787.252 332.408 788.596 330.76 790.548 330.76C792.5 330.76 793.844 332.408 793.844 335.4C793.844 338.392 792.5 340.04 790.548 340.04ZM798.454 339.976L802.262 336.232C803.766 334.76 804.102 333.8 804.102 332.728C804.102 330.856 802.662 329.704 800.39 329.704C798.678 329.704 797.286 330.28 796.422 331.304L797.238 332.008C797.974 331.16 798.982 330.76 800.294 330.76C802.006 330.76 802.918 331.56 802.918 332.856C802.918 333.624 802.678 334.376 801.414 335.624L796.758 340.184V341H804.614V339.976H798.454ZM810.781 341.096C813.373 341.096 815.261 338.968 815.261 335.4C815.261 331.832 813.373 329.704 810.781 329.704C808.189 329.704 806.317 331.832 806.317 335.4C806.317 338.968 808.189 341.096 810.781 341.096ZM810.781 340.04C808.829 340.04 807.485 338.392 807.485 335.4C807.485 332.408 808.829 330.76 810.781 330.76C812.733 330.76 814.077 332.408 814.077 335.4C814.077 338.392 812.733 340.04 810.781 340.04Z" fill="white"/>
<defs>
<linearGradient id="paint0_linear" x1="-181.5" y1="350.307" x2="1461.22" y2="-150.046" gradientUnits="userSpaceOnUse">
<stop stop-color="#8D25DF" stop-opacity="0.86"/>
<stop offset="0.0001" stop-color="#8230EB" stop-opacity="0.86"/>
<stop offset="0.385417" stop-color="#932CE3" stop-opacity="0.75"/>
<stop offset="0.586579" stop-color="#A53AE7" stop-opacity="0.85"/>
<stop offset="1" stop-color="#B92BDD" stop-opacity="0.67"/>
</linearGradient>
</defs>
</svg>
