<svg width="14" height="18" viewBox="0 0 14 18" fill="none" xmlns="http://www.w3.org/2000/svg">
<path fill-rule="evenodd" clip-rule="evenodd" d="M6.93504 18.0001L7.44186 17.5588C11.7038 13.848 13.8701 10.6078 13.8701 7.75959C13.8701 3.72614 10.7131 0.844238 6.93504 0.844238C3.15703 0.844238 0 3.72614 0 7.75959C0 10.6078 2.16628 13.848 6.42822 17.5588L6.93504 18.0001ZM6.93506 15.953C3.31852 12.7029 1.54114 9.94886 1.54114 7.75959C1.54114 4.60665 3.97928 2.38099 6.93506 2.38099C9.89084 2.38099 12.329 4.60665 12.329 7.75959C12.329 9.94886 10.5516 12.7029 6.93506 15.953ZM6.93501 3.91768C9.06286 3.91768 10.7878 5.63774 10.7878 7.75954C10.7878 9.88134 9.06286 11.6014 6.93501 11.6014C4.80717 11.6014 3.08221 9.88134 3.08221 7.75954C3.08221 5.63774 4.80717 3.91768 6.93501 3.91768ZM4.62341 7.75964C4.62341 6.48656 5.65839 5.45453 6.93509 5.45453C8.2118 5.45453 9.24678 6.48656 9.24678 7.75964C9.24678 9.03272 8.2118 10.0648 6.93509 10.0648C5.65839 10.0648 4.62341 9.03272 4.62341 7.75964Z" fill="white"/>
</svg>
