<svg width="522" height="68" viewBox="0 0 522 68" fill="none" xmlns="http://www.w3.org/2000/svg">
<rect width="522" height="68" rx="15" fill="#5A0090"/>
<path d="M179.012 36.922H172.362L171.051 40H168.505L174.49 26.7H176.922L182.926 40H180.342L179.012 36.922ZM178.195 34.984L175.687 29.17L173.198 34.984H178.195ZM186.517 26.7H192.331C193.75 26.7 195.01 26.9787 196.112 27.536C197.214 28.0807 198.069 28.8597 198.677 29.873C199.285 30.8737 199.589 32.0327 199.589 33.35C199.589 34.6673 199.285 35.8327 198.677 36.846C198.069 37.8467 197.214 38.6257 196.112 39.183C195.01 39.7277 193.75 40 192.331 40H186.517V26.7ZM192.217 37.91C193.192 37.91 194.047 37.7263 194.782 37.359C195.529 36.979 196.099 36.447 196.492 35.763C196.897 35.0663 197.1 34.262 197.1 33.35C197.1 32.438 196.897 31.64 196.492 30.956C196.099 30.2593 195.529 29.7273 194.782 29.36C194.047 28.98 193.192 28.79 192.217 28.79H188.987V37.91H192.217ZM204.114 26.7H209.928C211.347 26.7 212.607 26.9787 213.709 27.536C214.811 28.0807 215.666 28.8597 216.274 29.873C216.882 30.8737 217.186 32.0327 217.186 33.35C217.186 34.6673 216.882 35.8327 216.274 36.846C215.666 37.8467 214.811 38.6257 213.709 39.183C212.607 39.7277 211.347 40 209.928 40H204.114V26.7ZM209.814 37.91C210.79 37.91 211.645 37.7263 212.379 37.359C213.127 36.979 213.697 36.447 214.089 35.763C214.495 35.0663 214.697 34.262 214.697 33.35C214.697 32.438 214.495 31.64 214.089 30.956C213.697 30.2593 213.127 29.7273 212.379 29.36C211.645 28.98 210.79 28.79 209.814 28.79H206.584V37.91H209.814ZM231.56 28.79H227.152V26.7H238.438V28.79H234.03V40H231.56V28.79ZM248.22 40.19C246.864 40.19 245.642 39.8987 244.553 39.316C243.463 38.7207 242.608 37.9037 241.988 36.865C241.367 35.8137 241.057 34.642 241.057 33.35C241.057 32.058 241.367 30.8927 241.988 29.854C242.608 28.8027 243.463 27.9857 244.553 27.403C245.642 26.8077 246.864 26.51 248.22 26.51C249.575 26.51 250.797 26.8077 251.887 27.403C252.976 27.9857 253.831 28.7963 254.452 29.835C255.072 30.8737 255.383 32.0453 255.383 33.35C255.383 34.6547 255.072 35.8263 254.452 36.865C253.831 37.9037 252.976 38.7207 251.887 39.316C250.797 39.8987 249.575 40.19 248.22 40.19ZM248.22 38.024C249.106 38.024 249.904 37.8277 250.614 37.435C251.323 37.0297 251.88 36.4723 252.286 35.763C252.691 35.041 252.894 34.2367 252.894 33.35C252.894 32.4633 252.691 31.6653 252.286 30.956C251.88 30.234 251.323 29.6767 250.614 29.284C249.904 28.8787 249.106 28.676 248.22 28.676C247.333 28.676 246.535 28.8787 245.826 29.284C245.116 29.6767 244.559 30.234 244.154 30.956C243.748 31.6653 243.546 32.4633 243.546 33.35C243.546 34.2367 243.748 35.041 244.154 35.763C244.559 36.4723 245.116 37.0297 245.826 37.435C246.535 37.8277 247.333 38.024 248.22 38.024ZM276.476 33.084C277.21 33.3247 277.793 33.73 278.224 34.3C278.654 34.8573 278.87 35.554 278.87 36.39C278.87 37.5427 278.426 38.4357 277.54 39.069C276.653 39.6897 275.361 40 273.664 40H267.052V26.7H273.284C274.854 26.7 276.064 27.0103 276.913 27.631C277.761 28.239 278.186 29.0813 278.186 30.158C278.186 30.8167 278.034 31.3993 277.73 31.906C277.426 32.4127 277.008 32.8053 276.476 33.084ZM269.522 28.638V32.305H273.018C273.879 32.305 274.538 32.153 274.994 31.849C275.462 31.5323 275.697 31.0763 275.697 30.481C275.697 29.873 275.462 29.417 274.994 29.113C274.538 28.7963 273.879 28.638 273.018 28.638H269.522ZM273.512 38.062C275.424 38.062 276.381 37.4223 276.381 36.143C276.381 34.8637 275.424 34.224 273.512 34.224H269.522V38.062H273.512ZM292.032 36.922H285.382L284.071 40H281.525L287.51 26.7H289.942L295.946 40H293.362L292.032 36.922ZM291.215 34.984L288.707 29.17L286.218 34.984H291.215ZM303.66 40.19C302.634 40.19 301.64 40.0443 300.677 39.753C299.727 39.4617 298.974 39.0753 298.416 38.594L299.271 36.675C299.816 37.1057 300.481 37.4603 301.266 37.739C302.064 38.005 302.862 38.138 303.66 38.138C304.648 38.138 305.383 37.9797 305.864 37.663C306.358 37.3463 306.605 36.9283 306.605 36.409C306.605 36.029 306.466 35.7187 306.187 35.478C305.921 35.2247 305.579 35.0283 305.161 34.889C304.743 34.7497 304.173 34.5913 303.451 34.414C302.438 34.1733 301.615 33.9327 300.981 33.692C300.361 33.4513 299.822 33.0777 299.366 32.571C298.923 32.0517 298.701 31.355 298.701 30.481C298.701 29.7463 298.898 29.0813 299.29 28.486C299.696 27.878 300.297 27.3967 301.095 27.042C301.906 26.6873 302.894 26.51 304.059 26.51C304.87 26.51 305.668 26.6113 306.453 26.814C307.239 27.0167 307.916 27.308 308.486 27.688L307.707 29.607C307.125 29.265 306.517 29.0053 305.883 28.828C305.25 28.6507 304.636 28.562 304.04 28.562C303.065 28.562 302.337 28.7267 301.855 29.056C301.387 29.3853 301.152 29.8223 301.152 30.367C301.152 30.747 301.285 31.0573 301.551 31.298C301.83 31.5387 302.178 31.7287 302.596 31.868C303.014 32.0073 303.584 32.1657 304.306 32.343C305.294 32.571 306.105 32.8117 306.738 33.065C307.372 33.3057 307.91 33.6793 308.353 34.186C308.809 34.6927 309.037 35.3767 309.037 36.238C309.037 36.9727 308.835 37.6377 308.429 38.233C308.037 38.8283 307.435 39.3033 306.624 39.658C305.814 40.0127 304.826 40.19 303.66 40.19ZM317.965 34.433L315.856 36.599V40H313.386V26.7H315.856V33.521L322.43 26.7H325.204L319.618 32.647L325.546 40H322.658L317.965 34.433ZM339.103 37.929V40H329.128V26.7H338.837V28.771H331.598V32.229H338.02V34.262H331.598V37.929H339.103ZM346.455 28.79H342.047V26.7H353.333V28.79H348.925V40H346.455V28.79Z" fill="white"/>
</svg>
