<svg width="192" height="55" viewBox="0 0 192 55" fill="none" xmlns="http://www.w3.org/2000/svg">
<rect width="192" height="55" rx="27.5" fill="#5A0090"/>
<path d="M55.5521 33H57.7281L52.6721 21.8H50.6241L45.5841 33H47.7281L48.8321 30.408H54.4321L55.5521 33ZM49.5361 28.776L51.6321 23.88L53.7441 28.776H49.5361ZM60.5924 33H65.4884C69.1204 33 71.6004 30.76 71.6004 27.4C71.6004 24.04 69.1204 21.8 65.4884 21.8H60.5924V33ZM62.6724 31.24V23.56H65.3924C67.8884 23.56 69.5044 25.08 69.5044 27.4C69.5044 29.72 67.8884 31.24 65.3924 31.24H62.6724ZM75.2512 33H80.1472C83.7792 33 86.2592 30.76 86.2592 27.4C86.2592 24.04 83.7792 21.8 80.1472 21.8H75.2512V33ZM77.3312 31.24V23.56H80.0512C82.5472 23.56 84.1632 25.08 84.1632 27.4C84.1632 29.72 82.5472 31.24 80.0512 31.24H77.3312ZM100.956 33.16C102.796 33.16 104.364 32.504 105.404 31.288L104.06 30.008C103.244 30.904 102.236 31.336 101.068 31.336C98.7478 31.336 97.0678 29.704 97.0678 27.4C97.0678 25.096 98.7478 23.464 101.068 23.464C102.236 23.464 103.244 23.896 104.06 24.776L105.404 23.512C104.364 22.296 102.796 21.64 100.972 21.64C97.5318 21.64 94.9718 24.056 94.9718 27.4C94.9718 30.744 97.5318 33.16 100.956 33.16ZM116.986 33H119.162L114.106 21.8H112.058L107.018 33H109.162L110.266 30.408H115.866L116.986 33ZM110.97 28.776L113.066 23.88L115.178 28.776H110.97ZM131.595 33L129.019 29.32C130.539 28.728 131.403 27.48 131.403 25.784C131.403 23.304 129.579 21.8 126.635 21.8H122.027V33H124.107V29.736H126.635C126.779 29.736 126.923 29.736 127.067 29.72L129.355 33H131.595ZM129.307 25.784C129.307 27.192 128.363 28.024 126.539 28.024H124.107V23.56H126.539C128.363 23.56 129.307 24.376 129.307 25.784ZM135.17 33H140.066C143.698 33 146.178 30.76 146.178 27.4C146.178 24.04 143.698 21.8 140.066 21.8H135.17V33ZM137.25 31.24V23.56H139.97C142.466 23.56 144.082 25.08 144.082 27.4C144.082 29.72 142.466 31.24 139.97 31.24H137.25Z" fill="white"/>
</svg>
