<svg width="444" height="78" viewBox="0 0 444 78" fill="none" xmlns="http://www.w3.org/2000/svg">
<path d="M12.1 7.18V5H1.88V19H4.48V13.64H11.24V11.44H4.48V7.18H12.1ZM15.2144 19H17.8144V5H15.2144V19ZM22.2011 19H32.1211V16.8H24.8011V5H22.2011V19ZM34.7737 19H44.6937V16.8H37.3737V5H34.7737V19ZM47.3464 19H49.9464V5H47.3464V19ZM64.1931 5V14.48L56.4731 5H54.3331V19H56.9131V9.52L64.6331 19H66.7731V5H64.1931ZM80.6845 16.2C79.7845 16.72 78.8045 16.92 77.8045 16.92C74.8445 16.92 72.7445 14.84 72.7445 12C72.7445 9.1 74.8445 7.08 77.8245 7.08C79.3245 7.08 80.5845 7.58 81.6845 8.68L83.3245 7.08C82.0045 5.58 80.0445 4.8 77.7045 4.8C73.3245 4.8 70.1245 7.82 70.1245 12C70.1245 16.18 73.3245 19.2 77.6645 19.2C79.6445 19.2 81.6845 18.6 83.1445 17.42V11.84H80.6845V16.2Z" fill="#5A0091"/>
<path d="M97.8699 6.49L96.0999 8.26L106 18.16L115.9 8.26L114.13 6.49L106 14.62L97.8699 6.49Z" fill="#5A0090"/>
<path d="M244.22 19.2C248.06 19.2 249.88 17.28 249.88 15.04C249.88 9.9 241.58 11.84 241.58 8.86C241.58 7.8 242.46 6.96 244.62 6.96C245.84 6.96 247.22 7.32 248.48 8.06L249.3 6.04C248.08 5.24 246.32 4.8 244.64 4.8C240.8 4.8 239 6.72 239 8.98C239 14.18 247.32 12.2 247.32 15.22C247.32 16.26 246.4 17.04 244.22 17.04C242.5 17.04 240.72 16.4 239.6 15.5L238.7 17.52C239.86 18.52 242.04 19.2 244.22 19.2ZM253.058 19H255.658V5H253.058V19ZM262.425 16.8L270.665 6.74V5H259.125V7.2H267.225L258.985 17.26V19H270.925V16.8H262.425ZM276.507 16.82V12.96H283.267V10.82H276.507V7.18H284.127V5H273.907V19H284.407V16.82H276.507Z" fill="#5A0091"/>
<path d="M296.87 6.49L295.1 8.26L305 18.16L314.9 8.26L313.13 6.49L305 14.62L296.87 6.49Z" fill="#5A0090"/>
<rect x="1" y="41" width="210" height="33" rx="16.5" stroke="black" stroke-opacity="0.26" stroke-width="2"/>
<line x1="15.5425" y1="52.3353" x2="27.5425" y2="64.3353" stroke="black" stroke-opacity="0.5"/>
<line y1="-0.5" x2="16.9705" y2="-0.5" transform="matrix(-0.707107 0.707107 0.707107 0.707107 27.189 52.6888)" stroke="black" stroke-opacity="0.5"/>
<path d="M37.596 63H41.586C44.722 63 46.836 60.984 46.836 58.1C46.836 55.216 44.722 53.2 41.586 53.2H37.596V63ZM38.632 62.104V54.096H41.53C44.134 54.096 45.814 55.748 45.814 58.1C45.814 60.452 44.134 62.104 41.53 62.104H38.632ZM55.0144 55.636V59.5C55.0144 61.18 54.0484 62.174 52.5084 62.174C51.1084 62.174 50.2964 61.376 50.2964 59.808V55.636H49.3024V59.906C49.3024 62.02 50.5344 63.07 52.4104 63.07C53.5864 63.07 54.5384 62.552 55.0564 61.656V63H56.0084V55.636H55.0144ZM62.2643 63.07C63.5103 63.07 64.5603 62.566 65.1483 61.614L64.4063 61.11C63.9023 61.852 63.1183 62.188 62.2643 62.188C60.6543 62.188 59.4783 61.054 59.4783 59.318C59.4783 57.596 60.6543 56.448 62.2643 56.448C63.1183 56.448 63.9023 56.798 64.4063 57.54L65.1483 57.036C64.5603 56.07 63.5103 55.58 62.2643 55.58C60.0663 55.58 58.4703 57.12 58.4703 59.318C58.4703 61.516 60.0663 63.07 62.2643 63.07ZM73.1096 63H74.3276L70.8836 58.646L74.0336 55.636H72.8016L68.4056 59.654V52.612H67.4116V63H68.4056V60.9L70.1416 59.304L73.1096 63ZM80.5339 63H84.5239C87.6599 63 89.7739 60.984 89.7739 58.1C89.7739 55.216 87.6599 53.2 84.5239 53.2H80.5339V63ZM81.5699 62.104V54.096H84.4679C87.0719 54.096 88.7519 55.748 88.7519 58.1C88.7519 60.452 87.0719 62.104 84.4679 62.104H81.5699ZM95.3203 63.07C97.4763 63.07 99.0583 61.502 99.0583 59.318C99.0583 57.134 97.4763 55.58 95.3203 55.58C93.1643 55.58 91.5683 57.134 91.5683 59.318C91.5683 61.502 93.1643 63.07 95.3203 63.07ZM95.3203 62.188C93.7523 62.188 92.5763 61.04 92.5763 59.318C92.5763 57.596 93.7523 56.448 95.3203 56.448C96.8883 56.448 98.0503 57.596 98.0503 59.318C98.0503 61.04 96.8883 62.188 95.3203 62.188ZM111.201 55.636L108.863 61.894L106.511 55.636H105.657L103.291 61.894L100.981 55.636H100.029L102.801 63H103.739L106.063 56.966L108.387 63H109.325L112.111 55.636H111.201ZM117.779 55.58C116.505 55.58 115.511 56.098 114.979 56.994V55.636H114.027V63H115.021V59.136C115.021 57.456 116.015 56.476 117.597 56.476C118.997 56.476 119.809 57.274 119.809 58.828V63H120.803V58.73C120.803 56.616 119.571 55.58 117.779 55.58Z" fill="black" fill-opacity="0.5"/>
<rect x="233" y="44" width="210" height="33" rx="16.5" stroke="black" stroke-opacity="0.26" stroke-width="2"/>
<line x1="247.543" y1="55.3353" x2="259.543" y2="67.3353" stroke="black" stroke-opacity="0.5"/>
<line y1="-0.5" x2="16.9705" y2="-0.5" transform="matrix(-0.707107 0.707107 0.707107 0.707107 259.189 55.6888)" stroke="black" stroke-opacity="0.5"/>
<path d="M271.5 66H272.536V57.096H275.98V56.2H268.056V57.096H271.5V66ZM287.265 58.636L284.927 64.894L282.575 58.636H281.721L279.355 64.894L277.045 58.636H276.093L278.865 66H279.803L282.127 59.966L284.451 66H285.389L288.175 58.636H287.265ZM290.595 57.026C291.015 57.026 291.323 56.704 291.323 56.298C291.323 55.92 291.001 55.612 290.595 55.612C290.189 55.612 289.867 55.934 289.867 56.312C289.867 56.704 290.189 57.026 290.595 57.026ZM290.091 66H291.085V58.636H290.091V66ZM298.023 58.58C296.749 58.58 295.755 59.098 295.223 59.994V58.636H294.271V66H295.265V62.136C295.265 60.456 296.259 59.476 297.841 59.476C299.241 59.476 300.053 60.274 300.053 61.828V66H301.047V61.73C301.047 59.616 299.815 58.58 298.023 58.58ZM315.81 66L312.072 60.932L315.544 56.2H314.424L311.484 60.204L308.53 56.2H307.34L310.826 60.96L307.102 66H308.292L311.442 61.688L314.606 66H315.81ZM317.725 66H324.249V65.104H318.761V56.2H317.725V66Z" fill="black" fill-opacity="0.5"/>
</svg>
