<?xml version="1.0" encoding="utf-8"?>
<!-- Generator: Adobe Illustrator 24.3.0, SVG Export Plug-In . SVG Version: 6.00 Build 0)  -->
<svg version="1.1" id="Layer_1" xmlns="http://www.w3.org/2000/svg" xmlns:xlink="http://www.w3.org/1999/xlink" x="0px" y="0px"
	 viewBox="0 0 40 37" style="enable-background:new 0 0 40 37;" xml:space="preserve">
<style type="text/css">
	.st0{fill-rule:evenodd;clip-rule:evenodd;fill-opacity:0.5;}
</style>
<path class="st0" d="M11.7,9.3c0.5-3.4,4.1-6.2,8.3-6.2s7.8,2.8,8.3,6.2h4.8c1.8,0,3.3,1.4,3.3,3.1c0,0.1,0,0.3,0,0.4l-2.9,18.5
	c-0.2,1.5-1.6,2.6-3.3,2.6H9.8c-1.7,0-3.1-1.1-3.3-2.6L3.6,12.8c-0.3-1.7,1-3.2,2.8-3.5c0.2,0,0.3,0,0.5,0H11.7z M15.1,9.3h9.8
	c-0.5-1.6-2.5-3.1-4.9-3.1C17.7,6.2,15.6,7.6,15.1,9.3z M6.9,12.3h4.7v3.1H15v-3.1h10v3.1h3.3v-3.1h4.7l-2.9,18.5H9.8L6.9,12.3z"/>
</svg>
