<svg width="295" height="59" viewBox="0 0 295 59" fill="none" xmlns="http://www.w3.org/2000/svg">
<rect width="295" height="59" rx="10" fill="#5A0090"/>
<path d="M94.2794 36.19C96.4644 36.19 98.3264 35.411 99.5614 33.967L97.9654 32.447C96.9964 33.511 95.7994 34.024 94.4124 34.024C91.6574 34.024 89.6624 32.086 89.6624 29.35C89.6624 26.614 91.6574 24.676 94.4124 24.676C95.7994 24.676 96.9964 25.189 97.9654 26.234L99.5614 24.733C98.3264 23.289 96.4644 22.51 94.2984 22.51C90.2134 22.51 87.1734 25.379 87.1734 29.35C87.1734 33.321 90.2134 36.19 94.2794 36.19ZM112.986 22.7V28.191H106.108V22.7H103.638V36H106.108V30.3H112.986V36H115.456V22.7H112.986ZM123.2 33.929V30.262H129.622V28.229H123.2V24.771H130.439V22.7H120.73V36H130.705V33.929H123.2ZM141.269 36.19C143.454 36.19 145.316 35.411 146.551 33.967L144.955 32.447C143.986 33.511 142.789 34.024 141.402 34.024C138.647 34.024 136.652 32.086 136.652 29.35C136.652 26.614 138.647 24.676 141.402 24.676C142.789 24.676 143.986 25.189 144.955 26.234L146.551 24.733C145.316 23.289 143.454 22.51 141.288 22.51C137.203 22.51 134.163 25.379 134.163 29.35C134.163 33.321 137.203 36.19 141.269 36.19ZM159.899 36H162.787L156.859 28.647L162.445 22.7H159.671L153.097 29.521V22.7H150.627V36H153.097V32.599L155.206 30.433L159.899 36ZM171.91 36.19C176.033 36.19 179.073 33.302 179.073 29.35C179.073 25.398 176.033 22.51 171.91 22.51C167.787 22.51 164.747 25.417 164.747 29.35C164.747 33.283 167.787 36.19 171.91 36.19ZM171.91 34.024C169.231 34.024 167.236 32.067 167.236 29.35C167.236 26.633 169.231 24.676 171.91 24.676C174.589 24.676 176.584 26.633 176.584 29.35C176.584 32.067 174.589 34.024 171.91 34.024ZM189.12 36.19C192.749 36.19 194.934 34.081 194.934 30.205V22.7H192.502V30.11C192.502 32.846 191.286 34.024 189.139 34.024C186.992 34.024 185.757 32.846 185.757 30.11V22.7H183.287V30.205C183.287 34.081 185.472 36.19 189.12 36.19ZM202.56 36H205.03V24.79H209.438V22.7H198.152V24.79H202.56V36Z" fill="white"/>
</svg>
