<svg width="368" height="59" viewBox="0 0 368 59" fill="none" xmlns="http://www.w3.org/2000/svg">
<rect width="368" height="59" rx="10" fill="#5A0090"/>
<path d="M66.6901 36.19C68.8751 36.19 70.7371 35.411 71.9721 33.967L70.3761 32.447C69.4071 33.511 68.2101 34.024 66.8231 34.024C64.0681 34.024 62.0731 32.086 62.0731 29.35C62.0731 26.614 64.0681 24.676 66.8231 24.676C68.2101 24.676 69.4071 25.189 70.3761 26.234L71.9721 24.733C70.7371 23.289 68.8751 22.51 66.7091 22.51C62.6241 22.51 59.5841 25.379 59.5841 29.35C59.5841 33.321 62.6241 36.19 66.6901 36.19ZM81.9834 36.19C86.1064 36.19 89.1464 33.302 89.1464 29.35C89.1464 25.398 86.1064 22.51 81.9834 22.51C77.8604 22.51 74.8204 25.417 74.8204 29.35C74.8204 33.283 77.8604 36.19 81.9834 36.19ZM81.9834 34.024C79.3044 34.024 77.3094 32.067 77.3094 29.35C77.3094 26.633 79.3044 24.676 81.9834 24.676C84.6624 24.676 86.6574 26.633 86.6574 29.35C86.6574 32.067 84.6624 34.024 81.9834 34.024ZM102.842 22.7V31.706L95.5076 22.7H93.4746V36H95.9256V26.994L103.26 36H105.293V22.7H102.842ZM113.264 36H115.734V24.79H120.142V22.7H108.856V24.79H113.264V36ZM123.706 36H126.176V22.7H123.706V36ZM140.85 22.7V31.706L133.516 22.7H131.483V36H133.934V26.994L141.268 36H143.301V22.7H140.85ZM154.294 36.19C157.923 36.19 160.108 34.081 160.108 30.205V22.7H157.676V30.11C157.676 32.846 156.46 34.024 154.313 34.024C152.166 34.024 150.931 32.846 150.931 30.11V22.7H148.461V30.205C148.461 34.081 150.646 36.19 154.294 36.19ZM167.747 33.929V30.262H174.169V28.229H167.747V24.771H174.986V22.7H165.277V36H175.252V33.929H167.747ZM196.101 29.084C197.127 28.533 197.811 27.526 197.811 26.158C197.811 24.049 196.101 22.7 192.909 22.7H186.677V36H193.289C196.709 36 198.495 34.67 198.495 32.39C198.495 30.661 197.526 29.54 196.101 29.084ZM192.643 24.638C194.353 24.638 195.322 25.246 195.322 26.481C195.322 27.697 194.353 28.305 192.643 28.305H189.147V24.638H192.643ZM193.137 34.062H189.147V30.224H193.137C194.999 30.224 196.006 30.813 196.006 32.143C196.006 33.473 194.999 34.062 193.137 34.062ZM214.203 36L211.144 31.63C212.949 30.927 213.975 29.445 213.975 27.431C213.975 24.486 211.809 22.7 208.313 22.7H202.841V36H205.311V32.124H208.313C208.484 32.124 208.655 32.124 208.826 32.105L211.543 36H214.203ZM211.486 27.431C211.486 29.103 210.365 30.091 208.199 30.091H205.311V24.79H208.199C210.365 24.79 211.486 25.759 211.486 27.431ZM224.662 36.19C228.785 36.19 231.825 33.302 231.825 29.35C231.825 25.398 228.785 22.51 224.662 22.51C220.539 22.51 217.499 25.417 217.499 29.35C217.499 33.283 220.539 36.19 224.662 36.19ZM224.662 34.024C221.983 34.024 219.988 32.067 219.988 29.35C219.988 26.633 221.983 24.676 224.662 24.676C227.341 24.676 229.336 26.633 229.336 29.35C229.336 32.067 227.341 34.024 224.662 34.024ZM252.807 22.7L249.406 32.865L246.043 22.7H243.763L240.324 32.808L237.018 22.7H234.453L238.861 36H241.502L244.846 26.158L248.133 36H250.755L255.163 22.7H252.807ZM263.008 36.19C266.656 36.19 268.385 34.366 268.385 32.238C268.385 27.355 260.5 29.198 260.5 26.367C260.5 25.36 261.336 24.562 263.388 24.562C264.547 24.562 265.858 24.904 267.055 25.607L267.834 23.688C266.675 22.928 265.003 22.51 263.407 22.51C259.759 22.51 258.049 24.334 258.049 26.481C258.049 31.421 265.953 29.54 265.953 32.409C265.953 33.397 265.079 34.138 263.008 34.138C261.374 34.138 259.683 33.53 258.619 32.675L257.764 34.594C258.866 35.544 260.937 36.19 263.008 36.19ZM272.544 36H275.014V22.7H272.544V36ZM289.689 22.7V31.706L282.355 22.7H280.322V36H282.773V26.994L290.107 36H292.14V22.7H289.689ZM306.496 33.34C305.641 33.834 304.71 34.024 303.76 34.024C300.948 34.024 298.953 32.048 298.953 29.35C298.953 26.595 300.948 24.676 303.779 24.676C305.204 24.676 306.401 25.151 307.446 26.196L309.004 24.676C307.75 23.251 305.888 22.51 303.665 22.51C299.504 22.51 296.464 25.379 296.464 29.35C296.464 33.321 299.504 36.19 303.627 36.19C305.508 36.19 307.446 35.62 308.833 34.499V29.198H306.496V33.34Z" fill="white"/>
</svg>
