<svg width="212" height="35" viewBox="0 0 212 35" fill="none" xmlns="http://www.w3.org/2000/svg">
<rect x="1" y="1" width="210" height="33" rx="16.5" stroke="black" stroke-opacity="0.26" stroke-width="2"/>
<line x1="15.5425" y1="12.3353" x2="27.5425" y2="24.3353" stroke="black" stroke-opacity="0.5"/>
<line y1="-0.5" x2="16.9705" y2="-0.5" transform="matrix(-0.707107 0.707107 0.707107 0.707107 27.189 12.6888)" stroke="black" stroke-opacity="0.5"/>
<path d="M37.596 23H41.586C44.722 23 46.836 20.984 46.836 18.1C46.836 15.216 44.722 13.2 41.586 13.2H37.596V23ZM38.632 22.104V14.096H41.53C44.134 14.096 45.814 15.748 45.814 18.1C45.814 20.452 44.134 22.104 41.53 22.104H38.632ZM55.0144 15.636V19.5C55.0144 21.18 54.0484 22.174 52.5084 22.174C51.1084 22.174 50.2964 21.376 50.2964 19.808V15.636H49.3024V19.906C49.3024 22.02 50.5344 23.07 52.4104 23.07C53.5864 23.07 54.5384 22.552 55.0564 21.656V23H56.0084V15.636H55.0144ZM62.2643 23.07C63.5103 23.07 64.5603 22.566 65.1483 21.614L64.4063 21.11C63.9023 21.852 63.1183 22.188 62.2643 22.188C60.6543 22.188 59.4783 21.054 59.4783 19.318C59.4783 17.596 60.6543 16.448 62.2643 16.448C63.1183 16.448 63.9023 16.798 64.4063 17.54L65.1483 17.036C64.5603 16.07 63.5103 15.58 62.2643 15.58C60.0663 15.58 58.4703 17.12 58.4703 19.318C58.4703 21.516 60.0663 23.07 62.2643 23.07ZM73.1096 23H74.3276L70.8836 18.646L74.0336 15.636H72.8016L68.4056 19.654V12.612H67.4116V23H68.4056V20.9L70.1416 19.304L73.1096 23ZM80.5339 23H84.5239C87.6599 23 89.7739 20.984 89.7739 18.1C89.7739 15.216 87.6599 13.2 84.5239 13.2H80.5339V23ZM81.5699 22.104V14.096H84.4679C87.0719 14.096 88.7519 15.748 88.7519 18.1C88.7519 20.452 87.0719 22.104 84.4679 22.104H81.5699ZM95.3203 23.07C97.4763 23.07 99.0583 21.502 99.0583 19.318C99.0583 17.134 97.4763 15.58 95.3203 15.58C93.1643 15.58 91.5683 17.134 91.5683 19.318C91.5683 21.502 93.1643 23.07 95.3203 23.07ZM95.3203 22.188C93.7523 22.188 92.5763 21.04 92.5763 19.318C92.5763 17.596 93.7523 16.448 95.3203 16.448C96.8883 16.448 98.0503 17.596 98.0503 19.318C98.0503 21.04 96.8883 22.188 95.3203 22.188ZM111.201 15.636L108.863 21.894L106.511 15.636H105.657L103.291 21.894L100.981 15.636H100.029L102.801 23H103.739L106.063 16.966L108.387 23H109.325L112.111 15.636H111.201ZM117.779 15.58C116.505 15.58 115.511 16.098 114.979 16.994V15.636H114.027V23H115.021V19.136C115.021 17.456 116.015 16.476 117.597 16.476C118.997 16.476 119.809 17.274 119.809 18.828V23H120.803V18.73C120.803 16.616 119.571 15.58 117.779 15.58Z" fill="black" fill-opacity="0.5"/>
</svg>
