<svg width="295" height="59" viewBox="0 0 295 59" fill="none" xmlns="http://www.w3.org/2000/svg">
<rect width="295" height="59" rx="10" fill="#5A0090"/>
<path d="M75.0733 22.7H69.6013V36H72.0713V32.162H75.0733C78.5693 32.162 80.7353 30.357 80.7353 27.431C80.7353 24.486 78.5693 22.7 75.0733 22.7ZM74.9593 30.072H72.0713V24.79H74.9593C77.1253 24.79 78.2463 25.759 78.2463 27.431C78.2463 29.103 77.1253 30.072 74.9593 30.072ZM84.9119 36H94.3359V33.91H87.3819V22.7H84.9119V36ZM108.045 36H110.629L104.625 22.7H102.193L96.2077 36H98.7537L100.065 32.922H106.715L108.045 36ZM100.901 30.984L103.39 25.17L105.898 30.984H100.901ZM120.001 36.19C122.186 36.19 124.048 35.411 125.283 33.967L123.687 32.447C122.718 33.511 121.521 34.024 120.134 34.024C117.379 34.024 115.384 32.086 115.384 29.35C115.384 26.614 117.379 24.676 120.134 24.676C121.521 24.676 122.718 25.189 123.687 26.234L125.283 24.733C124.048 23.289 122.186 22.51 120.02 22.51C115.935 22.51 112.895 25.379 112.895 29.35C112.895 33.321 115.935 36.19 120.001 36.19ZM131.829 33.929V30.262H138.251V28.229H131.829V24.771H139.068V22.7H129.359V36H139.334V33.929H131.829ZM156.972 36.19C161.095 36.19 164.135 33.302 164.135 29.35C164.135 25.398 161.095 22.51 156.972 22.51C152.849 22.51 149.809 25.417 149.809 29.35C149.809 33.283 152.849 36.19 156.972 36.19ZM156.972 34.024C154.293 34.024 152.298 32.067 152.298 29.35C152.298 26.633 154.293 24.676 156.972 24.676C159.651 24.676 161.646 26.633 161.646 29.35C161.646 32.067 159.651 34.024 156.972 34.024ZM179.825 36L176.766 31.63C178.571 30.927 179.597 29.445 179.597 27.431C179.597 24.486 177.431 22.7 173.935 22.7H168.463V36H170.933V32.124H173.935C174.106 32.124 174.277 32.124 174.448 32.105L177.165 36H179.825ZM177.108 27.431C177.108 29.103 175.987 30.091 173.821 30.091H170.933V24.79H173.821C175.987 24.79 177.108 25.759 177.108 27.431ZM184.07 36H189.884C194.197 36 197.142 33.34 197.142 29.35C197.142 25.36 194.197 22.7 189.884 22.7H184.07V36ZM186.54 33.91V24.79H189.77C192.734 24.79 194.653 26.595 194.653 29.35C194.653 32.105 192.734 33.91 189.77 33.91H186.54ZM203.948 33.929V30.262H210.37V28.229H203.948V24.771H211.187V22.7H201.478V36H211.453V33.929H203.948ZM227.278 36L224.219 31.63C226.024 30.927 227.05 29.445 227.05 27.431C227.05 24.486 224.884 22.7 221.388 22.7H215.916V36H218.386V32.124H221.388C221.559 32.124 221.73 32.124 221.901 32.105L224.618 36H227.278ZM224.561 27.431C224.561 29.103 223.44 30.091 221.274 30.091H218.386V24.79H221.274C223.44 24.79 224.561 25.759 224.561 27.431Z" fill="white"/>
</svg>
