<svg width="1140" height="181" viewBox="0 0 1140 181" fill="none" xmlns="http://www.w3.org/2000/svg">
<path d="M102.181 33L102.157 16.2H99.5886L93.0366 27.336L86.3646 16.2H83.7966V33H86.7726V22.008L92.2926 31.08H93.6846L99.2046 21.864L99.2286 33H102.181ZM119.199 26.664C119.199 22.656 116.463 20.04 112.719 20.04C108.903 20.04 106.095 22.776 106.095 26.592C106.095 30.408 108.879 33.168 113.175 33.168C115.383 33.168 117.183 32.448 118.335 31.08L116.727 29.232C115.815 30.168 114.687 30.624 113.247 30.624C111.015 30.624 109.455 29.424 109.095 27.552H119.151C119.175 27.264 119.199 26.904 119.199 26.664ZM112.719 22.44C114.687 22.44 116.103 23.712 116.343 25.56H109.071C109.359 23.688 110.775 22.44 112.719 22.44ZM138.976 20.04C136.936 20.04 135.208 20.856 134.176 22.176C133.288 20.736 131.728 20.04 129.856 20.04C128.104 20.04 126.616 20.664 125.656 21.816V20.184H122.8V33H125.8V26.496C125.8 23.952 127.144 22.656 129.136 22.656C130.96 22.656 132.016 23.76 132.016 26.04V33H135.016V26.496C135.016 23.952 136.384 22.656 138.352 22.656C140.176 22.656 141.232 23.76 141.232 26.04V33H144.232V25.656C144.232 21.792 142.072 20.04 138.976 20.04ZM154.663 33.168C158.647 33.168 161.503 30.432 161.503 26.592C161.503 22.752 158.647 20.04 154.663 20.04C150.727 20.04 147.847 22.752 147.847 26.592C147.847 30.432 150.727 33.168 154.663 33.168ZM154.663 30.6C152.503 30.6 150.871 29.04 150.871 26.592C150.871 24.144 152.503 22.584 154.663 22.584C156.847 22.584 158.479 24.144 158.479 26.592C158.479 29.04 156.847 30.6 154.663 30.6ZM167.948 22.056V20.184H165.092V33H168.092V26.784C168.092 24.168 169.532 22.824 171.812 22.824C172.028 22.824 172.244 22.848 172.508 22.896V20.04C170.372 20.04 168.812 20.712 167.948 22.056ZM185.361 20.184L181.305 29.664L177.273 20.184H174.153L179.745 33.048L179.529 33.552C178.953 34.824 178.329 35.328 177.273 35.328C176.457 35.328 175.641 34.992 175.065 34.44L173.865 36.648C174.681 37.392 176.025 37.824 177.297 37.824C179.433 37.824 181.065 36.936 182.241 34.032L188.241 20.184H185.361ZM210.741 18.816V16.2H198.477V33H201.597V26.568H209.709V23.928H201.597V18.816H210.741ZM219.599 33.168C223.583 33.168 226.439 30.432 226.439 26.592C226.439 22.752 223.583 20.04 219.599 20.04C215.663 20.04 212.783 22.752 212.783 26.592C212.783 30.432 215.663 33.168 219.599 33.168ZM219.599 30.6C217.439 30.6 215.807 29.04 215.807 26.592C215.807 24.144 217.439 22.584 219.599 22.584C221.783 22.584 223.415 24.144 223.415 26.592C223.415 29.04 221.783 30.6 219.599 30.6ZM234.76 20.04C232.696 20.04 230.704 20.568 229.336 21.624L230.512 23.808C231.472 23.016 232.96 22.536 234.4 22.536C236.536 22.536 237.592 23.568 237.592 25.32V25.512H234.28C230.392 25.512 228.952 27.192 228.952 29.328C228.952 31.56 230.8 33.168 233.728 33.168C235.648 33.168 237.04 32.544 237.76 31.44V33H240.592V25.488C240.592 21.792 238.456 20.04 234.76 20.04ZM234.352 30.984C232.816 30.984 231.904 30.288 231.904 29.208C231.904 28.272 232.456 27.504 234.496 27.504H237.592V28.992C237.088 30.312 235.816 30.984 234.352 30.984ZM261.338 20.04C259.298 20.04 257.57 20.856 256.538 22.176C255.65 20.736 254.09 20.04 252.218 20.04C250.466 20.04 248.978 20.664 248.018 21.816V20.184H245.162V33H248.162V26.496C248.162 23.952 249.506 22.656 251.498 22.656C253.322 22.656 254.378 23.76 254.378 26.04V33H257.378V26.496C257.378 23.952 258.746 22.656 260.714 22.656C262.538 22.656 263.594 23.76 263.594 26.04V33H266.594V25.656C266.594 21.792 264.434 20.04 261.338 20.04Z" fill="#5A0090"/>
<path d="M6.07646 150.108C9.29846 150.108 10.7745 148.524 10.7745 146.67C10.7745 142.08 3.01646 144.168 3.01646 140.712C3.01646 139.452 4.04246 138.426 6.34646 138.426C7.46246 138.426 8.72246 138.768 9.80246 139.47L10.2525 138.408C9.24446 137.706 7.76846 137.292 6.34646 137.292C3.14246 137.292 1.70246 138.894 1.70246 140.748C1.70246 145.41 9.46046 143.286 9.46046 146.742C9.46046 147.984 8.43446 148.974 6.07646 148.974C4.42046 148.974 2.81846 148.326 1.91846 147.444L1.39646 148.47C2.33246 149.442 4.18646 150.108 6.07646 150.108ZM21.2007 140.532V145.5C21.2007 147.66 19.9587 148.938 17.9787 148.938C16.1787 148.938 15.1347 147.912 15.1347 145.896V140.532H13.8567V146.022C13.8567 148.74 15.4407 150.09 17.8527 150.09C19.3647 150.09 20.5887 149.424 21.2547 148.272V150H22.4787V140.532H21.2007ZM31.476 140.46C29.91 140.46 28.596 141.144 27.822 142.404V140.532H26.598V153.492H27.876V148.218C28.668 149.442 29.964 150.09 31.476 150.09C34.176 150.09 36.192 148.146 36.192 145.266C36.192 142.404 34.176 140.46 31.476 140.46ZM31.386 148.956C29.37 148.956 27.858 147.48 27.858 145.266C27.858 143.07 29.37 141.576 31.386 141.576C33.384 141.576 34.914 143.07 34.914 145.266C34.914 147.48 33.384 148.956 31.386 148.956ZM44.2152 140.46C42.6492 140.46 41.3352 141.144 40.5612 142.404V140.532H39.3372V153.492H40.6152V148.218C41.4072 149.442 42.7032 150.09 44.2152 150.09C46.9152 150.09 48.9312 148.146 48.9312 145.266C48.9312 142.404 46.9152 140.46 44.2152 140.46ZM44.1252 148.956C42.1092 148.956 40.5972 147.48 40.5972 145.266C40.5972 143.07 42.1092 141.576 44.1252 141.576C46.1232 141.576 47.6532 143.07 47.6532 145.266C47.6532 147.48 46.1232 148.956 44.1252 148.956ZM55.9464 150.09C58.7184 150.09 60.7524 148.074 60.7524 145.266C60.7524 142.458 58.7184 140.46 55.9464 140.46C53.1744 140.46 51.1224 142.458 51.1224 145.266C51.1224 148.074 53.1744 150.09 55.9464 150.09ZM55.9464 148.956C53.9304 148.956 52.4184 147.48 52.4184 145.266C52.4184 143.052 53.9304 141.576 55.9464 141.576C57.9624 141.576 59.4564 143.052 59.4564 145.266C59.4564 147.48 57.9624 148.956 55.9464 148.956ZM65.1256 142.386V140.532H63.9016V150H65.1796V145.176C65.1796 142.944 66.3856 141.684 68.3656 141.684C68.4556 141.684 68.5636 141.702 68.6716 141.702V140.46C66.9256 140.46 65.7196 141.126 65.1256 142.386ZM76.4659 148.506C76.1059 148.83 75.5839 148.992 75.0619 148.992C73.9999 148.992 73.4239 148.38 73.4239 147.264V141.612H76.3039V140.532H73.4239V138.462H72.1459V140.532H70.4539V141.612H72.1459V147.336C72.1459 149.082 73.1359 150.09 74.9179 150.09C75.6559 150.09 76.4119 149.874 76.9159 149.424L76.4659 148.506ZM82.3204 150.09C84.7864 150.09 86.2264 149.028 86.2264 147.39C86.2264 143.754 80.0884 145.68 80.0884 143.124C80.0884 142.224 80.8444 141.558 82.5544 141.558C83.5264 141.558 84.5164 141.792 85.3444 142.368L85.9024 141.342C85.1104 140.802 83.7784 140.46 82.5544 140.46C80.1424 140.46 78.8104 141.612 78.8104 143.16C78.8104 146.904 84.9484 144.96 84.9484 147.426C84.9484 148.362 84.2104 148.974 82.4104 148.974C81.0784 148.974 79.8004 148.506 79.0444 147.912L78.4684 148.92C79.2424 149.586 80.7544 150.09 82.3204 150.09ZM97.692 140.46C96.198 140.46 94.794 140.928 93.84 141.738L94.416 142.692C95.19 142.008 96.342 141.576 97.566 141.576C99.33 141.576 100.248 142.458 100.248 144.078V144.654H97.242C94.524 144.654 93.588 145.878 93.588 147.336C93.588 148.974 94.902 150.09 97.044 150.09C98.61 150.09 99.726 149.496 100.302 148.524V150H101.526V144.132C101.526 141.684 100.14 140.46 97.692 140.46ZM97.242 149.082C95.73 149.082 94.848 148.398 94.848 147.3C94.848 146.328 95.442 145.608 97.278 145.608H100.248V147.156C99.744 148.398 98.682 149.082 97.242 149.082ZM110.361 140.46C108.723 140.46 107.445 141.126 106.761 142.278V140.532H105.537V150H106.815V145.032C106.815 142.872 108.093 141.612 110.127 141.612C111.927 141.612 112.971 142.638 112.971 144.636V150H114.249V144.51C114.249 141.792 112.665 140.46 110.361 140.46ZM125.656 136.644V142.332C124.864 141.108 123.568 140.46 122.056 140.46C119.356 140.46 117.34 142.404 117.34 145.266C117.34 148.128 119.356 150.09 122.056 150.09C123.622 150.09 124.936 149.406 125.71 148.128V150H126.934V136.644H125.656ZM122.164 148.956C120.148 148.956 118.636 147.48 118.636 145.266C118.636 143.052 120.148 141.576 122.164 141.576C124.162 141.576 125.674 143.052 125.674 145.266C125.674 147.48 124.162 148.956 122.164 148.956ZM140.208 150.09C141.81 150.09 143.16 149.442 143.916 148.218L142.962 147.57C142.314 148.524 141.306 148.956 140.208 148.956C138.138 148.956 136.626 147.498 136.626 145.266C136.626 143.052 138.138 141.576 140.208 141.576C141.306 141.576 142.314 142.026 142.962 142.98L143.916 142.332C143.16 141.09 141.81 140.46 140.208 140.46C137.382 140.46 135.33 142.44 135.33 145.266C135.33 148.092 137.382 150.09 140.208 150.09ZM150.678 150.09C153.45 150.09 155.484 148.074 155.484 145.266C155.484 142.458 153.45 140.46 150.678 140.46C147.906 140.46 145.854 142.458 145.854 145.266C145.854 148.074 147.906 150.09 150.678 150.09ZM150.678 148.956C148.662 148.956 147.15 147.48 147.15 145.266C147.15 143.052 148.662 141.576 150.678 141.576C152.694 141.576 154.188 143.052 154.188 145.266C154.188 147.48 152.694 148.956 150.678 148.956ZM163.458 140.46C161.82 140.46 160.542 141.126 159.858 142.278V140.532H158.634V150H159.912V145.032C159.912 142.872 161.19 141.612 163.224 141.612C165.024 141.612 166.068 142.638 166.068 144.636V150H167.346V144.51C167.346 141.792 165.762 140.46 163.458 140.46ZM174.487 137.634C175.027 137.634 175.531 137.796 175.891 138.102L176.323 137.148C175.855 136.752 175.135 136.554 174.433 136.554C172.579 136.554 171.571 137.67 171.571 139.362V140.532H169.879V141.612H171.571V150H172.849V141.612H175.729V140.532H172.813V139.416C172.813 138.246 173.389 137.634 174.487 137.634ZM181.707 150.09C184.479 150.09 186.513 148.074 186.513 145.266C186.513 142.458 184.479 140.46 181.707 140.46C178.935 140.46 176.883 142.458 176.883 145.266C176.883 148.074 178.935 150.09 181.707 150.09ZM181.707 148.956C179.691 148.956 178.179 147.48 178.179 145.266C178.179 143.052 179.691 141.576 181.707 141.576C183.723 141.576 185.217 143.052 185.217 145.266C185.217 147.48 183.723 148.956 181.707 148.956ZM190.886 142.386V140.532H189.662V150H190.94V145.176C190.94 142.944 192.146 141.684 194.126 141.684C194.216 141.684 194.324 141.702 194.432 141.702V140.46C192.686 140.46 191.48 141.126 190.886 142.386ZM209.094 140.46C207.384 140.46 206.034 141.234 205.35 142.458C204.774 141.126 203.55 140.46 201.984 140.46C200.4 140.46 199.176 141.126 198.51 142.26V140.532H197.286V150H198.564V145.032C198.564 142.872 199.806 141.612 201.732 141.612C203.46 141.612 204.468 142.638 204.468 144.636V150H205.746V145.032C205.746 142.872 206.97 141.612 208.914 141.612C210.624 141.612 211.632 142.638 211.632 144.636V150H212.91V144.51C212.91 141.792 211.398 140.46 209.094 140.46ZM219.454 150.09C221.92 150.09 223.36 149.028 223.36 147.39C223.36 143.754 217.222 145.68 217.222 143.124C217.222 142.224 217.978 141.558 219.688 141.558C220.66 141.558 221.65 141.792 222.478 142.368L223.036 141.342C222.244 140.802 220.912 140.46 219.688 140.46C217.276 140.46 215.944 141.612 215.944 143.16C215.944 146.904 222.082 144.96 222.082 147.426C222.082 148.362 221.344 148.974 219.544 148.974C218.212 148.974 216.934 148.506 216.178 147.912L215.602 148.92C216.376 149.586 217.888 150.09 219.454 150.09ZM236.049 148.506C235.689 148.83 235.167 148.992 234.645 148.992C233.583 148.992 233.007 148.38 233.007 147.264V141.612H235.887V140.532H233.007V138.462H231.729V140.532H230.037V141.612H231.729V147.336C231.729 149.082 232.719 150.09 234.501 150.09C235.239 150.09 235.995 149.874 236.499 149.424L236.049 148.506ZM242.902 150.09C245.674 150.09 247.708 148.074 247.708 145.266C247.708 142.458 245.674 140.46 242.902 140.46C240.13 140.46 238.078 142.458 238.078 145.266C238.078 148.074 240.13 150.09 242.902 150.09ZM242.902 148.956C240.886 148.956 239.374 147.48 239.374 145.266C239.374 143.052 240.886 141.576 242.902 141.576C244.918 141.576 246.412 143.052 246.412 145.266C246.412 147.48 244.918 148.956 242.902 148.956ZM262.804 140.532L259.24 148.578L255.676 140.532H254.344L258.574 149.982L258.16 150.9C257.62 152.088 257.044 152.484 256.198 152.484C255.514 152.484 254.938 152.232 254.47 151.764L253.876 152.718C254.452 153.294 255.298 153.582 256.18 153.582C257.53 153.582 258.538 152.988 259.33 151.134L264.064 140.532H262.804ZM270.01 150.09C272.782 150.09 274.816 148.074 274.816 145.266C274.816 142.458 272.782 140.46 270.01 140.46C267.238 140.46 265.186 142.458 265.186 145.266C265.186 148.074 267.238 150.09 270.01 150.09ZM270.01 148.956C267.994 148.956 266.482 147.48 266.482 145.266C266.482 143.052 267.994 141.576 270.01 141.576C272.026 141.576 273.52 143.052 273.52 145.266C273.52 147.48 272.026 148.956 270.01 148.956ZM285.219 140.532V145.5C285.219 147.66 283.977 148.938 281.997 148.938C280.197 148.938 279.153 147.912 279.153 145.896V140.532H277.875V146.022C277.875 148.74 279.459 150.09 281.871 150.09C283.383 150.09 284.607 149.424 285.273 148.272V150H286.497V140.532H285.219ZM291.841 142.386V140.532H290.617V150H291.895V145.176C291.895 142.944 293.101 141.684 295.081 141.684C295.171 141.684 295.279 141.702 295.387 141.702V140.46C293.641 140.46 292.435 141.126 291.841 142.386ZM308.51 140.46C306.998 140.46 305.702 141.108 304.91 142.332V136.644H303.632V150H304.856V148.128C305.63 149.406 306.944 150.09 308.51 150.09C311.21 150.09 313.226 148.128 313.226 145.266C313.226 142.404 311.21 140.46 308.51 140.46ZM308.42 148.956C306.404 148.956 304.892 147.48 304.892 145.266C304.892 143.052 306.404 141.576 308.42 141.576C310.418 141.576 311.948 143.052 311.948 145.266C311.948 147.48 310.418 148.956 308.42 148.956ZM320.241 150.09C323.013 150.09 325.047 148.074 325.047 145.266C325.047 142.458 323.013 140.46 320.241 140.46C317.469 140.46 315.417 142.458 315.417 145.266C315.417 148.074 317.469 150.09 320.241 150.09ZM320.241 148.956C318.225 148.956 316.713 147.48 316.713 145.266C316.713 143.052 318.225 141.576 320.241 141.576C322.257 141.576 323.751 143.052 323.751 145.266C323.751 147.48 322.257 148.956 320.241 148.956ZM335.558 136.644V142.332C334.766 141.108 333.47 140.46 331.958 140.46C329.258 140.46 327.242 142.404 327.242 145.266C327.242 148.128 329.258 150.09 331.958 150.09C333.524 150.09 334.838 149.406 335.612 148.128V150H336.836V136.644H335.558ZM332.066 148.956C330.05 148.956 328.538 147.48 328.538 145.266C328.538 143.052 330.05 141.576 332.066 141.576C334.064 141.576 335.576 143.052 335.576 145.266C335.576 147.48 334.064 148.956 332.066 148.956ZM347.632 140.532L344.068 148.578L340.504 140.532H339.172L343.402 149.982L342.988 150.9C342.448 152.088 341.872 152.484 341.026 152.484C340.342 152.484 339.766 152.232 339.298 151.764L338.704 152.718C339.28 153.294 340.126 153.582 341.008 153.582C342.358 153.582 343.366 152.988 344.158 151.134L348.892 140.532H347.632ZM72.4354 163.634C72.9754 163.634 73.4794 163.796 73.8394 164.102L74.2714 163.148C73.8034 162.752 73.0834 162.554 72.3814 162.554C70.5274 162.554 69.5194 163.67 69.5194 165.362V166.532H67.8274V167.612H69.5194V176H70.7974V167.612H73.6774V166.532H70.7614V165.416C70.7614 164.246 71.3374 163.634 72.4354 163.634ZM79.6548 176.09C82.4268 176.09 84.4608 174.074 84.4608 171.266C84.4608 168.458 82.4268 166.46 79.6548 166.46C76.8828 166.46 74.8308 168.458 74.8308 171.266C74.8308 174.074 76.8828 176.09 79.6548 176.09ZM79.6548 174.956C77.6388 174.956 76.1268 173.48 76.1268 171.266C76.1268 169.052 77.6388 167.576 79.6548 167.576C81.6708 167.576 83.1648 169.052 83.1648 171.266C83.1648 173.48 81.6708 174.956 79.6548 174.956ZM88.8339 168.386V166.532H87.6099V176H88.8879V171.176C88.8879 168.944 90.0939 167.684 92.0739 167.684C92.1639 167.684 92.2719 167.702 92.3799 167.702V166.46C90.6339 166.46 89.4279 167.126 88.8339 168.386ZM112.433 166.46C110.723 166.46 109.373 167.234 108.689 168.458C108.113 167.126 106.889 166.46 105.323 166.46C103.739 166.46 102.515 167.126 101.849 168.26V166.532H100.625V176H101.903V171.032C101.903 168.872 103.145 167.612 105.071 167.612C106.799 167.612 107.807 168.638 107.807 170.636V176H109.085V171.032C109.085 168.872 110.309 167.612 112.253 167.612C113.963 167.612 114.971 168.638 114.971 170.636V176H116.249V170.51C116.249 167.792 114.737 166.46 112.433 166.46ZM123.567 166.46C122.073 166.46 120.669 166.928 119.715 167.738L120.291 168.692C121.065 168.008 122.217 167.576 123.441 167.576C125.205 167.576 126.123 168.458 126.123 170.078V170.654H123.117C120.399 170.654 119.463 171.878 119.463 173.336C119.463 174.974 120.777 176.09 122.919 176.09C124.485 176.09 125.601 175.496 126.177 174.524V176H127.401V170.132C127.401 167.684 126.015 166.46 123.567 166.46ZM123.117 175.082C121.605 175.082 120.723 174.398 120.723 173.3C120.723 172.328 121.317 171.608 123.153 171.608H126.123V173.156C125.619 174.398 124.557 175.082 123.117 175.082ZM138.901 176L135.121 171.14L138.685 166.532H137.281L134.437 170.24L131.593 166.532H130.153L133.717 171.14L129.973 176H131.413L134.437 172.04L137.443 176H138.901ZM142.216 164.462C142.756 164.462 143.152 164.048 143.152 163.526C143.152 163.04 142.738 162.644 142.216 162.644C141.694 162.644 141.28 163.058 141.28 163.544C141.28 164.048 141.694 164.462 142.216 164.462ZM141.568 176H142.846V166.532H141.568V176ZM158.75 166.46C157.04 166.46 155.69 167.234 155.006 168.458C154.43 167.126 153.206 166.46 151.64 166.46C150.056 166.46 148.832 167.126 148.166 168.26V166.532H146.942V176H148.22V171.032C148.22 168.872 149.462 167.612 151.388 167.612C153.116 167.612 154.124 168.638 154.124 170.636V176H155.402V171.032C155.402 168.872 156.626 167.612 158.57 167.612C160.28 167.612 161.288 168.638 161.288 170.636V176H162.566V170.51C162.566 167.792 161.054 166.46 158.75 166.46ZM173.826 166.532V171.5C173.826 173.66 172.584 174.938 170.604 174.938C168.804 174.938 167.76 173.912 167.76 171.896V166.532H166.482V172.022C166.482 174.74 168.066 176.09 170.478 176.09C171.99 176.09 173.214 175.424 173.88 174.272V176H175.104V166.532H173.826ZM191.031 166.46C189.321 166.46 187.971 167.234 187.287 168.458C186.711 167.126 185.487 166.46 183.921 166.46C182.337 166.46 181.113 167.126 180.447 168.26V166.532H179.223V176H180.501V171.032C180.501 168.872 181.743 167.612 183.669 167.612C185.397 167.612 186.405 168.638 186.405 170.636V176H187.683V171.032C187.683 168.872 188.907 167.612 190.851 167.612C192.561 167.612 193.569 168.638 193.569 170.636V176H194.847V170.51C194.847 167.792 193.335 166.46 191.031 166.46ZM208.028 176.09C209.63 176.09 210.98 175.442 211.736 174.218L210.782 173.57C210.134 174.524 209.126 174.956 208.028 174.956C205.958 174.956 204.446 173.498 204.446 171.266C204.446 169.052 205.958 167.576 208.028 167.576C209.126 167.576 210.134 168.026 210.782 168.98L211.736 168.332C210.98 167.09 209.63 166.46 208.028 166.46C205.202 166.46 203.15 168.44 203.15 171.266C203.15 174.092 205.202 176.09 208.028 176.09ZM218.498 176.09C221.27 176.09 223.304 174.074 223.304 171.266C223.304 168.458 221.27 166.46 218.498 166.46C215.726 166.46 213.674 168.458 213.674 171.266C213.674 174.074 215.726 176.09 218.498 176.09ZM218.498 174.956C216.482 174.956 214.97 173.48 214.97 171.266C214.97 169.052 216.482 167.576 218.498 167.576C220.514 167.576 222.008 169.052 222.008 171.266C222.008 173.48 220.514 174.956 218.498 174.956ZM238.261 166.46C236.551 166.46 235.201 167.234 234.517 168.458C233.941 167.126 232.717 166.46 231.151 166.46C229.567 166.46 228.343 167.126 227.677 168.26V166.532H226.453V176H227.731V171.032C227.731 168.872 228.973 167.612 230.899 167.612C232.627 167.612 233.635 168.638 233.635 170.636V176H234.913V171.032C234.913 168.872 236.137 167.612 238.081 167.612C239.791 167.612 240.799 168.638 240.799 170.636V176H242.077V170.51C242.077 167.792 240.565 166.46 238.261 166.46ZM249.215 163.634C249.755 163.634 250.259 163.796 250.619 164.102L251.051 163.148C250.583 162.752 249.863 162.554 249.161 162.554C247.307 162.554 246.299 163.67 246.299 165.362V166.532H244.607V167.612H246.299V176H247.577V167.612H250.457V166.532H247.541V165.416C247.541 164.246 248.117 163.634 249.215 163.634ZM256.434 176.09C259.206 176.09 261.24 174.074 261.24 171.266C261.24 168.458 259.206 166.46 256.434 166.46C253.662 166.46 251.61 168.458 251.61 171.266C251.61 174.074 253.662 176.09 256.434 176.09ZM256.434 174.956C254.418 174.956 252.906 173.48 252.906 171.266C252.906 169.052 254.418 167.576 256.434 167.576C258.45 167.576 259.944 169.052 259.944 171.266C259.944 173.48 258.45 174.956 256.434 174.956ZM265.614 168.386V166.532H264.39V176H265.668V171.176C265.668 168.944 266.874 167.684 268.854 167.684C268.944 167.684 269.052 167.702 269.16 167.702V166.46C267.414 166.46 266.208 167.126 265.614 168.386ZM276.954 174.506C276.594 174.83 276.072 174.992 275.55 174.992C274.488 174.992 273.912 174.38 273.912 173.264V167.612H276.792V166.532H273.912V164.462H272.634V166.532H270.942V167.612H272.634V173.336C272.634 175.082 273.624 176.09 275.406 176.09C276.144 176.09 276.9 175.874 277.404 175.424L276.954 174.506ZM280.572 176.09C281.094 176.09 281.544 175.658 281.544 175.1C281.544 174.542 281.094 174.128 280.572 174.128C280.05 174.128 279.618 174.542 279.618 175.1C279.618 175.658 280.05 176.09 280.572 176.09Z" fill="black" fill-opacity="0.6"/>
<path d="M44.865 81.317V79.9H38.222V89H39.912V85.516H44.306V84.086H39.912V81.317H44.865ZM46.8893 89H48.5793V79.9H46.8893V89ZM59.2047 89L57.1117 86.01C58.3467 85.529 59.0487 84.515 59.0487 83.137C59.0487 81.122 57.5667 79.9 55.1747 79.9H51.4307V89H53.1207V86.348H55.1747C55.2917 86.348 55.4087 86.348 55.5257 86.335L57.3847 89H59.2047ZM57.3457 83.137C57.3457 84.281 56.5787 84.957 55.0967 84.957H53.1207V81.33H55.0967C56.5787 81.33 57.3457 81.993 57.3457 83.137ZM71.2875 89L71.2745 79.9H69.8835L66.3345 85.932L62.7205 79.9H61.3295V89H62.9415V83.046L65.9315 87.96H66.6855L69.6755 82.968L69.6885 89H71.2875ZM80.5445 79.9V86.062L75.5265 79.9H74.1355V89H75.8125V82.838L80.8305 89H82.2215V79.9H80.5445ZM86.7399 87.583V85.074H91.1339V83.683H86.7399V81.317H91.6929V79.9H85.0499V89H91.8749V87.583H86.7399ZM96.9699 89.13C99.4659 89.13 100.649 87.882 100.649 86.426C100.649 83.085 95.2539 84.346 95.2539 82.409C95.2539 81.72 95.8259 81.174 97.2299 81.174C98.0229 81.174 98.9199 81.408 99.7389 81.889L100.272 80.576C99.4789 80.056 98.3349 79.77 97.2429 79.77C94.7469 79.77 93.5769 81.018 93.5769 82.487C93.5769 85.867 98.9849 84.58 98.9849 86.543C98.9849 87.219 98.3869 87.726 96.9699 87.726C95.8519 87.726 94.6949 87.31 93.9669 86.725L93.3819 88.038C94.1359 88.688 95.5529 89.13 96.9699 89.13ZM105.536 89.13C108.032 89.13 109.215 87.882 109.215 86.426C109.215 83.085 103.82 84.346 103.82 82.409C103.82 81.72 104.392 81.174 105.796 81.174C106.589 81.174 107.486 81.408 108.305 81.889L108.838 80.576C108.045 80.056 106.901 79.77 105.809 79.77C103.313 79.77 102.143 81.018 102.143 82.487C102.143 85.867 107.551 84.58 107.551 86.543C107.551 87.219 106.953 87.726 105.536 87.726C104.418 87.726 103.261 87.31 102.533 86.725L101.948 88.038C102.702 88.688 104.119 89.13 105.536 89.13Z" fill="#5A0090"/>
<circle cx="180.5" cy="83.5" r="4.75" fill="#5A0090" stroke="#5A0090" stroke-width="1.5"/>
<circle cx="225.233" cy="83.5" r="4.75" fill="#5A0090" stroke="#5A0090" stroke-width="1.5"/>
<circle cx="269.967" cy="83.5" r="4.75" fill="#5A0090" stroke="#5A0090" stroke-width="1.5"/>
<circle cx="314.7" cy="83.5" r="4.75" fill="#5A0090" stroke="#5A0090" stroke-width="1.5"/>
<g opacity="0.8">
<path fill-rule="evenodd" clip-rule="evenodd" d="M12 71C15.64 71 18.67 73.59 19.35 77.04C21.95 77.22 24 79.36 24 82C24 84.76 21.76 87 19 87H6C2.69 87 0 84.31 0 81C0 77.91 2.34 75.36 5.35 75.04C6.6 72.64 9.11 71 12 71ZM6 85H19C20.66 85 22 83.66 22 82C22 80.34 20.66 79 19 79H17.5V78.5C17.5 75.46 15.04 73 12 73C9.48 73 7.37 74.69 6.71 77H6C3.79 77 2 78.79 2 81C2 83.21 3.79 85 6 85Z" fill="#5A0090"/>
<path fill-rule="evenodd" clip-rule="evenodd" d="M12 71C15.64 71 18.67 73.59 19.35 77.04C21.95 77.22 24 79.36 24 82C24 84.76 21.76 87 19 87H6C2.69 87 0 84.31 0 81C0 77.91 2.34 75.36 5.35 75.04C6.6 72.64 9.11 71 12 71ZM6 85H19C20.66 85 22 83.66 22 82C22 80.34 20.66 79 19 79H17.5V78.5C17.5 75.46 15.04 73 12 73C9.48 73 7.37 74.69 6.71 77H6C3.79 77 2 78.79 2 81C2 83.21 3.79 85 6 85Z" fill="#5A0090"/>
</g>
<path d="M408.607 137.4H403.891V150H405.223V146.022H408.607C411.811 146.022 413.755 144.402 413.755 141.72C413.755 139.02 411.811 137.4 408.607 137.4ZM408.571 144.852H405.223V138.552H408.571C411.091 138.552 412.423 139.704 412.423 141.72C412.423 143.7 411.091 144.852 408.571 144.852ZM417.883 142.386V140.532H416.659V150H417.937V145.176C417.937 142.944 419.143 141.684 421.123 141.684C421.213 141.684 421.321 141.702 421.429 141.702V140.46C419.683 140.46 418.477 141.126 417.883 142.386ZM432.457 145.266C432.457 142.422 430.531 140.46 427.867 140.46C425.203 140.46 423.241 142.458 423.241 145.266C423.241 148.074 425.257 150.09 428.209 150.09C429.703 150.09 431.017 149.55 431.863 148.542L431.143 147.714C430.423 148.542 429.397 148.956 428.245 148.956C426.175 148.956 424.663 147.642 424.519 145.662H432.439C432.439 145.518 432.457 145.374 432.457 145.266ZM427.867 141.558C429.721 141.558 431.071 142.854 431.233 144.708H424.519C424.681 142.854 426.031 141.558 427.867 141.558ZM442.118 140.532L438.536 148.596L434.99 140.532H433.658L437.852 150H439.166L443.378 140.532H442.118ZM453.716 145.266C453.716 142.422 451.79 140.46 449.126 140.46C446.462 140.46 444.5 142.458 444.5 145.266C444.5 148.074 446.516 150.09 449.468 150.09C450.962 150.09 452.276 149.55 453.122 148.542L452.402 147.714C451.682 148.542 450.656 148.956 449.504 148.956C447.434 148.956 445.922 147.642 445.778 145.662H453.698C453.698 145.518 453.716 145.374 453.716 145.266ZM449.126 141.558C450.98 141.558 452.33 142.854 452.492 144.708H445.778C445.94 142.854 447.29 141.558 449.126 141.558ZM461.682 140.46C460.044 140.46 458.766 141.126 458.082 142.278V140.532H456.858V150H458.136V145.032C458.136 142.872 459.414 141.612 461.448 141.612C463.248 141.612 464.292 142.638 464.292 144.636V150H465.57V144.51C465.57 141.792 463.986 140.46 461.682 140.46ZM474.115 148.506C473.755 148.83 473.233 148.992 472.711 148.992C471.649 148.992 471.073 148.38 471.073 147.264V141.612H473.953V140.532H471.073V138.462H469.795V140.532H468.103V141.612H469.795V147.336C469.795 149.082 470.785 150.09 472.567 150.09C473.305 150.09 474.061 149.874 474.565 149.424L474.115 148.506ZM479.97 150.09C482.436 150.09 483.876 149.028 483.876 147.39C483.876 143.754 477.738 145.68 477.738 143.124C477.738 142.224 478.494 141.558 480.204 141.558C481.176 141.558 482.166 141.792 482.994 142.368L483.552 141.342C482.76 140.802 481.428 140.46 480.204 140.46C477.792 140.46 476.46 141.612 476.46 143.16C476.46 146.904 482.598 144.96 482.598 147.426C482.598 148.362 481.86 148.974 480.06 148.974C478.728 148.974 477.45 148.506 476.694 147.912L476.118 148.92C476.892 149.586 478.404 150.09 479.97 150.09ZM499.571 140.532V142.35C498.779 141.108 497.411 140.46 495.827 140.46C493.127 140.46 491.075 142.314 491.075 145.032C491.075 147.75 493.127 149.64 495.827 149.64C497.375 149.64 498.725 149.01 499.517 147.804V149.01C499.517 151.35 498.419 152.448 496.025 152.448C494.567 152.448 493.199 151.962 492.299 151.152L491.651 152.124C492.641 153.06 494.333 153.582 496.061 153.582C499.193 153.582 500.795 152.106 500.795 148.848V140.532H499.571ZM495.953 148.506C493.865 148.506 492.371 147.084 492.371 145.032C492.371 142.98 493.865 141.576 495.953 141.576C498.041 141.576 499.553 142.98 499.553 145.032C499.553 147.084 498.041 148.506 495.953 148.506ZM513.171 145.266C513.171 142.422 511.245 140.46 508.581 140.46C505.917 140.46 503.955 142.458 503.955 145.266C503.955 148.074 505.971 150.09 508.923 150.09C510.417 150.09 511.731 149.55 512.577 148.542L511.857 147.714C511.137 148.542 510.111 148.956 508.959 148.956C506.889 148.956 505.377 147.642 505.233 145.662H513.153C513.153 145.518 513.171 145.374 513.171 145.266ZM508.581 141.558C510.435 141.558 511.785 142.854 511.947 144.708H505.233C505.395 142.854 506.745 141.558 508.581 141.558ZM517.536 142.386V140.532H516.312V150H517.59V145.176C517.59 142.944 518.796 141.684 520.776 141.684C520.866 141.684 520.974 141.702 521.082 141.702V140.46C519.336 140.46 518.13 141.126 517.536 142.386ZM535.744 140.46C534.034 140.46 532.684 141.234 532 142.458C531.424 141.126 530.2 140.46 528.634 140.46C527.05 140.46 525.826 141.126 525.16 142.26V140.532H523.936V150H525.214V145.032C525.214 142.872 526.456 141.612 528.382 141.612C530.11 141.612 531.118 142.638 531.118 144.636V150H532.396V145.032C532.396 142.872 533.62 141.612 535.564 141.612C537.274 141.612 538.282 142.638 538.282 144.636V150H539.56V144.51C539.56 141.792 538.048 140.46 535.744 140.46ZM546.104 150.09C548.57 150.09 550.01 149.028 550.01 147.39C550.01 143.754 543.872 145.68 543.872 143.124C543.872 142.224 544.628 141.558 546.338 141.558C547.31 141.558 548.3 141.792 549.128 142.368L549.686 141.342C548.894 140.802 547.562 140.46 546.338 140.46C543.926 140.46 542.594 141.612 542.594 143.16C542.594 146.904 548.732 144.96 548.732 147.426C548.732 148.362 547.994 148.974 546.194 148.974C544.862 148.974 543.584 148.506 542.828 147.912L542.252 148.92C543.026 149.586 544.538 150.09 546.104 150.09ZM561.476 140.46C559.982 140.46 558.578 140.928 557.624 141.738L558.2 142.692C558.974 142.008 560.126 141.576 561.35 141.576C563.114 141.576 564.032 142.458 564.032 144.078V144.654H561.026C558.308 144.654 557.372 145.878 557.372 147.336C557.372 148.974 558.686 150.09 560.828 150.09C562.394 150.09 563.51 149.496 564.086 148.524V150H565.31V144.132C565.31 141.684 563.924 140.46 561.476 140.46ZM561.026 149.082C559.514 149.082 558.632 148.398 558.632 147.3C558.632 146.328 559.226 145.608 561.062 145.608H564.032V147.156C563.528 148.398 562.466 149.082 561.026 149.082ZM574.145 140.46C572.507 140.46 571.229 141.126 570.545 142.278V140.532H569.321V150H570.599V145.032C570.599 142.872 571.877 141.612 573.911 141.612C575.711 141.612 576.755 142.638 576.755 144.636V150H578.033V144.51C578.033 141.792 576.449 140.46 574.145 140.46ZM589.44 136.644V142.332C588.648 141.108 587.352 140.46 585.84 140.46C583.14 140.46 581.124 142.404 581.124 145.266C581.124 148.128 583.14 150.09 585.84 150.09C587.406 150.09 588.72 149.406 589.494 148.128V150H590.718V136.644H589.44ZM585.948 148.956C583.932 148.956 582.42 147.48 582.42 145.266C582.42 143.052 583.932 141.576 585.948 141.576C587.946 141.576 589.458 143.052 589.458 145.266C589.458 147.48 587.946 148.956 585.948 148.956ZM608.33 145.266C608.33 142.422 606.404 140.46 603.74 140.46C601.076 140.46 599.114 142.458 599.114 145.266C599.114 148.074 601.13 150.09 604.082 150.09C605.576 150.09 606.89 149.55 607.736 148.542L607.016 147.714C606.296 148.542 605.27 148.956 604.118 148.956C602.048 148.956 600.536 147.642 600.392 145.662H608.312C608.312 145.518 608.33 145.374 608.33 145.266ZM603.74 141.558C605.594 141.558 606.944 142.854 607.106 144.708H600.392C600.554 142.854 601.904 141.558 603.74 141.558ZM616.295 140.46C614.657 140.46 613.379 141.126 612.695 142.278V140.532H611.471V150H612.749V145.032C612.749 142.872 614.027 141.612 616.061 141.612C617.861 141.612 618.905 142.638 618.905 144.636V150H620.183V144.51C620.183 141.792 618.599 140.46 616.295 140.46ZM630.713 140.532L627.131 148.596L623.585 140.532H622.253L626.447 150H627.761L631.973 140.532H630.713ZM634.961 138.462C635.501 138.462 635.897 138.048 635.897 137.526C635.897 137.04 635.483 136.644 634.961 136.644C634.439 136.644 634.025 137.058 634.025 137.544C634.025 138.048 634.439 138.462 634.961 138.462ZM634.313 150H635.591V140.532H634.313V150ZM640.911 142.386V140.532H639.687V150H640.965V145.176C640.965 142.944 642.171 141.684 644.151 141.684C644.241 141.684 644.349 141.702 644.457 141.702V140.46C642.711 140.46 641.505 141.126 640.911 142.386ZM651.093 150.09C653.865 150.09 655.899 148.074 655.899 145.266C655.899 142.458 653.865 140.46 651.093 140.46C648.321 140.46 646.269 142.458 646.269 145.266C646.269 148.074 648.321 150.09 651.093 150.09ZM651.093 148.956C649.077 148.956 647.565 147.48 647.565 145.266C647.565 143.052 649.077 141.576 651.093 141.576C653.109 141.576 654.603 143.052 654.603 145.266C654.603 147.48 653.109 148.956 651.093 148.956ZM663.872 140.46C662.234 140.46 660.956 141.126 660.272 142.278V140.532H659.048V150H660.326V145.032C660.326 142.872 661.604 141.612 663.638 141.612C665.438 141.612 666.482 142.638 666.482 144.636V150H667.76V144.51C667.76 141.792 666.176 140.46 663.872 140.46ZM683.578 140.46C681.868 140.46 680.518 141.234 679.834 142.458C679.258 141.126 678.034 140.46 676.468 140.46C674.884 140.46 673.66 141.126 672.994 142.26V140.532H671.77V150H673.048V145.032C673.048 142.872 674.29 141.612 676.216 141.612C677.944 141.612 678.952 142.638 678.952 144.636V150H680.23V145.032C680.23 142.872 681.454 141.612 683.398 141.612C685.108 141.612 686.116 142.638 686.116 144.636V150H687.394V144.51C687.394 141.792 685.882 140.46 683.578 140.46ZM699.697 145.266C699.697 142.422 697.771 140.46 695.107 140.46C692.443 140.46 690.481 142.458 690.481 145.266C690.481 148.074 692.497 150.09 695.449 150.09C696.943 150.09 698.257 149.55 699.103 148.542L698.383 147.714C697.663 148.542 696.637 148.956 695.485 148.956C693.415 148.956 691.903 147.642 691.759 145.662H699.679C699.679 145.518 699.697 145.374 699.697 145.266ZM695.107 141.558C696.961 141.558 698.311 142.854 698.473 144.708H691.759C691.921 142.854 693.271 141.558 695.107 141.558ZM707.662 140.46C706.024 140.46 704.746 141.126 704.062 142.278V140.532H702.838V150H704.116V145.032C704.116 142.872 705.394 141.612 707.428 141.612C709.228 141.612 710.272 142.638 710.272 144.636V150H711.55V144.51C711.55 141.792 709.966 140.46 707.662 140.46ZM720.096 148.506C719.736 148.83 719.214 148.992 718.692 148.992C717.63 148.992 717.054 148.38 717.054 147.264V141.612H719.934V140.532H717.054V138.462H715.776V140.532H714.084V141.612H715.776V147.336C715.776 149.082 716.766 150.09 718.548 150.09C719.286 150.09 720.042 149.874 720.546 149.424L720.096 148.506ZM726.724 140.46C725.23 140.46 723.826 140.928 722.872 141.738L723.448 142.692C724.222 142.008 725.374 141.576 726.598 141.576C728.362 141.576 729.28 142.458 729.28 144.078V144.654H726.274C723.556 144.654 722.62 145.878 722.62 147.336C722.62 148.974 723.934 150.09 726.076 150.09C727.642 150.09 728.758 149.496 729.334 148.524V150H730.558V144.132C730.558 141.684 729.172 140.46 726.724 140.46ZM726.274 149.082C724.762 149.082 723.88 148.398 723.88 147.3C723.88 146.328 724.474 145.608 726.31 145.608H729.28V147.156C728.776 148.398 727.714 149.082 726.274 149.082ZM734.569 150H735.847V136.644H734.569V150ZM413.154 166.46C411.66 166.46 410.256 166.928 409.302 167.738L409.878 168.692C410.652 168.008 411.804 167.576 413.028 167.576C414.792 167.576 415.71 168.458 415.71 170.078V170.654H412.704C409.986 170.654 409.05 171.878 409.05 173.336C409.05 174.974 410.364 176.09 412.506 176.09C414.072 176.09 415.188 175.496 415.764 174.524V176H416.988V170.132C416.988 167.684 415.602 166.46 413.154 166.46ZM412.704 175.082C411.192 175.082 410.31 174.398 410.31 173.3C410.31 172.328 410.904 171.608 412.74 171.608H415.71V173.156C415.206 174.398 414.144 175.082 412.704 175.082ZM420.999 176H422.277V162.644H420.999V176ZM426.373 176H427.651V162.644H426.373V176ZM440.009 171.266C440.009 168.422 438.083 166.46 435.419 166.46C432.755 166.46 430.793 168.458 430.793 171.266C430.793 174.074 432.809 176.09 435.761 176.09C437.255 176.09 438.569 175.55 439.415 174.542L438.695 173.714C437.975 174.542 436.949 174.956 435.797 174.956C433.727 174.956 432.215 173.642 432.071 171.662H439.991C439.991 171.518 440.009 171.374 440.009 171.266ZM435.419 167.558C437.273 167.558 438.623 168.854 438.785 170.708H432.071C432.233 168.854 433.583 167.558 435.419 167.558ZM444.374 168.386V166.532H443.15V176H444.428V171.176C444.428 168.944 445.634 167.684 447.614 167.684C447.704 167.684 447.812 167.702 447.92 167.702V166.46C446.174 166.46 444.968 167.126 444.374 168.386ZM458.228 166.532V168.35C457.436 167.108 456.068 166.46 454.484 166.46C451.784 166.46 449.732 168.314 449.732 171.032C449.732 173.75 451.784 175.64 454.484 175.64C456.032 175.64 457.382 175.01 458.174 173.804V175.01C458.174 177.35 457.076 178.448 454.682 178.448C453.224 178.448 451.856 177.962 450.956 177.152L450.308 178.124C451.298 179.06 452.99 179.582 454.718 179.582C457.85 179.582 459.452 178.106 459.452 174.848V166.532H458.228ZM454.61 174.506C452.522 174.506 451.028 173.084 451.028 171.032C451.028 168.98 452.522 167.576 454.61 167.576C456.698 167.576 458.21 168.98 458.21 171.032C458.21 173.084 456.698 174.506 454.61 174.506ZM471.828 171.266C471.828 168.422 469.902 166.46 467.238 166.46C464.574 166.46 462.612 168.458 462.612 171.266C462.612 174.074 464.628 176.09 467.58 176.09C469.074 176.09 470.388 175.55 471.234 174.542L470.514 173.714C469.794 174.542 468.768 174.956 467.616 174.956C465.546 174.956 464.034 173.642 463.89 171.662H471.81C471.81 171.518 471.828 171.374 471.828 171.266ZM467.238 167.558C469.092 167.558 470.442 168.854 470.604 170.708H463.89C464.052 168.854 465.402 167.558 467.238 167.558ZM479.793 166.46C478.155 166.46 476.877 167.126 476.193 168.278V166.532H474.969V176H476.247V171.032C476.247 168.872 477.525 167.612 479.559 167.612C481.359 167.612 482.403 168.638 482.403 170.636V176H483.681V170.51C483.681 167.792 482.097 166.46 479.793 166.46ZM490.229 176.09C492.695 176.09 494.135 175.028 494.135 173.39C494.135 169.754 487.997 171.68 487.997 169.124C487.997 168.224 488.753 167.558 490.463 167.558C491.435 167.558 492.425 167.792 493.253 168.368L493.811 167.342C493.019 166.802 491.687 166.46 490.463 166.46C488.051 166.46 486.719 167.612 486.719 169.16C486.719 172.904 492.857 170.96 492.857 173.426C492.857 174.362 492.119 174.974 490.319 174.974C488.987 174.974 487.709 174.506 486.953 173.912L486.377 174.92C487.151 175.586 488.663 176.09 490.229 176.09ZM505.421 163.634C505.961 163.634 506.465 163.796 506.825 164.102L507.257 163.148C506.789 162.752 506.069 162.554 505.367 162.554C503.513 162.554 502.505 163.67 502.505 165.362V166.532H500.813V167.612H502.505V176H503.783V167.612H506.663V166.532H503.747V165.416C503.747 164.246 504.323 163.634 505.421 163.634ZM511.594 168.386V166.532H510.37V176H511.648V171.176C511.648 168.944 512.854 167.684 514.834 167.684C514.924 167.684 515.032 167.702 515.14 167.702V166.46C513.394 166.46 512.188 167.126 511.594 168.386ZM521.776 176.09C524.548 176.09 526.582 174.074 526.582 171.266C526.582 168.458 524.548 166.46 521.776 166.46C519.004 166.46 516.952 168.458 516.952 171.266C516.952 174.074 519.004 176.09 521.776 176.09ZM521.776 174.956C519.76 174.956 518.248 173.48 518.248 171.266C518.248 169.052 519.76 167.576 521.776 167.576C523.792 167.576 525.286 169.052 525.286 171.266C525.286 173.48 523.792 174.956 521.776 174.956ZM541.539 166.46C539.829 166.46 538.479 167.234 537.795 168.458C537.219 167.126 535.995 166.46 534.429 166.46C532.845 166.46 531.621 167.126 530.955 168.26V166.532H529.731V176H531.009V171.032C531.009 168.872 532.251 167.612 534.177 167.612C535.905 167.612 536.913 168.638 536.913 170.636V176H538.191V171.032C538.191 168.872 539.415 167.612 541.359 167.612C543.069 167.612 544.077 168.638 544.077 170.636V176H545.355V170.51C545.355 167.792 543.843 166.46 541.539 166.46ZM555.26 164.462C555.8 164.462 556.196 164.048 556.196 163.526C556.196 163.04 555.782 162.644 555.26 162.644C554.738 162.644 554.324 163.058 554.324 163.544C554.324 164.048 554.738 164.462 555.26 164.462ZM554.612 176H555.89V166.532H554.612V176ZM561.21 168.386V166.532H559.986V176H561.264V171.176C561.264 168.944 562.47 167.684 564.45 167.684C564.54 167.684 564.648 167.702 564.756 167.702V166.46C563.01 166.46 561.804 167.126 561.21 168.386ZM568.834 168.386V166.532H567.61V176H568.888V171.176C568.888 168.944 570.094 167.684 572.074 167.684C572.164 167.684 572.272 167.702 572.38 167.702V166.46C570.634 166.46 569.428 167.126 568.834 168.386ZM575.882 164.462C576.422 164.462 576.818 164.048 576.818 163.526C576.818 163.04 576.404 162.644 575.882 162.644C575.36 162.644 574.946 163.058 574.946 163.544C574.946 164.048 575.36 164.462 575.882 164.462ZM575.234 176H576.512V166.532H575.234V176ZM585.144 174.506C584.784 174.83 584.262 174.992 583.74 174.992C582.678 174.992 582.102 174.38 582.102 173.264V167.612H584.982V166.532H582.102V164.462H580.824V166.532H579.132V167.612H580.824V173.336C580.824 175.082 581.814 176.09 583.596 176.09C584.334 176.09 585.09 175.874 585.594 175.424L585.144 174.506ZM591.772 166.46C590.278 166.46 588.874 166.928 587.92 167.738L588.496 168.692C589.27 168.008 590.422 167.576 591.646 167.576C593.41 167.576 594.328 168.458 594.328 170.078V170.654H591.322C588.604 170.654 587.668 171.878 587.668 173.336C587.668 174.974 588.982 176.09 591.124 176.09C592.69 176.09 593.806 175.496 594.382 174.524V176H595.606V170.132C595.606 167.684 594.22 166.46 591.772 166.46ZM591.322 175.082C589.81 175.082 588.928 174.398 588.928 173.3C588.928 172.328 589.522 171.608 591.358 171.608H594.328V173.156C593.824 174.398 592.762 175.082 591.322 175.082ZM604.153 174.506C603.793 174.83 603.271 174.992 602.749 174.992C601.687 174.992 601.111 174.38 601.111 173.264V167.612H603.991V166.532H601.111V164.462H599.833V166.532H598.141V167.612H599.833V173.336C599.833 175.082 600.823 176.09 602.605 176.09C603.343 176.09 604.099 175.874 604.603 175.424L604.153 174.506ZM608.118 164.462C608.658 164.462 609.054 164.048 609.054 163.526C609.054 163.04 608.64 162.644 608.118 162.644C607.596 162.644 607.182 163.058 607.182 163.544C607.182 164.048 607.596 164.462 608.118 164.462ZM607.47 176H608.748V166.532H607.47V176ZM617.668 166.46C616.03 166.46 614.752 167.126 614.068 168.278V166.532H612.844V176H614.122V171.032C614.122 168.872 615.4 167.612 617.434 167.612C619.234 167.612 620.278 168.638 620.278 170.636V176H621.556V170.51C621.556 167.792 619.972 166.46 617.668 166.46ZM633.143 166.532V168.35C632.351 167.108 630.983 166.46 629.399 166.46C626.699 166.46 624.647 168.314 624.647 171.032C624.647 173.75 626.699 175.64 629.399 175.64C630.947 175.64 632.297 175.01 633.089 173.804V175.01C633.089 177.35 631.991 178.448 629.597 178.448C628.139 178.448 626.771 177.962 625.871 177.152L625.223 178.124C626.213 179.06 627.905 179.582 629.633 179.582C632.765 179.582 634.367 178.106 634.367 174.848V166.532H633.143ZM629.525 174.506C627.437 174.506 625.943 173.084 625.943 171.032C625.943 168.98 627.437 167.576 629.525 167.576C631.613 167.576 633.125 168.98 633.125 171.032C633.125 173.084 631.613 174.506 629.525 174.506ZM650.427 166.532L646.863 174.578L643.299 166.532H641.967L646.197 175.982L645.783 176.9C645.243 178.088 644.667 178.484 643.821 178.484C643.137 178.484 642.561 178.232 642.093 177.764L641.499 178.718C642.075 179.294 642.921 179.582 643.803 179.582C645.153 179.582 646.161 178.988 646.953 177.134L651.687 166.532H650.427ZM657.634 176.09C660.406 176.09 662.44 174.074 662.44 171.266C662.44 168.458 660.406 166.46 657.634 166.46C654.862 166.46 652.81 168.458 652.81 171.266C652.81 174.074 654.862 176.09 657.634 176.09ZM657.634 174.956C655.618 174.956 654.106 173.48 654.106 171.266C654.106 169.052 655.618 167.576 657.634 167.576C659.65 167.576 661.144 169.052 661.144 171.266C661.144 173.48 659.65 174.956 657.634 174.956ZM672.843 166.532V171.5C672.843 173.66 671.601 174.938 669.621 174.938C667.821 174.938 666.777 173.912 666.777 171.896V166.532H665.499V172.022C665.499 174.74 667.083 176.09 669.495 176.09C671.007 176.09 672.231 175.424 672.897 174.272V176H674.121V166.532H672.843ZM679.464 168.386V166.532H678.24V176H679.518V171.176C679.518 168.944 680.724 167.684 682.704 167.684C682.794 167.684 682.902 167.702 683.01 167.702V166.46C681.264 166.46 680.058 167.126 679.464 168.386ZM693.794 176.09C696.26 176.09 697.7 175.028 697.7 173.39C697.7 169.754 691.562 171.68 691.562 169.124C691.562 168.224 692.318 167.558 694.028 167.558C695 167.558 695.99 167.792 696.818 168.368L697.376 167.342C696.584 166.802 695.252 166.46 694.028 166.46C691.616 166.46 690.284 167.612 690.284 169.16C690.284 172.904 696.422 170.96 696.422 173.426C696.422 174.362 695.684 174.974 693.884 174.974C692.552 174.974 691.274 174.506 690.518 173.912L689.942 174.92C690.716 175.586 692.228 176.09 693.794 176.09ZM707.928 176H709.494L705.066 170.402L709.116 166.532H707.532L701.88 171.698V162.644H700.602V176H701.88V173.3L704.112 171.248L707.928 176ZM712.46 164.462C713 164.462 713.396 164.048 713.396 163.526C713.396 163.04 712.982 162.644 712.46 162.644C711.938 162.644 711.524 163.058 711.524 163.544C711.524 164.048 711.938 164.462 712.46 164.462ZM711.812 176H713.09V166.532H711.812V176ZM722.01 166.46C720.372 166.46 719.094 167.126 718.41 168.278V166.532H717.186V176H718.464V171.032C718.464 168.872 719.742 167.612 721.776 167.612C723.576 167.612 724.62 168.638 724.62 170.636V176H725.898V170.51C725.898 167.792 724.314 166.46 722.01 166.46ZM730.034 176.09C730.556 176.09 731.006 175.658 731.006 175.1C731.006 174.542 730.556 174.128 730.034 174.128C729.512 174.128 729.08 174.542 729.08 175.1C729.08 175.658 729.512 176.09 730.034 176.09Z" fill="black" fill-opacity="0.6"/>
<path d="M416.491 16.2V23.136H407.803V16.2H404.683V33H407.803V25.8H416.491V33H419.611V16.2H416.491ZM433.665 20.184L429.609 29.664L425.577 20.184H422.457L428.049 33.048L427.833 33.552C427.257 34.824 426.633 35.328 425.577 35.328C424.761 35.328 423.945 34.992 423.369 34.44L422.169 36.648C422.985 37.392 424.329 37.824 425.601 37.824C427.737 37.824 429.369 36.936 430.545 34.032L436.545 20.184H433.665ZM446.244 20.04C444.492 20.04 443.004 20.64 441.996 21.864V20.184H439.14V37.656H442.14V31.44C443.172 32.616 444.612 33.168 446.244 33.168C449.988 33.168 452.748 30.576 452.748 26.592C452.748 22.632 449.988 20.04 446.244 20.04ZM445.908 30.6C443.748 30.6 442.092 29.04 442.092 26.592C442.092 24.144 443.748 22.584 445.908 22.584C448.068 22.584 449.7 24.144 449.7 26.592C449.7 29.04 448.068 30.6 445.908 30.6ZM462.073 33.168C466.057 33.168 468.913 30.432 468.913 26.592C468.913 22.752 466.057 20.04 462.073 20.04C458.137 20.04 455.257 22.752 455.257 26.592C455.257 30.432 458.137 33.168 462.073 33.168ZM462.073 30.6C459.913 30.6 458.281 29.04 458.281 26.592C458.281 24.144 459.913 22.584 462.073 22.584C464.257 22.584 465.889 24.144 465.889 26.592C465.889 29.04 464.257 30.6 462.073 30.6ZM477.234 20.04C475.17 20.04 473.178 20.568 471.81 21.624L472.986 23.808C473.946 23.016 475.434 22.536 476.874 22.536C479.01 22.536 480.066 23.568 480.066 25.32V25.512H476.754C472.866 25.512 471.426 27.192 471.426 29.328C471.426 31.56 473.274 33.168 476.202 33.168C478.122 33.168 479.514 32.544 480.234 31.44V33H483.066V25.488C483.066 21.792 480.93 20.04 477.234 20.04ZM476.826 30.984C475.29 30.984 474.378 30.288 474.378 29.208C474.378 28.272 474.93 27.504 476.97 27.504H480.066V28.992C479.562 30.312 478.29 30.984 476.826 30.984ZM487.636 33H490.636V15.192H487.636V33ZM495.293 33H498.293V15.192H495.293V33ZM514.999 26.664C514.999 22.656 512.263 20.04 508.519 20.04C504.703 20.04 501.895 22.776 501.895 26.592C501.895 30.408 504.679 33.168 508.975 33.168C511.183 33.168 512.983 32.448 514.135 31.08L512.527 29.232C511.615 30.168 510.487 30.624 509.047 30.624C506.815 30.624 505.255 29.424 504.895 27.552H514.951C514.975 27.264 514.999 26.904 514.999 26.664ZM508.519 22.44C510.487 22.44 511.903 23.712 512.143 25.56H504.871C505.159 23.688 506.575 22.44 508.519 22.44ZM521.456 22.056V20.184H518.6V33H521.6V26.784C521.6 24.168 523.04 22.824 525.32 22.824C525.536 22.824 525.752 22.848 526.016 22.896V20.04C523.88 20.04 522.32 20.712 521.456 22.056ZM539.028 20.184V21.888C537.972 20.616 536.388 20.04 534.588 20.04C530.916 20.04 528.108 22.488 528.108 26.208C528.108 29.928 530.916 32.424 534.588 32.424C536.316 32.424 537.828 31.872 538.884 30.72V31.392C538.884 33.984 537.636 35.28 534.804 35.28C533.028 35.28 531.204 34.68 530.076 33.744L528.732 36C530.196 37.2 532.572 37.824 534.972 37.824C539.46 37.824 541.884 35.712 541.884 31.056V20.184H539.028ZM535.044 29.88C532.764 29.88 531.132 28.392 531.132 26.208C531.132 24.048 532.764 22.584 535.044 22.584C537.3 22.584 538.932 24.048 538.932 26.208C538.932 28.392 537.3 29.88 535.044 29.88ZM558.596 26.664C558.596 22.656 555.86 20.04 552.116 20.04C548.3 20.04 545.492 22.776 545.492 26.592C545.492 30.408 548.276 33.168 552.572 33.168C554.78 33.168 556.58 32.448 557.732 31.08L556.124 29.232C555.212 30.168 554.084 30.624 552.644 30.624C550.412 30.624 548.852 29.424 548.492 27.552H558.548C558.572 27.264 558.596 26.904 558.596 26.664ZM552.116 22.44C554.084 22.44 555.5 23.712 555.74 25.56H548.468C548.756 23.688 550.172 22.44 552.116 22.44ZM569.47 20.04C567.598 20.04 566.038 20.664 565.054 21.84V20.184H562.198V33H565.198V26.52C565.198 23.952 566.638 22.656 568.774 22.656C570.694 22.656 571.822 23.76 571.822 26.04V33H574.822V25.656C574.822 21.792 572.542 20.04 569.47 20.04ZM580.86 18.072C581.988 18.072 582.78 17.256 582.78 16.2C582.78 15.216 581.964 14.472 580.86 14.472C579.756 14.472 578.94 15.264 578.94 16.272C578.94 17.28 579.756 18.072 580.86 18.072ZM579.348 33H582.348V20.184H579.348V33ZM592.885 33.168C595.381 33.168 597.373 32.088 598.357 30.168L596.053 28.824C595.285 30.048 594.133 30.6 592.861 30.6C590.653 30.6 588.973 29.088 588.973 26.592C588.973 24.12 590.653 22.584 592.861 22.584C594.133 22.584 595.285 23.136 596.053 24.36L598.357 23.016C597.373 21.072 595.381 20.04 592.885 20.04C588.829 20.04 585.949 22.752 585.949 26.592C585.949 30.432 588.829 33.168 592.885 33.168ZM616.223 16.2H609.311V33H612.431V28.152H616.223C620.639 28.152 623.375 25.872 623.375 22.176C623.375 18.456 620.639 16.2 616.223 16.2ZM616.079 25.512H612.431V18.84H616.079C618.815 18.84 620.231 20.064 620.231 22.176C620.231 24.288 618.815 25.512 616.079 25.512ZM632.636 33.168C636.62 33.168 639.476 30.432 639.476 26.592C639.476 22.752 636.62 20.04 632.636 20.04C628.7 20.04 625.82 22.752 625.82 26.592C625.82 30.432 628.7 33.168 632.636 33.168ZM632.636 30.6C630.476 30.6 628.844 29.04 628.844 26.592C628.844 24.144 630.476 22.584 632.636 22.584C634.82 22.584 636.452 24.144 636.452 26.592C636.452 29.04 634.82 30.6 632.636 30.6ZM643.065 33H646.065V15.192H643.065V33ZM659.842 20.184L655.786 29.664L651.754 20.184H648.634L654.226 33.048L654.01 33.552C653.434 34.824 652.81 35.328 651.754 35.328C650.938 35.328 650.122 34.992 649.546 34.44L648.346 36.648C649.162 37.392 650.506 37.824 651.778 37.824C653.914 37.824 655.546 36.936 656.722 34.032L662.722 20.184H659.842ZM672.421 20.04C670.789 20.04 669.349 20.592 668.317 21.744V15.192H665.317V33H668.173V31.344C669.181 32.568 670.669 33.168 672.421 33.168C676.165 33.168 678.925 30.576 678.925 26.592C678.925 22.608 676.165 20.04 672.421 20.04ZM672.085 30.6C669.925 30.6 668.269 29.04 668.269 26.592C668.269 24.144 669.925 22.584 672.085 22.584C674.245 22.584 675.877 24.144 675.877 26.592C675.877 29.04 674.245 30.6 672.085 30.6ZM682.49 33H685.49V15.192H682.49V33ZM702.196 26.664C702.196 22.656 699.46 20.04 695.716 20.04C691.9 20.04 689.092 22.776 689.092 26.592C689.092 30.408 691.876 33.168 696.172 33.168C698.38 33.168 700.18 32.448 701.332 31.08L699.724 29.232C698.812 30.168 697.684 30.624 696.244 30.624C694.012 30.624 692.452 29.424 692.092 27.552H702.148C702.172 27.264 702.196 26.904 702.196 26.664ZM695.716 22.44C697.684 22.44 699.1 23.712 699.34 25.56H692.068C692.356 23.688 693.772 22.44 695.716 22.44ZM713.07 20.04C711.198 20.04 709.638 20.664 708.654 21.84V20.184H705.798V33H708.798V26.52C708.798 23.952 710.238 22.656 712.374 22.656C714.294 22.656 715.422 23.76 715.422 26.04V33H718.422V25.656C718.422 21.792 716.142 20.04 713.07 20.04ZM732.616 15.192V21.768C731.608 20.592 730.144 20.04 728.488 20.04C724.768 20.04 722.008 22.608 722.008 26.592C722.008 30.576 724.768 33.168 728.488 33.168C730.24 33.168 731.728 32.568 732.736 31.344V33H735.616V15.192H732.616ZM728.848 30.6C726.688 30.6 725.032 29.04 725.032 26.592C725.032 24.144 726.688 22.584 728.848 22.584C731.008 22.584 732.664 24.144 732.664 26.592C732.664 29.04 731.008 30.6 728.848 30.6Z" fill="#5A0090"/>
<path d="M439.865 81.317V79.9H433.222V89H434.912V85.516H439.306V84.086H434.912V81.317H439.865ZM441.889 89H443.579V79.9H441.889V89ZM454.205 89L452.112 86.01C453.347 85.529 454.049 84.515 454.049 83.137C454.049 81.122 452.567 79.9 450.175 79.9H446.431V89H448.121V86.348H450.175C450.292 86.348 450.409 86.348 450.526 86.335L452.385 89H454.205ZM452.346 83.137C452.346 84.281 451.579 84.957 450.097 84.957H448.121V81.33H450.097C451.579 81.33 452.346 81.993 452.346 83.137ZM466.288 89L466.275 79.9H464.884L461.335 85.932L457.721 79.9H456.33V89H457.942V83.046L460.932 87.96H461.686L464.676 82.968L464.689 89H466.288ZM475.545 79.9V86.062L470.527 79.9H469.136V89H470.813V82.838L475.831 89H477.222V79.9H475.545ZM481.74 87.583V85.074H486.134V83.683H481.74V81.317H486.693V79.9H480.05V89H486.875V87.583H481.74ZM491.97 89.13C494.466 89.13 495.649 87.882 495.649 86.426C495.649 83.085 490.254 84.346 490.254 82.409C490.254 81.72 490.826 81.174 492.23 81.174C493.023 81.174 493.92 81.408 494.739 81.889L495.272 80.576C494.479 80.056 493.335 79.77 492.243 79.77C489.747 79.77 488.577 81.018 488.577 82.487C488.577 85.867 493.985 84.58 493.985 86.543C493.985 87.219 493.387 87.726 491.97 87.726C490.852 87.726 489.695 87.31 488.967 86.725L488.382 88.038C489.136 88.688 490.553 89.13 491.97 89.13ZM500.536 89.13C503.032 89.13 504.215 87.882 504.215 86.426C504.215 83.085 498.82 84.346 498.82 82.409C498.82 81.72 499.392 81.174 500.796 81.174C501.589 81.174 502.486 81.408 503.305 81.889L503.838 80.576C503.045 80.056 501.901 79.77 500.809 79.77C498.313 79.77 497.143 81.018 497.143 82.487C497.143 85.867 502.551 84.58 502.551 86.543C502.551 87.219 501.953 87.726 500.536 87.726C499.418 87.726 498.261 87.31 497.533 86.725L496.948 88.038C497.702 88.688 499.119 89.13 500.536 89.13Z" fill="#5A0090"/>
<circle cx="575.5" cy="83.5" r="4.75" fill="#5A0090" stroke="#5A0090" stroke-width="1.5"/>
<circle cx="620.233" cy="83.5" r="4.75" fill="#5A0090" stroke="#5A0090" stroke-width="1.5"/>
<circle cx="664.967" cy="83.5" r="4.75" stroke="#5A0090" stroke-opacity="0.35" stroke-width="1.5"/>
<circle cx="709.7" cy="83.5" r="4.75" stroke="#5A0090" stroke-opacity="0.35" stroke-width="1.5"/>
<g opacity="0.8">
<path fill-rule="evenodd" clip-rule="evenodd" d="M407 76C410.64 76 413.67 78.59 414.35 82.04C416.95 82.22 419 84.36 419 87C419 89.76 416.76 92 414 92H401C397.69 92 395 89.31 395 86C395 82.91 397.34 80.36 400.35 80.04C401.6 77.64 404.11 76 407 76ZM401 90H414C415.66 90 417 88.66 417 87C417 85.34 415.66 84 414 84H412.5V83.5C412.5 80.46 410.04 78 407 78C404.48 78 402.37 79.69 401.71 82H401C398.79 82 397 83.79 397 86C397 88.21 398.79 90 401 90Z" fill="#5A0090"/>
<path fill-rule="evenodd" clip-rule="evenodd" d="M407 76C410.64 76 413.67 78.59 414.35 82.04C416.95 82.22 419 84.36 419 87C419 89.76 416.76 92 414 92H401C397.69 92 395 89.31 395 86C395 82.91 397.34 80.36 400.35 80.04C401.6 77.64 404.11 76 407 76ZM401 90H414C415.66 90 417 88.66 417 87C417 85.34 415.66 84 414 84H412.5V83.5C412.5 80.46 410.04 78 407 78C404.48 78 402.37 79.69 401.71 82H401C398.79 82 397 83.79 397 86C397 88.21 398.79 90 401 90Z" fill="#5A0090"/>
</g>
<path d="M804.45 150.108C807.672 150.108 809.148 148.524 809.148 146.67C809.148 142.08 801.39 144.168 801.39 140.712C801.39 139.452 802.416 138.426 804.72 138.426C805.836 138.426 807.096 138.768 808.176 139.47L808.626 138.408C807.618 137.706 806.142 137.292 804.72 137.292C801.516 137.292 800.076 138.894 800.076 140.748C800.076 145.41 807.834 143.286 807.834 146.742C807.834 147.984 806.808 148.974 804.45 148.974C802.794 148.974 801.192 148.326 800.292 147.444L799.77 148.47C800.706 149.442 802.56 150.108 804.45 150.108ZM816.19 150.09C818.962 150.09 820.996 148.074 820.996 145.266C820.996 142.458 818.962 140.46 816.19 140.46C813.418 140.46 811.366 142.458 811.366 145.266C811.366 148.074 813.418 150.09 816.19 150.09ZM816.19 148.956C814.174 148.956 812.662 147.48 812.662 145.266C812.662 143.052 814.174 141.576 816.19 141.576C818.206 141.576 819.7 143.052 819.7 145.266C819.7 147.48 818.206 148.956 816.19 148.956ZM827.277 137.634C827.817 137.634 828.321 137.796 828.681 138.102L829.113 137.148C828.645 136.752 827.925 136.554 827.223 136.554C825.369 136.554 824.361 137.67 824.361 139.362V140.532H822.669V141.612H824.361V150H825.639V141.612H828.519V140.532H825.603V139.416C825.603 138.246 826.179 137.634 827.277 137.634ZM835.321 148.506C834.961 148.83 834.439 148.992 833.917 148.992C832.855 148.992 832.279 148.38 832.279 147.264V141.612H835.159V140.532H832.279V138.462H831.001V140.532H829.309V141.612H831.001V147.336C831.001 149.082 831.991 150.09 833.773 150.09C834.511 150.09 835.267 149.874 835.771 149.424L835.321 148.506ZM847.2 140.46C845.706 140.46 844.302 140.928 843.348 141.738L843.924 142.692C844.698 142.008 845.85 141.576 847.074 141.576C848.838 141.576 849.756 142.458 849.756 144.078V144.654H846.75C844.032 144.654 843.096 145.878 843.096 147.336C843.096 148.974 844.41 150.09 846.552 150.09C848.118 150.09 849.234 149.496 849.81 148.524V150H851.034V144.132C851.034 141.684 849.648 140.46 847.2 140.46ZM846.75 149.082C845.238 149.082 844.356 148.398 844.356 147.3C844.356 146.328 844.95 145.608 846.786 145.608H849.756V147.156C849.252 148.398 848.19 149.082 846.75 149.082ZM859.87 140.46C858.232 140.46 856.954 141.126 856.27 142.278V140.532H855.046V150H856.324V145.032C856.324 142.872 857.602 141.612 859.636 141.612C861.436 141.612 862.48 142.638 862.48 144.636V150H863.758V144.51C863.758 141.792 862.174 140.46 859.87 140.46ZM875.164 136.644V142.332C874.372 141.108 873.076 140.46 871.564 140.46C868.864 140.46 866.848 142.404 866.848 145.266C866.848 148.128 868.864 150.09 871.564 150.09C873.13 150.09 874.444 149.406 875.218 148.128V150H876.442V136.644H875.164ZM871.672 148.956C869.656 148.956 868.144 147.48 868.144 145.266C868.144 143.052 869.656 141.576 871.672 141.576C873.67 141.576 875.182 143.052 875.182 145.266C875.182 147.48 873.67 148.956 871.672 148.956ZM893.335 140.532V142.35C892.543 141.108 891.175 140.46 889.591 140.46C886.891 140.46 884.839 142.314 884.839 145.032C884.839 147.75 886.891 149.64 889.591 149.64C891.139 149.64 892.489 149.01 893.281 147.804V149.01C893.281 151.35 892.183 152.448 889.789 152.448C888.331 152.448 886.963 151.962 886.063 151.152L885.415 152.124C886.405 153.06 888.097 153.582 889.825 153.582C892.957 153.582 894.559 152.106 894.559 148.848V140.532H893.335ZM889.717 148.506C887.629 148.506 886.135 147.084 886.135 145.032C886.135 142.98 887.629 141.576 889.717 141.576C891.805 141.576 893.317 142.98 893.317 145.032C893.317 147.084 891.805 148.506 889.717 148.506ZM906.934 145.266C906.934 142.422 905.008 140.46 902.344 140.46C899.68 140.46 897.718 142.458 897.718 145.266C897.718 148.074 899.734 150.09 902.686 150.09C904.18 150.09 905.494 149.55 906.34 148.542L905.62 147.714C904.9 148.542 903.874 148.956 902.722 148.956C900.652 148.956 899.14 147.642 898.996 145.662H906.916C906.916 145.518 906.934 145.374 906.934 145.266ZM902.344 141.558C904.198 141.558 905.548 142.854 905.71 144.708H898.996C899.158 142.854 900.508 141.558 902.344 141.558ZM914.9 140.46C913.262 140.46 911.984 141.126 911.3 142.278V140.532H910.076V150H911.354V145.032C911.354 142.872 912.632 141.612 914.666 141.612C916.466 141.612 917.51 142.638 917.51 144.636V150H918.788V144.51C918.788 141.792 917.204 140.46 914.9 140.46ZM927.333 148.506C926.973 148.83 926.451 148.992 925.929 148.992C924.867 148.992 924.291 148.38 924.291 147.264V141.612H927.171V140.532H924.291V138.462H923.013V140.532H921.321V141.612H923.013V147.336C923.013 149.082 924.003 150.09 925.785 150.09C926.523 150.09 927.279 149.874 927.783 149.424L927.333 148.506ZM930.65 150H931.928V136.644H930.65V150ZM944.286 145.266C944.286 142.422 942.36 140.46 939.696 140.46C937.032 140.46 935.07 142.458 935.07 145.266C935.07 148.074 937.086 150.09 940.038 150.09C941.532 150.09 942.846 149.55 943.692 148.542L942.972 147.714C942.252 148.542 941.226 148.956 940.074 148.956C938.004 148.956 936.492 147.642 936.348 145.662H944.268C944.268 145.518 944.286 145.374 944.286 145.266ZM939.696 141.558C941.55 141.558 942.9 142.854 943.062 144.708H936.348C936.51 142.854 937.86 141.558 939.696 141.558ZM955.216 150.09C957.682 150.09 959.122 149.028 959.122 147.39C959.122 143.754 952.984 145.68 952.984 143.124C952.984 142.224 953.74 141.558 955.45 141.558C956.422 141.558 957.412 141.792 958.24 142.368L958.798 141.342C958.006 140.802 956.674 140.46 955.45 140.46C953.038 140.46 951.706 141.612 951.706 143.16C951.706 146.904 957.844 144.96 957.844 147.426C957.844 148.362 957.106 148.974 955.306 148.974C953.974 148.974 952.696 148.506 951.94 147.912L951.364 148.92C952.138 149.586 953.65 150.09 955.216 150.09ZM969.279 140.532V145.5C969.279 147.66 968.037 148.938 966.057 148.938C964.257 148.938 963.213 147.912 963.213 145.896V140.532H961.935V146.022C961.935 148.74 963.519 150.09 965.931 150.09C967.443 150.09 968.667 149.424 969.333 148.272V150H970.557V140.532H969.279ZM979.554 140.46C977.988 140.46 976.674 141.144 975.9 142.404V140.532H974.676V153.492H975.954V148.218C976.746 149.442 978.042 150.09 979.554 150.09C982.254 150.09 984.27 148.146 984.27 145.266C984.27 142.404 982.254 140.46 979.554 140.46ZM979.464 148.956C977.448 148.956 975.936 147.48 975.936 145.266C975.936 143.07 977.448 141.576 979.464 141.576C981.462 141.576 982.992 143.07 982.992 145.266C982.992 147.48 981.462 148.956 979.464 148.956ZM992.293 140.46C990.727 140.46 989.413 141.144 988.639 142.404V140.532H987.415V153.492H988.693V148.218C989.485 149.442 990.781 150.09 992.293 150.09C994.993 150.09 997.009 148.146 997.009 145.266C997.009 142.404 994.993 140.46 992.293 140.46ZM992.203 148.956C990.187 148.956 988.675 147.48 988.675 145.266C988.675 143.07 990.187 141.576 992.203 141.576C994.201 141.576 995.731 143.07 995.731 145.266C995.731 147.48 994.201 148.956 992.203 148.956ZM1004.02 150.09C1006.8 150.09 1008.83 148.074 1008.83 145.266C1008.83 142.458 1006.8 140.46 1004.02 140.46C1001.25 140.46 999.2 142.458 999.2 145.266C999.2 148.074 1001.25 150.09 1004.02 150.09ZM1004.02 148.956C1002.01 148.956 1000.5 147.48 1000.5 145.266C1000.5 143.052 1002.01 141.576 1004.02 141.576C1006.04 141.576 1007.53 143.052 1007.53 145.266C1007.53 147.48 1006.04 148.956 1004.02 148.956ZM1013.2 142.386V140.532H1011.98V150H1013.26V145.176C1013.26 142.944 1014.46 141.684 1016.44 141.684C1016.53 141.684 1016.64 141.702 1016.75 141.702V140.46C1015 140.46 1013.8 141.126 1013.2 142.386ZM1024.54 148.506C1024.18 148.83 1023.66 148.992 1023.14 148.992C1022.08 148.992 1021.5 148.38 1021.5 147.264V141.612H1024.38V140.532H1021.5V138.462H1020.22V140.532H1018.53V141.612H1020.22V147.336C1020.22 149.082 1021.21 150.09 1023 150.09C1023.73 150.09 1024.49 149.874 1024.99 149.424L1024.54 148.506ZM1036.24 137.634C1036.78 137.634 1037.29 137.796 1037.65 138.102L1038.08 137.148C1037.61 136.752 1036.89 136.554 1036.19 136.554C1034.34 136.554 1033.33 137.67 1033.33 139.362V140.532H1031.64V141.612H1033.33V150H1034.61V141.612H1037.49V140.532H1034.57V139.416C1034.57 138.246 1035.15 137.634 1036.24 137.634ZM1042.42 142.386V140.532H1041.19V150H1042.47V145.176C1042.47 142.944 1043.68 141.684 1045.66 141.684C1045.75 141.684 1045.85 141.702 1045.96 141.702V140.46C1044.22 140.46 1043.01 141.126 1042.42 142.386ZM1052.6 150.09C1055.37 150.09 1057.4 148.074 1057.4 145.266C1057.4 142.458 1055.37 140.46 1052.6 140.46C1049.83 140.46 1047.77 142.458 1047.77 145.266C1047.77 148.074 1049.83 150.09 1052.6 150.09ZM1052.6 148.956C1050.58 148.956 1049.07 147.48 1049.07 145.266C1049.07 143.052 1050.58 141.576 1052.6 141.576C1054.61 141.576 1056.11 143.052 1056.11 145.266C1056.11 147.48 1054.61 148.956 1052.6 148.956ZM1072.36 140.46C1070.65 140.46 1069.3 141.234 1068.62 142.458C1068.04 141.126 1066.82 140.46 1065.25 140.46C1063.67 140.46 1062.44 141.126 1061.78 142.26V140.532H1060.55V150H1061.83V145.032C1061.83 142.872 1063.07 141.612 1065 141.612C1066.73 141.612 1067.74 142.638 1067.74 144.636V150H1069.01V145.032C1069.01 142.872 1070.24 141.612 1072.18 141.612C1073.89 141.612 1074.9 142.638 1074.9 144.636V150H1076.18V144.51C1076.18 141.792 1074.67 140.46 1072.36 140.46ZM1083.81 137.4V138.552H1086.78V150H1088.08V137.4H1083.81ZM1096.65 150.108C1099.57 150.108 1101.69 147.714 1101.69 143.7C1101.69 139.686 1099.57 137.292 1096.65 137.292C1093.74 137.292 1091.63 139.686 1091.63 143.7C1091.63 147.714 1093.74 150.108 1096.65 150.108ZM1096.65 148.92C1094.46 148.92 1092.95 147.066 1092.95 143.7C1092.95 140.334 1094.46 138.48 1096.65 138.48C1098.85 138.48 1100.36 140.334 1100.36 143.7C1100.36 147.066 1098.85 148.92 1096.65 148.92ZM1109.11 150.108C1112.03 150.108 1114.15 147.714 1114.15 143.7C1114.15 139.686 1112.03 137.292 1109.11 137.292C1106.2 137.292 1104.09 139.686 1104.09 143.7C1104.09 147.714 1106.2 150.108 1109.11 150.108ZM1109.11 148.92C1106.92 148.92 1105.4 147.066 1105.4 143.7C1105.4 140.334 1106.92 138.48 1109.11 138.48C1111.31 138.48 1112.82 140.334 1112.82 143.7C1112.82 147.066 1111.31 148.92 1109.11 148.92ZM1119.21 144.15C1120.89 144.15 1122.06 142.8 1122.06 140.73C1122.06 138.66 1120.89 137.31 1119.21 137.31C1117.52 137.31 1116.37 138.678 1116.37 140.73C1116.37 142.782 1117.52 144.15 1119.21 144.15ZM1118.24 150H1119.3L1127.91 137.4H1126.84L1118.24 150ZM1119.21 143.34C1118.02 143.34 1117.27 142.35 1117.27 140.73C1117.27 139.11 1118.02 138.12 1119.21 138.12C1120.38 138.12 1121.16 139.092 1121.16 140.73C1121.16 142.368 1120.38 143.34 1119.21 143.34ZM1126.93 150.09C1128.63 150.09 1129.78 148.722 1129.78 146.67C1129.78 144.618 1128.63 143.25 1126.93 143.25C1125.26 143.25 1124.09 144.618 1124.09 146.67C1124.09 148.722 1125.26 150.09 1126.93 150.09ZM1126.93 149.28C1125.76 149.28 1124.99 148.308 1124.99 146.67C1124.99 145.032 1125.76 144.06 1126.93 144.06C1128.12 144.06 1128.88 145.05 1128.88 146.67C1128.88 148.29 1128.12 149.28 1126.93 149.28ZM863.684 166.46C862.19 166.46 860.786 166.928 859.832 167.738L860.408 168.692C861.182 168.008 862.334 167.576 863.558 167.576C865.322 167.576 866.24 168.458 866.24 170.078V170.654H863.234C860.516 170.654 859.58 171.878 859.58 173.336C859.58 174.974 860.894 176.09 863.036 176.09C864.602 176.09 865.718 175.496 866.294 174.524V176H867.518V170.132C867.518 167.684 866.132 166.46 863.684 166.46ZM863.234 175.082C861.722 175.082 860.84 174.398 860.84 173.3C860.84 172.328 861.434 171.608 863.27 171.608H866.24V173.156C865.736 174.398 864.674 175.082 863.234 175.082ZM871.529 176H872.807V162.644H871.529V176ZM876.903 176H878.181V162.644H876.903V176ZM881.575 171.68H886.291V170.564H881.575V171.68ZM894.514 166.46C892.876 166.46 891.598 167.126 890.914 168.278V166.532H889.69V176H890.968V171.032C890.968 168.872 892.246 167.612 894.28 167.612C896.08 167.612 897.124 168.638 897.124 170.636V176H898.402V170.51C898.402 167.792 896.818 166.46 894.514 166.46ZM905.724 166.46C904.23 166.46 902.826 166.928 901.872 167.738L902.448 168.692C903.222 168.008 904.374 167.576 905.598 167.576C907.362 167.576 908.28 168.458 908.28 170.078V170.654H905.274C902.556 170.654 901.62 171.878 901.62 173.336C901.62 174.974 902.934 176.09 905.076 176.09C906.642 176.09 907.758 175.496 908.334 174.524V176H909.558V170.132C909.558 167.684 908.172 166.46 905.724 166.46ZM905.274 175.082C903.762 175.082 902.88 174.398 902.88 173.3C902.88 172.328 903.474 171.608 905.31 171.608H908.28V173.156C907.776 174.398 906.714 175.082 905.274 175.082ZM918.105 174.506C917.745 174.83 917.223 174.992 916.701 174.992C915.639 174.992 915.063 174.38 915.063 173.264V167.612H917.943V166.532H915.063V164.462H913.785V166.532H912.093V167.612H913.785V173.336C913.785 175.082 914.775 176.09 916.557 176.09C917.295 176.09 918.051 175.874 918.555 175.424L918.105 174.506ZM928.675 166.532V171.5C928.675 173.66 927.433 174.938 925.453 174.938C923.653 174.938 922.609 173.912 922.609 171.896V166.532H921.331V172.022C921.331 174.74 922.915 176.09 925.327 176.09C926.839 176.09 928.063 175.424 928.729 174.272V176H929.953V166.532H928.675ZM935.297 168.386V166.532H934.073V176H935.351V171.176C935.351 168.944 936.557 167.684 938.537 167.684C938.627 167.684 938.735 167.702 938.843 167.702V166.46C937.097 166.46 935.891 167.126 935.297 168.386ZM944.991 166.46C943.497 166.46 942.093 166.928 941.139 167.738L941.715 168.692C942.489 168.008 943.641 167.576 944.865 167.576C946.629 167.576 947.547 168.458 947.547 170.078V170.654H944.541C941.823 170.654 940.887 171.878 940.887 173.336C940.887 174.974 942.201 176.09 944.343 176.09C945.909 176.09 947.025 175.496 947.601 174.524V176H948.825V170.132C948.825 167.684 947.439 166.46 944.991 166.46ZM944.541 175.082C943.029 175.082 942.147 174.398 942.147 173.3C942.147 172.328 942.741 171.608 944.577 171.608H947.547V173.156C947.043 174.398 945.981 175.082 944.541 175.082ZM952.836 176H954.114V162.644H952.836V176ZM970.823 162.644V168.332C970.031 167.108 968.735 166.46 967.223 166.46C964.523 166.46 962.507 168.404 962.507 171.266C962.507 174.128 964.523 176.09 967.223 176.09C968.789 176.09 970.103 175.406 970.877 174.128V176H972.101V162.644H970.823ZM967.331 174.956C965.315 174.956 963.803 173.48 963.803 171.266C963.803 169.052 965.315 167.576 967.331 167.576C969.329 167.576 970.841 169.052 970.841 171.266C970.841 173.48 969.329 174.956 967.331 174.956ZM983.454 166.532V171.5C983.454 173.66 982.212 174.938 980.232 174.938C978.432 174.938 977.388 173.912 977.388 171.896V166.532H976.11V172.022C976.11 174.74 977.694 176.09 980.106 176.09C981.618 176.09 982.842 175.424 983.508 174.272V176H984.732V166.532H983.454ZM992.776 176.09C994.378 176.09 995.728 175.442 996.484 174.218L995.53 173.57C994.882 174.524 993.874 174.956 992.776 174.956C990.706 174.956 989.194 173.498 989.194 171.266C989.194 169.052 990.706 167.576 992.776 167.576C993.874 167.576 994.882 168.026 995.53 168.98L996.484 168.332C995.728 167.09 994.378 166.46 992.776 166.46C989.95 166.46 987.898 168.44 987.898 171.266C987.898 174.092 989.95 176.09 992.776 176.09ZM1006.72 176H1008.29L1003.86 170.402L1007.91 166.532H1006.32L1000.67 171.698V162.644H999.394V176H1000.67V173.3L1002.9 171.248L1006.72 176ZM1023.36 162.644V168.332C1022.57 167.108 1021.27 166.46 1019.76 166.46C1017.06 166.46 1015.04 168.404 1015.04 171.266C1015.04 174.128 1017.06 176.09 1019.76 176.09C1021.32 176.09 1022.64 175.406 1023.41 174.128V176H1024.64V162.644H1023.36ZM1019.87 174.956C1017.85 174.956 1016.34 173.48 1016.34 171.266C1016.34 169.052 1017.85 167.576 1019.87 167.576C1021.86 167.576 1023.38 169.052 1023.38 171.266C1023.38 173.48 1021.86 174.956 1019.87 174.956ZM1032.6 176.09C1035.38 176.09 1037.41 174.074 1037.41 171.266C1037.41 168.458 1035.38 166.46 1032.6 166.46C1029.83 166.46 1027.78 168.458 1027.78 171.266C1027.78 174.074 1029.83 176.09 1032.6 176.09ZM1032.6 174.956C1030.59 174.956 1029.08 173.48 1029.08 171.266C1029.08 169.052 1030.59 167.576 1032.6 167.576C1034.62 167.576 1036.11 169.052 1036.11 171.266C1036.11 173.48 1034.62 174.956 1032.6 174.956ZM1053.02 166.532L1050.02 174.578L1046.99 166.532H1045.89L1042.85 174.578L1039.88 166.532H1038.66L1042.22 176H1043.43L1046.42 168.242L1049.4 176H1050.61L1054.19 166.532H1053.02ZM1061.48 166.46C1059.84 166.46 1058.56 167.126 1057.88 168.278V166.532H1056.66V176H1057.93V171.032C1057.93 168.872 1059.21 167.612 1061.25 167.612C1063.05 167.612 1064.09 168.638 1064.09 170.636V176H1065.37V170.51C1065.37 167.792 1063.78 166.46 1061.48 166.46ZM1069.5 176.09C1070.03 176.09 1070.48 175.658 1070.48 175.1C1070.48 174.542 1070.03 174.128 1069.5 174.128C1068.98 174.128 1068.55 174.542 1068.55 175.1C1068.55 175.658 1068.98 176.09 1069.5 176.09Z" fill="black" fill-opacity="0.6"/>
<path d="M891.72 33H899.064C904.512 33 908.232 29.64 908.232 24.6C908.232 19.56 904.512 16.2 899.064 16.2H891.72V33ZM894.84 30.36V18.84H898.92C902.664 18.84 905.088 21.12 905.088 24.6C905.088 28.08 902.664 30.36 898.92 30.36H894.84ZM921.388 20.184V26.664C921.388 29.232 919.972 30.528 917.884 30.528C915.988 30.528 914.884 29.424 914.884 27.096V20.184H911.884V27.504C911.884 31.368 914.116 33.168 917.404 33.168C919.06 33.168 920.572 32.544 921.532 31.368V33H924.388V20.184H921.388ZM934.916 33.168C937.412 33.168 939.404 32.088 940.388 30.168L938.084 28.824C937.316 30.048 936.164 30.6 934.892 30.6C932.684 30.6 931.004 29.088 931.004 26.592C931.004 24.12 932.684 22.584 934.892 22.584C936.164 22.584 937.316 23.136 938.084 24.36L940.388 23.016C939.404 21.072 937.412 20.04 934.916 20.04C930.86 20.04 927.98 22.752 927.98 26.592C927.98 30.432 930.86 33.168 934.916 33.168ZM953.256 33H956.904L951.048 25.56L956.4 20.184H952.8L946.584 25.944V15.192H943.584V33H946.584V29.616L948.816 27.504L953.256 33ZM967.203 33H974.547C979.995 33 983.715 29.64 983.715 24.6C983.715 19.56 979.995 16.2 974.547 16.2H967.203V33ZM970.323 30.36V18.84H974.403C978.147 18.84 980.571 21.12 980.571 24.6C980.571 28.08 978.147 30.36 974.403 30.36H970.323ZM993.223 33.168C997.207 33.168 1000.06 30.432 1000.06 26.592C1000.06 22.752 997.207 20.04 993.223 20.04C989.287 20.04 986.407 22.752 986.407 26.592C986.407 30.432 989.287 33.168 993.223 33.168ZM993.223 30.6C991.063 30.6 989.431 29.04 989.431 26.592C989.431 24.144 991.063 22.584 993.223 22.584C995.407 22.584 997.039 24.144 997.039 26.592C997.039 29.04 995.407 30.6 993.223 30.6ZM1020.63 20.184L1017.15 29.688L1013.69 20.184H1011.17L1007.64 29.64L1004.26 20.184H1001.43L1006.13 33H1009.01L1012.37 24.168L1015.68 33H1018.56L1023.29 20.184H1020.63ZM1033.35 20.04C1031.47 20.04 1029.91 20.664 1028.93 21.84V20.184H1026.07V33H1029.07V26.52C1029.07 23.952 1030.51 22.656 1032.65 22.656C1034.57 22.656 1035.7 23.76 1035.7 26.04V33H1038.7V25.656C1038.7 21.792 1036.42 20.04 1033.35 20.04Z" fill="#5A0091"/>
<path d="M834.865 81.317V79.9H828.222V89H829.912V85.516H834.306V84.086H829.912V81.317H834.865ZM836.889 89H838.579V79.9H836.889V89ZM849.205 89L847.112 86.01C848.347 85.529 849.049 84.515 849.049 83.137C849.049 81.122 847.567 79.9 845.175 79.9H841.431V89H843.121V86.348H845.175C845.292 86.348 845.409 86.348 845.526 86.335L847.385 89H849.205ZM847.346 83.137C847.346 84.281 846.579 84.957 845.097 84.957H843.121V81.33H845.097C846.579 81.33 847.346 81.993 847.346 83.137ZM861.288 89L861.275 79.9H859.884L856.335 85.932L852.721 79.9H851.33V89H852.942V83.046L855.932 87.96H856.686L859.676 82.968L859.689 89H861.288ZM870.545 79.9V86.062L865.527 79.9H864.136V89H865.813V82.838L870.831 89H872.222V79.9H870.545ZM876.74 87.583V85.074H881.134V83.683H876.74V81.317H881.693V79.9H875.05V89H881.875V87.583H876.74ZM886.97 89.13C889.466 89.13 890.649 87.882 890.649 86.426C890.649 83.085 885.254 84.346 885.254 82.409C885.254 81.72 885.826 81.174 887.23 81.174C888.023 81.174 888.92 81.408 889.739 81.889L890.272 80.576C889.479 80.056 888.335 79.77 887.243 79.77C884.747 79.77 883.577 81.018 883.577 82.487C883.577 85.867 888.985 84.58 888.985 86.543C888.985 87.219 888.387 87.726 886.97 87.726C885.852 87.726 884.695 87.31 883.967 86.725L883.382 88.038C884.136 88.688 885.553 89.13 886.97 89.13ZM895.536 89.13C898.032 89.13 899.215 87.882 899.215 86.426C899.215 83.085 893.82 84.346 893.82 82.409C893.82 81.72 894.392 81.174 895.796 81.174C896.589 81.174 897.486 81.408 898.305 81.889L898.838 80.576C898.045 80.056 896.901 79.77 895.809 79.77C893.313 79.77 892.143 81.018 892.143 82.487C892.143 85.867 897.551 84.58 897.551 86.543C897.551 87.219 896.953 87.726 895.536 87.726C894.418 87.726 893.261 87.31 892.533 86.725L891.948 88.038C892.702 88.688 894.119 89.13 895.536 89.13Z" fill="#5A0090"/>
<circle cx="970.5" cy="83.5" r="4.75" fill="#5A0090" stroke="#5A0090" stroke-width="1.5"/>
<circle cx="1015.23" cy="83.5" r="4.75" stroke="#5A0090" stroke-opacity="0.35" stroke-width="1.5"/>
<circle cx="1059.97" cy="83.5" r="4.75" stroke="#5A0090" stroke-opacity="0.35" stroke-width="1.5"/>
<circle cx="1104.7" cy="83.5" r="4.75" stroke="#5A0090" stroke-opacity="0.35" stroke-width="1.5"/>
<g opacity="0.8">
<path fill-rule="evenodd" clip-rule="evenodd" d="M802 76C805.64 76 808.67 78.59 809.35 82.04C811.95 82.22 814 84.36 814 87C814 89.76 811.76 92 809 92H796C792.69 92 790 89.31 790 86C790 82.91 792.34 80.36 795.35 80.04C796.6 77.64 799.11 76 802 76ZM796 90H809C810.66 90 812 88.66 812 87C812 85.34 810.66 84 809 84H807.5V83.5C807.5 80.46 805.04 78 802 78C799.48 78 797.37 79.69 796.71 82H796C793.79 82 792 83.79 792 86C792 88.21 793.79 90 796 90Z" fill="#5A0090"/>
<path fill-rule="evenodd" clip-rule="evenodd" d="M802 76C805.64 76 808.67 78.59 809.35 82.04C811.95 82.22 814 84.36 814 87C814 89.76 811.76 92 809 92H796C792.69 92 790 89.31 790 86C790 82.91 792.34 80.36 795.35 80.04C796.6 77.64 799.11 76 802 76ZM796 90H809C810.66 90 812 88.66 812 87C812 85.34 810.66 84 809 84H807.5V83.5C807.5 80.46 805.04 78 802 78C799.48 78 797.37 79.69 796.71 82H796C793.79 82 792 83.79 792 86C792 88.21 793.79 90 796 90Z" fill="#5A0090"/>
</g>
</svg>
