<svg width="97" height="94" viewBox="0 0 97 94" fill="none" xmlns="http://www.w3.org/2000/svg">
<rect x="0.960327" y="0.777832" width="95.1799" height="92.4444" rx="10" fill="#F3F3F3"/>
<path d="M44.8803 57.2856C44.3256 57.2856 43.8456 57.0936 43.4403 56.7096C43.0563 56.3043 42.8643 55.8243 42.8643 55.2696V36.2616C42.8643 35.8563 43.0029 35.515 43.2803 35.2376C43.5576 34.939 43.8989 34.7896 44.3043 34.7896C44.7096 34.7896 45.0509 34.939 45.3283 35.2376C45.6269 35.515 45.7763 35.8563 45.7763 36.2616V54.3736H56.2403C56.6456 54.3736 56.9869 54.523 57.2643 54.8216C57.5629 55.099 57.7123 55.4403 57.7123 55.8456C57.7123 56.251 57.5629 56.5923 57.2643 56.8696C56.9869 57.147 56.6456 57.2856 56.2403 57.2856H44.8803Z" fill="black"/>
</svg>
