<svg width="1440" height="381" viewBox="0 0 1440 381" fill="none" xmlns="http://www.w3.org/2000/svg">
<mask id="mask0" mask-type="alpha" maskUnits="userSpaceOnUse" x="0" y="0" width="1440" height="381">
<rect width="1440" height="381" fill="#C4C4C4"/>
</mask>
<g mask="url(#mask0)">
<path d="M0.965954 223.324C126.638 260.317 370.648 271.672 606.235 198.95C841.823 126.227 1157.74 53.3888 1452.48 106.533" stroke="#F0A5FC" stroke-width="0.35"/>
<path d="M2.41654 232.989C125.39 272.245 360.903 287.298 614.585 221.537C868.267 155.775 1170 84.2008 1460.76 142.675" stroke="#F0A5FC" stroke-width="0.35"/>
<path d="M-8.20266 209.42C119.46 244.383 338.218 258.301 595.091 175.312C851.963 92.322 1137.75 20.9076 1435.24 69.2988" stroke="#F0A5FC" stroke-width="0.35"/>
<path d="M-2.31929 197.894C128.026 230.383 366.734 234.08 598.09 152.318C829.447 70.5556 1128.5 -12.2625 1429.65 30.4005" stroke="#F0A5FC" stroke-width="0.35"/>
<path d="M-14.9414 267.972C99.482 313.534 338.052 342.112 591.08 286.827C844.109 231.543 1176.72 181.85 1454.19 255.417" stroke="#EC99FA" stroke-width="0.5"/>
<path d="M-16.1257 277.646C95.0114 325.257 324.163 356.894 593.224 309.789C862.284 262.684 1180.51 213.235 1452.59 291.796" stroke="#EC99FA" stroke-width="0.5"/>
<path d="M-20.2508 253.551C96.6949 297.244 309.562 326.566 586.453 262.626C863.345 198.686 1165.73 148.263 1447.22 217.318" stroke="#EC99FA" stroke-width="0.5"/>
<path d="M-11.2984 242.554C108.975 283.988 344.37 304.605 595.66 240.068C846.95 175.531 1165.56 114.757 1452.24 178.399" stroke="#EC99FA" stroke-width="0.5"/>
</g>
</svg>
