<svg width="355" height="68" viewBox="0 0 355 68" fill="none" xmlns="http://www.w3.org/2000/svg">
<rect width="355" height="68" rx="15" fill="#5A0090"/>
<path d="M114.042 41H123.466V38.91H116.512V27.7H114.042V41ZM132.338 41.19C136.461 41.19 139.501 38.302 139.501 34.35C139.501 30.398 136.461 27.51 132.338 27.51C128.215 27.51 125.175 30.417 125.175 34.35C125.175 38.283 128.215 41.19 132.338 41.19ZM132.338 39.024C129.659 39.024 127.664 37.067 127.664 34.35C127.664 31.633 129.659 29.676 132.338 29.676C135.017 29.676 137.012 31.633 137.012 34.35C137.012 37.067 135.017 39.024 132.338 39.024ZM152.84 41H155.424L149.42 27.7H146.988L141.003 41H143.549L144.86 37.922H151.51L152.84 41ZM145.696 35.984L148.185 30.17L150.693 35.984H145.696ZM158.065 41H163.879C168.192 41 171.137 38.34 171.137 34.35C171.137 30.36 168.192 27.7 163.879 27.7H158.065V41ZM160.535 38.91V29.79H163.765C166.729 29.79 168.648 31.595 168.648 34.35C168.648 37.105 166.729 38.91 163.765 38.91H160.535ZM195.467 41L195.448 27.7H193.415L188.228 36.516L182.946 27.7H180.913V41H183.269V32.298L187.639 39.48H188.741L193.111 32.184L193.13 41H195.467ZM206.223 41.19C210.346 41.19 213.386 38.302 213.386 34.35C213.386 30.398 210.346 27.51 206.223 27.51C202.1 27.51 199.06 30.417 199.06 34.35C199.06 38.283 202.1 41.19 206.223 41.19ZM206.223 39.024C203.544 39.024 201.549 37.067 201.549 34.35C201.549 31.633 203.544 29.676 206.223 29.676C208.902 29.676 210.897 31.633 210.897 34.35C210.897 37.067 208.902 39.024 206.223 39.024ZM228.316 41L225.257 36.63C227.062 35.927 228.088 34.445 228.088 32.431C228.088 29.486 225.922 27.7 222.426 27.7H216.954V41H219.424V37.124H222.426C222.597 37.124 222.768 37.124 222.939 37.105L225.656 41H228.316ZM225.599 32.431C225.599 34.103 224.478 35.091 222.312 35.091H219.424V29.79H222.312C224.478 29.79 225.599 30.759 225.599 32.431ZM234.271 38.929V35.262H240.693V33.229H234.271V29.771H241.51V27.7H231.801V41H241.776V38.929H234.271Z" fill="white"/>
</svg>
