<svg width="96" height="94" viewBox="0 0 96 94" fill="none" xmlns="http://www.w3.org/2000/svg">
<rect x="0.215698" y="0.521973" width="95.6124" height="92.9557" rx="10" fill="#F3F3F3"/>
<path d="M37.5908 57.2484C37.1855 57.2484 36.8442 57.1097 36.5668 56.8324C36.2895 56.555 36.1508 56.2137 36.1508 55.8084V36.7044C36.1508 36.1284 36.3535 35.6377 36.7588 35.2324C37.1642 34.8057 37.6548 34.5924 38.2308 34.5924H39.2868C39.7135 34.5924 40.0975 34.7204 40.4388 34.9764C40.8015 35.2324 41.0682 35.5524 41.2388 35.9364L48.5028 54.0484L55.7668 35.9364C55.9375 35.5524 56.1935 35.2324 56.5348 34.9764C56.8975 34.7204 57.2922 34.5924 57.7188 34.5924H58.7748C59.3508 34.5924 59.8415 34.8057 60.2468 35.2324C60.6522 35.6377 60.8548 36.1284 60.8548 36.7044V55.8084C60.8548 56.2137 60.7162 56.555 60.4388 56.8324C60.1615 57.1097 59.8202 57.2484 59.4148 57.2484C59.0095 57.2484 58.6575 57.1097 58.3588 56.8324C58.0815 56.555 57.9428 56.2137 57.9428 55.8084V37.6324L50.5508 55.9044C50.3802 56.3097 50.1028 56.6404 49.7188 56.8964C49.3562 57.131 48.9508 57.2484 48.5028 57.2484C48.0548 57.2484 47.6388 57.131 47.2548 56.8964C46.8922 56.6404 46.6255 56.3097 46.4548 55.9044L39.0628 37.6324V55.8084C39.0628 56.2137 38.9135 56.555 38.6148 56.8324C38.3375 57.1097 37.9962 57.2484 37.5908 57.2484Z" fill="black"/>
</svg>
