<svg width="464" height="134" viewBox="0 0 464 134" fill="none" xmlns="http://www.w3.org/2000/svg">
<path fill-rule="evenodd" clip-rule="evenodd" d="M309 96.4C309 94.1722 309.885 92.0356 311.46 90.4603C313.036 88.885 315.172 88 317.4 88H342.6C344.828 88 346.964 88.885 348.54 90.4603C350.115 92.0356 351 94.1722 351 96.4V121.6C351 123.828 350.115 125.964 348.54 127.54C346.964 129.115 344.828 130 342.6 130H317.4C315.172 130 313.036 129.115 311.46 127.54C309.885 125.964 309 123.828 309 121.6V96.4ZM317.4 92.2C316.286 92.2 315.218 92.6425 314.43 93.4302C313.642 94.2178 313.2 95.2861 313.2 96.4V121.6C313.2 122.714 313.642 123.782 314.43 124.57C315.218 125.357 316.286 125.8 317.4 125.8H342.6C343.714 125.8 344.782 125.357 345.57 124.57C346.357 123.782 346.8 122.714 346.8 121.6V96.4C346.8 95.2861 346.357 94.2178 345.57 93.4302C344.782 92.6425 343.714 92.2 342.6 92.2H317.4ZM330 102.7C328.329 102.7 326.727 103.364 325.545 104.545C324.364 105.727 323.7 107.329 323.7 109C323.7 110.671 324.364 112.273 325.545 113.455C326.727 114.636 328.329 115.3 330 115.3C331.671 115.3 333.273 114.636 334.455 113.455C335.636 112.273 336.3 110.671 336.3 109C336.3 107.329 335.636 105.727 334.455 104.545C333.273 103.364 331.671 102.7 330 102.7ZM319.5 109C319.5 106.215 320.606 103.545 322.575 101.575C324.545 99.6062 327.215 98.5 330 98.5C332.785 98.5 335.455 99.6062 337.425 101.575C339.394 103.545 340.5 106.215 340.5 109C340.5 111.785 339.394 114.455 337.425 116.425C335.455 118.394 332.785 119.5 330 119.5C327.215 119.5 324.545 118.394 322.575 116.425C320.606 114.455 319.5 111.785 319.5 109ZM341.55 100.6C342.385 100.6 343.187 100.268 343.777 99.6774C344.368 99.0866 344.7 98.2854 344.7 97.45C344.7 96.6146 344.368 95.8134 343.777 95.2226C343.187 94.6319 342.385 94.3 341.55 94.3C340.715 94.3 339.913 94.6319 339.323 95.2226C338.732 95.8134 338.4 96.6146 338.4 97.45C338.4 98.2854 338.732 99.0866 339.323 99.6774C339.913 100.268 340.715 100.6 341.55 100.6Z" fill="white"/>
<path fill-rule="evenodd" clip-rule="evenodd" d="M225.935 95.7876C224.984 95.7872 224.044 95.9981 223.183 96.4051C222.323 96.8121 221.564 97.4051 220.96 98.1412C220.357 98.8773 219.925 99.7381 219.694 100.662C219.464 101.585 219.442 102.548 219.629 103.481C219.694 103.805 219.68 104.139 219.591 104.456C219.501 104.773 219.337 105.065 219.113 105.306C218.888 105.548 218.61 105.733 218.3 105.846C217.991 105.959 217.658 105.997 217.331 105.956C212.852 105.406 208.629 103.565 205.177 100.656C205.242 101.911 205.677 103.244 206.621 104.64L208.035 106.731L205.712 107.721L205.265 107.913C205.598 108.294 205.998 108.683 206.446 109.069C207.045 109.581 207.678 110.052 208.342 110.477L208.365 110.492H208.367L211.592 112.448L208.217 114.136C208.05 114.219 207.883 114.294 207.717 114.361C208.442 114.964 209.242 115.472 210.096 115.873L212.992 117.242L210.567 119.333C209.244 120.475 207.912 121.327 206.185 121.777C208.834 123.188 211.791 123.923 214.792 123.917C224.804 123.917 232.867 115.927 232.867 106.138V105.054L233.752 104.431C235.135 103.461 236.112 102.148 236.812 100.646H232.312L231.746 99.4584C231.224 98.3598 230.401 97.4318 229.373 96.782C228.345 96.1322 227.154 95.7874 225.937 95.7876H225.935ZM202.435 110.996C202.239 111.221 202.093 111.486 202.008 111.772C201.923 112.059 201.9 112.36 201.942 112.656C202.177 114.325 203.175 115.763 204.279 116.861C204.579 117.158 204.9 117.444 205.237 117.717L205.081 117.758C204.079 118.008 202.727 118.061 200.475 117.842C200.05 117.8 199.622 117.89 199.249 118.1C198.877 118.309 198.578 118.628 198.393 119.014C198.208 119.399 198.146 119.832 198.216 120.253C198.285 120.675 198.483 121.065 198.781 121.371C200.866 123.502 203.357 125.194 206.106 126.347C208.856 127.5 211.808 128.09 214.79 128.083C226.692 128.083 236.454 118.842 237.006 107.179C239.694 104.923 241.037 101.867 241.762 99.0897C241.843 98.7814 241.852 98.4588 241.788 98.1467C241.725 97.8345 241.59 97.5411 241.396 97.2889C241.201 97.0368 240.951 96.8327 240.665 96.6924C240.379 96.552 240.064 96.4791 239.746 96.4793H234.844C233.645 94.6174 231.892 93.1781 229.833 92.3635C227.774 91.5489 225.511 91.4 223.363 91.9377C221.215 92.4754 219.289 93.6727 217.856 95.3613C216.423 97.0499 215.556 99.145 215.375 101.352C211.535 100.352 208.099 98.1872 205.54 95.1543C205.313 94.8863 205.022 94.6799 204.695 94.5543C204.367 94.4287 204.013 94.3879 203.665 94.4357C203.317 94.4835 202.988 94.6183 202.706 94.8277C202.424 95.0371 202.2 95.3143 202.054 95.6334C200.792 98.3876 200.55 101.563 201.958 104.792L201.471 105C201.004 105.199 200.626 105.561 200.408 106.019C200.189 106.476 200.145 106.998 200.283 107.486C200.671 108.844 201.542 110.044 202.433 110.996H202.435Z" fill="white"/>
<path fill-rule="evenodd" clip-rule="evenodd" d="M86.1667 96.5001C86.1667 94.2899 87.0446 92.1703 88.6074 90.6075C90.1702 89.0447 92.2899 88.1667 94.5 88.1667H119.5C121.71 88.1667 123.83 89.0447 125.393 90.6075C126.955 92.1703 127.833 94.2899 127.833 96.5001V121.5C127.833 123.71 126.955 125.83 125.393 127.393C123.83 128.955 121.71 129.833 119.5 129.833H94.5C92.2899 129.833 90.1702 128.955 88.6074 127.393C87.0446 125.83 86.1667 123.71 86.1667 121.5V96.5001ZM94.5 92.3334C93.3949 92.3334 92.3351 92.7724 91.5537 93.5538C90.7723 94.3352 90.3333 95.395 90.3333 96.5001V121.5C90.3333 122.605 90.7723 123.665 91.5537 124.446C92.3351 125.228 93.3949 125.667 94.5 125.667H107V111.083H104.917C104.364 111.083 103.834 110.864 103.444 110.473C103.053 110.083 102.833 109.553 102.833 109C102.833 108.448 103.053 107.918 103.444 107.527C103.834 107.136 104.364 106.917 104.917 106.917H107V103.792C107 101.858 107.768 100.003 109.136 98.6358C110.503 97.2683 112.358 96.5001 114.292 96.5001H115.542C116.094 96.5001 116.624 96.7196 117.015 97.1103C117.406 97.501 117.625 98.0309 117.625 98.5834C117.625 99.136 117.406 99.6659 117.015 100.057C116.624 100.447 116.094 100.667 115.542 100.667H114.292C113.881 100.667 113.475 100.748 113.096 100.905C112.717 101.062 112.372 101.292 112.082 101.582C111.792 101.872 111.562 102.217 111.405 102.596C111.247 102.975 111.167 103.381 111.167 103.792V106.917H115.542C116.094 106.917 116.624 107.136 117.015 107.527C117.406 107.918 117.625 108.448 117.625 109C117.625 109.553 117.406 110.083 117.015 110.473C116.624 110.864 116.094 111.083 115.542 111.083H111.167V125.667H119.5C120.605 125.667 121.665 125.228 122.446 124.446C123.228 123.665 123.667 122.605 123.667 121.5V96.5001C123.667 95.395 123.228 94.3352 122.446 93.5538C121.665 92.7724 120.605 92.3334 119.5 92.3334H94.5Z" fill="white"/>
<rect x="2" y="1" width="461" height="44" rx="9" fill="#5A0090" stroke="white" stroke-width="2"/>
<rect x="0.5" y="0.5" width="342" height="45" rx="9.5" fill="white" stroke="white"/>
<rect x="13.5" y="0.5" width="342" height="45" fill="white" stroke="white"/>
<path d="M378.446 27.16C381.518 27.16 382.974 25.624 382.974 23.832C382.974 19.72 376.334 21.272 376.334 18.888C376.334 18.04 377.038 17.368 378.766 17.368C379.742 17.368 380.846 17.656 381.854 18.248L382.51 16.632C381.534 15.992 380.126 15.64 378.782 15.64C375.71 15.64 374.27 17.176 374.27 18.984C374.27 23.144 380.926 21.56 380.926 23.976C380.926 24.808 380.19 25.432 378.446 25.432C377.07 25.432 375.646 24.92 374.75 24.2L374.03 25.816C374.958 26.616 376.702 27.16 378.446 27.16ZM385.356 27H387.436V15.8H385.356V27ZM398.434 24.76C397.714 25.176 396.93 25.336 396.13 25.336C393.762 25.336 392.082 23.672 392.082 21.4C392.082 19.08 393.762 17.464 396.146 17.464C397.346 17.464 398.354 17.864 399.234 18.744L400.546 17.464C399.49 16.264 397.922 15.64 396.05 15.64C392.546 15.64 389.986 18.056 389.986 21.4C389.986 24.744 392.546 27.16 396.018 27.16C397.602 27.16 399.234 26.68 400.402 25.736V21.272H398.434V24.76ZM411.353 15.8V23.384L405.177 15.8H403.465V27H405.529V19.416L411.705 27H413.417V15.8H411.353ZM426.296 27.16C429.352 27.16 431.192 25.384 431.192 22.12V15.8H429.144V22.04C429.144 24.344 428.12 25.336 426.312 25.336C424.504 25.336 423.464 24.344 423.464 22.04V15.8H421.384V22.12C421.384 25.384 423.224 27.16 426.296 27.16ZM439.033 15.8H434.425V27H436.505V23.768H439.033C441.977 23.768 443.801 22.248 443.801 19.784C443.801 17.304 441.977 15.8 439.033 15.8ZM438.937 22.008H436.505V17.56H438.937C440.761 17.56 441.705 18.376 441.705 19.784C441.705 21.192 440.761 22.008 438.937 22.008Z" fill="white"/>
<path d="M22.8149 29H16.7139L19.2788 16.8643H25.3799L25.1143 18.1343H20.416L19.6025 22.0273H23.9771L23.7363 23.2891H19.3452L18.3989 27.7383H23.0889L22.8149 29ZM30.9866 29L32.2151 23.2559C32.3147 22.7357 32.3645 22.3621 32.3645 22.1353C32.3645 21.7479 32.2787 21.4463 32.1072 21.2305C31.9356 21.0146 31.6423 20.9067 31.2273 20.9067C30.7624 20.9067 30.3087 21.0728 29.866 21.4048C29.4288 21.7368 29.0414 22.2127 28.7038 22.8325C28.3718 23.4468 28.1145 24.1883 27.9319 25.0571L27.0935 29H25.699L27.6413 19.9023H28.7952L28.6125 21.5874H28.6955C29.177 20.9289 29.6557 20.4557 30.1316 20.168C30.613 19.8802 31.1083 19.7363 31.6174 19.7363C32.2427 19.7363 32.7242 19.9162 33.0618 20.2759C33.3993 20.6356 33.5985 21.1364 33.6594 21.7783H33.7258C34.2017 21.0866 34.7081 20.5747 35.2449 20.2427C35.7816 19.9051 36.324 19.7363 36.8718 19.7363C37.5746 19.7363 38.1169 19.9245 38.4988 20.3008C38.8861 20.6771 39.0798 21.2249 39.0798 21.9443C39.0798 22.3206 39.019 22.8132 38.8972 23.4219L37.7019 29H36.2908L37.5193 23.2559C37.63 22.6803 37.6853 22.2764 37.6853 22.0439C37.6853 21.7008 37.5885 21.4269 37.3948 21.2222C37.2066 21.0119 36.9078 20.9067 36.4983 20.9067C36.05 20.9067 35.6073 21.0672 35.1702 21.3882C34.733 21.7091 34.3484 22.1657 34.0163 22.7578C33.6899 23.3444 33.4408 24.0417 33.2693 24.8496L32.3811 29H30.9866ZM45.8486 19.7363C46.3577 19.7363 46.8115 19.8747 47.2099 20.1514C47.6084 20.4225 47.9183 20.8154 48.1396 21.3301H48.2309L48.7871 19.9023H49.8413L47.9072 29H46.8032L47.019 27.2651H46.9526C45.9621 28.5324 44.9189 29.166 43.8232 29.166C43.054 29.166 42.4508 28.8921 42.0137 28.3442C41.5765 27.7964 41.3579 27.0465 41.3579 26.0947C41.3579 24.9437 41.5543 23.8757 41.9472 22.8906C42.3402 21.9056 42.8825 21.1336 43.5742 20.5747C44.2659 20.0158 45.0241 19.7363 45.8486 19.7363ZM44.2715 28.0122C44.8082 28.0122 45.3423 27.7576 45.8735 27.2485C46.4048 26.7339 46.8364 26.0671 47.1684 25.248C47.5005 24.4235 47.6665 23.599 47.6665 22.7744C47.6665 22.2044 47.5115 21.7507 47.2016 21.4131C46.8917 21.0755 46.485 20.9067 45.9814 20.9067C45.4059 20.9067 44.8691 21.1447 44.3711 21.6206C43.8786 22.0965 43.4912 22.7412 43.209 23.5547C42.9267 24.3682 42.7856 25.2259 42.7856 26.1279C42.7856 26.7588 42.9157 27.2319 43.1758 27.5474C43.4359 27.8573 43.8011 28.0122 44.2715 28.0122ZM52.551 29H51.1565L53.0988 19.9023H54.4934L52.551 29ZM53.489 17.5781C53.489 17.2682 53.5775 17.0164 53.7546 16.8228C53.9317 16.6235 54.1613 16.5239 54.4436 16.5239C54.9306 16.5239 55.174 16.7729 55.174 17.271C55.174 17.5754 55.08 17.8327 54.8918 18.043C54.7092 18.2533 54.4961 18.3584 54.2527 18.3584C54.0313 18.3584 53.8487 18.292 53.7048 18.1592C53.5609 18.0208 53.489 17.8271 53.489 17.5781ZM57.3608 29H55.9663L58.7221 16.084H60.1167L57.3608 29ZM71.9941 25.1401H67.8769L65.8432 29H64.2744L70.9067 16.8643H72.351L73.8784 29H72.4672L71.9941 25.1401ZM71.8447 23.8452L71.5541 21.3633C71.4213 20.3727 71.3411 19.4043 71.3134 18.458C71.1087 18.945 70.8845 19.4292 70.6411 19.9106C70.4031 20.3921 69.7141 21.7036 68.5742 23.8452H71.8447ZM80.506 19.7529C81.5796 19.7529 82.3571 20.2786 82.8386 21.3301H82.9216C83.0156 20.4723 83.1401 19.7142 83.2951 19.0557L83.9426 16.084H85.3205L82.5812 29H81.4274L81.61 27.2651H81.5436C80.9847 27.9569 80.4618 28.4466 79.9748 28.7344C79.4878 29.0221 78.9842 29.166 78.464 29.166C77.6948 29.166 77.0944 28.8949 76.6628 28.3525C76.2311 27.8102 76.0153 27.0576 76.0153 26.0947C76.0153 24.9105 76.2145 23.8258 76.613 22.8408C77.0114 21.8558 77.5482 21.0949 78.2233 20.5581C78.904 20.0213 79.6649 19.7529 80.506 19.7529ZM78.9289 28.0122C79.4491 28.0122 79.9859 27.7549 80.5392 27.2402C81.0926 26.7201 81.5298 26.0588 81.8508 25.2563C82.1773 24.4484 82.3405 23.6266 82.3405 22.791C82.3405 22.1768 82.1911 21.7091 81.8923 21.3882C81.5934 21.0672 81.159 20.9067 80.589 20.9067C80.0301 20.9067 79.5099 21.1364 79.0285 21.5957C78.5526 22.0495 78.168 22.6914 77.8747 23.5215C77.5869 24.346 77.443 25.2148 77.443 26.1279C77.443 27.3841 77.9383 28.0122 78.9289 28.0122ZM90.8276 19.7529C91.9011 19.7529 92.6786 20.2786 93.1601 21.3301H93.2431C93.3372 20.4723 93.4617 19.7142 93.6166 19.0557L94.2641 16.084H95.642L92.9028 29H91.7489L91.9316 27.2651H91.8652C91.3062 27.9569 90.7833 28.4466 90.2963 28.7344C89.8093 29.0221 89.3058 29.166 88.7856 29.166C88.0164 29.166 87.4159 28.8949 86.9843 28.3525C86.5527 27.8102 86.3368 27.0576 86.3368 26.0947C86.3368 24.9105 86.5361 23.8258 86.9345 22.8408C87.3329 21.8558 87.8697 21.0949 88.5448 20.5581C89.2255 20.0213 89.9864 19.7529 90.8276 19.7529ZM89.2504 28.0122C89.7706 28.0122 90.3074 27.7549 90.8608 27.2402C91.4141 26.7201 91.8513 26.0588 92.1723 25.2563C92.4988 24.4484 92.662 23.6266 92.662 22.791C92.662 22.1768 92.5126 21.7091 92.2138 21.3882C91.915 21.0672 91.4806 20.9067 90.9106 20.9067C90.3516 20.9067 89.8315 21.1364 89.35 21.5957C88.8741 22.0495 88.4895 22.6914 88.1962 23.5215C87.9085 24.346 87.7646 25.2148 87.7646 26.1279C87.7646 27.3841 88.2599 28.0122 89.2504 28.0122ZM102.087 19.7363C102.469 19.7363 102.801 19.7751 103.083 19.8525L102.784 21.0977C102.491 21.0257 102.201 20.9897 101.913 20.9897C101.409 20.9897 100.936 21.1558 100.493 21.4878C100.056 21.8198 99.6715 22.2819 99.3395 22.874C99.013 23.4606 98.7723 24.1136 98.6173 24.833L97.7292 29H96.3346L98.277 19.9023H99.4308L99.2482 21.5874H99.3312C99.7296 21.0617 100.059 20.6854 100.319 20.4585C100.579 20.2261 100.85 20.049 101.132 19.9272C101.42 19.8 101.738 19.7363 102.087 19.7363ZM107.179 29.166C106.161 29.166 105.361 28.8644 104.78 28.2612C104.199 27.658 103.909 26.8224 103.909 25.7544C103.909 24.714 104.113 23.7179 104.523 22.7661C104.938 21.8088 105.486 21.0645 106.166 20.5332C106.847 20.002 107.597 19.7363 108.416 19.7363C109.263 19.7363 109.899 19.9217 110.325 20.2925C110.751 20.6577 110.964 21.1696 110.964 21.8281C110.964 22.8242 110.505 23.6073 109.586 24.1772C108.668 24.7417 107.353 25.0239 105.643 25.0239H105.37L105.336 25.688C105.336 26.4129 105.505 26.9801 105.843 27.3896C106.186 27.7936 106.714 27.9956 107.428 27.9956C107.777 27.9956 108.134 27.9458 108.499 27.8462C108.87 27.7466 109.329 27.564 109.877 27.2983V28.5103C109.357 28.7537 108.897 28.9225 108.499 29.0166C108.1 29.1162 107.661 29.166 107.179 29.166ZM108.333 20.9233C107.763 20.9233 107.226 21.1834 106.723 21.7036C106.225 22.2238 105.843 22.946 105.577 23.8701H105.677C106.938 23.8701 107.904 23.7069 108.574 23.3804C109.249 23.0483 109.586 22.5697 109.586 21.9443C109.586 21.651 109.484 21.4076 109.279 21.2139C109.08 21.0202 108.765 20.9233 108.333 20.9233ZM118.09 26.4185C118.09 27.2817 117.783 27.9569 117.169 28.4438C116.56 28.9253 115.699 29.166 114.587 29.166C113.652 29.166 112.808 28.9751 112.055 28.5933V27.2817C112.443 27.5142 112.86 27.694 113.309 27.8213C113.757 27.9486 114.172 28.0122 114.554 28.0122C115.251 28.0122 115.777 27.8739 116.131 27.5972C116.485 27.3205 116.662 26.9663 116.662 26.5347C116.662 26.2192 116.565 25.9536 116.372 25.7378C116.178 25.522 115.76 25.2259 115.118 24.8496C114.399 24.4456 113.89 24.05 113.591 23.6626C113.292 23.2752 113.143 22.8159 113.143 22.2847C113.143 21.521 113.422 20.9067 113.981 20.4419C114.54 19.9715 115.276 19.7363 116.189 19.7363C117.135 19.7363 118.048 19.9411 118.928 20.3506L118.48 21.4878L118.015 21.2803C117.456 21.0423 116.848 20.9233 116.189 20.9233C115.674 20.9233 115.27 21.0451 114.977 21.2886C114.684 21.5265 114.537 21.8364 114.537 22.2183C114.537 22.5282 114.634 22.7938 114.828 23.0151C115.027 23.2365 115.434 23.5215 116.048 23.8701C116.64 24.2021 117.063 24.4871 117.318 24.7251C117.578 24.9631 117.772 25.2204 117.899 25.4971C118.026 25.7682 118.09 26.0754 118.09 26.4185ZM125.888 26.4185C125.888 27.2817 125.581 27.9569 124.967 28.4438C124.358 28.9253 123.497 29.166 122.385 29.166C121.45 29.166 120.606 28.9751 119.853 28.5933V27.2817C120.241 27.5142 120.659 27.694 121.107 27.8213C121.555 27.9486 121.97 28.0122 122.352 28.0122C123.049 28.0122 123.575 27.8739 123.929 27.5972C124.283 27.3205 124.46 26.9663 124.46 26.5347C124.46 26.2192 124.363 25.9536 124.17 25.7378C123.976 25.522 123.558 25.2259 122.916 24.8496C122.197 24.4456 121.688 24.05 121.389 23.6626C121.09 23.2752 120.941 22.8159 120.941 22.2847C120.941 21.521 121.22 20.9067 121.779 20.4419C122.338 19.9715 123.074 19.7363 123.987 19.7363C124.933 19.7363 125.847 19.9411 126.726 20.3506L126.278 21.4878L125.813 21.2803C125.254 21.0423 124.646 20.9233 123.987 20.9233C123.473 20.9233 123.069 21.0451 122.775 21.2886C122.482 21.5265 122.335 21.8364 122.335 22.2183C122.335 22.5282 122.432 22.7938 122.626 23.0151C122.825 23.2365 123.232 23.5215 123.846 23.8701C124.438 24.2021 124.862 24.4871 125.116 24.7251C125.376 24.9631 125.57 25.2204 125.697 25.4971C125.824 25.7682 125.888 26.0754 125.888 26.4185Z" fill="#5A0090" fill-opacity="0.5"/>
</svg>
