<svg width="372" height="347" viewBox="0 0 372 347" fill="none" xmlns="http://www.w3.org/2000/svg">
<rect width="372" height="347" fill="#5A0090" fill-opacity="0.06"/>
<line x1="45" y1="181.5" x2="329.022" y2="181.5" stroke="#5A0090"/>
<path d="M53.42 42.2C57.76 42.2 60.96 39.16 60.96 35C60.96 30.84 57.76 27.8 53.42 27.8C49.08 27.8 45.88 30.86 45.88 35C45.88 39.14 49.08 42.2 53.42 42.2ZM53.42 39.92C50.6 39.92 48.5 37.86 48.5 35C48.5 32.14 50.6 30.08 53.42 30.08C56.24 30.08 58.34 32.14 58.34 35C58.34 37.86 56.24 39.92 53.42 39.92ZM76.2759 42L73.0559 37.4C74.9559 36.66 76.0359 35.1 76.0359 32.98C76.0359 29.88 73.7559 28 70.0759 28H64.3159V42H66.9159V37.92H70.0759C70.2559 37.92 70.4359 37.92 70.6159 37.9L73.4759 42H76.2759ZM73.4159 32.98C73.4159 34.74 72.2359 35.78 69.9559 35.78H66.9159V30.2H69.9559C72.2359 30.2 73.4159 31.22 73.4159 32.98ZM79.5448 42H85.6648C90.2048 42 93.3048 39.2 93.3048 35C93.3048 30.8 90.2048 28 85.6648 28H79.5448V42ZM82.1448 39.8V30.2H85.5448C88.6648 30.2 90.6848 32.1 90.6848 35C90.6848 37.9 88.6648 39.8 85.5448 39.8H82.1448ZM99.2683 39.82V35.96H106.028V33.82H99.2683V30.18H106.888V28H96.6683V42H107.168V39.82H99.2683ZM122.627 42L119.407 37.4C121.307 36.66 122.387 35.1 122.387 32.98C122.387 29.88 120.107 28 116.427 28H110.667V42H113.267V37.92H116.427C116.607 37.92 116.787 37.92 116.967 37.9L119.827 42H122.627ZM119.767 32.98C119.767 34.74 118.587 35.78 116.307 35.78H113.267V30.2H116.307C118.587 30.2 119.767 31.22 119.767 32.98ZM136.363 42.2C140.203 42.2 142.023 40.28 142.023 38.04C142.023 32.9 133.723 34.84 133.723 31.86C133.723 30.8 134.603 29.96 136.763 29.96C137.983 29.96 139.363 30.32 140.623 31.06L141.443 29.04C140.223 28.24 138.463 27.8 136.783 27.8C132.943 27.8 131.143 29.72 131.143 31.98C131.143 37.18 139.463 35.2 139.463 38.22C139.463 39.26 138.543 40.04 136.363 40.04C134.643 40.04 132.863 39.4 131.743 38.5L130.843 40.52C132.003 41.52 134.183 42.2 136.363 42.2ZM151.221 42.2C155.041 42.2 157.341 39.98 157.341 35.9V28H154.781V35.8C154.781 38.68 153.501 39.92 151.241 39.92C148.981 39.92 147.681 38.68 147.681 35.8V28H145.081V35.9C145.081 39.98 147.381 42.2 151.221 42.2ZM176.902 42L176.882 28H174.742L169.282 37.28L163.722 28H161.582V42H164.062V32.84L168.662 40.4H169.822L174.422 32.72L174.442 42H176.902ZM196.604 42L196.584 28H194.444L188.984 37.28L183.424 28H181.284V42H183.764V32.84L188.364 40.4H189.524L194.124 32.72L194.144 42H196.604ZM211.465 42H214.185L207.865 28H205.305L199.005 42H201.685L203.065 38.76H210.065L211.465 42ZM203.945 36.72L206.565 30.6L209.205 36.72H203.945ZM228.526 42L225.306 37.4C227.206 36.66 228.286 35.1 228.286 32.98C228.286 29.88 226.006 28 222.326 28H216.566V42H219.166V37.92H222.326C222.506 37.92 222.686 37.92 222.866 37.9L225.726 42H228.526ZM225.666 32.98C225.666 34.74 224.486 35.78 222.206 35.78H219.166V30.2H222.206C224.486 30.2 225.666 31.22 225.666 32.98ZM243.12 28H240.56L236.42 34.82L232.32 28H229.54L235.04 37.1V42H237.64V37.06L243.12 28ZM50.526 98.108C53.748 98.108 55.224 96.524 55.224 94.67C55.224 90.08 47.466 92.168 47.466 88.712C47.466 87.452 48.492 86.426 50.796 86.426C51.912 86.426 53.172 86.768 54.252 87.47L54.702 86.408C53.694 85.706 52.218 85.292 50.796 85.292C47.592 85.292 46.152 86.894 46.152 88.748C46.152 93.41 53.91 91.286 53.91 94.742C53.91 95.984 52.884 96.974 50.526 96.974C48.87 96.974 47.268 96.326 46.368 95.444L45.846 96.47C46.782 97.442 48.636 98.108 50.526 98.108ZM65.6502 88.532V93.5C65.6502 95.66 64.4082 96.938 62.4282 96.938C60.6282 96.938 59.5842 95.912 59.5842 93.896V88.532H58.3062V94.022C58.3062 96.74 59.8902 98.09 62.3022 98.09C63.8142 98.09 65.0382 97.424 65.7042 96.272V98H66.9282V88.532H65.6502ZM75.9255 88.46C74.4135 88.46 73.1175 89.108 72.3255 90.332V84.644H71.0475V98H72.2715V96.128C73.0455 97.406 74.3595 98.09 75.9255 98.09C78.6255 98.09 80.6415 96.128 80.6415 93.266C80.6415 90.404 78.6255 88.46 75.9255 88.46ZM75.8355 96.956C73.8195 96.956 72.3075 95.48 72.3075 93.266C72.3075 91.052 73.8195 89.576 75.8355 89.576C77.8335 89.576 79.3635 91.052 79.3635 93.266C79.3635 95.48 77.8335 96.956 75.8355 96.956ZM88.3228 96.506C87.9628 96.83 87.4408 96.992 86.9188 96.992C85.8568 96.992 85.2808 96.38 85.2808 95.264V89.612H88.1608V88.532H85.2808V86.462H84.0028V88.532H82.3108V89.612H84.0028V95.336C84.0028 97.082 84.9928 98.09 86.7748 98.09C87.5128 98.09 88.2688 97.874 88.7728 97.424L88.3228 96.506ZM95.1753 98.09C97.9473 98.09 99.9813 96.074 99.9813 93.266C99.9813 90.458 97.9473 88.46 95.1753 88.46C92.4033 88.46 90.3513 90.458 90.3513 93.266C90.3513 96.074 92.4033 98.09 95.1753 98.09ZM95.1753 96.956C93.1593 96.956 91.6473 95.48 91.6473 93.266C91.6473 91.052 93.1593 89.576 95.1753 89.576C97.1913 89.576 98.6853 91.052 98.6853 93.266C98.6853 95.48 97.1913 96.956 95.1753 96.956ZM107.666 96.506C107.306 96.83 106.784 96.992 106.262 96.992C105.2 96.992 104.624 96.38 104.624 95.264V89.612H107.504V88.532H104.624V86.462H103.346V88.532H101.654V89.612H103.346V95.336C103.346 97.082 104.336 98.09 106.118 98.09C106.856 98.09 107.612 97.874 108.116 97.424L107.666 96.506ZM114.295 88.46C112.801 88.46 111.397 88.928 110.443 89.738L111.019 90.692C111.793 90.008 112.945 89.576 114.169 89.576C115.933 89.576 116.851 90.458 116.851 92.078V92.654H113.845C111.127 92.654 110.191 93.878 110.191 95.336C110.191 96.974 111.505 98.09 113.647 98.09C115.213 98.09 116.329 97.496 116.905 96.524V98H118.129V92.132C118.129 89.684 116.743 88.46 114.295 88.46ZM113.845 97.082C112.333 97.082 111.451 96.398 111.451 95.3C111.451 94.328 112.045 93.608 113.881 93.608H116.851V95.156C116.347 96.398 115.285 97.082 113.845 97.082ZM122.14 98H123.418V84.644H122.14V98ZM50.526 128.108C53.748 128.108 55.224 126.524 55.224 124.67C55.224 120.08 47.466 122.168 47.466 118.712C47.466 117.452 48.492 116.426 50.796 116.426C51.912 116.426 53.172 116.768 54.252 117.47L54.702 116.408C53.694 115.706 52.218 115.292 50.796 115.292C47.592 115.292 46.152 116.894 46.152 118.748C46.152 123.41 53.91 121.286 53.91 124.742C53.91 125.984 52.884 126.974 50.526 126.974C48.87 126.974 47.268 126.326 46.368 125.444L45.846 126.47C46.782 127.442 48.636 128.108 50.526 128.108ZM63.2202 118.46C61.6182 118.46 60.3762 119.09 59.6742 120.188V114.644H58.3962V128H59.6742V123.032C59.6742 120.872 60.9522 119.612 62.9862 119.612C64.7862 119.612 65.8302 120.638 65.8302 122.636V128H67.1082V122.51C67.1082 119.792 65.5242 118.46 63.2202 118.46ZM71.7659 116.462C72.3059 116.462 72.7019 116.048 72.7019 115.526C72.7019 115.04 72.2879 114.644 71.7659 114.644C71.2439 114.644 70.8299 115.058 70.8299 115.544C70.8299 116.048 71.2439 116.462 71.7659 116.462ZM71.1179 128H72.3959V118.532H71.1179V128ZM81.3698 118.46C79.8038 118.46 78.4898 119.144 77.7158 120.404V118.532H76.4918V131.492H77.7698V126.218C78.5618 127.442 79.8578 128.09 81.3698 128.09C84.0698 128.09 86.0858 126.146 86.0858 123.266C86.0858 120.404 84.0698 118.46 81.3698 118.46ZM81.2798 126.956C79.2638 126.956 77.7518 125.48 77.7518 123.266C77.7518 121.07 79.2638 119.576 81.2798 119.576C83.2778 119.576 84.8078 121.07 84.8078 123.266C84.8078 125.48 83.2778 126.956 81.2798 126.956ZM94.1091 118.46C92.5431 118.46 91.2291 119.144 90.4551 120.404V118.532H89.2311V131.492H90.5091V126.218C91.3011 127.442 92.5971 128.09 94.1091 128.09C96.8091 128.09 98.8251 126.146 98.8251 123.266C98.8251 120.404 96.8091 118.46 94.1091 118.46ZM94.0191 126.956C92.0031 126.956 90.4911 125.48 90.4911 123.266C90.4911 121.07 92.0031 119.576 94.0191 119.576C96.0171 119.576 97.5471 121.07 97.5471 123.266C97.5471 125.48 96.0171 126.956 94.0191 126.956ZM102.618 116.462C103.158 116.462 103.554 116.048 103.554 115.526C103.554 115.04 103.14 114.644 102.618 114.644C102.096 114.644 101.682 115.058 101.682 115.544C101.682 116.048 102.096 116.462 102.618 116.462ZM101.97 128H103.248V118.532H101.97V128ZM112.168 118.46C110.53 118.46 109.252 119.126 108.568 120.278V118.532H107.344V128H108.622V123.032C108.622 120.872 109.9 119.612 111.934 119.612C113.734 119.612 114.778 120.638 114.778 122.636V128H116.056V122.51C116.056 119.792 114.472 118.46 112.168 118.46ZM127.643 118.532V120.35C126.851 119.108 125.483 118.46 123.899 118.46C121.199 118.46 119.147 120.314 119.147 123.032C119.147 125.75 121.199 127.64 123.899 127.64C125.447 127.64 126.797 127.01 127.589 125.804V127.01C127.589 129.35 126.491 130.448 124.097 130.448C122.639 130.448 121.271 129.962 120.371 129.152L119.723 130.124C120.713 131.06 122.405 131.582 124.133 131.582C127.265 131.582 128.867 130.106 128.867 126.848V118.532H127.643ZM124.025 126.506C121.937 126.506 120.443 125.084 120.443 123.032C120.443 120.98 121.937 119.576 124.025 119.576C126.113 119.576 127.625 120.98 127.625 123.032C127.625 125.084 126.113 126.506 124.025 126.506ZM49.5 158H50.832V146.552H55.26V145.4H45.072V146.552H49.5V158ZM60.4426 148.46C58.9486 148.46 57.5446 148.928 56.5906 149.738L57.1666 150.692C57.9406 150.008 59.0926 149.576 60.3166 149.576C62.0806 149.576 62.9986 150.458 62.9986 152.078V152.654H59.9926C57.2746 152.654 56.3386 153.878 56.3386 155.336C56.3386 156.974 57.6526 158.09 59.7946 158.09C61.3606 158.09 62.4766 157.496 63.0526 156.524V158H64.2766V152.132C64.2766 149.684 62.8906 148.46 60.4426 148.46ZM59.9926 157.082C58.4806 157.082 57.5986 156.398 57.5986 155.3C57.5986 154.328 58.1926 153.608 60.0286 153.608H62.9986V155.156C62.4946 156.398 61.4326 157.082 59.9926 157.082ZM75.7758 158L71.9958 153.14L75.5598 148.532H74.1558L71.3118 152.24L68.4678 148.532H67.0278L70.5918 153.14L66.8478 158H68.2878L71.3118 154.04L74.3178 158H75.7758ZM86.371 153.266C86.371 150.422 84.445 148.46 81.781 148.46C79.117 148.46 77.155 150.458 77.155 153.266C77.155 156.074 79.171 158.09 82.123 158.09C83.617 158.09 84.931 157.55 85.777 156.542L85.057 155.714C84.337 156.542 83.311 156.956 82.159 156.956C80.089 156.956 78.577 155.642 78.433 153.662H86.353C86.353 153.518 86.371 153.374 86.371 153.266ZM81.781 149.558C83.635 149.558 84.985 150.854 85.147 152.708H78.433C78.595 150.854 79.945 149.558 81.781 149.558ZM92.0503 158.09C94.5163 158.09 95.9563 157.028 95.9563 155.39C95.9563 151.754 89.8183 153.68 89.8183 151.124C89.8183 150.224 90.5743 149.558 92.2843 149.558C93.2563 149.558 94.2463 149.792 95.0743 150.368L95.6323 149.342C94.8403 148.802 93.5083 148.46 92.2843 148.46C89.8723 148.46 88.5403 149.612 88.5403 151.16C88.5403 154.904 94.6783 152.96 94.6783 155.426C94.6783 156.362 93.9403 156.974 92.1403 156.974C90.8083 156.974 89.5303 156.506 88.7743 155.912L88.1983 156.92C88.9723 157.586 90.4843 158.09 92.0503 158.09ZM105.712 156.848V152.168H112.228V151.034H105.712V146.552H113.02V145.4H104.38V158H113.29V156.848H105.712ZM119.088 158.09C121.554 158.09 122.994 157.028 122.994 155.39C122.994 151.754 116.856 153.68 116.856 151.124C116.856 150.224 117.612 149.558 119.322 149.558C120.294 149.558 121.284 149.792 122.112 150.368L122.67 149.342C121.878 148.802 120.546 148.46 119.322 148.46C116.91 148.46 115.578 149.612 115.578 151.16C115.578 154.904 121.716 152.96 121.716 155.426C121.716 156.362 120.978 156.974 119.178 156.974C117.846 156.974 116.568 156.506 115.812 155.912L115.236 156.92C116.01 157.586 117.522 158.09 119.088 158.09ZM130.433 156.506C130.073 156.83 129.551 156.992 129.029 156.992C127.967 156.992 127.391 156.38 127.391 155.264V149.612H130.271V148.532H127.391V146.462H126.113V148.532H124.421V149.612H126.113V155.336C126.113 157.082 127.103 158.09 128.885 158.09C129.623 158.09 130.379 157.874 130.883 157.424L130.433 156.506ZM134.397 146.462C134.937 146.462 135.333 146.048 135.333 145.526C135.333 145.04 134.919 144.644 134.397 144.644C133.875 144.644 133.461 145.058 133.461 145.544C133.461 146.048 133.875 146.462 134.397 146.462ZM133.749 158H135.027V148.532H133.749V158ZM150.931 148.46C149.221 148.46 147.871 149.234 147.187 150.458C146.611 149.126 145.387 148.46 143.821 148.46C142.237 148.46 141.013 149.126 140.347 150.26V148.532H139.123V158H140.401V153.032C140.401 150.872 141.643 149.612 143.569 149.612C145.297 149.612 146.305 150.638 146.305 152.636V158H147.583V153.032C147.583 150.872 148.807 149.612 150.751 149.612C152.461 149.612 153.469 150.638 153.469 152.636V158H154.747V152.51C154.747 149.792 153.235 148.46 150.931 148.46ZM162.065 148.46C160.571 148.46 159.167 148.928 158.213 149.738L158.789 150.692C159.563 150.008 160.715 149.576 161.939 149.576C163.703 149.576 164.621 150.458 164.621 152.078V152.654H161.615C158.897 152.654 157.961 153.878 157.961 155.336C157.961 156.974 159.275 158.09 161.417 158.09C162.983 158.09 164.099 157.496 164.675 156.524V158H165.899V152.132C165.899 149.684 164.513 148.46 162.065 148.46ZM161.615 157.082C160.103 157.082 159.221 156.398 159.221 155.3C159.221 154.328 159.815 153.608 161.651 153.608H164.621V155.156C164.117 156.398 163.055 157.082 161.615 157.082ZM174.446 156.506C174.086 156.83 173.564 156.992 173.042 156.992C171.98 156.992 171.404 156.38 171.404 155.264V149.612H174.284V148.532H171.404V146.462H170.126V148.532H168.434V149.612H170.126V155.336C170.126 157.082 171.116 158.09 172.898 158.09C173.636 158.09 174.392 157.874 174.896 157.424L174.446 156.506ZM185.691 153.266C185.691 150.422 183.765 148.46 181.101 148.46C178.437 148.46 176.475 150.458 176.475 153.266C176.475 156.074 178.491 158.09 181.443 158.09C182.937 158.09 184.251 157.55 185.097 156.542L184.377 155.714C183.657 156.542 182.631 156.956 181.479 156.956C179.409 156.956 177.897 155.642 177.753 153.662H185.673C185.673 153.518 185.691 153.374 185.691 153.266ZM181.101 149.558C182.955 149.558 184.305 150.854 184.467 152.708H177.753C177.915 150.854 179.265 149.558 181.101 149.558ZM49.104 207.776H45.072V205.4H56.052V207.776H52.02V218H49.104V207.776ZM64.0872 218.216C62.7792 218.216 61.5972 217.934 60.5412 217.37C59.4972 216.806 58.6752 216.032 58.0752 215.048C57.4872 214.052 57.1932 212.936 57.1932 211.7C57.1932 210.464 57.4872 209.354 58.0752 208.37C58.6752 207.374 59.4972 206.594 60.5412 206.03C61.5972 205.466 62.7792 205.184 64.0872 205.184C65.3952 205.184 66.5712 205.466 67.6152 206.03C68.6592 206.594 69.4812 207.374 70.0812 208.37C70.6812 209.354 70.9812 210.464 70.9812 211.7C70.9812 212.936 70.6812 214.052 70.0812 215.048C69.4812 216.032 68.6592 216.806 67.6152 217.37C66.5712 217.934 65.3952 218.216 64.0872 218.216ZM64.0872 215.732C64.8312 215.732 65.5032 215.564 66.1032 215.228C66.7032 214.88 67.1712 214.4 67.5072 213.788C67.8552 213.176 68.0292 212.48 68.0292 211.7C68.0292 210.92 67.8552 210.224 67.5072 209.612C67.1712 209 66.7032 208.526 66.1032 208.19C65.5032 207.842 64.8312 207.668 64.0872 207.668C63.3432 207.668 62.6712 207.842 62.0712 208.19C61.4712 208.526 60.9972 209 60.6492 209.612C60.3132 210.224 60.1452 210.92 60.1452 211.7C60.1452 212.48 60.3132 213.176 60.6492 213.788C60.9972 214.4 61.4712 214.88 62.0712 215.228C62.6712 215.564 63.3432 215.732 64.0872 215.732ZM76.1469 207.776H72.1149V205.4H83.0949V207.776H79.0629V218H76.1469V207.776ZM92.869 215.3H87.019L85.903 218H82.915L88.531 205.4H91.411L97.045 218H93.985L92.869 215.3ZM91.951 213.086L89.953 208.262L87.955 213.086H91.951ZM98.8923 205.4H101.808V215.624H108.126V218H98.8923V205.4Z" fill="#5A0090"/>
<path d="M278.224 94.67C278.224 92.258 276.082 91.682 274.048 91.196V86.426C275.092 86.48 276.244 86.822 277.252 87.47L277.702 86.408C276.748 85.742 275.398 85.346 274.048 85.292V83.24H273.148V85.31C270.394 85.526 269.152 87.02 269.152 88.748C269.152 91.124 271.168 91.736 273.148 92.222V96.956C271.636 96.866 270.196 96.254 269.368 95.444L268.846 96.47C269.728 97.37 271.384 98.018 273.148 98.108V100.16H274.048V98.09C276.91 97.928 278.224 96.416 278.224 94.67ZM270.466 88.712C270.466 87.578 271.294 86.624 273.148 86.462V90.962C271.672 90.584 270.466 90.08 270.466 88.712ZM274.048 96.956V92.456C275.596 92.834 276.91 93.32 276.91 94.742C276.91 95.894 276.028 96.812 274.048 96.956ZM282.224 96.848L286.508 92.636C288.2 90.98 288.578 89.9 288.578 88.694C288.578 86.588 286.958 85.292 284.402 85.292C282.476 85.292 280.91 85.94 279.938 87.092L280.856 87.884C281.684 86.93 282.818 86.48 284.294 86.48C286.22 86.48 287.246 87.38 287.246 88.838C287.246 89.702 286.976 90.548 285.554 91.952L280.316 97.082V98H289.154V96.848H282.224ZM294.633 90.566H293.013L293.445 86.552H299.205V85.4H292.311L291.663 91.718H294.345C297.549 91.718 298.557 92.726 298.557 94.346C298.557 95.876 297.423 96.92 295.281 96.92C293.661 96.92 292.221 96.308 291.411 95.462L290.781 96.488C291.753 97.478 293.481 98.108 295.299 98.108C298.377 98.108 299.871 96.434 299.871 94.292C299.871 92.06 298.431 90.566 294.633 90.566ZM303.028 98.09C303.55 98.09 304 97.658 304 97.1C304 96.542 303.55 96.128 303.028 96.128C302.506 96.128 302.074 96.542 302.074 97.1C302.074 97.658 302.506 98.09 303.028 98.09ZM311.239 98.108C314.155 98.108 316.279 95.714 316.279 91.7C316.279 87.686 314.155 85.292 311.239 85.292C308.323 85.292 306.217 87.686 306.217 91.7C306.217 95.714 308.323 98.108 311.239 98.108ZM311.239 96.92C309.043 96.92 307.531 95.066 307.531 91.7C307.531 88.334 309.043 86.48 311.239 86.48C313.435 86.48 314.947 88.334 314.947 91.7C314.947 95.066 313.435 96.92 311.239 96.92ZM323.697 98.108C326.613 98.108 328.737 95.714 328.737 91.7C328.737 87.686 326.613 85.292 323.697 85.292C320.781 85.292 318.675 87.686 318.675 91.7C318.675 95.714 320.781 98.108 323.697 98.108ZM323.697 96.92C321.501 96.92 319.989 95.066 319.989 91.7C319.989 88.334 321.501 86.48 323.697 86.48C325.893 86.48 327.405 88.334 327.405 91.7C327.405 95.066 325.893 96.92 323.697 96.92ZM278.224 124.67C278.224 122.258 276.082 121.682 274.048 121.196V116.426C275.092 116.48 276.244 116.822 277.252 117.47L277.702 116.408C276.748 115.742 275.398 115.346 274.048 115.292V113.24H273.148V115.31C270.394 115.526 269.152 117.02 269.152 118.748C269.152 121.124 271.168 121.736 273.148 122.222V126.956C271.636 126.866 270.196 126.254 269.368 125.444L268.846 126.47C269.728 127.37 271.384 128.018 273.148 128.108V130.16H274.048V128.09C276.91 127.928 278.224 126.416 278.224 124.67ZM270.466 118.712C270.466 117.578 271.294 116.624 273.148 116.462V120.962C271.672 120.584 270.466 120.08 270.466 118.712ZM274.048 126.956V122.456C275.596 122.834 276.91 123.32 276.91 124.742C276.91 125.894 276.028 126.812 274.048 126.956ZM291.436 123.536H288.916V120.62H287.656V123.536H282.184L288.628 115.4H287.188L280.51 123.752V124.688H287.62V128H288.916V124.688H291.436V123.536ZM294.49 128.09C295.012 128.09 295.462 127.658 295.462 127.1C295.462 126.542 295.012 126.128 294.49 126.128C293.968 126.128 293.536 126.542 293.536 127.1C293.536 127.658 293.968 128.09 294.49 128.09ZM301.796 115.292C299.348 115.292 297.494 116.804 297.494 119.162C297.494 121.466 299.24 122.942 301.742 122.942C303.488 122.942 304.964 122.168 305.594 120.782C305.63 121.16 305.648 121.52 305.648 121.808C305.648 125.228 303.902 126.974 301.184 126.974C300.248 126.974 299.384 126.812 298.736 126.38L298.214 127.424C299.006 127.91 300.068 128.108 301.202 128.108C304.622 128.108 306.962 125.876 306.962 121.592C306.962 117.614 305.144 115.292 301.796 115.292ZM301.94 121.844C299.996 121.844 298.772 120.782 298.772 119.126C298.772 117.452 300.032 116.39 301.85 116.39C304.028 116.39 305.18 117.704 305.18 119.09C305.18 120.656 303.866 121.844 301.94 121.844ZM313.305 115.292C310.857 115.292 309.003 116.804 309.003 119.162C309.003 121.466 310.749 122.942 313.251 122.942C314.997 122.942 316.473 122.168 317.103 120.782C317.139 121.16 317.157 121.52 317.157 121.808C317.157 125.228 315.411 126.974 312.693 126.974C311.757 126.974 310.893 126.812 310.245 126.38L309.723 127.424C310.515 127.91 311.577 128.108 312.711 128.108C316.131 128.108 318.471 125.876 318.471 121.592C318.471 117.614 316.653 115.292 313.305 115.292ZM313.449 121.844C311.505 121.844 310.281 120.782 310.281 119.126C310.281 117.452 311.541 116.39 313.359 116.39C315.537 116.39 316.689 117.704 316.689 119.09C316.689 120.656 315.375 121.844 313.449 121.844ZM278.224 154.67C278.224 152.258 276.082 151.682 274.048 151.196V146.426C275.092 146.48 276.244 146.822 277.252 147.47L277.702 146.408C276.748 145.742 275.398 145.346 274.048 145.292V143.24H273.148V145.31C270.394 145.526 269.152 147.02 269.152 148.748C269.152 151.124 271.168 151.736 273.148 152.222V156.956C271.636 156.866 270.196 156.254 269.368 155.444L268.846 156.47C269.728 157.37 271.384 158.018 273.148 158.108V160.16H274.048V158.09C276.91 157.928 278.224 156.416 278.224 154.67ZM270.466 148.712C270.466 147.578 271.294 146.624 273.148 146.462V150.962C271.672 150.584 270.466 150.08 270.466 148.712ZM274.048 156.956V152.456C275.596 152.834 276.91 153.32 276.91 154.742C276.91 155.894 276.028 156.812 274.048 156.956ZM285.572 158.108C288.488 158.108 290.612 155.714 290.612 151.7C290.612 147.686 288.488 145.292 285.572 145.292C282.656 145.292 280.55 147.686 280.55 151.7C280.55 155.714 282.656 158.108 285.572 158.108ZM285.572 156.92C283.376 156.92 281.864 155.066 281.864 151.7C281.864 148.334 283.376 146.48 285.572 146.48C287.768 146.48 289.28 148.334 289.28 151.7C289.28 155.066 287.768 156.92 285.572 156.92ZM293.787 158.09C294.309 158.09 294.759 157.658 294.759 157.1C294.759 156.542 294.309 156.128 293.787 156.128C293.265 156.128 292.833 156.542 292.833 157.1C292.833 157.658 293.265 158.09 293.787 158.09ZM301.998 158.108C304.914 158.108 307.038 155.714 307.038 151.7C307.038 147.686 304.914 145.292 301.998 145.292C299.082 145.292 296.976 147.686 296.976 151.7C296.976 155.714 299.082 158.108 301.998 158.108ZM301.998 156.92C299.802 156.92 298.29 155.066 298.29 151.7C298.29 148.334 299.802 146.48 301.998 146.48C304.194 146.48 305.706 148.334 305.706 151.7C305.706 155.066 304.194 156.92 301.998 156.92ZM314.456 158.108C317.372 158.108 319.496 155.714 319.496 151.7C319.496 147.686 317.372 145.292 314.456 145.292C311.54 145.292 309.434 147.686 309.434 151.7C309.434 155.714 311.54 158.108 314.456 158.108ZM314.456 156.92C312.26 156.92 310.748 155.066 310.748 151.7C310.748 148.334 312.26 146.48 314.456 146.48C316.652 146.48 318.164 148.334 318.164 151.7C318.164 155.066 316.652 156.92 314.456 156.92ZM278.224 214.67C278.224 212.258 276.082 211.682 274.048 211.196V206.426C275.092 206.48 276.244 206.822 277.252 207.47L277.702 206.408C276.748 205.742 275.398 205.346 274.048 205.292V203.24H273.148V205.31C270.394 205.526 269.152 207.02 269.152 208.748C269.152 211.124 271.168 211.736 273.148 212.222V216.956C271.636 216.866 270.196 216.254 269.368 215.444L268.846 216.47C269.728 217.37 271.384 218.018 273.148 218.108V220.16H274.048V218.09C276.91 217.928 278.224 216.416 278.224 214.67ZM270.466 208.712C270.466 207.578 271.294 206.624 273.148 206.462V210.962C271.672 210.584 270.466 210.08 270.466 208.712ZM274.048 216.956V212.456C275.596 212.834 276.91 213.32 276.91 214.742C276.91 215.894 276.028 216.812 274.048 216.956ZM282.224 216.848L286.508 212.636C288.2 210.98 288.578 209.9 288.578 208.694C288.578 206.588 286.958 205.292 284.402 205.292C282.476 205.292 280.91 205.94 279.938 207.092L280.856 207.884C281.684 206.93 282.818 206.48 284.294 206.48C286.22 206.48 287.246 207.38 287.246 208.838C287.246 209.702 286.976 210.548 285.554 211.952L280.316 217.082V218H289.154V216.848H282.224ZM295.245 205.292C292.797 205.292 290.943 206.804 290.943 209.162C290.943 211.466 292.689 212.942 295.191 212.942C296.937 212.942 298.413 212.168 299.043 210.782C299.079 211.16 299.097 211.52 299.097 211.808C299.097 215.228 297.351 216.974 294.633 216.974C293.697 216.974 292.833 216.812 292.185 216.38L291.663 217.424C292.455 217.91 293.517 218.108 294.651 218.108C298.071 218.108 300.411 215.876 300.411 211.592C300.411 207.614 298.593 205.292 295.245 205.292ZM295.389 211.844C293.445 211.844 292.221 210.782 292.221 209.126C292.221 207.452 293.481 206.39 295.299 206.39C297.477 206.39 298.629 207.704 298.629 209.09C298.629 210.656 297.315 211.844 295.389 211.844ZM303.608 218.09C304.13 218.09 304.58 217.658 304.58 217.1C304.58 216.542 304.13 216.128 303.608 216.128C303.086 216.128 302.654 216.542 302.654 217.1C302.654 217.658 303.086 218.09 303.608 218.09ZM310.915 205.292C308.467 205.292 306.613 206.804 306.613 209.162C306.613 211.466 308.359 212.942 310.861 212.942C312.607 212.942 314.083 212.168 314.713 210.782C314.749 211.16 314.767 211.52 314.767 211.808C314.767 215.228 313.021 216.974 310.303 216.974C309.367 216.974 308.503 216.812 307.855 216.38L307.333 217.424C308.125 217.91 309.187 218.108 310.321 218.108C313.741 218.108 316.081 215.876 316.081 211.592C316.081 207.614 314.263 205.292 310.915 205.292ZM311.059 211.844C309.115 211.844 307.891 210.782 307.891 209.126C307.891 207.452 309.151 206.39 310.969 206.39C313.147 206.39 314.299 207.704 314.299 209.09C314.299 210.656 312.985 211.844 311.059 211.844ZM322.423 205.292C319.975 205.292 318.121 206.804 318.121 209.162C318.121 211.466 319.867 212.942 322.369 212.942C324.115 212.942 325.591 212.168 326.221 210.782C326.257 211.16 326.275 211.52 326.275 211.808C326.275 215.228 324.529 216.974 321.811 216.974C320.875 216.974 320.011 216.812 319.363 216.38L318.841 217.424C319.633 217.91 320.695 218.108 321.829 218.108C325.249 218.108 327.589 215.876 327.589 211.592C327.589 207.614 325.771 205.292 322.423 205.292ZM322.567 211.844C320.623 211.844 319.399 210.782 319.399 209.126C319.399 207.452 320.659 206.39 322.477 206.39C324.655 206.39 325.807 207.704 325.807 209.09C325.807 210.656 324.493 211.844 322.567 211.844Z" fill="#5A0090"/>
</svg>
