<svg width="372" height="450" viewBox="0 0 372 450" fill="none" xmlns="http://www.w3.org/2000/svg">
<rect width="372" height="422" fill="#5A0090" fill-opacity="0.06"/>
<line x1="45" y1="181.5" x2="329.022" y2="181.5" stroke="#5A0090"/>
<path d="M53.42 42.2C57.76 42.2 60.96 39.16 60.96 35C60.96 30.84 57.76 27.8 53.42 27.8C49.08 27.8 45.88 30.86 45.88 35C45.88 39.14 49.08 42.2 53.42 42.2ZM53.42 39.92C50.6 39.92 48.5 37.86 48.5 35C48.5 32.14 50.6 30.08 53.42 30.08C56.24 30.08 58.34 32.14 58.34 35C58.34 37.86 56.24 39.92 53.42 39.92ZM76.2759 42L73.0559 37.4C74.9559 36.66 76.0359 35.1 76.0359 32.98C76.0359 29.88 73.7559 28 70.0759 28H64.3159V42H66.9159V37.92H70.0759C70.2559 37.92 70.4359 37.92 70.6159 37.9L73.4759 42H76.2759ZM73.4159 32.98C73.4159 34.74 72.2359 35.78 69.9559 35.78H66.9159V30.2H69.9559C72.2359 30.2 73.4159 31.22 73.4159 32.98ZM79.5448 42H85.6648C90.2048 42 93.3048 39.2 93.3048 35C93.3048 30.8 90.2048 28 85.6648 28H79.5448V42ZM82.1448 39.8V30.2H85.5448C88.6648 30.2 90.6848 32.1 90.6848 35C90.6848 37.9 88.6648 39.8 85.5448 39.8H82.1448ZM99.2683 39.82V35.96H106.028V33.82H99.2683V30.18H106.888V28H96.6683V42H107.168V39.82H99.2683ZM122.627 42L119.407 37.4C121.307 36.66 122.387 35.1 122.387 32.98C122.387 29.88 120.107 28 116.427 28H110.667V42H113.267V37.92H116.427C116.607 37.92 116.787 37.92 116.967 37.9L119.827 42H122.627ZM119.767 32.98C119.767 34.74 118.587 35.78 116.307 35.78H113.267V30.2H116.307C118.587 30.2 119.767 31.22 119.767 32.98ZM136.363 42.2C140.203 42.2 142.023 40.28 142.023 38.04C142.023 32.9 133.723 34.84 133.723 31.86C133.723 30.8 134.603 29.96 136.763 29.96C137.983 29.96 139.363 30.32 140.623 31.06L141.443 29.04C140.223 28.24 138.463 27.8 136.783 27.8C132.943 27.8 131.143 29.72 131.143 31.98C131.143 37.18 139.463 35.2 139.463 38.22C139.463 39.26 138.543 40.04 136.363 40.04C134.643 40.04 132.863 39.4 131.743 38.5L130.843 40.52C132.003 41.52 134.183 42.2 136.363 42.2ZM151.221 42.2C155.041 42.2 157.341 39.98 157.341 35.9V28H154.781V35.8C154.781 38.68 153.501 39.92 151.241 39.92C148.981 39.92 147.681 38.68 147.681 35.8V28H145.081V35.9C145.081 39.98 147.381 42.2 151.221 42.2ZM176.902 42L176.882 28H174.742L169.282 37.28L163.722 28H161.582V42H164.062V32.84L168.662 40.4H169.822L174.422 32.72L174.442 42H176.902ZM196.604 42L196.584 28H194.444L188.984 37.28L183.424 28H181.284V42H183.764V32.84L188.364 40.4H189.524L194.124 32.72L194.144 42H196.604ZM211.465 42H214.185L207.865 28H205.305L199.005 42H201.685L203.065 38.76H210.065L211.465 42ZM203.945 36.72L206.565 30.6L209.205 36.72H203.945ZM228.526 42L225.306 37.4C227.206 36.66 228.286 35.1 228.286 32.98C228.286 29.88 226.006 28 222.326 28H216.566V42H219.166V37.92H222.326C222.506 37.92 222.686 37.92 222.866 37.9L225.726 42H228.526ZM225.666 32.98C225.666 34.74 224.486 35.78 222.206 35.78H219.166V30.2H222.206C224.486 30.2 225.666 31.22 225.666 32.98ZM243.12 28H240.56L236.42 34.82L232.32 28H229.54L235.04 37.1V42H237.64V37.06L243.12 28ZM50.526 98.108C53.748 98.108 55.224 96.524 55.224 94.67C55.224 90.08 47.466 92.168 47.466 88.712C47.466 87.452 48.492 86.426 50.796 86.426C51.912 86.426 53.172 86.768 54.252 87.47L54.702 86.408C53.694 85.706 52.218 85.292 50.796 85.292C47.592 85.292 46.152 86.894 46.152 88.748C46.152 93.41 53.91 91.286 53.91 94.742C53.91 95.984 52.884 96.974 50.526 96.974C48.87 96.974 47.268 96.326 46.368 95.444L45.846 96.47C46.782 97.442 48.636 98.108 50.526 98.108ZM65.6502 88.532V93.5C65.6502 95.66 64.4082 96.938 62.4282 96.938C60.6282 96.938 59.5842 95.912 59.5842 93.896V88.532H58.3062V94.022C58.3062 96.74 59.8902 98.09 62.3022 98.09C63.8142 98.09 65.0382 97.424 65.7042 96.272V98H66.9282V88.532H65.6502ZM75.9255 88.46C74.4135 88.46 73.1175 89.108 72.3255 90.332V84.644H71.0475V98H72.2715V96.128C73.0455 97.406 74.3595 98.09 75.9255 98.09C78.6255 98.09 80.6415 96.128 80.6415 93.266C80.6415 90.404 78.6255 88.46 75.9255 88.46ZM75.8355 96.956C73.8195 96.956 72.3075 95.48 72.3075 93.266C72.3075 91.052 73.8195 89.576 75.8355 89.576C77.8335 89.576 79.3635 91.052 79.3635 93.266C79.3635 95.48 77.8335 96.956 75.8355 96.956ZM88.3228 96.506C87.9628 96.83 87.4408 96.992 86.9188 96.992C85.8568 96.992 85.2808 96.38 85.2808 95.264V89.612H88.1608V88.532H85.2808V86.462H84.0028V88.532H82.3108V89.612H84.0028V95.336C84.0028 97.082 84.9928 98.09 86.7748 98.09C87.5128 98.09 88.2688 97.874 88.7728 97.424L88.3228 96.506ZM95.1753 98.09C97.9473 98.09 99.9813 96.074 99.9813 93.266C99.9813 90.458 97.9473 88.46 95.1753 88.46C92.4033 88.46 90.3513 90.458 90.3513 93.266C90.3513 96.074 92.4033 98.09 95.1753 98.09ZM95.1753 96.956C93.1593 96.956 91.6473 95.48 91.6473 93.266C91.6473 91.052 93.1593 89.576 95.1753 89.576C97.1913 89.576 98.6853 91.052 98.6853 93.266C98.6853 95.48 97.1913 96.956 95.1753 96.956ZM107.666 96.506C107.306 96.83 106.784 96.992 106.262 96.992C105.2 96.992 104.624 96.38 104.624 95.264V89.612H107.504V88.532H104.624V86.462H103.346V88.532H101.654V89.612H103.346V95.336C103.346 97.082 104.336 98.09 106.118 98.09C106.856 98.09 107.612 97.874 108.116 97.424L107.666 96.506ZM114.295 88.46C112.801 88.46 111.397 88.928 110.443 89.738L111.019 90.692C111.793 90.008 112.945 89.576 114.169 89.576C115.933 89.576 116.851 90.458 116.851 92.078V92.654H113.845C111.127 92.654 110.191 93.878 110.191 95.336C110.191 96.974 111.505 98.09 113.647 98.09C115.213 98.09 116.329 97.496 116.905 96.524V98H118.129V92.132C118.129 89.684 116.743 88.46 114.295 88.46ZM113.845 97.082C112.333 97.082 111.451 96.398 111.451 95.3C111.451 94.328 112.045 93.608 113.881 93.608H116.851V95.156C116.347 96.398 115.285 97.082 113.845 97.082ZM122.14 98H123.418V84.644H122.14V98ZM50.526 128.108C53.748 128.108 55.224 126.524 55.224 124.67C55.224 120.08 47.466 122.168 47.466 118.712C47.466 117.452 48.492 116.426 50.796 116.426C51.912 116.426 53.172 116.768 54.252 117.47L54.702 116.408C53.694 115.706 52.218 115.292 50.796 115.292C47.592 115.292 46.152 116.894 46.152 118.748C46.152 123.41 53.91 121.286 53.91 124.742C53.91 125.984 52.884 126.974 50.526 126.974C48.87 126.974 47.268 126.326 46.368 125.444L45.846 126.47C46.782 127.442 48.636 128.108 50.526 128.108ZM63.2202 118.46C61.6182 118.46 60.3762 119.09 59.6742 120.188V114.644H58.3962V128H59.6742V123.032C59.6742 120.872 60.9522 119.612 62.9862 119.612C64.7862 119.612 65.8302 120.638 65.8302 122.636V128H67.1082V122.51C67.1082 119.792 65.5242 118.46 63.2202 118.46ZM71.7659 116.462C72.3059 116.462 72.7019 116.048 72.7019 115.526C72.7019 115.04 72.2879 114.644 71.7659 114.644C71.2439 114.644 70.8299 115.058 70.8299 115.544C70.8299 116.048 71.2439 116.462 71.7659 116.462ZM71.1179 128H72.3959V118.532H71.1179V128ZM81.3698 118.46C79.8038 118.46 78.4898 119.144 77.7158 120.404V118.532H76.4918V131.492H77.7698V126.218C78.5618 127.442 79.8578 128.09 81.3698 128.09C84.0698 128.09 86.0858 126.146 86.0858 123.266C86.0858 120.404 84.0698 118.46 81.3698 118.46ZM81.2798 126.956C79.2638 126.956 77.7518 125.48 77.7518 123.266C77.7518 121.07 79.2638 119.576 81.2798 119.576C83.2778 119.576 84.8078 121.07 84.8078 123.266C84.8078 125.48 83.2778 126.956 81.2798 126.956ZM94.1091 118.46C92.5431 118.46 91.2291 119.144 90.4551 120.404V118.532H89.2311V131.492H90.5091V126.218C91.3011 127.442 92.5971 128.09 94.1091 128.09C96.8091 128.09 98.8251 126.146 98.8251 123.266C98.8251 120.404 96.8091 118.46 94.1091 118.46ZM94.0191 126.956C92.0031 126.956 90.4911 125.48 90.4911 123.266C90.4911 121.07 92.0031 119.576 94.0191 119.576C96.0171 119.576 97.5471 121.07 97.5471 123.266C97.5471 125.48 96.0171 126.956 94.0191 126.956ZM102.618 116.462C103.158 116.462 103.554 116.048 103.554 115.526C103.554 115.04 103.14 114.644 102.618 114.644C102.096 114.644 101.682 115.058 101.682 115.544C101.682 116.048 102.096 116.462 102.618 116.462ZM101.97 128H103.248V118.532H101.97V128ZM112.168 118.46C110.53 118.46 109.252 119.126 108.568 120.278V118.532H107.344V128H108.622V123.032C108.622 120.872 109.9 119.612 111.934 119.612C113.734 119.612 114.778 120.638 114.778 122.636V128H116.056V122.51C116.056 119.792 114.472 118.46 112.168 118.46ZM127.643 118.532V120.35C126.851 119.108 125.483 118.46 123.899 118.46C121.199 118.46 119.147 120.314 119.147 123.032C119.147 125.75 121.199 127.64 123.899 127.64C125.447 127.64 126.797 127.01 127.589 125.804V127.01C127.589 129.35 126.491 130.448 124.097 130.448C122.639 130.448 121.271 129.962 120.371 129.152L119.723 130.124C120.713 131.06 122.405 131.582 124.133 131.582C127.265 131.582 128.867 130.106 128.867 126.848V118.532H127.643ZM124.025 126.506C121.937 126.506 120.443 125.084 120.443 123.032C120.443 120.98 121.937 119.576 124.025 119.576C126.113 119.576 127.625 120.98 127.625 123.032C127.625 125.084 126.113 126.506 124.025 126.506ZM49.5 158H50.832V146.552H55.26V145.4H45.072V146.552H49.5V158ZM60.4426 148.46C58.9486 148.46 57.5446 148.928 56.5906 149.738L57.1666 150.692C57.9406 150.008 59.0926 149.576 60.3166 149.576C62.0806 149.576 62.9986 150.458 62.9986 152.078V152.654H59.9926C57.2746 152.654 56.3386 153.878 56.3386 155.336C56.3386 156.974 57.6526 158.09 59.7946 158.09C61.3606 158.09 62.4766 157.496 63.0526 156.524V158H64.2766V152.132C64.2766 149.684 62.8906 148.46 60.4426 148.46ZM59.9926 157.082C58.4806 157.082 57.5986 156.398 57.5986 155.3C57.5986 154.328 58.1926 153.608 60.0286 153.608H62.9986V155.156C62.4946 156.398 61.4326 157.082 59.9926 157.082ZM75.7758 158L71.9958 153.14L75.5598 148.532H74.1558L71.3118 152.24L68.4678 148.532H67.0278L70.5918 153.14L66.8478 158H68.2878L71.3118 154.04L74.3178 158H75.7758ZM86.371 153.266C86.371 150.422 84.445 148.46 81.781 148.46C79.117 148.46 77.155 150.458 77.155 153.266C77.155 156.074 79.171 158.09 82.123 158.09C83.617 158.09 84.931 157.55 85.777 156.542L85.057 155.714C84.337 156.542 83.311 156.956 82.159 156.956C80.089 156.956 78.577 155.642 78.433 153.662H86.353C86.353 153.518 86.371 153.374 86.371 153.266ZM81.781 149.558C83.635 149.558 84.985 150.854 85.147 152.708H78.433C78.595 150.854 79.945 149.558 81.781 149.558ZM92.0503 158.09C94.5163 158.09 95.9563 157.028 95.9563 155.39C95.9563 151.754 89.8183 153.68 89.8183 151.124C89.8183 150.224 90.5743 149.558 92.2843 149.558C93.2563 149.558 94.2463 149.792 95.0743 150.368L95.6323 149.342C94.8403 148.802 93.5083 148.46 92.2843 148.46C89.8723 148.46 88.5403 149.612 88.5403 151.16C88.5403 154.904 94.6783 152.96 94.6783 155.426C94.6783 156.362 93.9403 156.974 92.1403 156.974C90.8083 156.974 89.5303 156.506 88.7743 155.912L88.1983 156.92C88.9723 157.586 90.4843 158.09 92.0503 158.09ZM105.712 156.848V152.168H112.228V151.034H105.712V146.552H113.02V145.4H104.38V158H113.29V156.848H105.712ZM119.088 158.09C121.554 158.09 122.994 157.028 122.994 155.39C122.994 151.754 116.856 153.68 116.856 151.124C116.856 150.224 117.612 149.558 119.322 149.558C120.294 149.558 121.284 149.792 122.112 150.368L122.67 149.342C121.878 148.802 120.546 148.46 119.322 148.46C116.91 148.46 115.578 149.612 115.578 151.16C115.578 154.904 121.716 152.96 121.716 155.426C121.716 156.362 120.978 156.974 119.178 156.974C117.846 156.974 116.568 156.506 115.812 155.912L115.236 156.92C116.01 157.586 117.522 158.09 119.088 158.09ZM130.433 156.506C130.073 156.83 129.551 156.992 129.029 156.992C127.967 156.992 127.391 156.38 127.391 155.264V149.612H130.271V148.532H127.391V146.462H126.113V148.532H124.421V149.612H126.113V155.336C126.113 157.082 127.103 158.09 128.885 158.09C129.623 158.09 130.379 157.874 130.883 157.424L130.433 156.506ZM134.397 146.462C134.937 146.462 135.333 146.048 135.333 145.526C135.333 145.04 134.919 144.644 134.397 144.644C133.875 144.644 133.461 145.058 133.461 145.544C133.461 146.048 133.875 146.462 134.397 146.462ZM133.749 158H135.027V148.532H133.749V158ZM150.931 148.46C149.221 148.46 147.871 149.234 147.187 150.458C146.611 149.126 145.387 148.46 143.821 148.46C142.237 148.46 141.013 149.126 140.347 150.26V148.532H139.123V158H140.401V153.032C140.401 150.872 141.643 149.612 143.569 149.612C145.297 149.612 146.305 150.638 146.305 152.636V158H147.583V153.032C147.583 150.872 148.807 149.612 150.751 149.612C152.461 149.612 153.469 150.638 153.469 152.636V158H154.747V152.51C154.747 149.792 153.235 148.46 150.931 148.46ZM162.065 148.46C160.571 148.46 159.167 148.928 158.213 149.738L158.789 150.692C159.563 150.008 160.715 149.576 161.939 149.576C163.703 149.576 164.621 150.458 164.621 152.078V152.654H161.615C158.897 152.654 157.961 153.878 157.961 155.336C157.961 156.974 159.275 158.09 161.417 158.09C162.983 158.09 164.099 157.496 164.675 156.524V158H165.899V152.132C165.899 149.684 164.513 148.46 162.065 148.46ZM161.615 157.082C160.103 157.082 159.221 156.398 159.221 155.3C159.221 154.328 159.815 153.608 161.651 153.608H164.621V155.156C164.117 156.398 163.055 157.082 161.615 157.082ZM174.446 156.506C174.086 156.83 173.564 156.992 173.042 156.992C171.98 156.992 171.404 156.38 171.404 155.264V149.612H174.284V148.532H171.404V146.462H170.126V148.532H168.434V149.612H170.126V155.336C170.126 157.082 171.116 158.09 172.898 158.09C173.636 158.09 174.392 157.874 174.896 157.424L174.446 156.506ZM185.691 153.266C185.691 150.422 183.765 148.46 181.101 148.46C178.437 148.46 176.475 150.458 176.475 153.266C176.475 156.074 178.491 158.09 181.443 158.09C182.937 158.09 184.251 157.55 185.097 156.542L184.377 155.714C183.657 156.542 182.631 156.956 181.479 156.956C179.409 156.956 177.897 155.642 177.753 153.662H185.673C185.673 153.518 185.691 153.374 185.691 153.266ZM181.101 149.558C182.955 149.558 184.305 150.854 184.467 152.708H177.753C177.915 150.854 179.265 149.558 181.101 149.558ZM49.104 207.776H45.072V205.4H56.052V207.776H52.02V218H49.104V207.776ZM64.0872 218.216C62.7792 218.216 61.5972 217.934 60.5412 217.37C59.4972 216.806 58.6752 216.032 58.0752 215.048C57.4872 214.052 57.1932 212.936 57.1932 211.7C57.1932 210.464 57.4872 209.354 58.0752 208.37C58.6752 207.374 59.4972 206.594 60.5412 206.03C61.5972 205.466 62.7792 205.184 64.0872 205.184C65.3952 205.184 66.5712 205.466 67.6152 206.03C68.6592 206.594 69.4812 207.374 70.0812 208.37C70.6812 209.354 70.9812 210.464 70.9812 211.7C70.9812 212.936 70.6812 214.052 70.0812 215.048C69.4812 216.032 68.6592 216.806 67.6152 217.37C66.5712 217.934 65.3952 218.216 64.0872 218.216ZM64.0872 215.732C64.8312 215.732 65.5032 215.564 66.1032 215.228C66.7032 214.88 67.1712 214.4 67.5072 213.788C67.8552 213.176 68.0292 212.48 68.0292 211.7C68.0292 210.92 67.8552 210.224 67.5072 209.612C67.1712 209 66.7032 208.526 66.1032 208.19C65.5032 207.842 64.8312 207.668 64.0872 207.668C63.3432 207.668 62.6712 207.842 62.0712 208.19C61.4712 208.526 60.9972 209 60.6492 209.612C60.3132 210.224 60.1452 210.92 60.1452 211.7C60.1452 212.48 60.3132 213.176 60.6492 213.788C60.9972 214.4 61.4712 214.88 62.0712 215.228C62.6712 215.564 63.3432 215.732 64.0872 215.732ZM76.1469 207.776H72.1149V205.4H83.0949V207.776H79.0629V218H76.1469V207.776ZM92.869 215.3H87.019L85.903 218H82.915L88.531 205.4H91.411L97.045 218H93.985L92.869 215.3ZM91.951 213.086L89.953 208.262L87.955 213.086H91.951ZM98.8923 205.4H101.808V215.624H108.126V218H98.8923V205.4Z" fill="#5A0090"/>
<path d="M278.224 94.67C278.224 92.258 276.082 91.682 274.048 91.196V86.426C275.092 86.48 276.244 86.822 277.252 87.47L277.702 86.408C276.748 85.742 275.398 85.346 274.048 85.292V83.24H273.148V85.31C270.394 85.526 269.152 87.02 269.152 88.748C269.152 91.124 271.168 91.736 273.148 92.222V96.956C271.636 96.866 270.196 96.254 269.368 95.444L268.846 96.47C269.728 97.37 271.384 98.018 273.148 98.108V100.16H274.048V98.09C276.91 97.928 278.224 96.416 278.224 94.67ZM270.466 88.712C270.466 87.578 271.294 86.624 273.148 86.462V90.962C271.672 90.584 270.466 90.08 270.466 88.712ZM274.048 96.956V92.456C275.596 92.834 276.91 93.32 276.91 94.742C276.91 95.894 276.028 96.812 274.048 96.956ZM282.224 96.848L286.508 92.636C288.2 90.98 288.578 89.9 288.578 88.694C288.578 86.588 286.958 85.292 284.402 85.292C282.476 85.292 280.91 85.94 279.938 87.092L280.856 87.884C281.684 86.93 282.818 86.48 284.294 86.48C286.22 86.48 287.246 87.38 287.246 88.838C287.246 89.702 286.976 90.548 285.554 91.952L280.316 97.082V98H289.154V96.848H282.224ZM294.633 90.566H293.013L293.445 86.552H299.205V85.4H292.311L291.663 91.718H294.345C297.549 91.718 298.557 92.726 298.557 94.346C298.557 95.876 297.423 96.92 295.281 96.92C293.661 96.92 292.221 96.308 291.411 95.462L290.781 96.488C291.753 97.478 293.481 98.108 295.299 98.108C298.377 98.108 299.871 96.434 299.871 94.292C299.871 92.06 298.431 90.566 294.633 90.566ZM303.028 98.09C303.55 98.09 304 97.658 304 97.1C304 96.542 303.55 96.128 303.028 96.128C302.506 96.128 302.074 96.542 302.074 97.1C302.074 97.658 302.506 98.09 303.028 98.09ZM311.239 98.108C314.155 98.108 316.279 95.714 316.279 91.7C316.279 87.686 314.155 85.292 311.239 85.292C308.323 85.292 306.217 87.686 306.217 91.7C306.217 95.714 308.323 98.108 311.239 98.108ZM311.239 96.92C309.043 96.92 307.531 95.066 307.531 91.7C307.531 88.334 309.043 86.48 311.239 86.48C313.435 86.48 314.947 88.334 314.947 91.7C314.947 95.066 313.435 96.92 311.239 96.92ZM323.697 98.108C326.613 98.108 328.737 95.714 328.737 91.7C328.737 87.686 326.613 85.292 323.697 85.292C320.781 85.292 318.675 87.686 318.675 91.7C318.675 95.714 320.781 98.108 323.697 98.108ZM323.697 96.92C321.501 96.92 319.989 95.066 319.989 91.7C319.989 88.334 321.501 86.48 323.697 86.48C325.893 86.48 327.405 88.334 327.405 91.7C327.405 95.066 325.893 96.92 323.697 96.92ZM278.224 124.67C278.224 122.258 276.082 121.682 274.048 121.196V116.426C275.092 116.48 276.244 116.822 277.252 117.47L277.702 116.408C276.748 115.742 275.398 115.346 274.048 115.292V113.24H273.148V115.31C270.394 115.526 269.152 117.02 269.152 118.748C269.152 121.124 271.168 121.736 273.148 122.222V126.956C271.636 126.866 270.196 126.254 269.368 125.444L268.846 126.47C269.728 127.37 271.384 128.018 273.148 128.108V130.16H274.048V128.09C276.91 127.928 278.224 126.416 278.224 124.67ZM270.466 118.712C270.466 117.578 271.294 116.624 273.148 116.462V120.962C271.672 120.584 270.466 120.08 270.466 118.712ZM274.048 126.956V122.456C275.596 122.834 276.91 123.32 276.91 124.742C276.91 125.894 276.028 126.812 274.048 126.956ZM291.436 123.536H288.916V120.62H287.656V123.536H282.184L288.628 115.4H287.188L280.51 123.752V124.688H287.62V128H288.916V124.688H291.436V123.536ZM294.49 128.09C295.012 128.09 295.462 127.658 295.462 127.1C295.462 126.542 295.012 126.128 294.49 126.128C293.968 126.128 293.536 126.542 293.536 127.1C293.536 127.658 293.968 128.09 294.49 128.09ZM301.796 115.292C299.348 115.292 297.494 116.804 297.494 119.162C297.494 121.466 299.24 122.942 301.742 122.942C303.488 122.942 304.964 122.168 305.594 120.782C305.63 121.16 305.648 121.52 305.648 121.808C305.648 125.228 303.902 126.974 301.184 126.974C300.248 126.974 299.384 126.812 298.736 126.38L298.214 127.424C299.006 127.91 300.068 128.108 301.202 128.108C304.622 128.108 306.962 125.876 306.962 121.592C306.962 117.614 305.144 115.292 301.796 115.292ZM301.94 121.844C299.996 121.844 298.772 120.782 298.772 119.126C298.772 117.452 300.032 116.39 301.85 116.39C304.028 116.39 305.18 117.704 305.18 119.09C305.18 120.656 303.866 121.844 301.94 121.844ZM313.305 115.292C310.857 115.292 309.003 116.804 309.003 119.162C309.003 121.466 310.749 122.942 313.251 122.942C314.997 122.942 316.473 122.168 317.103 120.782C317.139 121.16 317.157 121.52 317.157 121.808C317.157 125.228 315.411 126.974 312.693 126.974C311.757 126.974 310.893 126.812 310.245 126.38L309.723 127.424C310.515 127.91 311.577 128.108 312.711 128.108C316.131 128.108 318.471 125.876 318.471 121.592C318.471 117.614 316.653 115.292 313.305 115.292ZM313.449 121.844C311.505 121.844 310.281 120.782 310.281 119.126C310.281 117.452 311.541 116.39 313.359 116.39C315.537 116.39 316.689 117.704 316.689 119.09C316.689 120.656 315.375 121.844 313.449 121.844ZM278.224 154.67C278.224 152.258 276.082 151.682 274.048 151.196V146.426C275.092 146.48 276.244 146.822 277.252 147.47L277.702 146.408C276.748 145.742 275.398 145.346 274.048 145.292V143.24H273.148V145.31C270.394 145.526 269.152 147.02 269.152 148.748C269.152 151.124 271.168 151.736 273.148 152.222V156.956C271.636 156.866 270.196 156.254 269.368 155.444L268.846 156.47C269.728 157.37 271.384 158.018 273.148 158.108V160.16H274.048V158.09C276.91 157.928 278.224 156.416 278.224 154.67ZM270.466 148.712C270.466 147.578 271.294 146.624 273.148 146.462V150.962C271.672 150.584 270.466 150.08 270.466 148.712ZM274.048 156.956V152.456C275.596 152.834 276.91 153.32 276.91 154.742C276.91 155.894 276.028 156.812 274.048 156.956ZM285.572 158.108C288.488 158.108 290.612 155.714 290.612 151.7C290.612 147.686 288.488 145.292 285.572 145.292C282.656 145.292 280.55 147.686 280.55 151.7C280.55 155.714 282.656 158.108 285.572 158.108ZM285.572 156.92C283.376 156.92 281.864 155.066 281.864 151.7C281.864 148.334 283.376 146.48 285.572 146.48C287.768 146.48 289.28 148.334 289.28 151.7C289.28 155.066 287.768 156.92 285.572 156.92ZM293.787 158.09C294.309 158.09 294.759 157.658 294.759 157.1C294.759 156.542 294.309 156.128 293.787 156.128C293.265 156.128 292.833 156.542 292.833 157.1C292.833 157.658 293.265 158.09 293.787 158.09ZM301.998 158.108C304.914 158.108 307.038 155.714 307.038 151.7C307.038 147.686 304.914 145.292 301.998 145.292C299.082 145.292 296.976 147.686 296.976 151.7C296.976 155.714 299.082 158.108 301.998 158.108ZM301.998 156.92C299.802 156.92 298.29 155.066 298.29 151.7C298.29 148.334 299.802 146.48 301.998 146.48C304.194 146.48 305.706 148.334 305.706 151.7C305.706 155.066 304.194 156.92 301.998 156.92ZM314.456 158.108C317.372 158.108 319.496 155.714 319.496 151.7C319.496 147.686 317.372 145.292 314.456 145.292C311.54 145.292 309.434 147.686 309.434 151.7C309.434 155.714 311.54 158.108 314.456 158.108ZM314.456 156.92C312.26 156.92 310.748 155.066 310.748 151.7C310.748 148.334 312.26 146.48 314.456 146.48C316.652 146.48 318.164 148.334 318.164 151.7C318.164 155.066 316.652 156.92 314.456 156.92ZM278.224 214.67C278.224 212.258 276.082 211.682 274.048 211.196V206.426C275.092 206.48 276.244 206.822 277.252 207.47L277.702 206.408C276.748 205.742 275.398 205.346 274.048 205.292V203.24H273.148V205.31C270.394 205.526 269.152 207.02 269.152 208.748C269.152 211.124 271.168 211.736 273.148 212.222V216.956C271.636 216.866 270.196 216.254 269.368 215.444L268.846 216.47C269.728 217.37 271.384 218.018 273.148 218.108V220.16H274.048V218.09C276.91 217.928 278.224 216.416 278.224 214.67ZM270.466 208.712C270.466 207.578 271.294 206.624 273.148 206.462V210.962C271.672 210.584 270.466 210.08 270.466 208.712ZM274.048 216.956V212.456C275.596 212.834 276.91 213.32 276.91 214.742C276.91 215.894 276.028 216.812 274.048 216.956ZM282.224 216.848L286.508 212.636C288.2 210.98 288.578 209.9 288.578 208.694C288.578 206.588 286.958 205.292 284.402 205.292C282.476 205.292 280.91 205.94 279.938 207.092L280.856 207.884C281.684 206.93 282.818 206.48 284.294 206.48C286.22 206.48 287.246 207.38 287.246 208.838C287.246 209.702 286.976 210.548 285.554 211.952L280.316 217.082V218H289.154V216.848H282.224ZM295.245 205.292C292.797 205.292 290.943 206.804 290.943 209.162C290.943 211.466 292.689 212.942 295.191 212.942C296.937 212.942 298.413 212.168 299.043 210.782C299.079 211.16 299.097 211.52 299.097 211.808C299.097 215.228 297.351 216.974 294.633 216.974C293.697 216.974 292.833 216.812 292.185 216.38L291.663 217.424C292.455 217.91 293.517 218.108 294.651 218.108C298.071 218.108 300.411 215.876 300.411 211.592C300.411 207.614 298.593 205.292 295.245 205.292ZM295.389 211.844C293.445 211.844 292.221 210.782 292.221 209.126C292.221 207.452 293.481 206.39 295.299 206.39C297.477 206.39 298.629 207.704 298.629 209.09C298.629 210.656 297.315 211.844 295.389 211.844ZM303.608 218.09C304.13 218.09 304.58 217.658 304.58 217.1C304.58 216.542 304.13 216.128 303.608 216.128C303.086 216.128 302.654 216.542 302.654 217.1C302.654 217.658 303.086 218.09 303.608 218.09ZM310.915 205.292C308.467 205.292 306.613 206.804 306.613 209.162C306.613 211.466 308.359 212.942 310.861 212.942C312.607 212.942 314.083 212.168 314.713 210.782C314.749 211.16 314.767 211.52 314.767 211.808C314.767 215.228 313.021 216.974 310.303 216.974C309.367 216.974 308.503 216.812 307.855 216.38L307.333 217.424C308.125 217.91 309.187 218.108 310.321 218.108C313.741 218.108 316.081 215.876 316.081 211.592C316.081 207.614 314.263 205.292 310.915 205.292ZM311.059 211.844C309.115 211.844 307.891 210.782 307.891 209.126C307.891 207.452 309.151 206.39 310.969 206.39C313.147 206.39 314.299 207.704 314.299 209.09C314.299 210.656 312.985 211.844 311.059 211.844ZM322.423 205.292C319.975 205.292 318.121 206.804 318.121 209.162C318.121 211.466 319.867 212.942 322.369 212.942C324.115 212.942 325.591 212.168 326.221 210.782C326.257 211.16 326.275 211.52 326.275 211.808C326.275 215.228 324.529 216.974 321.811 216.974C320.875 216.974 320.011 216.812 319.363 216.38L318.841 217.424C319.633 217.91 320.695 218.108 321.829 218.108C325.249 218.108 327.589 215.876 327.589 211.592C327.589 207.614 325.771 205.292 322.423 205.292ZM322.567 211.844C320.623 211.844 319.399 210.782 319.399 209.126C319.399 207.452 320.659 206.39 322.477 206.39C324.655 206.39 325.807 207.704 325.807 209.09C325.807 210.656 324.493 211.844 322.567 211.844Z" fill="#5A0090"/>
<path d="M77.8007 358.108C76.8767 358.108 75.9887 357.958 75.1367 357.658C74.2967 357.358 73.6607 356.974 73.2287 356.506L73.8767 355.462C74.2967 355.918 74.8787 356.284 75.6227 356.56C76.3667 356.836 77.1347 356.974 77.9267 356.974C79.0427 356.974 79.9367 356.758 80.6087 356.326C81.2927 355.882 81.6347 355.27 81.6347 354.49C81.6347 354.07 81.5087 353.728 81.2567 353.464C81.0047 353.2 80.6867 352.99 80.3027 352.834C79.9187 352.666 79.3967 352.486 78.7367 352.294C77.9567 352.066 77.3207 351.85 76.8287 351.646C76.3487 351.43 75.9347 351.118 75.5867 350.71C75.2507 350.29 75.0827 349.75 75.0827 349.09C75.0827 348.31 75.2927 347.638 75.7127 347.074C76.1447 346.498 76.7387 346.06 77.4947 345.76C78.2627 345.448 79.1387 345.292 80.1227 345.292C80.8787 345.292 81.5987 345.388 82.2827 345.58C82.9667 345.76 83.5487 346.024 84.0287 346.372L83.4707 347.452C83.0147 347.116 82.4927 346.864 81.9047 346.696C81.3167 346.516 80.6987 346.426 80.0507 346.426C78.9467 346.426 78.0587 346.654 77.3867 347.11C76.7147 347.566 76.3787 348.184 76.3787 348.964C76.3787 349.396 76.5107 349.75 76.7747 350.026C77.0387 350.302 77.3627 350.524 77.7467 350.692C78.1427 350.848 78.6707 351.022 79.3307 351.214C80.1107 351.442 80.7407 351.664 81.2207 351.88C81.7007 352.084 82.1087 352.384 82.4447 352.78C82.7807 353.164 82.9487 353.674 82.9487 354.31C82.9487 355.102 82.7267 355.786 82.2827 356.362C81.8507 356.926 81.2447 357.358 80.4647 357.658C79.6967 357.958 78.8087 358.108 77.8007 358.108ZM91.9529 348.46C92.7569 348.46 93.4709 348.622 94.0949 348.946C94.7309 349.27 95.2229 349.732 95.5709 350.332C95.9189 350.932 96.0929 351.64 96.0929 352.456C96.0929 353.524 95.8589 354.49 95.3909 355.354C94.9349 356.206 94.2989 356.878 93.4829 357.37C92.6669 357.85 91.7489 358.09 90.7289 358.09C89.8289 358.09 89.0729 357.916 88.4609 357.568C87.8489 357.208 87.4049 356.692 87.1289 356.02L86.0489 361.492H84.7709L87.3449 348.532H88.5689L88.2629 350.044C88.7189 349.528 89.2589 349.138 89.8829 348.874C90.5069 348.598 91.1969 348.46 91.9529 348.46ZM90.7109 356.956C91.4909 356.956 92.1869 356.77 92.7989 356.398C93.4229 356.014 93.9089 355.486 94.2569 354.814C94.6169 354.142 94.7969 353.38 94.7969 352.528C94.7969 351.604 94.5209 350.884 93.9689 350.368C93.4289 349.84 92.6669 349.576 91.6829 349.576C90.9029 349.576 90.2009 349.768 89.5769 350.152C88.9649 350.524 88.4789 351.052 88.1189 351.736C87.7709 352.408 87.5969 353.17 87.5969 354.022C87.5969 354.946 87.8669 355.666 88.4069 356.182C88.9589 356.698 89.7269 356.956 90.7109 356.956ZM99.4001 353.626C99.3881 353.71 99.3821 353.836 99.3821 354.004C99.3821 354.964 99.6521 355.696 100.192 356.2C100.744 356.704 101.56 356.956 102.64 356.956C103.264 356.956 103.846 356.854 104.386 356.65C104.938 356.434 105.388 356.14 105.736 355.768L106.312 356.686C105.868 357.13 105.31 357.478 104.638 357.73C103.978 357.97 103.276 358.09 102.532 358.09C101.164 358.09 100.084 357.73 99.2921 357.01C98.5121 356.29 98.1221 355.306 98.1221 354.058C98.1221 353.002 98.3441 352.048 98.7881 351.196C99.2441 350.344 99.8681 349.678 100.66 349.198C101.464 348.706 102.364 348.46 103.36 348.46C104.62 348.46 105.622 348.82 106.366 349.54C107.11 350.248 107.482 351.226 107.482 352.474C107.482 352.822 107.44 353.206 107.356 353.626H99.4001ZM103.324 349.54C102.376 349.54 101.566 349.822 100.894 350.386C100.222 350.95 99.7661 351.712 99.5261 352.672H106.276C106.288 352.588 106.294 352.474 106.294 352.33C106.294 351.442 106.024 350.758 105.484 350.278C104.944 349.786 104.224 349.54 103.324 349.54ZM116.113 348.46C117.181 348.46 118.009 348.736 118.597 349.288C119.197 349.828 119.497 350.578 119.497 351.538C119.497 351.874 119.461 352.234 119.389 352.618L118.309 358H117.031L118.111 352.6C118.171 352.264 118.201 351.976 118.201 351.736C118.201 351.052 117.991 350.53 117.571 350.17C117.163 349.798 116.557 349.612 115.753 349.612C114.733 349.612 113.893 349.894 113.233 350.458C112.573 351.01 112.129 351.832 111.901 352.924L110.893 358H109.615L111.487 348.532H112.711L112.405 350.044C113.305 348.988 114.541 348.46 116.113 348.46ZM133.676 344.644L131.012 358H129.788L130.094 356.506C129.638 357.01 129.098 357.4 128.474 357.676C127.85 357.952 127.16 358.09 126.404 358.09C125.6 358.09 124.886 357.928 124.262 357.604C123.638 357.28 123.152 356.818 122.804 356.218C122.456 355.606 122.282 354.892 122.282 354.076C122.282 353.008 122.51 352.048 122.966 351.196C123.434 350.344 124.076 349.678 124.892 349.198C125.708 348.706 126.62 348.46 127.628 348.46C128.516 348.46 129.266 348.64 129.878 349C130.502 349.348 130.952 349.852 131.228 350.512L132.398 344.644H133.676ZM126.674 356.956C127.454 356.956 128.156 356.77 128.78 356.398C129.404 356.014 129.89 355.486 130.238 354.814C130.598 354.13 130.778 353.368 130.778 352.528C130.778 351.604 130.502 350.884 129.95 350.368C129.41 349.84 128.648 349.576 127.664 349.576C126.884 349.576 126.182 349.768 125.558 350.152C124.934 350.536 124.442 351.07 124.082 351.754C123.734 352.426 123.56 353.182 123.56 354.022C123.56 354.946 123.83 355.666 124.37 356.182C124.922 356.698 125.69 356.956 126.674 356.956ZM149.974 347.452C149.11 346.84 148.09 346.504 146.914 346.444L145.96 351.25C146.704 351.466 147.31 351.682 147.778 351.898C148.246 352.114 148.642 352.42 148.966 352.816C149.29 353.2 149.452 353.698 149.452 354.31C149.452 355.462 149.008 356.374 148.12 357.046C147.232 357.706 146.056 358.06 144.592 358.108L144.178 360.16H143.296L143.71 358.09C142.882 358.03 142.108 357.856 141.388 357.568C140.668 357.28 140.116 356.926 139.732 356.506L140.38 355.462C140.764 355.87 141.274 356.212 141.91 356.488C142.546 356.752 143.224 356.908 143.944 356.956L144.88 352.204C144.196 351.988 143.626 351.772 143.17 351.556C142.714 351.328 142.336 351.016 142.036 350.62C141.736 350.224 141.586 349.714 141.586 349.09C141.586 347.974 142.012 347.08 142.864 346.408C143.728 345.724 144.862 345.352 146.266 345.292L146.68 343.24H147.562L147.148 345.31C147.796 345.346 148.414 345.46 149.002 345.652C149.59 345.832 150.1 346.072 150.532 346.372L149.974 347.452ZM142.882 348.964C142.882 349.492 143.074 349.906 143.458 350.206C143.842 350.506 144.4 350.77 145.132 350.998L146.032 346.444C145.072 346.516 144.304 346.78 143.728 347.236C143.164 347.68 142.882 348.256 142.882 348.964ZM148.138 354.49C148.138 353.95 147.928 353.536 147.508 353.248C147.1 352.948 146.506 352.678 145.726 352.438L144.826 356.956C145.834 356.908 146.638 356.668 147.238 356.236C147.838 355.804 148.138 355.222 148.138 354.49ZM153.129 356.848H159.969L159.735 358H150.879L151.077 357.082L157.377 351.97C158.265 351.262 158.877 350.65 159.213 350.134C159.549 349.606 159.717 349.054 159.717 348.478C159.717 347.842 159.489 347.344 159.033 346.984C158.589 346.624 157.911 346.444 156.999 346.444C156.339 346.444 155.703 346.57 155.091 346.822C154.491 347.074 153.969 347.428 153.525 347.884L152.625 347.11C153.141 346.546 153.801 346.102 154.605 345.778C155.409 345.454 156.267 345.292 157.179 345.292C158.415 345.292 159.369 345.568 160.041 346.12C160.713 346.66 161.049 347.392 161.049 348.316C161.049 349.06 160.845 349.774 160.437 350.458C160.029 351.142 159.309 351.898 158.277 352.726L153.129 356.848ZM166.347 346.552L165.105 350.566H166.635C168.183 350.566 169.335 350.86 170.091 351.448C170.859 352.024 171.243 352.828 171.243 353.86C171.243 354.712 171.027 355.462 170.595 356.11C170.175 356.746 169.575 357.238 168.795 357.586C168.015 357.934 167.109 358.108 166.077 358.108C165.117 358.108 164.259 357.964 163.503 357.676C162.747 357.376 162.165 356.974 161.757 356.47L162.495 355.462C162.831 355.906 163.317 356.26 163.953 356.524C164.601 356.788 165.339 356.92 166.167 356.92C167.355 356.92 168.279 356.662 168.939 356.146C169.599 355.63 169.929 354.916 169.929 354.004C169.929 352.48 168.759 351.718 166.419 351.718H163.503L165.411 345.4H172.287L172.053 346.552H166.347ZM192.197 348.46C193.265 348.46 194.087 348.73 194.663 349.27C195.251 349.798 195.545 350.542 195.545 351.502C195.545 351.778 195.503 352.15 195.419 352.618L194.339 358H193.061L194.141 352.6C194.201 352.324 194.231 352.03 194.231 351.718C194.231 351.046 194.033 350.53 193.637 350.17C193.241 349.798 192.659 349.612 191.891 349.612C190.931 349.612 190.133 349.882 189.497 350.422C188.861 350.95 188.435 351.736 188.219 352.78L187.175 358H185.897L186.977 352.6C187.037 352.264 187.067 351.976 187.067 351.736C187.067 351.052 186.869 350.53 186.473 350.17C186.089 349.798 185.507 349.612 184.727 349.612C183.755 349.612 182.951 349.894 182.315 350.458C181.679 351.01 181.247 351.832 181.019 352.924L180.011 358H178.733L180.605 348.532H181.829L181.523 350.044C182.387 348.988 183.581 348.46 185.105 348.46C185.897 348.46 186.557 348.622 187.085 348.946C187.625 349.27 187.997 349.738 188.201 350.35C188.669 349.726 189.239 349.258 189.911 348.946C190.595 348.622 191.357 348.46 192.197 348.46ZM202.61 358.09C201.746 358.09 200.99 357.928 200.342 357.604C199.694 357.268 199.19 356.8 198.83 356.2C198.482 355.588 198.308 354.88 198.308 354.076C198.308 353.008 198.542 352.048 199.01 351.196C199.478 350.344 200.126 349.678 200.954 349.198C201.794 348.706 202.736 348.46 203.78 348.46C205.1 348.46 206.144 348.82 206.912 349.54C207.692 350.26 208.082 351.232 208.082 352.456C208.082 353.524 207.848 354.49 207.38 355.354C206.912 356.206 206.258 356.878 205.418 357.37C204.59 357.85 203.654 358.09 202.61 358.09ZM202.7 356.956C203.48 356.956 204.182 356.77 204.806 356.398C205.43 356.014 205.916 355.486 206.264 354.814C206.624 354.13 206.804 353.368 206.804 352.528C206.804 351.604 206.528 350.884 205.976 350.368C205.436 349.84 204.674 349.576 203.69 349.576C202.91 349.576 202.208 349.768 201.584 350.152C200.96 350.536 200.468 351.07 200.108 351.754C199.76 352.426 199.586 353.182 199.586 354.022C199.586 354.946 199.856 355.666 200.396 356.182C200.948 356.698 201.716 356.956 202.7 356.956ZM212.995 350.26C213.415 349.648 213.943 349.198 214.579 348.91C215.215 348.61 215.983 348.46 216.883 348.46L216.649 349.702L216.289 349.684C215.269 349.684 214.429 349.978 213.769 350.566C213.121 351.154 212.683 352.03 212.455 353.194L211.501 358H210.223L212.095 348.532H213.319L212.995 350.26ZM218.948 353.626C218.936 353.71 218.93 353.836 218.93 354.004C218.93 354.964 219.2 355.696 219.74 356.2C220.292 356.704 221.108 356.956 222.188 356.956C222.812 356.956 223.394 356.854 223.934 356.65C224.486 356.434 224.936 356.14 225.284 355.768L225.86 356.686C225.416 357.13 224.858 357.478 224.186 357.73C223.526 357.97 222.824 358.09 222.08 358.09C220.712 358.09 219.632 357.73 218.84 357.01C218.06 356.29 217.67 355.306 217.67 354.058C217.67 353.002 217.892 352.048 218.336 351.196C218.792 350.344 219.416 349.678 220.208 349.198C221.012 348.706 221.912 348.46 222.908 348.46C224.168 348.46 225.17 348.82 225.914 349.54C226.658 350.248 227.03 351.226 227.03 352.474C227.03 352.822 226.988 353.206 226.904 353.626H218.948ZM222.872 349.54C221.924 349.54 221.114 349.822 220.442 350.386C219.77 350.95 219.314 351.712 219.074 352.672H225.824C225.836 352.588 225.842 352.474 225.842 352.33C225.842 351.442 225.572 350.758 225.032 350.278C224.492 349.786 223.772 349.54 222.872 349.54ZM239.994 345.634C239.43 345.634 238.986 345.784 238.662 346.084C238.338 346.384 238.11 346.852 237.978 347.488L237.762 348.532H240.66L240.444 349.612H237.582L235.908 358H234.63L236.304 349.612H234.612L234.81 348.532H236.52L236.754 347.344C236.934 346.444 237.294 345.754 237.834 345.274C238.386 344.794 239.106 344.554 239.994 344.554C240.378 344.554 240.738 344.608 241.074 344.716C241.41 344.824 241.686 344.974 241.902 345.166L241.344 346.102C240.996 345.79 240.546 345.634 239.994 345.634ZM245.107 358.09C244.243 358.09 243.487 357.928 242.839 357.604C242.191 357.268 241.687 356.8 241.327 356.2C240.979 355.588 240.805 354.88 240.805 354.076C240.805 353.008 241.039 352.048 241.507 351.196C241.975 350.344 242.623 349.678 243.451 349.198C244.291 348.706 245.233 348.46 246.277 348.46C247.597 348.46 248.641 348.82 249.409 349.54C250.189 350.26 250.579 351.232 250.579 352.456C250.579 353.524 250.345 354.49 249.877 355.354C249.409 356.206 248.755 356.878 247.915 357.37C247.087 357.85 246.151 358.09 245.107 358.09ZM245.197 356.956C245.977 356.956 246.679 356.77 247.303 356.398C247.927 356.014 248.413 355.486 248.761 354.814C249.121 354.13 249.301 353.368 249.301 352.528C249.301 351.604 249.025 350.884 248.473 350.368C247.933 349.84 247.171 349.576 246.187 349.576C245.407 349.576 244.705 349.768 244.081 350.152C243.457 350.536 242.965 351.07 242.605 351.754C242.257 352.426 242.083 353.182 242.083 354.022C242.083 354.946 242.353 355.666 242.893 356.182C243.445 356.698 244.213 356.956 245.197 356.956ZM255.492 350.26C255.912 349.648 256.44 349.198 257.076 348.91C257.712 348.61 258.48 348.46 259.38 348.46L259.146 349.702L258.786 349.684C257.766 349.684 256.926 349.978 256.266 350.566C255.618 351.154 255.18 352.03 254.952 353.194L253.998 358H252.72L254.592 348.532H255.816L255.492 350.26ZM269.606 346.552L268.616 351.502H275.15L274.916 352.654H268.382L267.32 358H266.006L268.526 345.4H277.166L276.932 346.552H269.606ZM280.263 350.26C280.683 349.648 281.211 349.198 281.847 348.91C282.483 348.61 283.251 348.46 284.151 348.46L283.917 349.702L283.557 349.684C282.537 349.684 281.697 349.978 281.037 350.566C280.389 351.154 279.951 352.03 279.723 353.194L278.769 358H277.491L279.363 348.532H280.587L280.263 350.26ZM286.215 353.626C286.203 353.71 286.197 353.836 286.197 354.004C286.197 354.964 286.467 355.696 287.007 356.2C287.559 356.704 288.375 356.956 289.455 356.956C290.079 356.956 290.661 356.854 291.201 356.65C291.753 356.434 292.203 356.14 292.551 355.768L293.127 356.686C292.683 357.13 292.125 357.478 291.453 357.73C290.793 357.97 290.091 358.09 289.347 358.09C287.979 358.09 286.899 357.73 286.107 357.01C285.327 356.29 284.937 355.306 284.937 354.058C284.937 353.002 285.159 352.048 285.603 351.196C286.059 350.344 286.683 349.678 287.475 349.198C288.279 348.706 289.179 348.46 290.175 348.46C291.435 348.46 292.437 348.82 293.181 349.54C293.925 350.248 294.297 351.226 294.297 352.474C294.297 352.822 294.255 353.206 294.171 353.626H286.215ZM290.139 349.54C289.191 349.54 288.381 349.822 287.709 350.386C287.037 350.95 286.581 351.712 286.341 352.672H293.091C293.103 352.588 293.109 352.474 293.109 352.33C293.109 351.442 292.839 350.758 292.299 350.278C291.759 349.786 291.039 349.54 290.139 349.54ZM297.618 353.626C297.606 353.71 297.6 353.836 297.6 354.004C297.6 354.964 297.87 355.696 298.41 356.2C298.962 356.704 299.778 356.956 300.858 356.956C301.482 356.956 302.064 356.854 302.604 356.65C303.156 356.434 303.606 356.14 303.954 355.768L304.53 356.686C304.086 357.13 303.528 357.478 302.856 357.73C302.196 357.97 301.494 358.09 300.75 358.09C299.382 358.09 298.302 357.73 297.51 357.01C296.73 356.29 296.34 355.306 296.34 354.058C296.34 353.002 296.562 352.048 297.006 351.196C297.462 350.344 298.086 349.678 298.878 349.198C299.682 348.706 300.582 348.46 301.578 348.46C302.838 348.46 303.84 348.82 304.584 349.54C305.328 350.248 305.7 351.226 305.7 352.474C305.7 352.822 305.658 353.206 305.574 353.626H297.618ZM301.542 349.54C300.594 349.54 299.784 349.822 299.112 350.386C298.44 350.95 297.984 351.712 297.744 352.672H304.494C304.506 352.588 304.512 352.474 304.512 352.33C304.512 351.442 304.242 350.758 303.702 350.278C303.162 349.786 302.442 349.54 301.542 349.54ZM103.215 386.108C102.291 386.108 101.403 385.958 100.551 385.658C99.7111 385.358 99.0751 384.974 98.6431 384.506L99.2911 383.462C99.7111 383.918 100.293 384.284 101.037 384.56C101.781 384.836 102.549 384.974 103.341 384.974C104.457 384.974 105.351 384.758 106.023 384.326C106.707 383.882 107.049 383.27 107.049 382.49C107.049 382.07 106.923 381.728 106.671 381.464C106.419 381.2 106.101 380.99 105.717 380.834C105.333 380.666 104.811 380.486 104.151 380.294C103.371 380.066 102.735 379.85 102.243 379.646C101.763 379.43 101.349 379.118 101.001 378.71C100.665 378.29 100.497 377.75 100.497 377.09C100.497 376.31 100.707 375.638 101.127 375.074C101.559 374.498 102.153 374.06 102.909 373.76C103.677 373.448 104.553 373.292 105.537 373.292C106.293 373.292 107.013 373.388 107.697 373.58C108.381 373.76 108.963 374.024 109.443 374.372L108.885 375.452C108.429 375.116 107.907 374.864 107.319 374.696C106.731 374.516 106.113 374.426 105.465 374.426C104.361 374.426 103.473 374.654 102.801 375.11C102.129 375.566 101.793 376.184 101.793 376.964C101.793 377.396 101.925 377.75 102.189 378.026C102.453 378.302 102.777 378.524 103.161 378.692C103.557 378.848 104.085 379.022 104.745 379.214C105.525 379.442 106.155 379.664 106.635 379.88C107.115 380.084 107.523 380.384 107.859 380.78C108.195 381.164 108.363 381.674 108.363 382.31C108.363 383.102 108.141 383.786 107.697 384.362C107.265 384.926 106.659 385.358 105.879 385.658C105.111 385.958 104.223 386.108 103.215 386.108ZM117.385 376.46C118.453 376.46 119.281 376.736 119.869 377.288C120.469 377.828 120.769 378.578 120.769 379.538C120.769 379.874 120.733 380.234 120.661 380.618L119.581 386H118.303L119.383 380.6C119.443 380.264 119.473 379.976 119.473 379.736C119.473 379.052 119.263 378.53 118.843 378.17C118.435 377.798 117.829 377.612 117.025 377.612C116.005 377.612 115.165 377.894 114.505 378.458C113.845 379.01 113.401 379.832 113.173 380.924L112.165 386H110.887L113.551 372.644H114.829L113.767 377.954C114.643 376.958 115.849 376.46 117.385 376.46ZM125.481 376.532H126.759L124.887 386H123.609L125.481 376.532ZM126.669 374.462C126.417 374.462 126.207 374.378 126.039 374.21C125.883 374.042 125.805 373.844 125.805 373.616C125.805 373.34 125.895 373.112 126.075 372.932C126.267 372.74 126.507 372.644 126.795 372.644C127.047 372.644 127.257 372.728 127.425 372.896C127.593 373.052 127.677 373.238 127.677 373.454C127.677 373.742 127.581 373.982 127.389 374.174C127.197 374.366 126.957 374.462 126.669 374.462ZM135.463 376.46C136.267 376.46 136.981 376.622 137.605 376.946C138.241 377.27 138.733 377.732 139.081 378.332C139.429 378.932 139.603 379.64 139.603 380.456C139.603 381.524 139.369 382.49 138.901 383.354C138.445 384.206 137.809 384.878 136.993 385.37C136.177 385.85 135.259 386.09 134.239 386.09C133.339 386.09 132.583 385.916 131.971 385.568C131.359 385.208 130.915 384.692 130.639 384.02L129.559 389.492H128.281L130.855 376.532H132.079L131.773 378.044C132.229 377.528 132.769 377.138 133.393 376.874C134.017 376.598 134.707 376.46 135.463 376.46ZM134.221 384.956C135.001 384.956 135.697 384.77 136.309 384.398C136.933 384.014 137.419 383.486 137.767 382.814C138.127 382.142 138.307 381.38 138.307 380.528C138.307 379.604 138.031 378.884 137.479 378.368C136.939 377.84 136.177 377.576 135.193 377.576C134.413 377.576 133.711 377.768 133.087 378.152C132.475 378.524 131.989 379.052 131.629 379.736C131.281 380.408 131.107 381.17 131.107 382.022C131.107 382.946 131.377 383.666 131.917 384.182C132.469 384.698 133.237 384.956 134.221 384.956ZM148.202 376.46C149.006 376.46 149.72 376.622 150.344 376.946C150.98 377.27 151.472 377.732 151.82 378.332C152.168 378.932 152.342 379.64 152.342 380.456C152.342 381.524 152.108 382.49 151.64 383.354C151.184 384.206 150.548 384.878 149.732 385.37C148.916 385.85 147.998 386.09 146.978 386.09C146.078 386.09 145.322 385.916 144.71 385.568C144.098 385.208 143.654 384.692 143.378 384.02L142.298 389.492H141.02L143.594 376.532H144.818L144.512 378.044C144.968 377.528 145.508 377.138 146.132 376.874C146.756 376.598 147.446 376.46 148.202 376.46ZM146.96 384.956C147.74 384.956 148.436 384.77 149.048 384.398C149.672 384.014 150.158 383.486 150.506 382.814C150.866 382.142 151.046 381.38 151.046 380.528C151.046 379.604 150.77 378.884 150.218 378.368C149.678 377.84 148.916 377.576 147.932 377.576C147.152 377.576 146.45 377.768 145.826 378.152C145.214 378.524 144.728 379.052 144.368 379.736C144.02 380.408 143.846 381.17 143.846 382.022C143.846 382.946 144.116 383.666 144.656 384.182C145.208 384.698 145.976 384.956 146.96 384.956ZM156.333 376.532H157.611L155.739 386H154.461L156.333 376.532ZM157.521 374.462C157.269 374.462 157.059 374.378 156.891 374.21C156.735 374.042 156.657 373.844 156.657 373.616C156.657 373.34 156.747 373.112 156.927 372.932C157.119 372.74 157.359 372.644 157.647 372.644C157.899 372.644 158.109 372.728 158.277 372.896C158.445 373.052 158.529 373.238 158.529 373.454C158.529 373.742 158.433 373.982 158.241 374.174C158.049 374.366 157.809 374.462 157.521 374.462ZM166.333 376.46C167.401 376.46 168.229 376.736 168.817 377.288C169.417 377.828 169.717 378.578 169.717 379.538C169.717 379.874 169.681 380.234 169.609 380.618L168.529 386H167.251L168.331 380.6C168.391 380.264 168.421 379.976 168.421 379.736C168.421 379.052 168.211 378.53 167.791 378.17C167.383 377.798 166.777 377.612 165.973 377.612C164.953 377.612 164.113 377.894 163.453 378.458C162.793 379.01 162.349 379.832 162.121 380.924L161.113 386H159.835L161.707 376.532H162.931L162.625 378.044C163.525 376.988 164.761 376.46 166.333 376.46ZM183.248 376.532L181.592 384.848C181.268 386.504 180.656 387.704 179.756 388.448C178.868 389.204 177.644 389.582 176.084 389.582C175.196 389.582 174.392 389.456 173.672 389.204C172.964 388.964 172.364 388.616 171.872 388.16L172.628 387.188C173.012 387.584 173.51 387.89 174.122 388.106C174.746 388.334 175.43 388.448 176.174 388.448C177.362 388.448 178.286 388.172 178.946 387.62C179.606 387.068 180.05 386.216 180.278 385.064L180.494 384.02C180.038 384.536 179.486 384.938 178.838 385.226C178.202 385.502 177.494 385.64 176.714 385.64C175.454 385.64 174.44 385.298 173.672 384.614C172.916 383.93 172.538 383 172.538 381.824C172.538 380.816 172.766 379.904 173.222 379.088C173.69 378.272 174.332 377.63 175.148 377.162C175.976 376.694 176.906 376.46 177.938 376.46C178.838 376.46 179.612 376.646 180.26 377.018C180.908 377.378 181.364 377.912 181.628 378.62L182.024 376.532H183.248ZM176.966 384.506C177.746 384.506 178.448 384.326 179.072 383.966C179.708 383.606 180.2 383.108 180.548 382.472C180.908 381.836 181.088 381.122 181.088 380.33C181.088 379.466 180.812 378.794 180.26 378.314C179.708 377.822 178.94 377.576 177.956 377.576C177.164 377.576 176.456 377.756 175.832 378.116C175.208 378.476 174.716 378.974 174.356 379.61C174.008 380.246 173.834 380.96 173.834 381.752C173.834 382.616 174.11 383.294 174.662 383.786C175.214 384.266 175.982 384.506 176.966 384.506ZM192.595 376.532H193.873L192.001 386H190.723L192.595 376.532ZM193.783 374.462C193.531 374.462 193.321 374.378 193.153 374.21C192.997 374.042 192.919 373.844 192.919 373.616C192.919 373.34 193.009 373.112 193.189 372.932C193.381 372.74 193.621 372.644 193.909 372.644C194.161 372.644 194.371 372.728 194.539 372.896C194.707 373.052 194.791 373.238 194.791 373.454C194.791 373.742 194.695 373.982 194.503 374.174C194.311 374.366 194.071 374.462 193.783 374.462ZM202.595 376.46C203.663 376.46 204.491 376.736 205.079 377.288C205.679 377.828 205.979 378.578 205.979 379.538C205.979 379.874 205.943 380.234 205.871 380.618L204.791 386H203.513L204.593 380.6C204.653 380.264 204.683 379.976 204.683 379.736C204.683 379.052 204.473 378.53 204.053 378.17C203.645 377.798 203.039 377.612 202.235 377.612C201.215 377.612 200.375 377.894 199.715 378.458C199.055 379.01 198.611 379.832 198.383 380.924L197.375 386H196.097L197.969 376.532H199.193L198.887 378.044C199.787 376.988 201.023 376.46 202.595 376.46ZM216.122 383.138C216.074 383.426 216.05 383.624 216.05 383.732C216.05 384.572 216.506 384.992 217.418 384.992C217.958 384.992 218.444 384.83 218.876 384.506L219.182 385.478C218.642 385.886 217.94 386.09 217.076 386.09C216.368 386.09 215.804 385.898 215.384 385.514C214.976 385.13 214.772 384.602 214.772 383.93C214.772 383.666 214.796 383.42 214.844 383.192L215.942 377.612H214.268L214.466 376.532H216.158L216.572 374.462H217.85L217.436 376.532H220.316L220.1 377.612H217.22L216.122 383.138ZM228.42 376.46C229.488 376.46 230.316 376.736 230.904 377.288C231.504 377.828 231.804 378.578 231.804 379.538C231.804 379.874 231.768 380.234 231.696 380.618L230.616 386H229.338L230.418 380.6C230.478 380.264 230.508 379.976 230.508 379.736C230.508 379.052 230.298 378.53 229.878 378.17C229.47 377.798 228.864 377.612 228.06 377.612C227.04 377.612 226.2 377.894 225.54 378.458C224.88 379.01 224.436 379.832 224.208 380.924L223.2 386H221.922L224.586 372.644H225.864L224.802 377.954C225.678 376.958 226.884 376.46 228.42 376.46ZM235.867 381.626C235.855 381.71 235.849 381.836 235.849 382.004C235.849 382.964 236.119 383.696 236.659 384.2C237.211 384.704 238.027 384.956 239.107 384.956C239.731 384.956 240.313 384.854 240.853 384.65C241.405 384.434 241.855 384.14 242.203 383.768L242.779 384.686C242.335 385.13 241.777 385.478 241.105 385.73C240.445 385.97 239.743 386.09 238.999 386.09C237.631 386.09 236.551 385.73 235.759 385.01C234.979 384.29 234.589 383.306 234.589 382.058C234.589 381.002 234.811 380.048 235.255 379.196C235.711 378.344 236.335 377.678 237.127 377.198C237.931 376.706 238.831 376.46 239.827 376.46C241.087 376.46 242.089 376.82 242.833 377.54C243.577 378.248 243.949 379.226 243.949 380.474C243.949 380.822 243.907 381.206 243.823 381.626H235.867ZM239.791 377.54C238.843 377.54 238.033 377.822 237.361 378.386C236.689 378.95 236.233 379.712 235.993 380.672H242.743C242.755 380.588 242.761 380.474 242.761 380.33C242.761 379.442 242.491 378.758 241.951 378.278C241.411 377.786 240.691 377.54 239.791 377.54ZM256.985 386.108C255.545 386.108 254.423 385.748 253.619 385.028C252.827 384.308 252.431 383.306 252.431 382.022C252.431 381.53 252.479 381.062 252.575 380.618L254.015 373.4H255.329L253.889 380.582C253.793 381.086 253.745 381.512 253.745 381.86C253.745 382.868 254.033 383.63 254.609 384.146C255.185 384.662 256.013 384.92 257.093 384.92C258.329 384.92 259.313 384.572 260.045 383.876C260.789 383.168 261.311 382.07 261.611 380.582L263.051 373.4H264.347L262.907 380.672C262.175 384.296 260.201 386.108 256.985 386.108ZM270.071 386.108C269.147 386.108 268.259 385.958 267.407 385.658C266.567 385.358 265.931 384.974 265.499 384.506L266.147 383.462C266.567 383.918 267.149 384.284 267.893 384.56C268.637 384.836 269.405 384.974 270.197 384.974C271.313 384.974 272.207 384.758 272.879 384.326C273.563 383.882 273.905 383.27 273.905 382.49C273.905 382.07 273.779 381.728 273.527 381.464C273.275 381.2 272.957 380.99 272.573 380.834C272.189 380.666 271.667 380.486 271.007 380.294C270.227 380.066 269.591 379.85 269.099 379.646C268.619 379.43 268.205 379.118 267.857 378.71C267.521 378.29 267.353 377.75 267.353 377.09C267.353 376.31 267.563 375.638 267.983 375.074C268.415 374.498 269.009 374.06 269.765 373.76C270.533 373.448 271.409 373.292 272.393 373.292C273.149 373.292 273.869 373.388 274.553 373.58C275.237 373.76 275.819 374.024 276.299 374.372L275.741 375.452C275.285 375.116 274.763 374.864 274.175 374.696C273.587 374.516 272.969 374.426 272.321 374.426C271.217 374.426 270.329 374.654 269.657 375.11C268.985 375.566 268.649 376.184 268.649 376.964C268.649 377.396 268.781 377.75 269.045 378.026C269.309 378.302 269.633 378.524 270.017 378.692C270.413 378.848 270.941 379.022 271.601 379.214C272.381 379.442 273.011 379.664 273.491 379.88C273.971 380.084 274.379 380.384 274.715 380.78C275.051 381.164 275.219 381.674 275.219 382.31C275.219 383.102 274.997 383.786 274.553 384.362C274.121 384.926 273.515 385.358 272.735 385.658C271.967 385.958 271.079 386.108 270.071 386.108ZM280.047 373.4H281.559L279.543 382.22H278.553L280.047 373.4ZM278.427 386.09C278.175 386.09 277.959 386.006 277.779 385.838C277.599 385.658 277.509 385.448 277.509 385.208C277.509 384.932 277.599 384.704 277.779 384.524C277.971 384.332 278.205 384.236 278.481 384.236C278.745 384.236 278.961 384.32 279.129 384.488C279.309 384.656 279.399 384.86 279.399 385.1C279.399 385.376 279.303 385.61 279.111 385.802C278.931 385.994 278.703 386.09 278.427 386.09Z" fill="#5A0090"/>
</svg>
