<svg width="20" height="18" viewBox="0 0 20 18" fill="none" xmlns="http://www.w3.org/2000/svg">
<path fill-rule="evenodd" clip-rule="evenodd" d="M15.8555 2.09924L17.3374 0.607117C20.8921 4.31454 20.883 9.86195 17.3374 13.4229L15.8555 11.9308C18.3738 9.01977 18.3738 4.86379 15.8555 2.09924ZM10.9097 7.0151C10.9097 9.03738 9.28154 10.6768 7.27313 10.6768C5.26473 10.6768 3.6366 9.03738 3.6366 7.0151C3.6366 4.99283 5.26473 3.35345 7.27313 3.35345C9.28154 3.35345 10.9097 4.99283 10.9097 7.0151ZM0 16.1692C0 13.7342 4.84572 12.5075 7.27313 12.5075C9.70054 12.5075 14.5463 13.7342 14.5463 16.1692V18H0V16.1692ZM12.8008 5.23006C13.5644 6.31025 13.5644 7.71083 12.8008 8.79102L14.3281 10.3381C16.1646 8.48893 16.1646 5.69692 14.3281 3.68301L12.8008 5.23006Z" fill="white"/>
</svg>
