<svg width="350" height="350" viewBox="0 0 350 350" fill="none" xmlns="http://www.w3.org/2000/svg">
<rect width="350" height="350" rx="10" fill="#F3F3F3"/>
<path d="M42.78 53L42.757 36.9H40.296L34.017 47.572L27.623 36.9H25.162V53H28.014V42.466L33.304 51.16H34.638L39.928 42.328L39.951 53H42.78ZM56.5128 40.718L52.6258 49.803L48.7618 40.718H45.7718L51.1308 53.046L50.9238 53.529C50.3718 54.748 49.7738 55.231 48.7618 55.231C47.9798 55.231 47.1978 54.909 46.6458 54.38L45.4958 56.496C46.2778 57.209 47.5658 57.623 48.7848 57.623C50.8318 57.623 52.3958 56.772 53.5228 53.989L59.2728 40.718H56.5128ZM73.0611 53.161C76.5111 53.161 78.6271 51.666 78.6271 49.366C78.6271 44.559 71.0371 46.767 71.0371 44.283C71.0371 43.478 71.8651 42.903 73.6131 42.903C74.7861 42.903 75.9591 43.133 77.1321 43.823L78.2361 41.638C77.1321 40.971 75.2691 40.58 73.6361 40.58C70.3241 40.58 68.2311 42.098 68.2311 44.421C68.2311 49.32 75.8211 47.112 75.8211 49.458C75.8211 50.309 75.0621 50.815 73.2451 50.815C71.7041 50.815 70.0481 50.309 68.9671 49.596L67.8631 51.781C68.9671 52.563 71.0141 53.161 73.0611 53.161ZM87.543 53.161C91.361 53.161 94.098 50.539 94.098 46.859C94.098 43.179 91.361 40.58 87.543 40.58C83.771 40.58 81.011 43.179 81.011 46.859C81.011 50.539 83.771 53.161 87.543 53.161ZM87.543 50.7C85.473 50.7 83.909 49.205 83.909 46.859C83.909 44.513 85.473 43.018 87.543 43.018C89.636 43.018 91.2 44.513 91.2 46.859C91.2 49.205 89.636 50.7 87.543 50.7ZM104.736 40.58C102.942 40.58 101.447 41.178 100.504 42.305V40.718H97.7672V53H100.642V46.79C100.642 44.329 102.022 43.087 104.069 43.087C105.909 43.087 106.99 44.145 106.99 46.33V53H109.865V45.962C109.865 42.259 107.68 40.58 104.736 40.58ZM126.401 40.58C124.423 40.58 122.514 41.086 121.203 42.098L122.33 44.191C123.25 43.432 124.676 42.972 126.056 42.972C128.103 42.972 129.115 43.961 129.115 45.64V45.824H125.941C122.215 45.824 120.835 47.434 120.835 49.481C120.835 51.62 122.606 53.161 125.412 53.161C127.252 53.161 128.586 52.563 129.276 51.505V53H131.99V45.801C131.99 42.259 129.943 40.58 126.401 40.58ZM126.01 51.068C124.538 51.068 123.664 50.401 123.664 49.366C123.664 48.469 124.193 47.733 126.148 47.733H129.115V49.159C128.632 50.424 127.413 51.068 126.01 51.068ZM143.178 50.286C142.741 50.631 142.166 50.792 141.568 50.792C140.464 50.792 139.866 50.148 139.866 48.952V43.11H143.155V40.81H139.866V38.004H136.991V40.81H134.967V43.11H136.991V49.021C136.991 51.735 138.532 53.161 141.223 53.161C142.258 53.161 143.293 52.885 143.983 52.333L143.178 50.286ZM158.409 46.928C158.409 43.087 155.787 40.58 152.199 40.58C148.542 40.58 145.851 43.202 145.851 46.859C145.851 50.516 148.519 53.161 152.636 53.161C154.752 53.161 156.477 52.471 157.581 51.16L156.04 49.389C155.166 50.286 154.085 50.723 152.705 50.723C150.566 50.723 149.071 49.573 148.726 47.779H158.363C158.386 47.503 158.409 47.158 158.409 46.928ZM152.199 42.88C154.085 42.88 155.442 44.099 155.672 45.87H148.703C148.979 44.076 150.336 42.88 152.199 42.88ZM175.945 50.286C175.508 50.631 174.933 50.792 174.335 50.792C173.231 50.792 172.633 50.148 172.633 48.952V43.11H175.922V40.81H172.633V38.004H169.758V40.81H167.734V43.11H169.758V49.021C169.758 51.735 171.299 53.161 173.99 53.161C175.025 53.161 176.06 52.885 176.75 52.333L175.945 50.286ZM196.417 40.718L193.082 49.826L189.77 40.718H187.355L183.974 49.78L180.731 40.718H178.017L182.525 53H185.285L188.505 44.536L191.679 53H194.439L198.97 40.718H196.417ZM207.05 53.161C210.868 53.161 213.605 50.539 213.605 46.859C213.605 43.179 210.868 40.58 207.05 40.58C203.278 40.58 200.518 43.179 200.518 46.859C200.518 50.539 203.278 53.161 207.05 53.161ZM207.05 50.7C204.98 50.7 203.416 49.205 203.416 46.859C203.416 44.513 204.98 43.018 207.05 43.018C209.143 43.018 210.707 44.513 210.707 46.859C210.707 49.205 209.143 50.7 207.05 50.7ZM230.07 53.161C233.888 53.161 236.625 50.539 236.625 46.859C236.625 43.179 233.888 40.58 230.07 40.58C226.298 40.58 223.538 43.179 223.538 46.859C223.538 50.539 226.298 53.161 230.07 53.161ZM230.07 50.7C228 50.7 226.436 49.205 226.436 46.859C226.436 44.513 228 43.018 230.07 43.018C232.163 43.018 233.727 44.513 233.727 46.859C233.727 49.205 232.163 50.7 230.07 50.7ZM245.285 38.096C245.883 38.096 246.435 38.303 246.872 38.602L247.677 36.44C247.033 35.98 246.067 35.773 245.078 35.773C242.226 35.773 240.685 37.452 240.685 40.028V40.81H238.661V43.11H240.685V53H243.56V43.11H246.849V40.81H243.468V40.074C243.468 38.763 244.089 38.096 245.285 38.096ZM263.559 50.286C263.122 50.631 262.547 50.792 261.949 50.792C260.845 50.792 260.247 50.148 260.247 48.952V43.11H263.536V40.81H260.247V38.004H257.372V40.81H255.348V43.11H257.372V49.021C257.372 51.735 258.913 53.161 261.604 53.161C262.639 53.161 263.674 52.885 264.364 52.333L263.559 50.286ZM274.618 40.58C272.916 40.58 271.467 41.132 270.524 42.144V35.934H267.649V53H270.524V46.79C270.524 44.329 271.904 43.087 273.951 43.087C275.791 43.087 276.872 44.145 276.872 46.33V53H279.747V45.962C279.747 42.259 277.562 40.58 274.618 40.58ZM295.973 46.928C295.973 43.087 293.351 40.58 289.763 40.58C286.106 40.58 283.415 43.202 283.415 46.859C283.415 50.516 286.083 53.161 290.2 53.161C292.316 53.161 294.041 52.471 295.145 51.16L293.604 49.389C292.73 50.286 291.649 50.723 290.269 50.723C288.13 50.723 286.635 49.573 286.29 47.779H295.927C295.95 47.503 295.973 47.158 295.973 46.928ZM289.763 42.88C291.649 42.88 293.006 44.099 293.236 45.87H286.267C286.543 44.076 287.9 42.88 289.763 42.88ZM303.449 53.161C306.899 53.161 309.015 51.666 309.015 49.366C309.015 44.559 301.425 46.767 301.425 44.283C301.425 43.478 302.253 42.903 304.001 42.903C305.174 42.903 306.347 43.133 307.52 43.823L308.624 41.638C307.52 40.971 305.657 40.58 304.024 40.58C300.712 40.58 298.619 42.098 298.619 44.421C298.619 49.32 306.209 47.112 306.209 49.458C306.209 50.309 305.45 50.815 303.633 50.815C302.092 50.815 300.436 50.309 299.355 49.596L298.251 51.781C299.355 52.563 301.402 53.161 303.449 53.161ZM323.957 46.928C323.957 43.087 321.335 40.58 317.747 40.58C314.09 40.58 311.399 43.202 311.399 46.859C311.399 50.516 314.067 53.161 318.184 53.161C320.3 53.161 322.025 52.471 323.129 51.16L321.588 49.389C320.714 50.286 319.633 50.723 318.253 50.723C316.114 50.723 314.619 49.573 314.274 47.779H323.911C323.934 47.503 323.957 47.158 323.957 46.928ZM317.747 42.88C319.633 42.88 320.99 44.099 321.22 45.87H314.251C314.527 44.076 315.884 42.88 317.747 42.88ZM31.694 72.58C30.015 72.58 28.589 73.155 27.623 74.328V72.718H24.886V89.462H27.761V83.505C28.75 84.632 30.13 85.161 31.694 85.161C35.282 85.161 37.927 82.677 37.927 78.859C37.927 75.064 35.282 72.58 31.694 72.58ZM31.372 82.7C29.302 82.7 27.715 81.205 27.715 78.859C27.715 76.513 29.302 75.018 31.372 75.018C33.442 75.018 35.006 76.513 35.006 78.859C35.006 81.205 33.442 82.7 31.372 82.7ZM43.0226 70.694C44.1036 70.694 44.8626 69.912 44.8626 68.9C44.8626 67.957 44.0806 67.244 43.0226 67.244C41.9646 67.244 41.1826 68.003 41.1826 68.969C41.1826 69.935 41.9646 70.694 43.0226 70.694ZM41.5736 85H44.4486V72.718H41.5736V85ZM49.142 85H52.017V67.934H49.142V85ZM56.7105 85H59.5855V67.934H56.7105V85ZM69.7989 85.161C73.6169 85.161 76.3539 82.539 76.3539 78.859C76.3539 75.179 73.6169 72.58 69.7989 72.58C66.0269 72.58 63.2669 75.179 63.2669 78.859C63.2669 82.539 66.0269 85.161 69.7989 85.161ZM69.7989 82.7C67.7289 82.7 66.1649 81.205 66.1649 78.859C66.1649 76.513 67.7289 75.018 69.7989 75.018C71.8919 75.018 73.4559 76.513 73.4559 78.859C73.4559 81.205 71.8919 82.7 69.7989 82.7ZM96.2922 72.718L92.9572 81.826L89.6452 72.718H87.2302L83.8492 81.78L80.6062 72.718H77.8922L82.4002 85H85.1602L88.3802 76.536L91.5542 85H94.3142L98.8452 72.718H96.2922ZM105.38 85.161C108.83 85.161 110.946 83.666 110.946 81.366C110.946 76.559 103.356 78.767 103.356 76.283C103.356 75.478 104.184 74.903 105.932 74.903C107.105 74.903 108.278 75.133 109.451 75.823L110.555 73.638C109.451 72.971 107.588 72.58 105.955 72.58C102.643 72.58 100.55 74.098 100.55 76.421C100.55 81.32 108.14 79.112 108.14 81.458C108.14 82.309 107.381 82.815 105.564 82.815C104.023 82.815 102.367 82.309 101.286 81.596L100.182 83.781C101.286 84.563 103.333 85.161 105.38 85.161Z" fill="#5A0090"/>
<path d="M27 169H28.184V158.824H32.12V157.8H23.064V158.824H27V169ZM38.6995 160.52C37.2755 160.52 36.1715 161.08 35.5475 162.056V157.128H34.4115V169H35.5475V164.584C35.5475 162.664 36.6835 161.544 38.4915 161.544C40.0915 161.544 41.0195 162.456 41.0195 164.232V169H42.1555V164.12C42.1555 161.704 40.7475 160.52 38.6995 160.52ZM53.2549 164.792C53.2549 162.264 51.5429 160.52 49.1749 160.52C46.8069 160.52 45.0629 162.296 45.0629 164.792C45.0629 167.288 46.8549 169.08 49.4789 169.08C50.8069 169.08 51.9749 168.6 52.7269 167.704L52.0869 166.968C51.4469 167.704 50.5349 168.072 49.5109 168.072C47.6709 168.072 46.3269 166.904 46.1989 165.144H53.2389C53.2389 165.016 53.2549 164.888 53.2549 164.792ZM49.1749 161.496C50.8229 161.496 52.0229 162.648 52.1669 164.296H46.1989C46.3429 162.648 47.5429 161.496 49.1749 161.496ZM58.4631 169.08C60.6551 169.08 61.9351 168.136 61.9351 166.68C61.9351 163.448 56.4791 165.16 56.4791 162.888C56.4791 162.088 57.1511 161.496 58.6711 161.496C59.5351 161.496 60.4151 161.704 61.1511 162.216L61.6471 161.304C60.9431 160.824 59.7591 160.52 58.6711 160.52C56.5271 160.52 55.3431 161.544 55.3431 162.92C55.3431 166.248 60.7991 164.52 60.7991 166.712C60.7991 167.544 60.1431 168.088 58.5431 168.088C57.3591 168.088 56.2231 167.672 55.5511 167.144L55.0391 168.04C55.7271 168.632 57.0711 169.08 58.4631 169.08ZM72.0193 164.792C72.0193 162.264 70.3073 160.52 67.9393 160.52C65.5713 160.52 63.8273 162.296 63.8273 164.792C63.8273 167.288 65.6193 169.08 68.2433 169.08C69.5713 169.08 70.7393 168.6 71.4913 167.704L70.8513 166.968C70.2113 167.704 69.2993 168.072 68.2753 168.072C66.4353 168.072 65.0913 166.904 64.9633 165.144H72.0033C72.0033 165.016 72.0193 164.888 72.0193 164.792ZM67.9393 161.496C69.5873 161.496 70.7873 162.648 70.9313 164.296H64.9633C65.1073 162.648 66.3073 161.496 67.9393 161.496ZM84.135 160.52C82.743 160.52 81.575 161.128 80.887 162.248V160.584H79.799V172.104H80.935V167.416C81.639 168.504 82.791 169.08 84.135 169.08C86.535 169.08 88.327 167.352 88.327 164.792C88.327 162.248 86.535 160.52 84.135 160.52ZM84.055 168.072C82.263 168.072 80.919 166.76 80.919 164.792C80.919 162.84 82.263 161.512 84.055 161.512C85.831 161.512 87.191 162.84 87.191 164.792C87.191 166.76 85.831 168.072 84.055 168.072ZM91.8588 158.744C92.3388 158.744 92.6908 158.376 92.6908 157.912C92.6908 157.48 92.3228 157.128 91.8588 157.128C91.3948 157.128 91.0268 157.496 91.0268 157.928C91.0268 158.376 91.3948 158.744 91.8588 158.744ZM91.2828 169H92.4188V160.584H91.2828V169ZM96.2196 169H97.3556V157.128H96.2196V169ZM101.157 169H102.293V157.128H101.157V169ZM109.533 169.08C111.997 169.08 113.805 167.288 113.805 164.792C113.805 162.296 111.997 160.52 109.533 160.52C107.069 160.52 105.245 162.296 105.245 164.792C105.245 167.288 107.069 169.08 109.533 169.08ZM109.533 168.072C107.741 168.072 106.397 166.76 106.397 164.792C106.397 162.824 107.741 161.512 109.533 161.512C111.325 161.512 112.653 162.824 112.653 164.792C112.653 166.76 111.325 168.072 109.533 168.072ZM127.842 160.584L125.17 167.736L122.482 160.584H121.506L118.802 167.736L116.162 160.584H115.074L118.242 169H119.314L121.97 162.104L124.626 169H125.698L128.882 160.584H127.842ZM133.395 169.08C135.587 169.08 136.867 168.136 136.867 166.68C136.867 163.448 131.411 165.16 131.411 162.888C131.411 162.088 132.083 161.496 133.603 161.496C134.467 161.496 135.347 161.704 136.083 162.216L136.579 161.304C135.875 160.824 134.691 160.52 133.603 160.52C131.459 160.52 130.275 161.544 130.275 162.92C130.275 166.248 135.731 164.52 135.731 166.712C135.731 167.544 135.075 168.088 133.475 168.088C132.291 168.088 131.155 167.672 130.483 167.144L129.971 168.04C130.659 168.632 132.003 169.08 133.395 169.08ZM144.435 169H145.571V157.128H144.435V169ZM152.811 169.08C155.275 169.08 157.083 167.288 157.083 164.792C157.083 162.296 155.275 160.52 152.811 160.52C150.347 160.52 148.523 162.296 148.523 164.792C148.523 167.288 150.347 169.08 152.811 169.08ZM152.811 168.072C151.019 168.072 149.675 166.76 149.675 164.792C149.675 162.824 151.019 161.512 152.811 161.512C154.603 161.512 155.931 162.824 155.931 164.792C155.931 166.76 154.603 168.072 152.811 168.072ZM163.483 169.08C165.947 169.08 167.755 167.288 167.755 164.792C167.755 162.296 165.947 160.52 163.483 160.52C161.019 160.52 159.195 162.296 159.195 164.792C159.195 167.288 161.019 169.08 163.483 169.08ZM163.483 168.072C161.691 168.072 160.347 166.76 160.347 164.792C160.347 162.824 161.691 161.512 163.483 161.512C165.275 161.512 166.603 162.824 166.603 164.792C166.603 166.76 165.275 168.072 163.483 168.072ZM177.226 169H178.618L174.682 164.024L178.282 160.584H176.874L171.85 165.176V157.128H170.714V169H171.85V166.6L173.834 164.776L177.226 169ZM188.735 160.52C187.407 160.52 186.159 160.936 185.311 161.656L185.823 162.504C186.511 161.896 187.535 161.512 188.623 161.512C190.191 161.512 191.007 162.296 191.007 163.736V164.248H188.335C185.919 164.248 185.087 165.336 185.087 166.632C185.087 168.088 186.255 169.08 188.159 169.08C189.551 169.08 190.543 168.552 191.055 167.688V169H192.143V163.784C192.143 161.608 190.911 160.52 188.735 160.52ZM188.335 168.184C186.991 168.184 186.207 167.576 186.207 166.6C186.207 165.736 186.735 165.096 188.367 165.096H191.007V166.472C190.559 167.576 189.615 168.184 188.335 168.184ZM200.156 160.52C198.7 160.52 197.564 161.112 196.956 162.136V160.584H195.868V169H197.004V164.584C197.004 162.664 198.14 161.544 199.948 161.544C201.548 161.544 202.476 162.456 202.476 164.232V169H203.612V164.12C203.612 161.704 202.204 160.52 200.156 160.52ZM213.912 157.128V162.184C213.208 161.096 212.056 160.52 210.712 160.52C208.312 160.52 206.52 162.248 206.52 164.792C206.52 167.336 208.312 169.08 210.712 169.08C212.104 169.08 213.272 168.472 213.96 167.336V169H215.048V157.128H213.912ZM210.808 168.072C209.016 168.072 207.672 166.76 207.672 164.792C207.672 162.824 209.016 161.512 210.808 161.512C212.584 161.512 213.928 162.824 213.928 164.792C213.928 166.76 212.584 168.072 210.808 168.072ZM226.463 158.008C226.943 158.008 227.391 158.152 227.711 158.424L228.095 157.576C227.679 157.224 227.039 157.048 226.415 157.048C224.767 157.048 223.871 158.04 223.871 159.544V160.584H222.367V161.544H223.871V169H225.007V161.544H227.567V160.584H224.975V159.592C224.975 158.552 225.487 158.008 226.463 158.008ZM236.944 164.792C236.944 162.264 235.232 160.52 232.864 160.52C230.496 160.52 228.752 162.296 228.752 164.792C228.752 167.288 230.544 169.08 233.168 169.08C234.496 169.08 235.664 168.6 236.416 167.704L235.776 166.968C235.136 167.704 234.224 168.072 233.2 168.072C231.36 168.072 230.016 166.904 229.888 165.144H236.928C236.928 165.016 236.944 164.888 236.944 164.792ZM232.864 161.496C234.512 161.496 235.712 162.648 235.856 164.296H229.888C230.032 162.648 231.232 161.496 232.864 161.496ZM247.241 164.792C247.241 162.264 245.529 160.52 243.161 160.52C240.793 160.52 239.049 162.296 239.049 164.792C239.049 167.288 240.841 169.08 243.465 169.08C244.793 169.08 245.961 168.6 246.713 167.704L246.073 166.968C245.433 167.704 244.521 168.072 243.497 168.072C241.657 168.072 240.312 166.904 240.185 165.144H247.225C247.225 165.016 247.241 164.888 247.241 164.792ZM243.161 161.496C244.809 161.496 246.009 162.648 246.153 164.296H240.185C240.329 162.648 241.529 161.496 243.161 161.496ZM250.193 169H251.329V157.128H250.193V169ZM259.957 169H261.093V157.128H259.957V169ZM265.47 158.744C265.95 158.744 266.302 158.376 266.302 157.912C266.302 157.48 265.934 157.128 265.47 157.128C265.006 157.128 264.638 157.496 264.638 157.928C264.638 158.376 265.006 158.744 265.47 158.744ZM264.894 169H266.03V160.584H264.894V169ZM276.343 169H277.735L273.799 164.024L277.399 160.584H275.991L270.967 165.176V157.128H269.831V169H270.967V166.6L272.951 164.776L276.343 169ZM287.08 164.792C287.08 162.264 285.368 160.52 283 160.52C280.632 160.52 278.888 162.296 278.888 164.792C278.888 167.288 280.68 169.08 283.304 169.08C284.632 169.08 285.8 168.6 286.552 167.704L285.912 166.968C285.272 167.704 284.36 168.072 283.336 168.072C281.496 168.072 280.152 166.904 280.024 165.144H287.064C287.064 165.016 287.08 164.888 287.08 164.792ZM283 161.496C284.648 161.496 285.848 162.648 285.992 164.296H280.024C280.168 162.648 281.368 161.496 283 161.496ZM35.08 184.52C33.56 184.52 32.36 185.208 31.752 186.296C31.24 185.112 30.152 184.52 28.76 184.52C27.352 184.52 26.264 185.112 25.672 186.12V184.584H24.584V193H25.72V188.584C25.72 186.664 26.824 185.544 28.536 185.544C30.072 185.544 30.968 186.456 30.968 188.232V193H32.104V188.584C32.104 186.664 33.192 185.544 34.92 185.544C36.44 185.544 37.336 186.456 37.336 188.232V193H38.472V188.12C38.472 185.704 37.128 184.52 35.08 184.52ZM45.1367 184.52C43.8087 184.52 42.5607 184.936 41.7127 185.656L42.2247 186.504C42.9127 185.896 43.9367 185.512 45.0247 185.512C46.5927 185.512 47.4087 186.296 47.4087 187.736V188.248H44.7367C42.3207 188.248 41.4887 189.336 41.4887 190.632C41.4887 192.088 42.6567 193.08 44.5607 193.08C45.9527 193.08 46.9447 192.552 47.4567 191.688V193H48.5447V187.784C48.5447 185.608 47.3127 184.52 45.1367 184.52ZM44.7367 192.184C43.3927 192.184 42.6087 191.576 42.6087 190.6C42.6087 189.736 43.1367 189.096 44.7687 189.096H47.4087V190.472C46.9607 191.576 46.0167 192.184 44.7367 192.184ZM53.3583 186.232V184.584H52.2703V193H53.4063V188.712C53.4063 186.728 54.4783 185.608 56.2383 185.608C56.3183 185.608 56.4143 185.624 56.5103 185.624V184.52C54.9583 184.52 53.8863 185.112 53.3583 186.232ZM61.5256 193.08C63.7176 193.08 64.9976 192.136 64.9976 190.68C64.9976 187.448 59.5416 189.16 59.5416 186.888C59.5416 186.088 60.2136 185.496 61.7336 185.496C62.5976 185.496 63.4776 185.704 64.2136 186.216L64.7096 185.304C64.0056 184.824 62.8216 184.52 61.7336 184.52C59.5896 184.52 58.4056 185.544 58.4056 186.92C58.4056 190.248 63.8616 188.52 63.8616 190.712C63.8616 191.544 63.2056 192.088 61.6056 192.088C60.4216 192.088 59.2856 191.672 58.6136 191.144L58.1016 192.04C58.7896 192.632 60.1336 193.08 61.5256 193.08ZM72.0258 184.52C70.6018 184.52 69.4978 185.08 68.8738 186.056V181.128H67.7378V193H68.8738V188.584C68.8738 186.664 70.0098 185.544 71.8178 185.544C73.4178 185.544 74.3458 186.456 74.3458 188.232V193H75.4818V188.12C75.4818 185.704 74.0738 184.52 72.0258 184.52ZM89.7019 184.52C88.1819 184.52 86.9819 185.208 86.3739 186.296C85.8619 185.112 84.7739 184.52 83.3819 184.52C81.9739 184.52 80.8859 185.112 80.2939 186.12V184.584H79.2059V193H80.3419V188.584C80.3419 186.664 81.4459 185.544 83.1579 185.544C84.6939 185.544 85.5899 186.456 85.5899 188.232V193H86.7259V188.584C86.7259 186.664 87.8139 185.544 89.5419 185.544C91.0619 185.544 91.9579 186.456 91.9579 188.232V193H93.0939V188.12C93.0939 185.704 91.7499 184.52 89.7019 184.52ZM99.7586 184.52C98.4306 184.52 97.1826 184.936 96.3346 185.656L96.8466 186.504C97.5346 185.896 98.5586 185.512 99.6466 185.512C101.215 185.512 102.031 186.296 102.031 187.736V188.248H99.3586C96.9426 188.248 96.1106 189.336 96.1106 190.632C96.1106 192.088 97.2786 193.08 99.1826 193.08C100.575 193.08 101.567 192.552 102.079 191.688V193H103.167V187.784C103.167 185.608 101.935 184.52 99.7586 184.52ZM99.3586 192.184C98.0146 192.184 97.2306 191.576 97.2306 190.6C97.2306 189.736 97.7586 189.096 99.3906 189.096H102.031V190.472C101.583 191.576 100.639 192.184 99.3586 192.184ZM106.892 193H108.028V181.128H106.892V193ZM111.829 193H112.965V181.128H111.829V193ZM120.206 193.08C122.67 193.08 124.478 191.288 124.478 188.792C124.478 186.296 122.67 184.52 120.206 184.52C117.742 184.52 115.918 186.296 115.918 188.792C115.918 191.288 117.742 193.08 120.206 193.08ZM120.206 192.072C118.414 192.072 117.07 190.76 117.07 188.792C117.07 186.824 118.414 185.512 120.206 185.512C121.998 185.512 123.326 186.824 123.326 188.792C123.326 190.76 121.998 192.072 120.206 192.072ZM138.515 184.584L135.843 191.736L133.155 184.584H132.179L129.475 191.736L126.835 184.584H125.747L128.915 193H129.987L132.643 186.104L135.299 193H136.371L139.555 184.584H138.515ZM144.068 193.08C146.26 193.08 147.54 192.136 147.54 190.68C147.54 187.448 142.084 189.16 142.084 186.888C142.084 186.088 142.756 185.496 144.276 185.496C145.14 185.496 146.02 185.704 146.756 186.216L147.252 185.304C146.548 184.824 145.364 184.52 144.276 184.52C142.132 184.52 140.948 185.544 140.948 186.92C140.948 190.248 146.404 188.52 146.404 190.712C146.404 191.544 145.748 192.088 144.148 192.088C142.964 192.088 141.828 191.672 141.156 191.144L140.644 192.04C141.332 192.632 142.676 193.08 144.068 193.08ZM150.392 193.08C150.856 193.08 151.256 192.696 151.256 192.2C151.256 191.704 150.856 191.336 150.392 191.336C149.928 191.336 149.544 191.704 149.544 192.2C149.544 192.696 149.928 193.08 150.392 193.08ZM170.034 181.8L165.218 190.104L160.354 181.8H159.378V193H160.514V184.088L164.914 191.576H165.474L169.874 184.04V193H171.01V181.8H170.034ZM181.011 184.584L177.843 191.736L174.675 184.584H173.491L177.251 192.984L176.883 193.8C176.403 194.856 175.891 195.208 175.139 195.208C174.531 195.208 174.019 194.984 173.603 194.568L173.075 195.416C173.587 195.928 174.339 196.184 175.123 196.184C176.323 196.184 177.219 195.656 177.923 194.008L182.131 184.584H181.011ZM191.454 193.08C193.646 193.08 194.926 192.136 194.926 190.68C194.926 187.448 189.47 189.16 189.47 186.888C189.47 186.088 190.142 185.496 191.662 185.496C192.526 185.496 193.406 185.704 194.142 186.216L194.638 185.304C193.934 184.824 192.75 184.52 191.662 184.52C189.518 184.52 188.334 185.544 188.334 186.92C188.334 190.248 193.79 188.52 193.79 190.712C193.79 191.544 193.134 192.088 191.534 192.088C190.35 192.088 189.214 191.672 188.542 191.144L188.03 192.04C188.718 192.632 190.062 193.08 191.454 193.08ZM201.107 193.08C203.571 193.08 205.379 191.288 205.379 188.792C205.379 186.296 203.571 184.52 201.107 184.52C198.643 184.52 196.819 186.296 196.819 188.792C196.819 191.288 198.643 193.08 201.107 193.08ZM201.107 192.072C199.315 192.072 197.971 190.76 197.971 188.792C197.971 186.824 199.315 185.512 201.107 185.512C202.899 185.512 204.227 186.824 204.227 188.792C204.227 190.76 202.899 192.072 201.107 192.072ZM212.626 184.52C211.17 184.52 210.034 185.112 209.426 186.136V184.584H208.338V193H209.474V188.584C209.474 186.664 210.61 185.544 212.418 185.544C214.018 185.544 214.946 186.456 214.946 188.232V193H216.082V188.12C216.082 185.704 214.674 184.52 212.626 184.52ZM228.921 184.52C227.497 184.52 226.393 185.08 225.769 186.056V181.128H224.633V193H225.769V188.584C225.769 186.664 226.905 185.544 228.713 185.544C230.313 185.544 231.241 186.456 231.241 188.232V193H232.377V188.12C232.377 185.704 230.969 184.52 228.921 184.52ZM239.046 184.52C237.718 184.52 236.47 184.936 235.622 185.656L236.134 186.504C236.822 185.896 237.846 185.512 238.934 185.512C240.502 185.512 241.318 186.296 241.318 187.736V188.248H238.646C236.23 188.248 235.398 189.336 235.398 190.632C235.398 192.088 236.566 193.08 238.47 193.08C239.862 193.08 240.854 192.552 241.366 191.688V193H242.454V187.784C242.454 185.608 241.222 184.52 239.046 184.52ZM238.646 192.184C237.302 192.184 236.518 191.576 236.518 190.6C236.518 189.736 237.046 189.096 238.678 189.096H241.318V190.472C240.87 191.576 239.926 192.184 238.646 192.184ZM248.435 193.08C250.627 193.08 251.907 192.136 251.907 190.68C251.907 187.448 246.451 189.16 246.451 186.888C246.451 186.088 247.123 185.496 248.643 185.496C249.507 185.496 250.387 185.704 251.123 186.216L251.619 185.304C250.915 184.824 249.731 184.52 248.643 184.52C246.499 184.52 245.315 185.544 245.315 186.92C245.315 190.248 250.771 188.52 250.771 190.712C250.771 191.544 250.115 192.088 248.515 192.088C247.331 192.088 246.195 191.672 245.523 191.144L245.011 192.04C245.699 192.632 247.043 193.08 248.435 193.08ZM266.819 188.792C266.819 186.264 265.107 184.52 262.739 184.52C260.371 184.52 258.627 186.296 258.627 188.792C258.627 191.288 260.419 193.08 263.043 193.08C264.371 193.08 265.539 192.6 266.291 191.704L265.651 190.968C265.011 191.704 264.099 192.072 263.075 192.072C261.235 192.072 259.891 190.904 259.763 189.144H266.803C266.803 189.016 266.819 188.888 266.819 188.792ZM262.739 185.496C264.387 185.496 265.587 186.648 265.731 188.296H259.763C259.907 186.648 261.107 185.496 262.739 185.496ZM272.48 184.52C271.152 184.52 269.904 184.936 269.056 185.656L269.568 186.504C270.256 185.896 271.28 185.512 272.368 185.512C273.936 185.512 274.752 186.296 274.752 187.736V188.248H272.08C269.664 188.248 268.832 189.336 268.832 190.632C268.832 192.088 270 193.08 271.904 193.08C273.296 193.08 274.288 192.552 274.8 191.688V193H275.888V187.784C275.888 185.608 274.656 184.52 272.48 184.52ZM272.08 192.184C270.736 192.184 269.952 191.576 269.952 190.6C269.952 189.736 270.48 189.096 272.112 189.096H274.752V190.472C274.304 191.576 273.36 192.184 272.08 192.184ZM283.646 191.672C283.326 191.96 282.862 192.104 282.398 192.104C281.454 192.104 280.942 191.56 280.942 190.568V185.544H283.502V184.584H280.942V182.744H279.806V184.584H278.302V185.544H279.806V190.632C279.806 192.184 280.686 193.08 282.27 193.08C282.926 193.08 283.598 192.888 284.046 192.488L283.646 191.672ZM293.801 188.792C293.801 186.264 292.089 184.52 289.721 184.52C287.353 184.52 285.609 186.296 285.609 188.792C285.609 191.288 287.401 193.08 290.025 193.08C291.353 193.08 292.521 192.6 293.273 191.704L292.633 190.968C291.993 191.704 291.081 192.072 290.057 192.072C288.217 192.072 286.873 190.904 286.745 189.144H293.785C293.785 189.016 293.801 188.888 293.801 188.792ZM289.721 185.496C291.369 185.496 292.569 186.648 292.713 188.296H286.745C286.889 186.648 288.089 185.496 289.721 185.496ZM301.041 184.52C299.585 184.52 298.449 185.112 297.841 186.136V184.584H296.753V193H297.889V188.584C297.889 186.664 299.025 185.544 300.833 185.544C302.433 185.544 303.361 186.456 303.361 188.232V193H304.497V188.12C304.497 185.704 303.089 184.52 301.041 184.52ZM28.616 215.672C28.296 215.96 27.832 216.104 27.368 216.104C26.424 216.104 25.912 215.56 25.912 214.568V209.544H28.472V208.584H25.912V206.744H24.776V208.584H23.272V209.544H24.776V214.632C24.776 216.184 25.656 217.08 27.24 217.08C27.896 217.08 28.568 216.888 29.016 216.488L28.616 215.672ZM36.012 208.52C34.588 208.52 33.484 209.08 32.86 210.056V205.128H31.724V217H32.86V212.584C32.86 210.664 33.996 209.544 35.804 209.544C37.404 209.544 38.332 210.456 38.332 212.232V217H39.468V212.12C39.468 209.704 38.06 208.52 36.012 208.52ZM50.5674 212.792C50.5674 210.264 48.8554 208.52 46.4874 208.52C44.1194 208.52 42.3754 210.296 42.3754 212.792C42.3754 215.288 44.1674 217.08 46.7914 217.08C48.1194 217.08 49.2874 216.6 50.0394 215.704L49.3994 214.968C48.7594 215.704 47.8474 216.072 46.8234 216.072C44.9834 216.072 43.6394 214.904 43.5114 213.144H50.5514C50.5514 213.016 50.5674 212.888 50.5674 212.792ZM46.4874 209.496C48.1354 209.496 49.3354 210.648 49.4794 212.296H43.5114C43.6554 210.648 44.8554 209.496 46.4874 209.496ZM60.6031 217.08C62.7951 217.08 64.0751 216.136 64.0751 214.68C64.0751 211.448 58.6191 213.16 58.6191 210.888C58.6191 210.088 59.2911 209.496 60.8111 209.496C61.6751 209.496 62.5551 209.704 63.2911 210.216L63.7871 209.304C63.0831 208.824 61.8991 208.52 60.8111 208.52C58.6671 208.52 57.4831 209.544 57.4831 210.92C57.4831 214.248 62.9391 212.52 62.9391 214.712C62.9391 215.544 62.2831 216.088 60.6831 216.088C59.4991 216.088 58.3631 215.672 57.6911 215.144L57.1791 216.04C57.8671 216.632 59.2111 217.08 60.6031 217.08ZM74.1593 212.792C74.1593 210.264 72.4473 208.52 70.0793 208.52C67.7113 208.52 65.9673 210.296 65.9673 212.792C65.9673 215.288 67.7593 217.08 70.3833 217.08C71.7113 217.08 72.8793 216.6 73.6313 215.704L72.9913 214.968C72.3513 215.704 71.4393 216.072 70.4153 216.072C68.5753 216.072 67.2313 214.904 67.1033 213.144H74.1433C74.1433 213.016 74.1593 212.888 74.1593 212.792ZM70.0793 209.496C71.7273 209.496 72.9273 210.648 73.0713 212.296H67.1033C67.2473 210.648 68.4473 209.496 70.0793 209.496ZM80.5995 217.08C82.0235 217.08 83.2235 216.504 83.8955 215.416L83.0475 214.84C82.4715 215.688 81.5755 216.072 80.5995 216.072C78.7595 216.072 77.4155 214.776 77.4155 212.792C77.4155 210.824 78.7595 209.512 80.5995 209.512C81.5755 209.512 82.4715 209.912 83.0475 210.76L83.8955 210.184C83.2235 209.08 82.0235 208.52 80.5995 208.52C78.0875 208.52 76.2635 210.28 76.2635 212.792C76.2635 215.304 78.0875 217.08 80.5995 217.08ZM90.0665 217.08C92.5305 217.08 94.3385 215.288 94.3385 212.792C94.3385 210.296 92.5305 208.52 90.0665 208.52C87.6025 208.52 85.7785 210.296 85.7785 212.792C85.7785 215.288 87.6025 217.08 90.0665 217.08ZM90.0665 216.072C88.2745 216.072 86.9305 214.76 86.9305 212.792C86.9305 210.824 88.2745 209.512 90.0665 209.512C91.8585 209.512 93.1865 210.824 93.1865 212.792C93.1865 214.76 91.8585 216.072 90.0665 216.072ZM101.586 208.52C100.13 208.52 98.9938 209.112 98.3858 210.136V208.584H97.2978V217H98.4338V212.584C98.4338 210.664 99.5698 209.544 101.378 209.544C102.978 209.544 103.906 210.456 103.906 212.232V217H105.042V212.12C105.042 209.704 103.634 208.52 101.586 208.52ZM115.341 205.128V210.184C114.637 209.096 113.485 208.52 112.141 208.52C109.741 208.52 107.949 210.248 107.949 212.792C107.949 215.336 109.741 217.08 112.141 217.08C113.533 217.08 114.701 216.472 115.389 215.336V217H116.477V205.128H115.341ZM112.237 216.072C110.445 216.072 109.101 214.76 109.101 212.792C109.101 210.824 110.445 209.512 112.237 209.512C114.013 209.512 115.357 210.824 115.357 212.792C115.357 214.76 114.013 216.072 112.237 216.072ZM128.548 217.08C131.012 217.08 132.82 215.288 132.82 212.792C132.82 210.296 131.012 208.52 128.548 208.52C126.084 208.52 124.26 210.296 124.26 212.792C124.26 215.288 126.084 217.08 128.548 217.08ZM128.548 216.072C126.756 216.072 125.412 214.76 125.412 212.792C125.412 210.824 126.756 209.512 128.548 209.512C130.34 209.512 131.668 210.824 131.668 212.792C131.668 214.76 130.34 216.072 128.548 216.072ZM140.068 208.52C138.612 208.52 137.476 209.112 136.868 210.136V208.584H135.78V217H136.916V212.584C136.916 210.664 138.052 209.544 139.86 209.544C141.46 209.544 142.388 210.456 142.388 212.232V217H143.524V212.12C143.524 209.704 142.116 208.52 140.068 208.52ZM154.623 212.792C154.623 210.264 152.911 208.52 150.543 208.52C148.175 208.52 146.431 210.296 146.431 212.792C146.431 215.288 148.223 217.08 150.847 217.08C152.175 217.08 153.343 216.6 154.095 215.704L153.455 214.968C152.815 215.704 151.903 216.072 150.879 216.072C149.039 216.072 147.695 214.904 147.567 213.144H154.607C154.607 213.016 154.623 212.888 154.623 212.792ZM150.543 209.496C152.191 209.496 153.391 210.648 153.535 212.296H147.567C147.711 210.648 148.911 209.496 150.543 209.496ZM162.643 217H163.827V205.8H162.643V217ZM177.034 208.52C175.642 208.52 174.474 209.128 173.786 210.248V208.584H172.698V220.104H173.834V215.416C174.538 216.504 175.69 217.08 177.034 217.08C179.434 217.08 181.226 215.352 181.226 212.792C181.226 210.248 179.434 208.52 177.034 208.52ZM176.954 216.072C175.162 216.072 173.818 214.76 173.818 212.792C173.818 210.84 175.162 209.512 176.954 209.512C178.73 209.512 180.09 210.84 180.09 212.792C180.09 214.76 178.73 216.072 176.954 216.072ZM190.63 208.584V213C190.63 214.92 189.526 216.056 187.766 216.056C186.166 216.056 185.238 215.144 185.238 213.352V208.584H184.102V213.464C184.102 215.88 185.51 217.08 187.654 217.08C188.998 217.08 190.086 216.488 190.678 215.464V217H191.766V208.584H190.63ZM196.676 210.232V208.584H195.588V217H196.724V212.712C196.724 210.728 197.796 209.608 199.556 209.608C199.636 209.608 199.732 209.624 199.828 209.624V208.52C198.276 208.52 197.204 209.112 196.676 210.232ZM205.935 217.08C207.359 217.08 208.559 216.504 209.231 215.416L208.383 214.84C207.807 215.688 206.911 216.072 205.935 216.072C204.095 216.072 202.751 214.776 202.751 212.792C202.751 210.824 204.095 209.512 205.935 209.512C206.911 209.512 207.807 209.912 208.383 210.76L209.231 210.184C208.559 209.08 207.359 208.52 205.935 208.52C203.423 208.52 201.599 210.28 201.599 212.792C201.599 215.304 203.423 217.08 205.935 217.08ZM216.265 208.52C214.841 208.52 213.737 209.08 213.113 210.056V205.128H211.977V217H213.113V212.584C213.113 210.664 214.249 209.544 216.057 209.544C217.657 209.544 218.585 210.456 218.585 212.232V217H219.721V212.12C219.721 209.704 218.313 208.52 216.265 208.52ZM226.389 208.52C225.061 208.52 223.813 208.936 222.965 209.656L223.477 210.504C224.165 209.896 225.189 209.512 226.277 209.512C227.845 209.512 228.661 210.296 228.661 211.736V212.248H225.989C223.573 212.248 222.741 213.336 222.741 214.632C222.741 216.088 223.909 217.08 225.813 217.08C227.205 217.08 228.197 216.552 228.709 215.688V217H229.797V211.784C229.797 209.608 228.565 208.52 226.389 208.52ZM225.989 216.184C224.645 216.184 223.861 215.576 223.861 214.6C223.861 213.736 224.389 213.096 226.021 213.096H228.661V214.472C228.213 215.576 227.269 216.184 225.989 216.184ZM235.779 217.08C237.971 217.08 239.251 216.136 239.251 214.68C239.251 211.448 233.795 213.16 233.795 210.888C233.795 210.088 234.467 209.496 235.987 209.496C236.851 209.496 237.731 209.704 238.467 210.216L238.963 209.304C238.259 208.824 237.075 208.52 235.987 208.52C233.843 208.52 232.659 209.544 232.659 210.92C232.659 214.248 238.115 212.52 238.115 214.712C238.115 215.544 237.459 216.088 235.859 216.088C234.675 216.088 233.539 215.672 232.867 215.144L232.355 216.04C233.043 216.632 234.387 217.08 235.779 217.08ZM249.335 212.792C249.335 210.264 247.623 208.52 245.255 208.52C242.887 208.52 241.143 210.296 241.143 212.792C241.143 215.288 242.935 217.08 245.559 217.08C246.887 217.08 248.055 216.6 248.807 215.704L248.167 214.968C247.527 215.704 246.615 216.072 245.591 216.072C243.751 216.072 242.407 214.904 242.279 213.144H249.319C249.319 213.016 249.335 212.888 249.335 212.792ZM245.255 209.496C246.903 209.496 248.103 210.648 248.247 212.296H242.279C242.423 210.648 243.623 209.496 245.255 209.496ZM258.831 205.128V210.184C258.127 209.096 256.975 208.52 255.631 208.52C253.231 208.52 251.439 210.248 251.439 212.792C251.439 215.336 253.231 217.08 255.631 217.08C257.023 217.08 258.191 216.472 258.879 215.336V217H259.967V205.128H258.831ZM255.727 216.072C253.935 216.072 252.591 214.76 252.591 212.792C252.591 210.824 253.935 209.512 255.727 209.512C257.503 209.512 258.847 210.824 258.847 212.792C258.847 214.76 257.503 216.072 255.727 216.072ZM263.899 215.336C263.419 215.336 263.051 215.704 263.051 216.2C263.051 216.616 263.291 216.92 263.627 217.016L263.083 219.336H263.851L264.523 217.128C264.683 216.68 264.747 216.472 264.747 216.2C264.747 215.72 264.395 215.336 263.899 215.336ZM275.573 208.52C274.245 208.52 272.997 208.936 272.149 209.656L272.661 210.504C273.349 209.896 274.373 209.512 275.461 209.512C277.029 209.512 277.845 210.296 277.845 211.736V212.248H275.173C272.757 212.248 271.925 213.336 271.925 214.632C271.925 216.088 273.093 217.08 274.997 217.08C276.389 217.08 277.381 216.552 277.893 215.688V217H278.981V211.784C278.981 209.608 277.749 208.52 275.573 208.52ZM275.173 216.184C273.829 216.184 273.045 215.576 273.045 214.6C273.045 213.736 273.573 213.096 275.205 213.096H277.845V214.472C277.397 215.576 276.453 216.184 275.173 216.184ZM286.994 208.52C285.538 208.52 284.402 209.112 283.794 210.136V208.584H282.706V217H283.842V212.584C283.842 210.664 284.978 209.544 286.786 209.544C288.386 209.544 289.314 210.456 289.314 212.232V217H290.45V212.12C290.45 209.704 289.042 208.52 286.994 208.52ZM300.75 205.128V210.184C300.046 209.096 298.894 208.52 297.55 208.52C295.15 208.52 293.358 210.248 293.358 212.792C293.358 215.336 295.15 217.08 297.55 217.08C298.942 217.08 300.11 216.472 300.798 215.336V217H301.886V205.128H300.75ZM297.646 216.072C295.854 216.072 294.51 214.76 294.51 212.792C294.51 210.824 295.854 209.512 297.646 209.512C299.422 209.512 300.766 210.824 300.766 212.792C300.766 214.76 299.422 216.072 297.646 216.072ZM310.757 217H311.941V205.8H310.757V217ZM31.096 241H32.488L28.552 236.024L32.152 232.584H30.744L25.72 237.176V229.128H24.584V241H25.72V238.6L27.704 236.776L31.096 241ZM38.9964 232.52C37.5404 232.52 36.4044 233.112 35.7964 234.136V232.584H34.7084V241H35.8444V236.584C35.8444 234.664 36.9804 233.544 38.7884 233.544C40.3884 233.544 41.3164 234.456 41.3164 236.232V241H42.4524V236.12C42.4524 233.704 41.0444 232.52 38.9964 232.52ZM49.6478 241.08C52.1118 241.08 53.9198 239.288 53.9198 236.792C53.9198 234.296 52.1118 232.52 49.6478 232.52C47.1838 232.52 45.3598 234.296 45.3598 236.792C45.3598 239.288 47.1838 241.08 49.6478 241.08ZM49.6478 240.072C47.8558 240.072 46.5118 238.76 46.5118 236.792C46.5118 234.824 47.8558 233.512 49.6478 233.512C51.4398 233.512 52.7678 234.824 52.7678 236.792C52.7678 238.76 51.4398 240.072 49.6478 240.072ZM67.9566 232.584L65.2846 239.736L62.5966 232.584H61.6206L58.9166 239.736L56.2766 232.584H55.1886L58.3566 241H59.4286L62.0846 234.104L64.7406 241H65.8126L68.9966 232.584H67.9566ZM80.4626 232.52C79.0386 232.52 77.9346 233.08 77.3106 234.056V229.128H76.1746V241H77.3106V236.584C77.3106 234.664 78.4466 233.544 80.2546 233.544C81.8546 233.544 82.7826 234.456 82.7826 236.232V241H83.9186V236.12C83.9186 233.704 82.5106 232.52 80.4626 232.52ZM95.018 236.792C95.018 234.264 93.306 232.52 90.938 232.52C88.57 232.52 86.826 234.296 86.826 236.792C86.826 239.288 88.618 241.08 91.242 241.08C92.57 241.08 93.738 240.6 94.49 239.704L93.85 238.968C93.21 239.704 92.298 240.072 91.274 240.072C89.434 240.072 88.09 238.904 87.962 237.144H95.002C95.002 237.016 95.018 236.888 95.018 236.792ZM90.938 233.496C92.586 233.496 93.786 234.648 93.93 236.296H87.962C88.106 234.648 89.306 233.496 90.938 233.496ZM98.0514 229.048C97.5714 229.048 97.2034 229.4 97.2034 229.912C97.2034 230.328 97.4434 230.616 97.7954 230.728L97.2354 233.032H98.0034L98.6914 230.824C98.8354 230.376 98.8994 230.184 98.8994 229.912C98.8994 229.432 98.5474 229.048 98.0514 229.048ZM103.96 241.08C106.152 241.08 107.432 240.136 107.432 238.68C107.432 235.448 101.976 237.16 101.976 234.888C101.976 234.088 102.648 233.496 104.168 233.496C105.032 233.496 105.912 233.704 106.648 234.216L107.144 233.304C106.44 232.824 105.256 232.52 104.168 232.52C102.024 232.52 100.84 233.544 100.84 234.92C100.84 238.248 106.296 236.52 106.296 238.712C106.296 239.544 105.64 240.088 104.04 240.088C102.856 240.088 101.72 239.672 101.048 239.144L100.536 240.04C101.224 240.632 102.568 241.08 103.96 241.08ZM122.344 236.792C122.344 234.264 120.632 232.52 118.264 232.52C115.896 232.52 114.152 234.296 114.152 236.792C114.152 239.288 115.944 241.08 118.568 241.08C119.896 241.08 121.064 240.6 121.816 239.704L121.176 238.968C120.536 239.704 119.624 240.072 118.6 240.072C116.76 240.072 115.416 238.904 115.288 237.144H122.328C122.328 237.016 122.344 236.888 122.344 236.792ZM118.264 233.496C119.912 233.496 121.112 234.648 121.256 236.296H115.288C115.432 234.648 116.632 233.496 118.264 233.496ZM131.092 232.584L127.924 239.736L124.756 232.584H123.572L127.332 240.984L126.964 241.8C126.484 242.856 125.972 243.208 125.22 243.208C124.612 243.208 124.1 242.984 123.684 242.568L123.156 243.416C123.668 243.928 124.42 244.184 125.204 244.184C126.404 244.184 127.3 243.656 128.004 242.008L132.212 232.584H131.092ZM141.561 236.792C141.561 234.264 139.849 232.52 137.481 232.52C135.113 232.52 133.369 234.296 133.369 236.792C133.369 239.288 135.161 241.08 137.785 241.08C139.113 241.08 140.281 240.6 141.033 239.704L140.393 238.968C139.753 239.704 138.841 240.072 137.817 240.072C135.977 240.072 134.633 238.904 134.505 237.144H141.545C141.545 237.016 141.561 236.888 141.561 236.792ZM137.481 233.496C139.129 233.496 140.329 234.648 140.473 236.296H134.505C134.649 234.648 135.849 233.496 137.481 233.496ZM145.089 230.744C145.569 230.744 145.921 230.376 145.921 229.912C145.921 229.48 145.553 229.128 145.089 229.128C144.625 229.128 144.257 229.496 144.257 229.928C144.257 230.376 144.625 230.744 145.089 230.744ZM144.513 241H145.649V232.584H144.513V241ZM153.738 232.52C152.282 232.52 151.146 233.112 150.538 234.136V232.584H149.45V241H150.586V236.584C150.586 234.664 151.722 233.544 153.53 233.544C155.13 233.544 156.058 234.456 156.058 236.232V241H157.194V236.12C157.194 233.704 155.786 232.52 153.738 232.52ZM167.654 232.584V234.2C166.95 233.096 165.734 232.52 164.326 232.52C161.926 232.52 160.102 234.168 160.102 236.584C160.102 239 161.926 240.68 164.326 240.68C165.702 240.68 166.902 240.12 167.606 239.048V240.12C167.606 242.2 166.63 243.176 164.502 243.176C163.206 243.176 161.99 242.744 161.19 242.024L160.614 242.888C161.494 243.72 162.998 244.184 164.534 244.184C167.318 244.184 168.742 242.872 168.742 239.976V232.584H167.654ZM164.438 239.672C162.582 239.672 161.254 238.408 161.254 236.584C161.254 234.76 162.582 233.512 164.438 233.512C166.294 233.512 167.638 234.76 167.638 236.584C167.638 238.408 166.294 239.672 164.438 239.672ZM183.834 232.584V237C183.834 238.92 182.73 240.056 180.97 240.056C179.37 240.056 178.442 239.144 178.442 237.352V232.584H177.306V237.464C177.306 239.88 178.714 241.08 180.858 241.08C182.202 241.08 183.29 240.488 183.882 239.464V241H184.97V232.584H183.834ZM193.128 232.52C191.736 232.52 190.568 233.128 189.88 234.248V232.584H188.792V244.104H189.928V239.416C190.632 240.504 191.784 241.08 193.128 241.08C195.528 241.08 197.32 239.352 197.32 236.792C197.32 234.248 195.528 232.52 193.128 232.52ZM193.048 240.072C191.256 240.072 189.912 238.76 189.912 236.792C189.912 234.84 191.256 233.512 193.048 233.512C194.824 233.512 196.184 234.84 196.184 236.792C196.184 238.76 194.824 240.072 193.048 240.072ZM209.135 239.672C208.815 239.96 208.351 240.104 207.887 240.104C206.943 240.104 206.431 239.56 206.431 238.568V233.544H208.991V232.584H206.431V230.744H205.295V232.584H203.791V233.544H205.295V238.632C205.295 240.184 206.175 241.08 207.759 241.08C208.415 241.08 209.087 240.888 209.535 240.488L209.135 239.672ZM216.531 232.52C215.107 232.52 214.003 233.08 213.379 234.056V229.128H212.243V241H213.379V236.584C213.379 234.664 214.515 233.544 216.323 233.544C217.923 233.544 218.851 234.456 218.851 236.232V241H219.987V236.12C219.987 233.704 218.579 232.52 216.531 232.52ZM231.086 236.792C231.086 234.264 229.374 232.52 227.006 232.52C224.638 232.52 222.894 234.296 222.894 236.792C222.894 239.288 224.686 241.08 227.31 241.08C228.638 241.08 229.806 240.6 230.558 239.704L229.918 238.968C229.278 239.704 228.366 240.072 227.342 240.072C225.502 240.072 224.158 238.904 224.03 237.144H231.07C231.07 237.016 231.086 236.888 231.086 236.792ZM227.006 233.496C228.654 233.496 229.854 234.648 229.998 236.296H224.03C224.174 234.648 225.374 233.496 227.006 233.496ZM242.898 239.672C242.578 239.96 242.114 240.104 241.65 240.104C240.706 240.104 240.194 239.56 240.194 238.568V233.544H242.754V232.584H240.194V230.744H239.058V232.584H237.554V233.544H239.058V238.632C239.058 240.184 239.938 241.08 241.522 241.08C242.178 241.08 242.85 240.888 243.298 240.488L242.898 239.672ZM250.294 232.52C248.87 232.52 247.766 233.08 247.142 234.056V229.128H246.006V241H247.142V236.584C247.142 234.664 248.278 233.544 250.086 233.544C251.686 233.544 252.614 234.456 252.614 236.232V241H253.75V236.12C253.75 233.704 252.342 232.52 250.294 232.52ZM258.05 230.744C258.53 230.744 258.882 230.376 258.882 229.912C258.882 229.48 258.514 229.128 258.05 229.128C257.586 229.128 257.218 229.496 257.218 229.928C257.218 230.376 257.586 230.744 258.05 230.744ZM257.474 241H258.61V232.584H257.474V241ZM263.499 234.232V232.584H262.411V241H263.547V236.712C263.547 234.728 264.619 233.608 266.379 233.608C266.459 233.608 266.555 233.624 266.651 233.624V232.52C265.099 232.52 264.027 233.112 263.499 234.232ZM275.814 229.128V234.184C275.11 233.096 273.958 232.52 272.614 232.52C270.214 232.52 268.422 234.248 268.422 236.792C268.422 239.336 270.214 241.08 272.614 241.08C274.006 241.08 275.174 240.472 275.862 239.336V241H276.95V229.128H275.814ZM272.71 240.072C270.918 240.072 269.574 238.76 269.574 236.792C269.574 234.824 270.918 233.512 272.71 233.512C274.486 233.512 275.83 234.824 275.83 236.792C275.83 238.76 274.486 240.072 272.71 240.072ZM280.865 241.08C281.329 241.08 281.729 240.696 281.729 240.2C281.729 239.704 281.329 239.336 280.865 239.336C280.401 239.336 280.017 239.704 280.017 240.2C280.017 240.696 280.401 241.08 280.865 241.08ZM298.043 229.8V234.792H291.035V229.8H289.851V241H291.035V235.832H298.043V241H299.211V229.8H298.043ZM310.611 236.792C310.611 234.264 308.899 232.52 306.531 232.52C304.163 232.52 302.419 234.296 302.419 236.792C302.419 239.288 304.211 241.08 306.835 241.08C308.163 241.08 309.331 240.6 310.083 239.704L309.443 238.968C308.803 239.704 307.891 240.072 306.867 240.072C305.027 240.072 303.683 238.904 303.555 237.144H310.595C310.595 237.016 310.611 236.888 310.611 236.792ZM306.531 233.496C308.179 233.496 309.379 234.648 309.523 236.296H303.555C303.699 234.648 304.899 233.496 306.531 233.496ZM25.16 254.744C25.64 254.744 25.992 254.376 25.992 253.912C25.992 253.48 25.624 253.128 25.16 253.128C24.696 253.128 24.328 253.496 24.328 253.928C24.328 254.376 24.696 254.744 25.16 254.744ZM24.584 265H25.72V256.584H24.584V265ZM31.7769 265.08C33.9689 265.08 35.2489 264.136 35.2489 262.68C35.2489 259.448 29.7929 261.16 29.7929 258.888C29.7929 258.088 30.4649 257.496 31.9849 257.496C32.8489 257.496 33.7289 257.704 34.4649 258.216L34.9609 257.304C34.2569 256.824 33.0729 256.52 31.9849 256.52C29.8409 256.52 28.6569 257.544 28.6569 258.92C28.6569 262.248 34.1129 260.52 34.1129 262.712C34.1129 263.544 33.4569 264.088 31.8569 264.088C30.6729 264.088 29.5369 263.672 28.8649 263.144L28.3529 264.04C29.0409 264.632 30.3849 265.08 31.7769 265.08ZM45.8725 258.6L49.0405 254.616V253.8H41.8405V254.824H47.5685L44.4645 258.712V259.56H45.2645C47.3445 259.56 48.2885 260.44 48.2885 261.784C48.2885 263.176 47.2645 264.04 45.4085 264.04C43.9525 264.04 42.6565 263.496 41.9365 262.744L41.3765 263.656C42.2405 264.536 43.7925 265.096 45.4085 265.096C48.1125 265.096 49.4725 263.656 49.4725 261.784C49.4725 259.992 48.2725 258.728 45.8725 258.6ZM56.1997 265.096C58.7917 265.096 60.6797 262.968 60.6797 259.4C60.6797 255.832 58.7917 253.704 56.1997 253.704C53.6077 253.704 51.7357 255.832 51.7357 259.4C51.7357 262.968 53.6077 265.096 56.1997 265.096ZM56.1997 264.04C54.2477 264.04 52.9037 262.392 52.9037 259.4C52.9037 256.408 54.2477 254.76 56.1997 254.76C58.1517 254.76 59.4957 256.408 59.4957 259.4C59.4957 262.392 58.1517 264.04 56.1997 264.04ZM74.501 256.584L71.333 263.736L68.165 256.584H66.981L70.741 264.984L70.373 265.8C69.893 266.856 69.381 267.208 68.629 267.208C68.021 267.208 67.509 266.984 67.093 266.568L66.565 267.416C67.077 267.928 67.829 268.184 68.613 268.184C69.813 268.184 70.709 267.656 71.413 266.008L75.621 256.584H74.501ZM84.9705 260.792C84.9705 258.264 83.2585 256.52 80.8905 256.52C78.5225 256.52 76.7785 258.296 76.7785 260.792C76.7785 263.288 78.5705 265.08 81.1945 265.08C82.5225 265.08 83.6905 264.6 84.4425 263.704L83.8025 262.968C83.1625 263.704 82.2505 264.072 81.2265 264.072C79.3865 264.072 78.0425 262.904 77.9145 261.144H84.9545C84.9545 261.016 84.9705 260.888 84.9705 260.792ZM80.8905 257.496C82.5385 257.496 83.7385 258.648 83.8825 260.296H77.9145C78.0585 258.648 79.2585 257.496 80.8905 257.496ZM90.6324 256.52C89.3044 256.52 88.0564 256.936 87.2084 257.656L87.7204 258.504C88.4084 257.896 89.4324 257.512 90.5204 257.512C92.0884 257.512 92.9044 258.296 92.9044 259.736V260.248H90.2324C87.8164 260.248 86.9844 261.336 86.9844 262.632C86.9844 264.088 88.1524 265.08 90.0564 265.08C91.4484 265.08 92.4404 264.552 92.9524 263.688V265H94.0404V259.784C94.0404 257.608 92.8084 256.52 90.6324 256.52ZM90.2324 264.184C88.8884 264.184 88.1044 263.576 88.1044 262.6C88.1044 261.736 88.6324 261.096 90.2644 261.096H92.9044V262.472C92.4564 263.576 91.5124 264.184 90.2324 264.184ZM98.8539 258.232V256.584H97.7659V265H98.9019V260.712C98.9019 258.728 99.9739 257.608 101.734 257.608C101.814 257.608 101.91 257.624 102.006 257.624V256.52C100.454 256.52 99.3819 257.112 98.8539 258.232ZM107.021 265.08C109.213 265.08 110.493 264.136 110.493 262.68C110.493 259.448 105.037 261.16 105.037 258.888C105.037 258.088 105.709 257.496 107.229 257.496C108.093 257.496 108.973 257.704 109.709 258.216L110.205 257.304C109.501 256.824 108.317 256.52 107.229 256.52C105.085 256.52 103.901 257.544 103.901 258.92C103.901 262.248 109.357 260.52 109.357 262.712C109.357 263.544 108.701 264.088 107.101 264.088C105.917 264.088 104.781 263.672 104.109 263.144L103.597 264.04C104.285 264.632 105.629 265.08 107.021 265.08ZM121.501 265.08C123.965 265.08 125.773 263.288 125.773 260.792C125.773 258.296 123.965 256.52 121.501 256.52C119.037 256.52 117.213 258.296 117.213 260.792C117.213 263.288 119.037 265.08 121.501 265.08ZM121.501 264.072C119.709 264.072 118.365 262.76 118.365 260.792C118.365 258.824 119.709 257.512 121.501 257.512C123.293 257.512 124.621 258.824 124.621 260.792C124.621 262.76 123.293 264.072 121.501 264.072ZM128.732 265H129.868V253.128H128.732V265ZM140.213 253.128V258.184C139.509 257.096 138.357 256.52 137.013 256.52C134.613 256.52 132.821 258.248 132.821 260.792C132.821 263.336 134.613 265.08 137.013 265.08C138.405 265.08 139.573 264.472 140.261 263.336V265H141.349V253.128H140.213ZM137.109 264.072C135.317 264.072 133.973 262.76 133.973 260.792C133.973 258.824 135.317 257.512 137.109 257.512C138.885 257.512 140.229 258.824 140.229 260.792C140.229 262.76 138.885 264.072 137.109 264.072ZM145.265 265.08C145.729 265.08 146.129 264.696 146.129 264.2C146.129 263.704 145.729 263.336 145.265 263.336C144.801 263.336 144.417 263.704 144.417 264.2C144.417 264.696 144.801 265.08 145.265 265.08Z" fill="#5A0090"/>
<path d="M36.9997 107.449C37.1502 106.99 37.7994 106.99 37.9499 107.449L40.6117 115.567C40.6791 115.773 40.8707 115.912 41.0868 115.912H49.691C50.1764 115.912 50.3771 116.534 49.9831 116.817L43.03 121.824C42.8532 121.951 42.7792 122.178 42.8471 122.385L45.5048 130.491C45.6555 130.951 45.1302 131.335 44.7375 131.052L37.7669 126.034C37.5924 125.908 37.3572 125.908 37.1826 126.034L30.2121 131.052C29.8194 131.335 29.2941 130.951 29.4448 130.491L32.1025 122.385C32.1704 122.178 32.0964 121.951 31.9195 121.824L24.9665 116.817C24.5725 116.534 24.7732 115.912 25.2586 115.912H33.8627C34.0789 115.912 34.2705 115.773 34.3379 115.567L36.9997 107.449Z" fill="#5A0090" stroke="#5A0090" stroke-width="2.5"/>
<path d="M73.5124 107.449C73.6629 106.99 74.3122 106.99 74.4626 107.449L77.1245 115.567C77.1918 115.773 77.3835 115.912 77.5996 115.912H86.2037C86.6892 115.912 86.8898 116.534 86.4958 116.817L79.5428 121.824C79.3659 121.951 79.2919 122.178 79.3598 122.385L82.0175 130.491C82.1683 130.951 81.643 131.335 81.2502 131.052L74.2797 126.034C74.1052 125.908 73.8699 125.908 73.6954 126.034L66.7248 131.052C66.3321 131.335 65.8068 130.951 65.9576 130.491L68.6152 122.385C68.6831 122.178 68.6091 121.951 68.4323 121.824L61.4792 116.817C61.0852 116.534 61.2859 115.912 61.7714 115.912H70.3755C70.5916 115.912 70.7833 115.773 70.8506 115.567L73.5124 107.449Z" fill="#5A0090" stroke="#5A0090" stroke-width="2.5"/>
<path d="M110.025 107.449C110.176 106.99 110.825 106.99 110.975 107.449L113.637 115.567C113.704 115.773 113.896 115.912 114.112 115.912H122.716C123.202 115.912 123.402 116.534 123.008 116.817L116.055 121.824C115.879 121.951 115.805 122.178 115.872 122.385L118.53 130.491C118.681 130.951 118.156 131.335 117.763 131.052L110.792 126.034C110.618 125.908 110.382 125.908 110.208 126.034L103.237 131.052C102.845 131.335 102.319 130.951 102.47 130.491L105.128 122.385C105.196 122.178 105.122 121.951 104.945 121.824L97.9918 116.817C97.5979 116.534 97.7985 115.912 98.284 115.912H106.888C107.104 115.912 107.296 115.773 107.363 115.567L110.025 107.449Z" fill="#5A0090" stroke="#5A0090" stroke-width="2.5"/>
<path d="M146.538 107.449C146.688 106.99 147.337 106.99 147.488 107.449L150.15 115.567C150.217 115.773 150.409 115.912 150.625 115.912H159.229C159.714 115.912 159.915 116.534 159.521 116.817L152.568 121.824C152.391 121.951 152.317 122.178 152.385 122.385L155.043 130.491C155.193 130.951 154.668 131.335 154.275 131.052L147.305 126.034C147.13 125.908 146.895 125.908 146.72 126.034L139.75 131.052C139.357 131.335 138.832 130.951 138.983 130.491L141.64 122.385C141.708 122.178 141.634 121.951 141.457 121.824L134.504 116.817C134.11 116.534 134.311 115.912 134.796 115.912H143.401C143.617 115.912 143.808 115.773 143.876 115.567L146.538 107.449Z" fill="#5A0090" stroke="#5A0090" stroke-width="2.5"/>
<path d="M183.05 107.449C183.201 106.99 183.85 106.99 184 107.449L186.662 115.567C186.73 115.773 186.921 115.912 187.137 115.912H195.741C196.227 115.912 196.428 116.534 196.034 116.817L189.081 121.824C188.904 121.951 188.83 122.178 188.898 122.385L191.555 130.491C191.706 130.951 191.181 131.335 190.788 131.052L183.817 126.034C183.643 125.908 183.408 125.908 183.233 126.034L176.263 131.052C175.87 131.335 175.345 130.951 175.495 130.491L178.153 122.385C178.221 122.178 178.147 121.951 177.97 121.824L171.017 116.817C170.623 116.534 170.824 115.912 171.309 115.912H179.913C180.129 115.912 180.321 115.773 180.388 115.567L183.05 107.449Z" fill="#5A0090" stroke="#5A0090" stroke-width="2.5"/>
<circle cx="39.5" cy="311.5" r="16.5" fill="url(#paint0_linear)"/>
<path d="M78.976 318.16C82.048 318.16 83.504 316.624 83.504 314.832C83.504 310.72 76.864 312.272 76.864 309.888C76.864 309.04 77.568 308.368 79.296 308.368C80.272 308.368 81.376 308.656 82.384 309.248L83.04 307.632C82.064 306.992 80.656 306.64 79.312 306.64C76.24 306.64 74.8 308.176 74.8 309.984C74.8 314.144 81.456 312.56 81.456 314.976C81.456 315.808 80.72 316.432 78.976 316.432C77.6 316.432 76.176 315.92 75.28 315.2L74.56 316.816C75.488 317.616 77.232 318.16 78.976 318.16ZM89.2785 309.36C87.9025 309.36 86.5745 309.712 85.6625 310.416L86.4465 311.872C87.0865 311.344 88.0785 311.024 89.0385 311.024C90.4625 311.024 91.1665 311.712 91.1665 312.88V313.008H88.9585C86.3665 313.008 85.4065 314.128 85.4065 315.552C85.4065 317.04 86.6385 318.112 88.5905 318.112C89.8705 318.112 90.7985 317.696 91.2785 316.96V318H93.1665V312.992C93.1665 310.528 91.7425 309.36 89.2785 309.36ZM89.0065 316.656C87.9825 316.656 87.3745 316.192 87.3745 315.472C87.3745 314.848 87.7425 314.336 89.1025 314.336H91.1665V315.328C90.8305 316.208 89.9825 316.656 89.0065 316.656ZM98.2773 310.704V309.456H96.3733V318H98.3733V313.856C98.3733 312.112 99.3333 311.216 100.853 311.216C100.997 311.216 101.141 311.232 101.317 311.264V309.36C99.8933 309.36 98.8533 309.808 98.2773 310.704ZM106.871 309.36C105.495 309.36 104.167 309.712 103.255 310.416L104.039 311.872C104.679 311.344 105.671 311.024 106.631 311.024C108.055 311.024 108.759 311.712 108.759 312.88V313.008H106.551C103.959 313.008 102.999 314.128 102.999 315.552C102.999 317.04 104.231 318.112 106.183 318.112C107.463 318.112 108.391 317.696 108.871 316.96V318H110.759V312.992C110.759 310.528 109.335 309.36 106.871 309.36ZM106.599 316.656C105.575 316.656 104.967 316.192 104.967 315.472C104.967 314.848 105.335 314.336 106.695 314.336H108.759V315.328C108.423 316.208 107.575 316.656 106.599 316.656ZM118.814 309.36C117.63 309.36 116.622 309.744 115.966 310.448V306.128H113.966V318H115.966V313.68C115.966 311.968 116.926 311.104 118.35 311.104C119.63 311.104 120.382 311.84 120.382 313.36V318H122.382V313.104C122.382 310.528 120.862 309.36 118.814 309.36ZM132.557 318.16C135.021 318.16 136.333 316.864 136.333 314.224V306.8H130.269V308.544H134.253V314.336C134.253 315.712 133.661 316.4 132.509 316.4C131.629 316.4 130.893 315.952 130.285 315.12L129.101 316.544C129.869 317.584 131.149 318.16 132.557 318.16ZM140.213 318.112C140.933 318.112 141.525 317.552 141.525 316.784C141.525 315.984 140.933 315.456 140.213 315.456C139.493 315.456 138.901 315.984 138.901 316.784C138.901 317.552 139.493 318.112 140.213 318.112Z" fill="#5A0090"/>
<defs>
<linearGradient id="paint0_linear" x1="39.5" y1="295" x2="39.5" y2="328" gradientUnits="userSpaceOnUse">
<stop offset="0.234375" stop-color="#DC4EFF" stop-opacity="0.83"/>
<stop offset="0.713542" stop-color="#8500C4"/>
</linearGradient>
</defs>
</svg>
