<svg width="333" height="34" viewBox="0 0 333 34" fill="none" xmlns="http://www.w3.org/2000/svg">
<path d="M185.759 4.46352C185.908 4.00287 186.56 4.00287 186.71 4.46353L189.093 11.799C189.16 12.0051 189.352 12.1445 189.569 12.1445H197.282C197.766 12.1445 197.967 12.7643 197.576 13.049L191.336 17.5826C191.16 17.71 191.087 17.9357 191.154 18.1417L193.537 25.4772C193.687 25.9378 193.16 26.3209 192.768 26.0362L186.528 21.5026C186.353 21.3753 186.115 21.3753 185.94 21.5026L179.7 26.0362C179.308 26.3209 178.781 25.9378 178.931 25.4772L181.314 18.1417C181.381 17.9357 181.308 17.71 181.133 17.5826L174.893 13.049C174.501 12.7643 174.702 12.1445 175.187 12.1445H182.9C183.116 12.1445 183.308 12.0051 183.375 11.799L185.759 4.46352Z" fill="#5A0090" stroke="#5A0090" stroke-width="2.5"/>
<path d="M219.142 4.46352C219.291 4.00287 219.943 4.00287 220.093 4.46353L222.476 11.799C222.543 12.0051 222.735 12.1445 222.952 12.1445H230.665C231.149 12.1445 231.35 12.7643 230.959 13.049L224.719 17.5826C224.543 17.71 224.47 17.9357 224.537 18.1417L226.92 25.4772C227.07 25.9378 226.543 26.3209 226.151 26.0362L219.911 21.5026C219.736 21.3753 219.499 21.3753 219.323 21.5026L213.083 26.0362C212.691 26.3209 212.164 25.9378 212.314 25.4772L214.697 18.1417C214.764 17.9357 214.691 17.71 214.516 17.5826L208.276 13.049C207.884 12.7643 208.085 12.1445 208.57 12.1445H216.283C216.499 12.1445 216.691 12.0051 216.758 11.799L219.142 4.46352Z" fill="#5A0090" stroke="#5A0090" stroke-width="2.5"/>
<path d="M252.525 4.46352C252.674 4.00287 253.326 4.00287 253.476 4.46353L255.859 11.799C255.926 12.0051 256.118 12.1445 256.335 12.1445H264.048C264.532 12.1445 264.733 12.7643 264.341 13.049L258.102 17.5826C257.926 17.71 257.853 17.9357 257.92 18.1417L260.303 25.4772C260.453 25.9378 259.926 26.3209 259.534 26.0362L253.294 21.5026C253.119 21.3753 252.881 21.3753 252.706 21.5026L246.466 26.0362C246.074 26.3209 245.547 25.9378 245.697 25.4772L248.08 18.1417C248.147 17.9357 248.074 17.71 247.899 17.5826L241.659 13.049C241.267 12.7643 241.468 12.1445 241.953 12.1445H249.666C249.882 12.1445 250.074 12.0051 250.141 11.799L252.525 4.46352Z" fill="#5A0090" stroke="#5A0090" stroke-width="2.5"/>
<path d="M285.907 4.46352C286.057 4.00287 286.709 4.00287 286.859 4.46353L289.242 11.799C289.309 12.0051 289.501 12.1445 289.718 12.1445H297.431C297.915 12.1445 298.116 12.7643 297.724 13.049L291.484 17.5826C291.309 17.71 291.236 17.9357 291.303 18.1417L293.686 25.4772C293.836 25.9378 293.309 26.3209 292.917 26.0362L286.677 21.5026C286.502 21.3753 286.264 21.3753 286.089 21.5026L279.849 26.0362C279.457 26.3209 278.93 25.9378 279.08 25.4772L281.463 18.1417C281.53 17.9357 281.457 17.71 281.282 17.5826L275.042 13.049C274.65 12.7643 274.851 12.1445 275.335 12.1445H283.048C283.265 12.1445 283.457 12.0051 283.524 11.799L285.907 4.46352Z" fill="#5A0090" stroke="#5A0090" stroke-width="2.5"/>
<path d="M319.29 4.46352C319.44 4.00287 320.092 4.00287 320.241 4.46353L322.625 11.799C322.692 12.0051 322.884 12.1445 323.1 12.1445H330.813C331.298 12.1445 331.499 12.7643 331.107 13.049L324.867 17.5826C324.692 17.71 324.619 17.9357 324.686 18.1417L327.069 25.4772C327.219 25.9378 326.692 26.3209 326.3 26.0362L320.06 21.5026C319.885 21.3753 319.647 21.3753 319.472 21.5026L313.232 26.0362C312.84 26.3209 312.313 25.9378 312.463 25.4772L314.846 18.1417C314.913 17.9357 314.84 17.71 314.664 17.5826L308.425 13.049C308.033 12.7643 308.234 12.1445 308.718 12.1445H316.431C316.648 12.1445 316.84 12.0051 316.907 11.799L319.29 4.46352Z" fill="#5A0090" stroke="#5A0090" stroke-width="2.5"/>
<path d="M14.4032 10V24H12.9632V11.28H9.6632V10H14.4032ZM19.6498 21.92C19.9564 21.92 20.2098 22.0267 20.4098 22.24C20.6098 22.44 20.7098 22.6933 20.7098 23C20.7098 23.16 20.6831 23.3333 20.6298 23.52C20.5898 23.7067 20.5231 23.92 20.4298 24.16L19.5898 26.92H18.6298L19.3098 24.02C19.0964 23.9533 18.9231 23.8333 18.7898 23.66C18.6564 23.4733 18.5898 23.2533 18.5898 23C18.5898 22.6933 18.6898 22.44 18.8898 22.24C19.0898 22.0267 19.3431 21.92 19.6498 21.92ZM33.3434 22.72V24H23.5234V22.98L29.3434 17.28C30.0767 16.56 30.57 15.94 30.8234 15.42C31.09 14.8867 31.2234 14.3533 31.2234 13.82C31.2234 12.9933 30.9367 12.3533 30.3634 11.9C29.8034 11.4333 28.9967 11.2 27.9434 11.2C26.3034 11.2 25.03 11.72 24.1234 12.76L23.1034 11.88C23.65 11.24 24.3434 10.7467 25.1834 10.4C26.0367 10.0533 26.9967 9.88 28.0634 9.88C29.49 9.88 30.6167 10.22 31.4434 10.9C32.2834 11.5667 32.7034 12.4867 32.7034 13.66C32.7034 14.38 32.5434 15.0733 32.2234 15.74C31.9034 16.4067 31.2967 17.1733 30.4034 18.04L25.6434 22.72H33.3434ZM40.7105 16C42.1772 16.08 43.2905 16.48 44.0505 17.2C44.8239 17.9067 45.2105 18.8333 45.2105 19.98C45.2105 20.78 45.0172 21.4933 44.6305 22.12C44.2439 22.7333 43.6705 23.22 42.9105 23.58C42.1505 23.94 41.2239 24.12 40.1305 24.12C39.1172 24.12 38.1572 23.96 37.2505 23.64C36.3572 23.3067 35.6372 22.8667 35.0905 22.32L35.7905 21.18C36.2572 21.66 36.8772 22.0533 37.6505 22.36C38.4239 22.6533 39.2505 22.8 40.1305 22.8C41.2772 22.8 42.1639 22.5533 42.7905 22.06C43.4172 21.5533 43.7305 20.86 43.7305 19.98C43.7305 19.1133 43.4172 18.4333 42.7905 17.94C42.1639 17.4467 41.2172 17.2 39.9505 17.2H38.9505V16.14L42.8305 11.28H35.6705V10H44.6705V11.02L40.7105 16ZM59.9396 20.32H57.1396V24H55.6996V20.32H47.7996V19.28L55.2196 10H56.8196L49.6596 19.04H55.7396V15.8H57.1396V19.04H59.9396V20.32ZM78.8966 24L75.6966 19.5C75.3366 19.54 74.9633 19.56 74.5766 19.56H70.8166V24H69.3366V10H74.5766C76.3633 10 77.7633 10.4267 78.7766 11.28C79.79 12.1333 80.2966 13.3067 80.2966 14.8C80.2966 15.8933 80.0166 16.82 79.4566 17.58C78.91 18.3267 78.1233 18.8667 77.0966 19.2L80.5166 24H78.8966ZM74.5366 18.3C75.9233 18.3 76.9833 17.9933 77.7166 17.38C78.45 16.7667 78.8166 15.9067 78.8166 14.8C78.8166 13.6667 78.45 12.8 77.7166 12.2C76.9833 11.5867 75.9233 11.28 74.5366 11.28H70.8166V18.3H74.5366ZM93.4498 19.18H84.6498C84.7298 20.2733 85.1498 21.16 85.9098 21.84C86.6698 22.5067 87.6298 22.84 88.7898 22.84C89.4431 22.84 90.0431 22.7267 90.5898 22.5C91.1364 22.26 91.6098 21.9133 92.0098 21.46L92.8098 22.38C92.3431 22.94 91.7564 23.3667 91.0498 23.66C90.3564 23.9533 89.5898 24.1 88.7498 24.1C87.6698 24.1 86.7098 23.8733 85.8698 23.42C85.0431 22.9533 84.3964 22.3133 83.9298 21.5C83.4631 20.6867 83.2298 19.7667 83.2298 18.74C83.2298 17.7133 83.4498 16.7933 83.8898 15.98C84.3431 15.1667 84.9564 14.5333 85.7298 14.08C86.5164 13.6267 87.3964 13.4 88.3698 13.4C89.3431 13.4 90.2164 13.6267 90.9898 14.08C91.7631 14.5333 92.3698 15.1667 92.8098 15.98C93.2498 16.78 93.4698 17.7 93.4698 18.74L93.4498 19.18ZM88.3698 14.62C87.3564 14.62 86.5031 14.9467 85.8098 15.6C85.1298 16.24 84.7431 17.08 84.6498 18.12H92.1098C92.0164 17.08 91.6231 16.24 90.9298 15.6C90.2498 14.9467 89.3964 14.62 88.3698 14.62ZM105.805 13.48L101.125 24H99.6648L95.0048 13.48H96.4848L100.425 22.44L104.405 13.48H105.805ZM108.605 13.48H110.025V24H108.605V13.48ZM109.325 11.18C109.031 11.18 108.785 11.08 108.585 10.88C108.385 10.68 108.285 10.44 108.285 10.16C108.285 9.89333 108.385 9.66 108.585 9.46C108.785 9.26 109.031 9.16 109.325 9.16C109.618 9.16 109.865 9.26 110.065 9.46C110.265 9.64667 110.365 9.87333 110.365 10.14C110.365 10.4333 110.265 10.68 110.065 10.88C109.865 11.08 109.618 11.18 109.325 11.18ZM123.936 19.18H115.136C115.216 20.2733 115.636 21.16 116.396 21.84C117.156 22.5067 118.116 22.84 119.276 22.84C119.929 22.84 120.529 22.7267 121.076 22.5C121.622 22.26 122.096 21.9133 122.496 21.46L123.296 22.38C122.829 22.94 122.242 23.3667 121.536 23.66C120.842 23.9533 120.076 24.1 119.236 24.1C118.156 24.1 117.196 23.8733 116.356 23.42C115.529 22.9533 114.882 22.3133 114.416 21.5C113.949 20.6867 113.716 19.7667 113.716 18.74C113.716 17.7133 113.936 16.7933 114.376 15.98C114.829 15.1667 115.442 14.5333 116.216 14.08C117.002 13.6267 117.882 13.4 118.856 13.4C119.829 13.4 120.702 13.6267 121.476 14.08C122.249 14.5333 122.856 15.1667 123.296 15.98C123.736 16.78 123.956 17.7 123.956 18.74L123.936 19.18ZM118.856 14.62C117.842 14.62 116.989 14.9467 116.296 15.6C115.616 16.24 115.229 17.08 115.136 18.12H122.596C122.502 17.08 122.109 16.24 121.416 15.6C120.736 14.9467 119.882 14.62 118.856 14.62ZM142.891 13.48L138.911 24H137.571L134.251 15.38L130.931 24H129.591L125.631 13.48H126.991L130.291 22.42L133.671 13.48H134.891L138.251 22.42L141.591 13.48H142.891ZM148.532 24.1C147.678 24.1 146.858 23.98 146.072 23.74C145.298 23.4867 144.692 23.1733 144.252 22.8L144.892 21.68C145.332 22.0267 145.885 22.3133 146.552 22.54C147.218 22.7533 147.912 22.86 148.632 22.86C149.592 22.86 150.298 22.7133 150.752 22.42C151.218 22.1133 151.452 21.6867 151.452 21.14C151.452 20.7533 151.325 20.4533 151.072 20.24C150.818 20.0133 150.498 19.8467 150.112 19.74C149.725 19.62 149.212 19.5067 148.572 19.4C147.718 19.24 147.032 19.08 146.512 18.92C145.992 18.7467 145.545 18.46 145.172 18.06C144.812 17.66 144.632 17.1067 144.632 16.4C144.632 15.52 144.998 14.8 145.732 14.24C146.465 13.68 147.485 13.4 148.792 13.4C149.472 13.4 150.152 13.4933 150.832 13.68C151.512 13.8533 152.072 14.0867 152.512 14.38L151.892 15.52C151.025 14.92 149.992 14.62 148.792 14.62C147.885 14.62 147.198 14.78 146.732 15.1C146.278 15.42 146.052 15.84 146.052 16.36C146.052 16.76 146.178 17.08 146.432 17.32C146.698 17.56 147.025 17.74 147.412 17.86C147.798 17.9667 148.332 18.08 149.012 18.2C149.852 18.36 150.525 18.52 151.032 18.68C151.538 18.84 151.972 19.1133 152.332 19.5C152.692 19.8867 152.872 20.42 152.872 21.1C152.872 22.02 152.485 22.7533 151.712 23.3C150.952 23.8333 149.892 24.1 148.532 24.1Z" fill="#5A0090"/>
<path d="M9.4832 26H153.512V27H9.4832V26Z" fill="#5A0090"/>
</svg>
