<svg width="350" height="350" viewBox="0 0 350 350" fill="none" xmlns="http://www.w3.org/2000/svg">
<rect width="350" height="350" rx="10" fill="#F3F3F3"/>
<path d="M37.153 53.23C41.569 53.23 43.662 51.022 43.662 48.446C43.662 42.535 34.117 44.766 34.117 41.339C34.117 40.12 35.129 39.154 37.613 39.154C39.016 39.154 40.603 39.568 42.052 40.419L42.995 38.096C41.592 37.176 39.568 36.67 37.636 36.67C33.22 36.67 31.15 38.878 31.15 41.477C31.15 47.457 40.718 45.18 40.718 48.653C40.718 49.849 39.66 50.746 37.153 50.746C35.175 50.746 33.128 50.01 31.84 48.975L30.805 51.298C32.139 52.448 34.646 53.23 37.153 53.23ZM52.7908 53.161C56.6088 53.161 59.3458 50.539 59.3458 46.859C59.3458 43.179 56.6088 40.58 52.7908 40.58C49.0188 40.58 46.2588 43.179 46.2588 46.859C46.2588 50.539 49.0188 53.161 52.7908 53.161ZM52.7908 50.7C50.7208 50.7 49.1568 49.205 49.1568 46.859C49.1568 44.513 50.7208 43.018 52.7908 43.018C54.8838 43.018 56.4478 44.513 56.4478 46.859C56.4478 49.205 54.8838 50.7 52.7908 50.7ZM75.9265 53.161C78.3185 53.161 80.2275 52.126 81.1705 50.286L78.9625 48.998C78.2265 50.171 77.1225 50.7 75.9035 50.7C73.7875 50.7 72.1775 49.251 72.1775 46.859C72.1775 44.49 73.7875 43.018 75.9035 43.018C77.1225 43.018 78.2265 43.547 78.9625 44.72L81.1705 43.432C80.2275 41.569 78.3185 40.58 75.9265 40.58C72.0395 40.58 69.2795 43.179 69.2795 46.859C69.2795 50.539 72.0395 53.161 75.9265 53.161ZM89.9161 53.161C93.7341 53.161 96.4711 50.539 96.4711 46.859C96.4711 43.179 93.7341 40.58 89.9161 40.58C86.1441 40.58 83.3841 43.179 83.3841 46.859C83.3841 50.539 86.1441 53.161 89.9161 53.161ZM89.9161 50.7C87.8461 50.7 86.2821 49.205 86.2821 46.859C86.2821 44.513 87.8461 43.018 89.9161 43.018C92.0091 43.018 93.5731 44.513 93.5731 46.859C93.5731 49.205 92.0091 50.7 89.9161 50.7ZM115.642 40.58C113.687 40.58 112.031 41.362 111.042 42.627C110.191 41.247 108.696 40.58 106.902 40.58C105.223 40.58 103.797 41.178 102.877 42.282V40.718H100.14V53H103.015V46.767C103.015 44.329 104.303 43.087 106.212 43.087C107.96 43.087 108.972 44.145 108.972 46.33V53H111.847V46.767C111.847 44.329 113.158 43.087 115.044 43.087C116.792 43.087 117.804 44.145 117.804 46.33V53H120.679V45.962C120.679 42.259 118.609 40.58 115.642 40.58ZM130.264 38.096C130.862 38.096 131.414 38.303 131.851 38.602L132.656 36.44C132.012 35.98 131.046 35.773 130.057 35.773C127.205 35.773 125.664 37.452 125.664 40.028V40.81H123.64V43.11H125.664V53H128.539V43.11H131.828V40.81H128.447V40.074C128.447 38.763 129.068 38.096 130.264 38.096ZM140.024 53.161C143.842 53.161 146.579 50.539 146.579 46.859C146.579 43.179 143.842 40.58 140.024 40.58C136.252 40.58 133.492 43.179 133.492 46.859C133.492 50.539 136.252 53.161 140.024 53.161ZM140.024 50.7C137.954 50.7 136.39 49.205 136.39 46.859C136.39 44.513 137.954 43.018 140.024 43.018C142.117 43.018 143.681 44.513 143.681 46.859C143.681 49.205 142.117 50.7 140.024 50.7ZM152.985 42.512V40.718H150.248V53H153.123V47.043C153.123 44.536 154.503 43.248 156.688 43.248C156.895 43.248 157.102 43.271 157.355 43.317V40.58C155.308 40.58 153.813 41.224 152.985 42.512ZM167.741 50.286C167.304 50.631 166.729 50.792 166.131 50.792C165.027 50.792 164.429 50.148 164.429 48.952V43.11H167.718V40.81H164.429V38.004H161.554V40.81H159.53V43.11H161.554V49.021C161.554 51.735 163.095 53.161 165.786 53.161C166.821 53.161 167.856 52.885 168.546 52.333L167.741 50.286ZM176.523 40.58C174.545 40.58 172.636 41.086 171.325 42.098L172.452 44.191C173.372 43.432 174.798 42.972 176.178 42.972C178.225 42.972 179.237 43.961 179.237 45.64V45.824H176.063C172.337 45.824 170.957 47.434 170.957 49.481C170.957 51.62 172.728 53.161 175.534 53.161C177.374 53.161 178.708 52.563 179.398 51.505V53H182.112V45.801C182.112 42.259 180.065 40.58 176.523 40.58ZM176.132 51.068C174.66 51.068 173.786 50.401 173.786 49.366C173.786 48.469 174.315 47.733 176.27 47.733H179.237V49.159C178.754 50.424 177.535 51.068 176.132 51.068ZM193.53 40.58C191.966 40.58 190.586 41.109 189.597 42.213V35.934H186.722V53H189.459V51.413C190.425 52.586 191.851 53.161 193.53 53.161C197.118 53.161 199.763 50.677 199.763 46.859C199.763 43.041 197.118 40.58 193.53 40.58ZM193.208 50.7C191.138 50.7 189.551 49.205 189.551 46.859C189.551 44.513 191.138 43.018 193.208 43.018C195.278 43.018 196.842 44.513 196.842 46.859C196.842 49.205 195.278 50.7 193.208 50.7ZM203.409 53H206.284V35.934H203.409V53ZM222.524 46.928C222.524 43.087 219.902 40.58 216.314 40.58C212.657 40.58 209.966 43.202 209.966 46.859C209.966 50.516 212.634 53.161 216.751 53.161C218.867 53.161 220.592 52.471 221.696 51.16L220.155 49.389C219.281 50.286 218.2 50.723 216.82 50.723C214.681 50.723 213.186 49.573 212.841 47.779H222.478C222.501 47.503 222.524 47.158 222.524 46.928ZM216.314 42.88C218.2 42.88 219.557 44.099 219.787 45.87H212.818C213.094 44.076 214.451 42.88 216.314 42.88ZM233.758 53H236.748V36.9H233.758V53ZM254.658 53.161C257.05 53.161 258.959 52.126 259.902 50.286L257.694 48.998C256.958 50.171 255.854 50.7 254.635 50.7C252.519 50.7 250.909 49.251 250.909 46.859C250.909 44.49 252.519 43.018 254.635 43.018C255.854 43.018 256.958 43.547 257.694 44.72L259.902 43.432C258.959 41.569 257.05 40.58 254.658 40.58C250.771 40.58 248.011 43.179 248.011 46.859C248.011 50.539 250.771 53.161 254.658 53.161ZM267.999 40.58C266.021 40.58 264.112 41.086 262.801 42.098L263.928 44.191C264.848 43.432 266.274 42.972 267.654 42.972C269.701 42.972 270.713 43.961 270.713 45.64V45.824H267.539C263.813 45.824 262.433 47.434 262.433 49.481C262.433 51.62 264.204 53.161 267.01 53.161C268.85 53.161 270.184 52.563 270.874 51.505V53H273.588V45.801C273.588 42.259 271.541 40.58 267.999 40.58ZM267.608 51.068C266.136 51.068 265.262 50.401 265.262 49.366C265.262 48.469 265.791 47.733 267.746 47.733H270.713V49.159C270.23 50.424 269.011 51.068 267.608 51.068ZM285.167 40.58C283.373 40.58 281.878 41.178 280.935 42.305V40.718H278.198V53H281.073V46.79C281.073 44.329 282.453 43.087 284.5 43.087C286.34 43.087 287.421 44.145 287.421 46.33V53H290.296V45.962C290.296 42.259 288.111 40.58 285.167 40.58ZM295.694 35.773C294.636 35.773 293.831 36.532 293.831 37.659C293.831 38.51 294.268 39.108 294.912 39.361L293.992 42.903H295.855L297.051 39.637C297.465 38.579 297.557 38.188 297.557 37.659C297.557 36.555 296.775 35.773 295.694 35.773ZM307.976 50.286C307.539 50.631 306.964 50.792 306.366 50.792C305.262 50.792 304.664 50.148 304.664 48.952V43.11H307.953V40.81H304.664V38.004H301.789V40.81H299.765V43.11H301.789V49.021C301.789 51.735 303.33 53.161 306.021 53.161C307.056 53.161 308.091 52.885 308.781 52.333L307.976 50.286ZM35.681 85.161C39.131 85.161 41.247 83.666 41.247 81.366C41.247 76.559 33.657 78.767 33.657 76.283C33.657 75.478 34.485 74.903 36.233 74.903C37.406 74.903 38.579 75.133 39.752 75.823L40.856 73.638C39.752 72.971 37.889 72.58 36.256 72.58C32.944 72.58 30.851 74.098 30.851 76.421C30.851 81.32 38.441 79.112 38.441 81.458C38.441 82.309 37.682 82.815 35.865 82.815C34.324 82.815 32.668 82.309 31.587 81.596L30.483 83.781C31.587 84.563 33.634 85.161 35.681 85.161ZM51.2209 82.286C50.7839 82.631 50.2089 82.792 49.6109 82.792C48.5069 82.792 47.9089 82.148 47.9089 80.952V75.11H51.1979V72.81H47.9089V70.004H45.0339V72.81H43.0099V75.11H45.0339V81.021C45.0339 83.735 46.5749 85.161 49.2659 85.161C50.3009 85.161 51.3359 84.885 52.0259 84.333L51.2209 82.286ZM60.4267 85.161C64.2447 85.161 66.9817 82.539 66.9817 78.859C66.9817 75.179 64.2447 72.58 60.4267 72.58C56.6547 72.58 53.8947 75.179 53.8947 78.859C53.8947 82.539 56.6547 85.161 60.4267 85.161ZM60.4267 82.7C58.3567 82.7 56.7927 81.205 56.7927 78.859C56.7927 76.513 58.3567 75.018 60.4267 75.018C62.5197 75.018 64.0837 76.513 64.0837 78.859C64.0837 81.205 62.5197 82.7 60.4267 82.7ZM77.4589 72.58C75.7799 72.58 74.3539 73.155 73.3879 74.328V72.718H70.6509V89.462H73.5259V83.505C74.5149 84.632 75.8949 85.161 77.4589 85.161C81.0469 85.161 83.6919 82.677 83.6919 78.859C83.6919 75.064 81.0469 72.58 77.4589 72.58ZM77.1369 82.7C75.0669 82.7 73.4799 81.205 73.4799 78.859C73.4799 76.513 75.0669 75.018 77.1369 75.018C79.2069 75.018 80.7709 76.513 80.7709 78.859C80.7709 81.205 79.2069 82.7 77.1369 82.7ZM98.4099 85.161C101.86 85.161 103.976 83.666 103.976 81.366C103.976 76.559 96.3859 78.767 96.3859 76.283C96.3859 75.478 97.2139 74.903 98.9619 74.903C100.135 74.903 101.308 75.133 102.481 75.823L103.585 73.638C102.481 72.971 100.618 72.58 98.9849 72.58C95.6729 72.58 93.5799 74.098 93.5799 76.421C93.5799 81.32 101.17 79.112 101.17 81.458C101.17 82.309 100.411 82.815 98.5939 82.815C97.0529 82.815 95.3969 82.309 94.3159 81.596L93.2119 83.781C94.3159 84.563 96.3629 85.161 98.4099 85.161ZM108.821 70.694C109.902 70.694 110.661 69.912 110.661 68.9C110.661 67.957 109.879 67.244 108.821 67.244C107.763 67.244 106.981 68.003 106.981 68.969C106.981 69.935 107.763 70.694 108.821 70.694ZM107.372 85H110.247V72.718H107.372V85ZM121.518 82.286C121.081 82.631 120.506 82.792 119.908 82.792C118.804 82.792 118.206 82.148 118.206 80.952V75.11H121.495V72.81H118.206V70.004H115.331V72.81H113.307V75.11H115.331V81.021C115.331 83.735 116.872 85.161 119.563 85.161C120.598 85.161 121.633 84.885 122.323 84.333L121.518 82.286ZM131.894 82.286C131.457 82.631 130.882 82.792 130.284 82.792C129.18 82.792 128.582 82.148 128.582 80.952V75.11H131.871V72.81H128.582V70.004H125.707V72.81H123.683V75.11H125.707V81.021C125.707 83.735 127.248 85.161 129.939 85.161C130.974 85.161 132.009 84.885 132.699 84.333L131.894 82.286ZM137.433 70.694C138.514 70.694 139.273 69.912 139.273 68.9C139.273 67.957 138.491 67.244 137.433 67.244C136.375 67.244 135.593 68.003 135.593 68.969C135.593 69.935 136.375 70.694 137.433 70.694ZM135.984 85H138.859V72.718H135.984V85ZM150.522 72.58C148.728 72.58 147.233 73.178 146.29 74.305V72.718H143.553V85H146.428V78.79C146.428 76.329 147.808 75.087 149.855 75.087C151.695 75.087 152.776 76.145 152.776 78.33V85H155.651V77.962C155.651 74.259 153.466 72.58 150.522 72.58ZM169.783 72.718V74.351C168.771 73.132 167.253 72.58 165.528 72.58C162.009 72.58 159.318 74.926 159.318 78.491C159.318 82.056 162.009 84.448 165.528 84.448C167.184 84.448 168.633 83.919 169.645 82.815V83.459C169.645 85.943 168.449 87.185 165.735 87.185C164.033 87.185 162.285 86.61 161.204 85.713L159.916 87.875C161.319 89.025 163.596 89.623 165.896 89.623C170.197 89.623 172.52 87.599 172.52 83.137V72.718H169.783ZM165.965 82.01C163.78 82.01 162.216 80.584 162.216 78.491C162.216 76.421 163.78 75.018 165.965 75.018C168.127 75.018 169.691 76.421 169.691 78.491C169.691 80.584 168.127 82.01 165.965 82.01Z" fill="#5A0090"/>
<path d="M31.824 169H33.008V157.8H31.824V169ZM46.1676 160.52C44.7436 160.52 43.6396 161.08 43.0156 162.056V157.128H41.8796V169H43.0156V164.584C43.0156 162.664 44.1516 161.544 45.9596 161.544C47.5596 161.544 48.4876 162.456 48.4876 164.232V169H49.6236V164.12C49.6236 161.704 48.2156 160.52 46.1676 160.52ZM56.2918 160.52C54.9638 160.52 53.7158 160.936 52.8678 161.656L53.3798 162.504C54.0678 161.896 55.0918 161.512 56.1798 161.512C57.7478 161.512 58.5638 162.296 58.5638 163.736V164.248H55.8918C53.4758 164.248 52.6438 165.336 52.6438 166.632C52.6438 168.088 53.8118 169.08 55.7158 169.08C57.1078 169.08 58.0998 168.552 58.6118 167.688V169H59.6998V163.784C59.6998 161.608 58.4678 160.52 56.2918 160.52ZM55.8918 168.184C54.5478 168.184 53.7638 167.576 53.7638 166.6C53.7638 165.736 54.2918 165.096 55.9238 165.096H58.5638V166.472C58.1158 167.576 57.1718 168.184 55.8918 168.184ZM69.221 160.584L66.037 167.752L62.885 160.584H61.701L65.429 169H66.597L70.341 160.584H69.221ZM79.6905 164.792C79.6905 162.264 77.9785 160.52 75.6105 160.52C73.2425 160.52 71.4985 162.296 71.4985 164.792C71.4985 167.288 73.2905 169.08 75.9145 169.08C77.2425 169.08 78.4105 168.6 79.1625 167.704L78.5225 166.968C77.8825 167.704 76.9705 168.072 75.9465 168.072C74.1065 168.072 72.7625 166.904 72.6345 165.144H79.6745C79.6745 165.016 79.6905 164.888 79.6905 164.792ZM75.6105 161.496C77.2585 161.496 78.4585 162.648 78.6025 164.296H72.6345C72.7785 162.648 73.9785 161.496 75.6105 161.496ZM91.7582 160.52C90.3022 160.52 89.1662 161.112 88.5582 162.136V160.584H87.4702V169H88.6062V164.584C88.6062 162.664 89.7422 161.544 91.5502 161.544C93.1502 161.544 94.0782 162.456 94.0782 164.232V169H95.2142V164.12C95.2142 161.704 93.8063 160.52 91.7582 160.52ZM102.41 169.08C104.874 169.08 106.682 167.288 106.682 164.792C106.682 162.296 104.874 160.52 102.41 160.52C99.9456 160.52 98.1216 162.296 98.1216 164.792C98.1216 167.288 99.9456 169.08 102.41 169.08ZM102.41 168.072C100.618 168.072 99.2736 166.76 99.2736 164.792C99.2736 162.824 100.618 161.512 102.41 161.512C104.202 161.512 105.53 162.824 105.53 164.792C105.53 166.76 104.202 168.072 102.41 168.072ZM120.719 160.584L118.047 167.736L115.359 160.584H114.383L111.679 167.736L109.039 160.584H107.951L111.119 169H112.191L114.847 162.104L117.503 169H118.575L121.759 160.584H120.719ZM133.273 160.52C131.929 160.52 130.777 161.096 130.073 162.184V157.128H128.937V169H130.025V167.336C130.713 168.472 131.881 169.08 133.273 169.08C135.673 169.08 137.465 167.336 137.465 164.792C137.465 162.248 135.673 160.52 133.273 160.52ZM133.193 168.072C131.401 168.072 130.057 166.76 130.057 164.792C130.057 162.824 131.401 161.512 133.193 161.512C134.969 161.512 136.329 162.824 136.329 164.792C136.329 166.76 134.969 168.072 133.193 168.072ZM147.764 164.792C147.764 162.264 146.052 160.52 143.684 160.52C141.316 160.52 139.572 162.296 139.572 164.792C139.572 167.288 141.364 169.08 143.988 169.08C145.316 169.08 146.484 168.6 147.236 167.704L146.596 166.968C145.956 167.704 145.044 168.072 144.02 168.072C142.18 168.072 140.836 166.904 140.708 165.144H147.748C147.748 165.016 147.764 164.888 147.764 164.792ZM143.684 161.496C145.332 161.496 146.532 162.648 146.676 164.296H140.708C140.852 162.648 142.052 161.496 143.684 161.496ZM158.061 164.792C158.061 162.264 156.349 160.52 153.98 160.52C151.612 160.52 149.868 162.296 149.868 164.792C149.868 167.288 151.66 169.08 154.285 169.08C155.613 169.08 156.78 168.6 157.533 167.704L156.892 166.968C156.253 167.704 155.34 168.072 154.316 168.072C152.476 168.072 151.132 166.904 151.004 165.144H158.045C158.045 165.016 158.061 164.888 158.061 164.792ZM153.98 161.496C155.628 161.496 156.829 162.648 156.972 164.296H151.004C151.148 162.648 152.348 161.496 153.98 161.496ZM165.301 160.52C163.845 160.52 162.709 161.112 162.101 162.136V160.584H161.013V169H162.149V164.584C162.149 162.664 163.285 161.544 165.093 161.544C166.693 161.544 167.621 162.456 167.621 164.232V169H168.757V164.12C168.757 161.704 167.349 160.52 165.301 160.52ZM179.564 169.08C181.756 169.08 183.036 168.136 183.036 166.68C183.036 163.448 177.58 165.16 177.58 162.888C177.58 162.088 178.252 161.496 179.772 161.496C180.636 161.496 181.516 161.704 182.252 162.216L182.748 161.304C182.044 160.824 180.86 160.52 179.772 160.52C177.628 160.52 176.444 161.544 176.444 162.92C176.444 166.248 181.9 164.52 181.9 166.712C181.9 167.544 181.244 168.088 179.644 168.088C178.46 168.088 177.324 167.672 176.652 167.144L176.14 168.04C176.828 168.632 178.172 169.08 179.564 169.08ZM186.353 158.744C186.833 158.744 187.185 158.376 187.185 157.912C187.185 157.48 186.817 157.128 186.353 157.128C185.889 157.128 185.521 157.496 185.521 157.928C185.521 158.376 185.889 158.744 186.353 158.744ZM185.777 169H186.913V160.584H185.777V169ZM194.745 167.672C194.425 167.96 193.961 168.104 193.497 168.104C192.553 168.104 192.041 167.56 192.041 166.568V161.544H194.601V160.584H192.041V158.744H190.905V160.584H189.401V161.544H190.905V166.632C190.905 168.184 191.785 169.08 193.369 169.08C194.025 169.08 194.697 168.888 195.145 168.488L194.745 167.672ZM201.667 167.672C201.347 167.96 200.883 168.104 200.419 168.104C199.475 168.104 198.963 167.56 198.963 166.568V161.544H201.523V160.584H198.963V158.744H197.827V160.584H196.323V161.544H197.827V166.632C197.827 168.184 198.707 169.08 200.291 169.08C200.947 169.08 201.619 168.888 202.067 168.488L201.667 167.672ZM205.351 158.744C205.831 158.744 206.183 158.376 206.183 157.912C206.183 157.48 205.815 157.128 205.351 157.128C204.887 157.128 204.519 157.496 204.519 157.928C204.519 158.376 204.887 158.744 205.351 158.744ZM204.775 169H205.911V160.584H204.775V169ZM214 160.52C212.544 160.52 211.408 161.112 210.8 162.136V160.584H209.712V169H210.848V164.584C210.848 162.664 211.984 161.544 213.792 161.544C215.392 161.544 216.32 162.456 216.32 164.232V169H217.456V164.12C217.456 161.704 216.048 160.52 214 160.52ZM227.915 160.584V162.2C227.211 161.096 225.995 160.52 224.587 160.52C222.187 160.52 220.363 162.168 220.363 164.584C220.363 167 222.187 168.68 224.587 168.68C225.963 168.68 227.163 168.12 227.867 167.048V168.12C227.867 170.2 226.891 171.176 224.763 171.176C223.467 171.176 222.251 170.744 221.451 170.024L220.875 170.888C221.755 171.72 223.259 172.184 224.795 172.184C227.579 172.184 229.003 170.872 229.003 167.976V160.584H227.915ZM224.699 167.672C222.843 167.672 221.515 166.408 221.515 164.584C221.515 162.76 222.843 161.512 224.699 161.512C226.555 161.512 227.899 162.76 227.899 164.584C227.899 166.408 226.555 167.672 224.699 167.672ZM240.431 158.008C240.911 158.008 241.359 158.152 241.679 158.424L242.063 157.576C241.647 157.224 241.007 157.048 240.383 157.048C238.735 157.048 237.839 158.04 237.839 159.544V160.584H236.335V161.544H237.839V169H238.975V161.544H241.535V160.584H238.943V159.592C238.943 158.552 239.455 158.008 240.431 158.008ZM247.008 169.08C249.472 169.08 251.28 167.288 251.28 164.792C251.28 162.296 249.472 160.52 247.008 160.52C244.544 160.52 242.72 162.296 242.72 164.792C242.72 167.288 244.544 169.08 247.008 169.08ZM247.008 168.072C245.216 168.072 243.872 166.76 243.872 164.792C243.872 162.824 245.216 161.512 247.008 161.512C248.8 161.512 250.128 162.824 250.128 164.792C250.128 166.76 248.8 168.072 247.008 168.072ZM255.328 162.232V160.584H254.24V169H255.376V164.712C255.376 162.728 256.448 161.608 258.208 161.608C258.288 161.608 258.384 161.624 258.48 161.624V160.52C256.928 160.52 255.856 161.112 255.328 162.232ZM265.057 157.8V160.92H266.193V158.824H271.953L267.345 169H268.593L273.281 158.616V157.8H265.057ZM276.927 167.976L280.735 164.232C282.239 162.76 282.575 161.8 282.575 160.728C282.575 158.856 281.135 157.704 278.863 157.704C277.151 157.704 275.759 158.28 274.895 159.304L275.711 160.008C276.447 159.16 277.455 158.76 278.767 158.76C280.479 158.76 281.391 159.56 281.391 160.856C281.391 161.624 281.151 162.376 279.887 163.624L275.231 168.184V169H283.087V167.976H276.927ZM35.872 184.52C34.448 184.52 33.344 185.08 32.72 186.056V181.128H31.584V193H32.72V188.584C32.72 186.664 33.856 185.544 35.664 185.544C37.264 185.544 38.192 186.456 38.192 188.232V193H39.328V188.12C39.328 185.704 37.92 184.52 35.872 184.52ZM46.5234 193.08C48.9874 193.08 50.7954 191.288 50.7954 188.792C50.7954 186.296 48.9874 184.52 46.5234 184.52C44.0594 184.52 42.2354 186.296 42.2354 188.792C42.2354 191.288 44.0594 193.08 46.5234 193.08ZM46.5234 192.072C44.7314 192.072 43.3874 190.76 43.3874 188.792C43.3874 186.824 44.7314 185.512 46.5234 185.512C48.3154 185.512 49.6434 186.824 49.6434 188.792C49.6434 190.76 48.3154 192.072 46.5234 192.072ZM60.2026 184.584V189C60.2026 190.92 59.0986 192.056 57.3386 192.056C55.7386 192.056 54.8106 191.144 54.8106 189.352V184.584H53.6746V189.464C53.6746 191.88 55.0826 193.08 57.2266 193.08C58.5706 193.08 59.6586 192.488 60.2506 191.464V193H61.3386V184.584H60.2026ZM66.2482 186.232V184.584H65.1602V193H66.2962V188.712C66.2962 186.728 67.3682 185.608 69.1282 185.608C69.2082 185.608 69.3042 185.624 69.4002 185.624V184.52C67.8482 184.52 66.7762 185.112 66.2482 186.232ZM74.4156 193.08C76.6076 193.08 77.8876 192.136 77.8876 190.68C77.8876 187.448 72.4316 189.16 72.4316 186.888C72.4316 186.088 73.1036 185.496 74.6236 185.496C75.4876 185.496 76.3676 185.704 77.1036 186.216L77.5996 185.304C76.8956 184.824 75.7116 184.52 74.6236 184.52C72.4796 184.52 71.2956 185.544 71.2956 186.92C71.2956 190.248 76.7516 188.52 76.7516 190.712C76.7516 191.544 76.0956 192.088 74.4956 192.088C73.3116 192.088 72.1756 191.672 71.5036 191.144L70.9916 192.04C71.6796 192.632 73.0236 193.08 74.4156 193.08ZM87.7113 193.08C89.9033 193.08 91.1833 192.136 91.1833 190.68C91.1833 187.448 85.7273 189.16 85.7273 186.888C85.7273 186.088 86.3993 185.496 87.9193 185.496C88.7833 185.496 89.6633 185.704 90.3993 186.216L90.8953 185.304C90.1913 184.824 89.0073 184.52 87.9193 184.52C85.7753 184.52 84.5913 185.544 84.5913 186.92C84.5913 190.248 90.0473 188.52 90.0473 190.712C90.0473 191.544 89.3913 192.088 87.7913 192.088C86.6073 192.088 85.4713 191.672 84.7993 191.144L84.2873 192.04C84.9753 192.632 86.3193 193.08 87.7113 193.08ZM97.9554 191.672C97.6354 191.96 97.1714 192.104 96.7074 192.104C95.7634 192.104 95.2514 191.56 95.2514 190.568V185.544H97.8114V184.584H95.2514V182.744H94.1154V184.584H92.6114V185.544H94.1154V190.632C94.1154 192.184 94.9954 193.08 96.5794 193.08C97.2354 193.08 97.9074 192.888 98.3554 192.488L97.9554 191.672ZM102.151 186.232V184.584H101.063V193H102.199V188.712C102.199 186.728 103.271 185.608 105.031 185.608C105.111 185.608 105.207 185.624 105.303 185.624V184.52C103.751 184.52 102.679 185.112 102.151 186.232ZM110.929 184.52C109.601 184.52 108.353 184.936 107.505 185.656L108.017 186.504C108.705 185.896 109.729 185.512 110.817 185.512C112.385 185.512 113.201 186.296 113.201 187.736V188.248H110.529C108.113 188.248 107.281 189.336 107.281 190.632C107.281 192.088 108.449 193.08 110.353 193.08C111.745 193.08 112.737 192.552 113.249 191.688V193H114.337V187.784C114.337 185.608 113.105 184.52 110.929 184.52ZM110.529 192.184C109.185 192.184 108.401 191.576 108.401 190.6C108.401 189.736 108.929 189.096 110.561 189.096H113.201V190.472C112.753 191.576 111.809 192.184 110.529 192.184ZM118.638 182.744C119.118 182.744 119.47 182.376 119.47 181.912C119.47 181.48 119.102 181.128 118.638 181.128C118.174 181.128 117.806 181.496 117.806 181.928C117.806 182.376 118.174 182.744 118.638 182.744ZM118.062 193H119.198V184.584H118.062V193ZM129.703 184.584V186.2C128.999 185.096 127.783 184.52 126.375 184.52C123.975 184.52 122.151 186.168 122.151 188.584C122.151 191 123.975 192.68 126.375 192.68C127.751 192.68 128.951 192.12 129.655 191.048V192.12C129.655 194.2 128.679 195.176 126.551 195.176C125.255 195.176 124.039 194.744 123.239 194.024L122.663 194.888C123.543 195.72 125.047 196.184 126.583 196.184C129.367 196.184 130.791 194.872 130.791 191.976V184.584H129.703ZM126.487 191.672C124.631 191.672 123.303 190.408 123.303 188.584C123.303 186.76 124.631 185.512 126.487 185.512C128.343 185.512 129.687 186.76 129.687 188.584C129.687 190.408 128.343 191.672 126.487 191.672ZM138.896 184.52C137.472 184.52 136.368 185.08 135.744 186.056V181.128H134.608V193H135.744V188.584C135.744 186.664 136.88 185.544 138.688 185.544C140.288 185.544 141.216 186.456 141.216 188.232V193H142.352V188.12C142.352 185.704 140.944 184.52 138.896 184.52ZM150.108 191.672C149.788 191.96 149.324 192.104 148.86 192.104C147.916 192.104 147.404 191.56 147.404 190.568V185.544H149.964V184.584H147.404V182.744H146.268V184.584H144.764V185.544H146.268V190.632C146.268 192.184 147.148 193.08 148.732 193.08C149.388 193.08 150.06 192.888 150.508 192.488L150.108 191.672ZM161.483 193.08C163.947 193.08 165.755 191.288 165.755 188.792C165.755 186.296 163.947 184.52 161.483 184.52C159.019 184.52 157.195 186.296 157.195 188.792C157.195 191.288 159.019 193.08 161.483 193.08ZM161.483 192.072C159.691 192.072 158.347 190.76 158.347 188.792C158.347 186.824 159.691 185.512 161.483 185.512C163.275 185.512 164.603 186.824 164.603 188.792C164.603 190.76 163.275 192.072 161.483 192.072ZM173.003 184.52C171.547 184.52 170.411 185.112 169.803 186.136V184.584H168.715V193H169.851V188.584C169.851 186.664 170.987 185.544 172.795 185.544C174.395 185.544 175.323 186.456 175.323 188.232V193H176.459V188.12C176.459 185.704 175.051 184.52 173.003 184.52ZM189.042 191.672C188.722 191.96 188.258 192.104 187.794 192.104C186.85 192.104 186.338 191.56 186.338 190.568V185.544H188.898V184.584H186.338V182.744H185.202V184.584H183.698V185.544H185.202V190.632C185.202 192.184 186.082 193.08 187.666 193.08C188.322 193.08 188.994 192.888 189.442 192.488L189.042 191.672ZM196.438 184.52C195.014 184.52 193.91 185.08 193.286 186.056V181.128H192.15V193H193.286V188.584C193.286 186.664 194.422 185.544 196.23 185.544C197.83 185.544 198.758 186.456 198.758 188.232V193H199.894V188.12C199.894 185.704 198.486 184.52 196.438 184.52ZM210.994 188.792C210.994 186.264 209.282 184.52 206.914 184.52C204.546 184.52 202.802 186.296 202.802 188.792C202.802 191.288 204.594 193.08 207.218 193.08C208.546 193.08 209.714 192.6 210.466 191.704L209.826 190.968C209.186 191.704 208.274 192.072 207.25 192.072C205.41 192.072 204.066 190.904 203.938 189.144H210.978C210.978 189.016 210.994 188.888 210.994 188.792ZM206.914 185.496C208.562 185.496 209.762 186.648 209.906 188.296H203.938C204.082 186.648 205.282 185.496 206.914 185.496ZM216.202 193.08C218.394 193.08 219.674 192.136 219.674 190.68C219.674 187.448 214.218 189.16 214.218 186.888C214.218 186.088 214.89 185.496 216.41 185.496C217.274 185.496 218.154 185.704 218.89 186.216L219.386 185.304C218.682 184.824 217.498 184.52 216.41 184.52C214.266 184.52 213.082 185.544 213.082 186.92C213.082 190.248 218.538 188.52 218.538 190.712C218.538 191.544 217.882 192.088 216.282 192.088C215.098 192.088 213.962 191.672 213.29 191.144L212.778 192.04C213.466 192.632 214.81 193.08 216.202 193.08ZM229.758 188.792C229.758 186.264 228.046 184.52 225.678 184.52C223.31 184.52 221.566 186.296 221.566 188.792C221.566 191.288 223.358 193.08 225.982 193.08C227.31 193.08 228.478 192.6 229.23 191.704L228.59 190.968C227.95 191.704 227.038 192.072 226.014 192.072C224.174 192.072 222.83 190.904 222.702 189.144H229.742C229.742 189.016 229.758 188.888 229.758 188.792ZM225.678 185.496C227.326 185.496 228.526 186.648 228.67 188.296H222.702C222.846 186.648 224.046 185.496 225.678 185.496ZM241.874 184.52C240.482 184.52 239.314 185.128 238.626 186.248V184.584H237.538V196.104H238.674V191.416C239.378 192.504 240.53 193.08 241.874 193.08C244.274 193.08 246.066 191.352 246.066 188.792C246.066 186.248 244.274 184.52 241.874 184.52ZM241.794 192.072C240.002 192.072 238.658 190.76 238.658 188.792C238.658 186.84 240.002 185.512 241.794 185.512C243.57 185.512 244.93 186.84 244.93 188.792C244.93 190.76 243.57 192.072 241.794 192.072ZM249.598 182.744C250.078 182.744 250.43 182.376 250.43 181.912C250.43 181.48 250.062 181.128 249.598 181.128C249.134 181.128 248.766 181.496 248.766 181.928C248.766 182.376 249.134 182.744 249.598 182.744ZM249.022 193H250.158V184.584H249.022V193ZM253.958 193H255.094V181.128H253.958V193ZM258.895 193H260.031V181.128H258.895V193ZM267.272 193.08C269.736 193.08 271.544 191.288 271.544 188.792C271.544 186.296 269.736 184.52 267.272 184.52C264.808 184.52 262.984 186.296 262.984 188.792C262.984 191.288 264.808 193.08 267.272 193.08ZM267.272 192.072C265.48 192.072 264.136 190.76 264.136 188.792C264.136 186.824 265.48 185.512 267.272 185.512C269.064 185.512 270.392 186.824 270.392 188.792C270.392 190.76 269.064 192.072 267.272 192.072ZM285.581 184.584L282.909 191.736L280.221 184.584H279.245L276.541 191.736L273.901 184.584H272.813L275.981 193H277.053L279.709 186.104L282.365 193H283.437L286.621 184.584H285.581ZM291.134 193.08C293.326 193.08 294.606 192.136 294.606 190.68C294.606 187.448 289.15 189.16 289.15 186.888C289.15 186.088 289.822 185.496 291.342 185.496C292.206 185.496 293.086 185.704 293.822 186.216L294.318 185.304C293.614 184.824 292.43 184.52 291.342 184.52C289.198 184.52 288.014 185.544 288.014 186.92C288.014 190.248 293.47 188.52 293.47 190.712C293.47 191.544 292.814 192.088 291.214 192.088C290.03 192.088 288.894 191.672 288.222 191.144L287.71 192.04C288.398 192.632 289.742 193.08 291.134 193.08ZM297.458 193.08C297.922 193.08 298.322 192.696 298.322 192.2C298.322 191.704 297.922 191.336 297.458 191.336C296.994 191.336 296.61 191.704 296.61 192.2C296.61 192.696 296.994 193.08 297.458 193.08ZM306.444 193H307.628V181.8H306.444V193ZM38.928 212.792C38.928 210.264 37.216 208.52 34.848 208.52C32.48 208.52 30.736 210.296 30.736 212.792C30.736 215.288 32.528 217.08 35.152 217.08C36.48 217.08 37.648 216.6 38.4 215.704L37.76 214.968C37.12 215.704 36.208 216.072 35.184 216.072C33.344 216.072 32 214.904 31.872 213.144H38.912C38.912 213.016 38.928 212.888 38.928 212.792ZM34.848 209.496C36.496 209.496 37.696 210.648 37.84 212.296H31.872C32.016 210.648 33.216 209.496 34.848 209.496ZM44.5899 208.52C43.2619 208.52 42.0139 208.936 41.1659 209.656L41.6779 210.504C42.3659 209.896 43.3899 209.512 44.4779 209.512C46.0459 209.512 46.8619 210.296 46.8619 211.736V212.248H44.1899C41.7739 212.248 40.9419 213.336 40.9419 214.632C40.9419 216.088 42.1099 217.08 44.0139 217.08C45.4059 217.08 46.3979 216.552 46.9099 215.688V217H47.9979V211.784C47.9979 209.608 46.7659 208.52 44.5899 208.52ZM44.1899 216.184C42.8459 216.184 42.0619 215.576 42.0619 214.6C42.0619 213.736 42.5899 213.096 44.2219 213.096H46.8619V214.472C46.4139 215.576 45.4699 216.184 44.1899 216.184ZM55.7554 215.672C55.4354 215.96 54.9714 216.104 54.5074 216.104C53.5634 216.104 53.0514 215.56 53.0514 214.568V209.544H55.6114V208.584H53.0514V206.744H51.9154V208.584H50.4114V209.544H51.9154V214.632C51.9154 216.184 52.7954 217.08 54.3794 217.08C55.0354 217.08 55.7074 216.888 56.1554 216.488L55.7554 215.672ZM59.1476 215.336C58.6676 215.336 58.2996 215.704 58.2996 216.2C58.2996 216.616 58.5396 216.92 58.8756 217.016L58.3316 219.336H59.0996L59.7716 217.128C59.9316 216.68 59.9956 216.472 59.9956 216.2C59.9956 215.72 59.6436 215.336 59.1476 215.336ZM70.1338 217.08C72.3258 217.08 73.6058 216.136 73.6058 214.68C73.6058 211.448 68.1498 213.16 68.1498 210.888C68.1498 210.088 68.8218 209.496 70.3418 209.496C71.2058 209.496 72.0858 209.704 72.8218 210.216L73.3178 209.304C72.6138 208.824 71.4298 208.52 70.3418 208.52C68.1978 208.52 67.0138 209.544 67.0138 210.92C67.0138 214.248 72.4698 212.52 72.4698 214.712C72.4698 215.544 71.8138 216.088 70.2138 216.088C69.0298 216.088 67.8938 215.672 67.2218 215.144L66.7098 216.04C67.3978 216.632 68.7418 217.08 70.1338 217.08ZM76.3459 217H77.4819V205.128H76.3459V217ZM88.6267 212.792C88.6267 210.264 86.9148 208.52 84.5467 208.52C82.1787 208.52 80.4347 210.296 80.4347 212.792C80.4347 215.288 82.2267 217.08 84.8507 217.08C86.1788 217.08 87.3467 216.6 88.0988 215.704L87.4587 214.968C86.8187 215.704 85.9067 216.072 84.8827 216.072C83.0427 216.072 81.6987 214.904 81.5707 213.144H88.6108C88.6108 213.016 88.6267 212.888 88.6267 212.792ZM84.5467 209.496C86.1947 209.496 87.3948 210.648 87.5387 212.296H81.5707C81.7147 210.648 82.9147 209.496 84.5467 209.496ZM98.923 212.792C98.923 210.264 97.211 208.52 94.843 208.52C92.475 208.52 90.731 210.296 90.731 212.792C90.731 215.288 92.523 217.08 95.147 217.08C96.475 217.08 97.643 216.6 98.395 215.704L97.755 214.968C97.115 215.704 96.203 216.072 95.179 216.072C93.339 216.072 91.995 214.904 91.867 213.144H98.907C98.907 213.016 98.923 212.888 98.923 212.792ZM94.843 209.496C96.491 209.496 97.691 210.648 97.835 212.296H91.867C92.011 210.648 93.211 209.496 94.843 209.496ZM106.211 208.52C104.819 208.52 103.651 209.128 102.963 210.248V208.584H101.875V220.104H103.011V215.416C103.715 216.504 104.867 217.08 106.211 217.08C108.611 217.08 110.403 215.352 110.403 212.792C110.403 210.248 108.611 208.52 106.211 208.52ZM106.131 216.072C104.339 216.072 102.995 214.76 102.995 212.792C102.995 210.84 104.339 209.512 106.131 209.512C107.907 209.512 109.267 210.84 109.267 212.792C109.267 214.76 107.907 216.072 106.131 216.072ZM113.253 215.336C112.773 215.336 112.405 215.704 112.405 216.2C112.405 216.616 112.645 216.92 112.981 217.016L112.437 219.336H113.205L113.877 217.128C114.037 216.68 114.101 216.472 114.101 216.2C114.101 215.72 113.749 215.336 113.253 215.336ZM126.319 208.52C124.975 208.52 123.823 209.096 123.119 210.184V205.128H121.983V217H123.071V215.336C123.759 216.472 124.927 217.08 126.319 217.08C128.719 217.08 130.511 215.336 130.511 212.792C130.511 210.248 128.719 208.52 126.319 208.52ZM126.239 216.072C124.447 216.072 123.103 214.76 123.103 212.792C123.103 210.824 124.447 209.512 126.239 209.512C128.015 209.512 129.375 210.824 129.375 212.792C129.375 214.76 128.015 216.072 126.239 216.072ZM134.554 210.232V208.584H133.466V217H134.602V212.712C134.602 210.728 135.674 209.608 137.434 209.608C137.515 209.608 137.61 209.624 137.707 209.624V208.52C136.155 208.52 135.082 209.112 134.554 210.232ZM147.669 212.792C147.669 210.264 145.957 208.52 143.589 208.52C141.221 208.52 139.477 210.296 139.477 212.792C139.477 215.288 141.269 217.08 143.893 217.08C145.221 217.08 146.389 216.6 147.141 215.704L146.501 214.968C145.861 215.704 144.949 216.072 143.925 216.072C142.085 216.072 140.741 214.904 140.613 213.144H147.653C147.653 213.016 147.669 212.888 147.669 212.792ZM143.589 209.496C145.237 209.496 146.437 210.648 146.581 212.296H140.613C140.757 210.648 141.957 209.496 143.589 209.496ZM153.331 208.52C152.003 208.52 150.755 208.936 149.907 209.656L150.419 210.504C151.107 209.896 152.131 209.512 153.219 209.512C154.787 209.512 155.603 210.296 155.603 211.736V212.248H152.931C150.515 212.248 149.683 213.336 149.683 214.632C149.683 216.088 150.851 217.08 152.755 217.08C154.147 217.08 155.139 216.552 155.651 215.688V217H156.739V211.784C156.739 209.608 155.507 208.52 153.331 208.52ZM152.931 216.184C151.587 216.184 150.803 215.576 150.803 214.6C150.803 213.736 151.331 213.096 152.963 213.096H155.603V214.472C155.155 215.576 154.211 216.184 152.931 216.184ZM164.497 215.672C164.177 215.96 163.713 216.104 163.249 216.104C162.305 216.104 161.793 215.56 161.793 214.568V209.544H164.353V208.584H161.793V206.744H160.657V208.584H159.153V209.544H160.657V214.632C160.657 216.184 161.537 217.08 163.121 217.08C163.777 217.08 164.449 216.888 164.897 216.488L164.497 215.672ZM171.893 208.52C170.469 208.52 169.365 209.08 168.741 210.056V205.128H167.605V217H168.741V212.584C168.741 210.664 169.877 209.544 171.685 209.544C173.285 209.544 174.213 210.456 174.213 212.232V217H175.349V212.12C175.349 209.704 173.941 208.52 171.893 208.52ZM186.448 212.792C186.448 210.264 184.736 208.52 182.368 208.52C180 208.52 178.256 210.296 178.256 212.792C178.256 215.288 180.048 217.08 182.672 217.08C184 217.08 185.168 216.6 185.92 215.704L185.28 214.968C184.64 215.704 183.728 216.072 182.704 216.072C180.864 216.072 179.52 214.904 179.392 213.144H186.432C186.432 213.016 186.448 212.888 186.448 212.792ZM182.368 209.496C184.016 209.496 185.216 210.648 185.36 212.296H179.392C179.536 210.648 180.736 209.496 182.368 209.496ZM189.528 215.336C189.048 215.336 188.68 215.704 188.68 216.2C188.68 216.616 188.92 216.92 189.256 217.016L188.712 219.336H189.48L190.152 217.128C190.312 216.68 190.376 216.472 190.376 216.2C190.376 215.72 190.024 215.336 189.528 215.336ZM201.202 208.52C199.874 208.52 198.626 208.936 197.778 209.656L198.29 210.504C198.978 209.896 200.002 209.512 201.09 209.512C202.658 209.512 203.474 210.296 203.474 211.736V212.248H200.802C198.386 212.248 197.554 213.336 197.554 214.632C197.554 216.088 198.722 217.08 200.626 217.08C202.018 217.08 203.01 216.552 203.522 215.688V217H204.61V211.784C204.61 209.608 203.378 208.52 201.202 208.52ZM200.802 216.184C199.458 216.184 198.674 215.576 198.674 214.6C198.674 213.736 199.202 213.096 200.834 213.096H203.474V214.472C203.026 215.576 202.082 216.184 200.802 216.184ZM212.624 208.52C211.168 208.52 210.032 209.112 209.424 210.136V208.584H208.336V217H209.472V212.584C209.472 210.664 210.608 209.544 212.416 209.544C214.016 209.544 214.944 210.456 214.944 212.232V217H216.08V212.12C216.08 209.704 214.672 208.52 212.624 208.52ZM226.379 205.128V210.184C225.675 209.096 224.523 208.52 223.179 208.52C220.779 208.52 218.987 210.248 218.987 212.792C218.987 215.336 220.779 217.08 223.179 217.08C224.571 217.08 225.739 216.472 226.427 215.336V217H227.515V205.128H226.379ZM223.275 216.072C221.483 216.072 220.139 214.76 220.139 212.792C220.139 210.824 221.483 209.512 223.275 209.512C225.051 209.512 226.395 210.824 226.395 212.792C226.395 214.76 225.051 216.072 223.275 216.072ZM236.147 217H237.283V205.128H236.147V217ZM241.659 206.744C242.139 206.744 242.491 206.376 242.491 205.912C242.491 205.48 242.123 205.128 241.659 205.128C241.195 205.128 240.827 205.496 240.827 205.928C240.827 206.376 241.195 206.744 241.659 206.744ZM241.083 217H242.219V208.584H241.083V217ZM251.972 208.584L248.788 215.752L245.636 208.584H244.452L248.18 217H249.348L253.092 208.584H251.972ZM262.442 212.792C262.442 210.264 260.73 208.52 258.362 208.52C255.994 208.52 254.25 210.296 254.25 212.792C254.25 215.288 256.042 217.08 258.666 217.08C259.994 217.08 261.162 216.6 261.914 215.704L261.274 214.968C260.634 215.704 259.722 216.072 258.698 216.072C256.858 216.072 255.514 214.904 255.386 213.144H262.426C262.426 213.016 262.442 212.888 262.442 212.792ZM258.362 209.496C260.01 209.496 261.21 210.648 261.354 212.296H255.386C255.53 210.648 256.73 209.496 258.362 209.496ZM273.661 217.08C276.125 217.08 277.933 215.288 277.933 212.792C277.933 210.296 276.125 208.52 273.661 208.52C271.197 208.52 269.373 210.296 269.373 212.792C269.373 215.288 271.197 217.08 273.661 217.08ZM273.661 216.072C271.869 216.072 270.525 214.76 270.525 212.792C270.525 210.824 271.869 209.512 273.661 209.512C275.453 209.512 276.781 210.824 276.781 212.792C276.781 214.76 275.453 216.072 273.661 216.072ZM285.181 208.52C283.725 208.52 282.589 209.112 281.981 210.136V208.584H280.893V217H282.029V212.584C282.029 210.664 283.165 209.544 284.973 209.544C286.573 209.544 287.501 210.456 287.501 212.232V217H288.637V212.12C288.637 209.704 287.229 208.52 285.181 208.52ZM35.616 239.672C35.296 239.96 34.832 240.104 34.368 240.104C33.424 240.104 32.912 239.56 32.912 238.568V233.544H35.472V232.584H32.912V230.744H31.776V232.584H30.272V233.544H31.776V238.632C31.776 240.184 32.656 241.08 34.24 241.08C34.896 241.08 35.568 240.888 36.016 240.488L35.616 239.672ZM43.012 232.52C41.588 232.52 40.484 233.08 39.86 234.056V229.128H38.724V241H39.86V236.584C39.86 234.664 40.996 233.544 42.804 233.544C44.404 233.544 45.332 234.456 45.332 236.232V241H46.468V236.12C46.468 233.704 45.06 232.52 43.012 232.52ZM57.5674 236.792C57.5674 234.264 55.8554 232.52 53.4874 232.52C51.1194 232.52 49.3754 234.296 49.3754 236.792C49.3754 239.288 51.1674 241.08 53.7914 241.08C55.1194 241.08 56.2874 240.6 57.0394 239.704L56.3994 238.968C55.7594 239.704 54.8474 240.072 53.8234 240.072C51.9834 240.072 50.6394 238.904 50.5114 237.144H57.5514C57.5514 237.016 57.5674 236.888 57.5674 236.792ZM53.4874 233.496C55.1354 233.496 56.3354 234.648 56.4794 236.296H50.5114C50.6554 234.648 51.8554 233.496 53.4874 233.496ZM62.7756 241.08C64.9676 241.08 66.2476 240.136 66.2476 238.68C66.2476 235.448 60.7916 237.16 60.7916 234.888C60.7916 234.088 61.4636 233.496 62.9836 233.496C63.8476 233.496 64.7276 233.704 65.4636 234.216L65.9596 233.304C65.2556 232.824 64.0716 232.52 62.9836 232.52C60.8396 232.52 59.6556 233.544 59.6556 234.92C59.6556 238.248 65.1116 236.52 65.1116 238.712C65.1116 239.544 64.4556 240.088 62.8556 240.088C61.6716 240.088 60.5356 239.672 59.8636 239.144L59.3516 240.04C60.0396 240.632 61.3836 241.08 62.7756 241.08ZM76.3318 236.792C76.3318 234.264 74.6198 232.52 72.2518 232.52C69.8838 232.52 68.1398 234.296 68.1398 236.792C68.1398 239.288 69.9318 241.08 72.5558 241.08C73.8838 241.08 75.0518 240.6 75.8038 239.704L75.1638 238.968C74.5238 239.704 73.6118 240.072 72.5878 240.072C70.7478 240.072 69.4038 238.904 69.2758 237.144H76.3158C76.3158 237.016 76.3318 236.888 76.3318 236.792ZM72.2518 233.496C73.8998 233.496 75.0998 234.648 75.2438 236.296H69.2758C69.4198 234.648 70.6198 233.496 72.2518 233.496ZM88.4475 232.52C87.0555 232.52 85.8875 233.128 85.1995 234.248V232.584H84.1115V244.104H85.2475V239.416C85.9515 240.504 87.1035 241.08 88.4475 241.08C90.8475 241.08 92.6395 239.352 92.6395 236.792C92.6395 234.248 90.8475 232.52 88.4475 232.52ZM88.3675 240.072C86.5755 240.072 85.2315 238.76 85.2315 236.792C85.2315 234.84 86.5755 233.512 88.3675 233.512C90.1435 233.512 91.5035 234.84 91.5035 236.792C91.5035 238.76 90.1435 240.072 88.3675 240.072ZM96.1713 230.744C96.6513 230.744 97.0033 230.376 97.0033 229.912C97.0033 229.48 96.6353 229.128 96.1713 229.128C95.7073 229.128 95.3393 229.496 95.3393 229.928C95.3393 230.376 95.7073 230.744 96.1713 230.744ZM95.5953 241H96.7313V232.584H95.5953V241ZM100.532 241H101.668V229.128H100.532V241ZM105.469 241H106.605V229.128H105.469V241ZM113.846 241.08C116.31 241.08 118.118 239.288 118.118 236.792C118.118 234.296 116.31 232.52 113.846 232.52C111.382 232.52 109.558 234.296 109.558 236.792C109.558 239.288 111.382 241.08 113.846 241.08ZM113.846 240.072C112.054 240.072 110.71 238.76 110.71 236.792C110.71 234.824 112.054 233.512 113.846 233.512C115.638 233.512 116.966 234.824 116.966 236.792C116.966 238.76 115.638 240.072 113.846 240.072ZM132.155 232.584L129.483 239.736L126.795 232.584H125.819L123.115 239.736L120.475 232.584H119.387L122.555 241H123.627L126.283 234.104L128.939 241H130.011L133.195 232.584H132.155ZM137.708 241.08C139.9 241.08 141.18 240.136 141.18 238.68C141.18 235.448 135.724 237.16 135.724 234.888C135.724 234.088 136.396 233.496 137.916 233.496C138.78 233.496 139.66 233.704 140.396 234.216L140.892 233.304C140.188 232.824 139.004 232.52 137.916 232.52C135.772 232.52 134.588 233.544 134.588 234.92C134.588 238.248 140.044 236.52 140.044 238.712C140.044 239.544 139.388 240.088 137.788 240.088C136.604 240.088 135.468 239.672 134.796 239.144L134.284 240.04C134.972 240.632 136.316 241.08 137.708 241.08ZM144.032 241.08C144.496 241.08 144.896 240.696 144.896 240.2C144.896 239.704 144.496 239.336 144.032 239.336C143.568 239.336 143.184 239.704 143.184 240.2C143.184 240.696 143.568 241.08 144.032 241.08Z" fill="#5A0090"/>
<path d="M43.9997 107.449C44.1502 106.99 44.7994 106.99 44.9499 107.449L47.6117 115.567C47.6791 115.773 47.8707 115.912 48.0868 115.912H56.691C57.1764 115.912 57.3771 116.534 56.9831 116.817L50.03 121.824C49.8532 121.951 49.7792 122.178 49.8471 122.385L52.5048 130.491C52.6555 130.951 52.1302 131.335 51.7375 131.052L44.7669 126.034C44.5924 125.908 44.3572 125.908 44.1826 126.034L37.2121 131.052C36.8194 131.335 36.2941 130.951 36.4448 130.491L39.1025 122.385C39.1704 122.178 39.0964 121.951 38.9195 121.824L31.9665 116.817C31.5725 116.534 31.7732 115.912 32.2586 115.912H40.8627C41.0789 115.912 41.2705 115.773 41.3379 115.567L43.9997 107.449Z" fill="#5A0090" stroke="#5A0090" stroke-width="2.5"/>
<path d="M80.5124 107.449C80.6629 106.99 81.3122 106.99 81.4627 107.449L84.1245 115.567C84.1918 115.773 84.3835 115.912 84.5996 115.912H93.2037C93.6892 115.912 93.8898 116.534 93.4959 116.817L86.5428 121.824C86.366 121.951 86.292 122.178 86.3598 122.385L89.0175 130.491C89.1683 130.951 88.643 131.335 88.2502 131.052L81.2797 126.034C81.1052 125.908 80.8699 125.908 80.6954 126.034L73.7249 131.052C73.3321 131.335 72.8068 130.951 72.9576 130.491L75.6153 122.385C75.6832 122.178 75.6091 121.951 75.4323 121.824L68.4792 116.817C68.0853 116.534 68.2859 115.912 68.7714 115.912H77.3755C77.5916 115.912 77.7833 115.773 77.8506 115.567L80.5124 107.449Z" fill="#5A0090" stroke="#5A0090" stroke-width="2.5"/>
<path d="M117.025 107.449C117.175 106.99 117.825 106.99 117.975 107.449L120.637 115.567C120.704 115.773 120.896 115.912 121.112 115.912H129.716C130.202 115.912 130.402 116.534 130.008 116.817L123.055 121.824C122.878 121.951 122.804 122.178 122.872 122.385L125.53 130.491C125.681 130.951 125.156 131.335 124.763 131.052L117.792 126.034C117.618 125.908 117.382 125.908 117.208 126.034L110.237 131.052C109.845 131.335 109.319 130.951 109.47 130.491L112.128 122.385C112.196 122.178 112.122 121.951 111.945 121.824L104.992 116.817C104.598 116.534 104.798 115.912 105.284 115.912H113.888C114.104 115.912 114.296 115.773 114.363 115.567L117.025 107.449Z" fill="#5A0090" stroke="#5A0090" stroke-width="2.5"/>
<path d="M153.538 107.449C153.688 106.99 154.337 106.99 154.488 107.449L157.15 115.567C157.217 115.773 157.409 115.912 157.625 115.912H166.229C166.714 115.912 166.915 116.534 166.521 116.817L159.568 121.824C159.391 121.951 159.317 122.178 159.385 122.385L162.043 130.491C162.193 130.951 161.668 131.335 161.275 131.052L154.305 126.034C154.13 125.908 153.895 125.908 153.721 126.034L146.75 131.052C146.357 131.335 145.832 130.951 145.983 130.491L148.64 122.385C148.708 122.178 148.634 121.951 148.457 121.824L141.504 116.817C141.11 116.534 141.311 115.912 141.797 115.912H150.401C150.617 115.912 150.808 115.773 150.876 115.567L153.538 107.449Z" fill="#5A0090" stroke="#5A0090" stroke-width="2.5"/>
<path d="M190.05 107.449C190.201 106.99 190.85 106.99 191 107.449L193.662 115.567C193.73 115.773 193.921 115.912 194.137 115.912H202.741C203.227 115.912 203.428 116.534 203.034 116.817L196.081 121.824C195.904 121.951 195.83 122.178 195.898 122.385L198.555 130.491C198.706 130.951 198.181 131.335 197.788 131.052L190.817 126.034C190.643 125.908 190.408 125.908 190.233 126.034L183.263 131.052C182.87 131.335 182.345 130.951 182.495 130.491L185.153 122.385C185.221 122.178 185.147 121.951 184.97 121.824L178.017 116.817C177.623 116.534 177.824 115.912 178.309 115.912H186.913C187.129 115.912 187.321 115.773 187.388 115.567L190.05 107.449Z" fill="#5A0090" stroke="#5A0090" stroke-width="2.5"/>
<circle cx="46.5" cy="311.5" r="16.5" fill="url(#paint0_linear)"/>
<path d="M84.248 318.16C86.712 318.16 88.024 316.864 88.024 314.224V306.8H81.96V308.544H85.944V314.336C85.944 315.712 85.352 316.4 84.2 316.4C83.32 316.4 82.584 315.952 81.976 315.12L80.792 316.544C81.56 317.584 82.84 318.16 84.248 318.16ZM95.2295 318.112C97.8855 318.112 99.7895 316.288 99.7895 313.728C99.7895 311.168 97.8855 309.36 95.2295 309.36C92.6055 309.36 90.6855 311.168 90.6855 313.728C90.6855 316.288 92.6055 318.112 95.2295 318.112ZM95.2295 316.4C93.7895 316.4 92.7015 315.36 92.7015 313.728C92.7015 312.096 93.7895 311.056 95.2295 311.056C96.6855 311.056 97.7735 312.096 97.7735 313.728C97.7735 315.36 96.6855 316.4 95.2295 316.4ZM105.497 309.36C104.121 309.36 102.793 309.712 101.881 310.416L102.665 311.872C103.305 311.344 104.297 311.024 105.257 311.024C106.681 311.024 107.385 311.712 107.385 312.88V313.008H105.177C102.585 313.008 101.625 314.128 101.625 315.552C101.625 317.04 102.857 318.112 104.809 318.112C106.089 318.112 107.017 317.696 107.497 316.96V318H109.385V312.992C109.385 310.528 107.961 309.36 105.497 309.36ZM105.225 316.656C104.201 316.656 103.593 316.192 103.593 315.472C103.593 314.848 103.961 314.336 105.321 314.336H107.385V315.328C107.049 316.208 106.201 316.656 105.225 316.656ZM117.439 309.36C116.191 309.36 115.151 309.776 114.495 310.56V309.456H112.591V318H114.591V313.68C114.591 311.968 115.551 311.104 116.975 311.104C118.255 311.104 119.007 311.84 119.007 313.36V318H121.007V313.104C121.007 310.528 119.487 309.36 117.439 309.36ZM129.033 309.36C127.785 309.36 126.745 309.776 126.089 310.56V309.456H124.185V318H126.185V313.68C126.185 311.968 127.145 311.104 128.569 311.104C129.849 311.104 130.601 311.84 130.601 313.36V318H132.601V313.104C132.601 310.528 131.081 309.36 129.033 309.36ZM139.042 309.36C137.666 309.36 136.338 309.712 135.426 310.416L136.21 311.872C136.85 311.344 137.842 311.024 138.802 311.024C140.226 311.024 140.93 311.712 140.93 312.88V313.008H138.722C136.13 313.008 135.17 314.128 135.17 315.552C135.17 317.04 136.402 318.112 138.354 318.112C139.634 318.112 140.562 317.696 141.042 316.96V318H142.93V312.992C142.93 310.528 141.506 309.36 139.042 309.36ZM138.77 316.656C137.746 316.656 137.138 316.192 137.138 315.472C137.138 314.848 137.506 314.336 138.866 314.336H140.93V315.328C140.594 316.208 139.746 316.656 138.77 316.656ZM163.646 318L163.63 306.8H161.918L157.55 314.224L153.102 306.8H151.39V318H153.374V310.672L157.054 316.72H157.982L161.662 310.576L161.678 318H163.646ZM167.76 318.112C168.48 318.112 169.072 317.552 169.072 316.784C169.072 315.984 168.48 315.456 167.76 315.456C167.04 315.456 166.448 315.984 166.448 316.784C166.448 317.552 167.04 318.112 167.76 318.112Z" fill="#5A0090"/>
<defs>
<linearGradient id="paint0_linear" x1="46.5" y1="295" x2="46.5" y2="328" gradientUnits="userSpaceOnUse">
<stop offset="0.234375" stop-color="#DC4EFF" stop-opacity="0.83"/>
<stop offset="0.713542" stop-color="#8500C4"/>
</linearGradient>
</defs>
</svg>
