<svg width="350" height="59" viewBox="0 0 350 59" fill="none" xmlns="http://www.w3.org/2000/svg">
<rect width="350" height="59" rx="10" fill="#5A0090"/>
<path d="M150.288 36.19C153.936 36.19 155.665 34.366 155.665 32.238C155.665 27.355 147.78 29.198 147.78 26.367C147.78 25.36 148.616 24.562 150.668 24.562C151.827 24.562 153.138 24.904 154.335 25.607L155.114 23.688C153.955 22.928 152.283 22.51 150.687 22.51C147.039 22.51 145.329 24.334 145.329 26.481C145.329 31.421 153.233 29.54 153.233 32.409C153.233 33.397 152.359 34.138 150.288 34.138C148.654 34.138 146.963 33.53 145.899 32.675L145.044 34.594C146.146 35.544 148.217 36.19 150.288 36.19ZM169.173 22.7V28.191H162.295V22.7H159.825V36H162.295V30.3H169.173V36H171.643V22.7H169.173ZM183.129 36.19C187.252 36.19 190.292 33.302 190.292 29.35C190.292 25.398 187.252 22.51 183.129 22.51C179.006 22.51 175.966 25.417 175.966 29.35C175.966 33.283 179.006 36.19 183.129 36.19ZM183.129 34.024C180.45 34.024 178.455 32.067 178.455 29.35C178.455 26.633 180.45 24.676 183.129 24.676C185.808 24.676 187.803 26.633 187.803 29.35C187.803 32.067 185.808 34.024 183.129 34.024ZM200.093 22.7H194.621V36H197.091V32.162H200.093C203.589 32.162 205.755 30.357 205.755 27.431C205.755 24.486 203.589 22.7 200.093 22.7ZM199.979 30.072H197.091V24.79H199.979C202.145 24.79 203.266 25.759 203.266 27.431C203.266 29.103 202.145 30.072 199.979 30.072Z" fill="white"/>
</svg>
