<svg width="97" height="94" viewBox="0 0 97 94" fill="none" xmlns="http://www.w3.org/2000/svg">
<rect x="0.736694" y="0.521973" width="95.6124" height="92.9557" rx="10" fill="#F3F3F3"/>
<path d="M48.8276 57.4084C46.1183 57.4084 43.5796 56.8964 41.2116 55.8724C40.9556 55.7657 40.7423 55.595 40.5716 55.3604C40.401 55.1044 40.3156 54.8377 40.3156 54.5604C40.3156 54.1977 40.433 53.8884 40.6676 53.6324C40.9236 53.355 41.2436 53.2164 41.6276 53.2164C41.841 53.2164 42.0436 53.259 42.2356 53.3444C44.1983 54.219 46.2996 54.6564 48.5396 54.6564C52.273 54.6564 54.1396 53.4297 54.1396 50.9764C54.1396 50.3364 53.8943 49.803 53.4036 49.3764C52.9343 48.9497 52.3476 48.619 51.6436 48.3844C50.9396 48.1284 49.937 47.8297 48.6356 47.4884C46.9076 47.0404 45.5103 46.6137 44.4436 46.2084C43.377 45.7817 42.4596 45.1524 41.6916 44.3204C40.9236 43.4884 40.5396 42.379 40.5396 40.9924C40.5396 39.7764 40.8596 38.6777 41.4996 37.6964C42.1396 36.6937 43.0783 35.9044 44.3156 35.3284C45.5743 34.731 47.0783 34.4324 48.8276 34.4324C51.1743 34.4324 53.297 34.7844 55.1956 35.4884C55.793 35.7017 56.0916 36.1284 56.0916 36.7684C56.0916 37.1097 55.9743 37.419 55.7396 37.6964C55.505 37.9737 55.1956 38.1124 54.8116 38.1124C54.6836 38.1124 54.513 38.0697 54.2996 37.9844C52.6356 37.4084 50.9183 37.1204 49.1476 37.1204C47.4623 37.1204 46.0863 37.4404 45.0196 38.0804C43.9743 38.7204 43.4516 39.6164 43.4516 40.7684C43.4516 41.5364 43.697 42.1657 44.1876 42.6564C44.6996 43.1257 45.329 43.499 46.0756 43.7764C46.8436 44.0324 47.8783 44.3097 49.1796 44.6084C50.865 45.0137 52.2196 45.419 53.2436 45.8244C54.289 46.2297 55.1743 46.859 55.8996 47.7124C56.6463 48.5657 57.0196 49.7177 57.0196 51.1684C57.0196 52.363 56.6783 53.4404 55.9956 54.4004C55.313 55.339 54.353 56.075 53.1156 56.6084C51.8783 57.1417 50.449 57.4084 48.8276 57.4084Z" fill="black"/>
</svg>
