<svg width="175" height="30" viewBox="0 0 175 30" fill="none" xmlns="http://www.w3.org/2000/svg">
<path d="M13.9997 2.44906C14.1502 1.9901 14.7994 1.9901 14.9499 2.44906L17.6117 10.5674C17.6791 10.7728 17.8707 10.9116 18.0868 10.9116H26.691C27.1764 10.9116 27.3771 11.5338 26.9831 11.8174L20.03 16.8236C19.8532 16.9509 19.7792 17.178 19.8471 17.3851L22.5048 25.4908C22.6555 25.9507 22.1302 26.3351 21.7375 26.0524L14.7669 21.0336C14.5924 20.908 14.3572 20.908 14.1826 21.0336L7.2121 26.0524C6.81936 26.3351 6.29406 25.9507 6.44484 25.4908L9.10251 17.3851C9.17039 17.178 9.09638 16.9509 8.91954 16.8236L1.96648 11.8174C1.57251 11.5338 1.77317 10.9116 2.25863 10.9116H10.8627C11.0789 10.9116 11.2705 10.7728 11.3379 10.5674L13.9997 2.44906Z" fill="#5A0090" stroke="#5A0090" stroke-width="2.5"/>
<path d="M50.5124 2.44906C50.6629 1.9901 51.3122 1.9901 51.4627 2.44906L54.1245 10.5674C54.1918 10.7728 54.3835 10.9116 54.5996 10.9116H63.2037C63.6892 10.9116 63.8898 11.5338 63.4959 11.8174L56.5428 16.8236C56.366 16.9509 56.292 17.178 56.3598 17.3851L59.0175 25.4908C59.1683 25.9507 58.643 26.3351 58.2502 26.0524L51.2797 21.0336C51.1052 20.908 50.8699 20.908 50.6954 21.0336L43.7249 26.0524C43.3321 26.3351 42.8068 25.9507 42.9576 25.4908L45.6153 17.3851C45.6832 17.178 45.6091 16.9509 45.4323 16.8236L38.4792 11.8174C38.0853 11.5338 38.2859 10.9116 38.7714 10.9116H47.3755C47.5916 10.9116 47.7833 10.7728 47.8506 10.5674L50.5124 2.44906Z" fill="#5A0090" stroke="#5A0090" stroke-width="2.5"/>
<path d="M87.025 2.44906C87.1754 1.9901 87.8247 1.9901 87.9752 2.44906L90.637 10.5674C90.7043 10.7728 90.896 10.9116 91.1121 10.9116H99.7162C100.202 10.9116 100.402 11.5338 100.008 11.8174L93.0553 16.8236C92.8785 16.9509 92.8045 17.178 92.8724 17.3851L95.53 25.4908C95.6808 25.9507 95.1555 26.3351 94.7628 26.0524L87.7922 21.0336C87.6177 20.908 87.3824 20.908 87.2079 21.0336L80.2374 26.0524C79.8446 26.3351 79.3193 25.9507 79.4701 25.4908L82.1278 17.3851C82.1957 17.178 82.1216 16.9509 81.9448 16.8236L74.9917 11.8174C74.5978 11.5338 74.7984 10.9116 75.2839 10.9116H83.888C84.1041 10.9116 84.2958 10.7728 84.3631 10.5674L87.025 2.44906Z" fill="#5A0090" stroke="#5A0090" stroke-width="2.5"/>
<path d="M123.538 2.44906C123.688 1.9901 124.337 1.9901 124.488 2.44906L127.15 10.5674C127.217 10.7728 127.409 10.9116 127.625 10.9116H136.229C136.714 10.9116 136.915 11.5338 136.521 11.8174L129.568 16.8236C129.391 16.9509 129.317 17.178 129.385 17.3851L132.043 25.4908C132.193 25.9507 131.668 26.3351 131.275 26.0524L124.305 21.0336C124.13 20.908 123.895 20.908 123.721 21.0336L116.75 26.0524C116.357 26.3351 115.832 25.9507 115.983 25.4908L118.64 17.3851C118.708 17.178 118.634 16.9509 118.457 16.8236L111.504 11.8174C111.11 11.5338 111.311 10.9116 111.797 10.9116H120.401C120.617 10.9116 120.808 10.7728 120.876 10.5674L123.538 2.44906Z" fill="#5A0090" stroke="#5A0090" stroke-width="2.5"/>
<path d="M160.05 2.44906C160.201 1.9901 160.85 1.9901 161 2.44906L163.662 10.5674C163.73 10.7728 163.921 10.9116 164.137 10.9116H172.741C173.227 10.9116 173.428 11.5338 173.034 11.8174L166.081 16.8236C165.904 16.9509 165.83 17.178 165.898 17.3851L168.555 25.4908C168.706 25.9507 168.181 26.3351 167.788 26.0524L160.817 21.0336C160.643 20.908 160.408 20.908 160.233 21.0336L153.263 26.0524C152.87 26.3351 152.345 25.9507 152.495 25.4908L155.153 17.3851C155.221 17.178 155.147 16.9509 154.97 16.8236L148.017 11.8174C147.623 11.5338 147.824 10.9116 148.309 10.9116H156.913C157.129 10.9116 157.321 10.7728 157.388 10.5674L160.05 2.44906Z" fill="#5A0090" stroke="#5A0090" stroke-width="2.5"/>
</svg>
